%TF.GenerationSoftware,KiCad,Pcbnew,7.0.9*%
%TF.CreationDate,2025-01-08T15:48:21+01:00*%
%TF.ProjectId,DB-radar,44422d72-6164-4617-922e-6b696361645f,rev?*%
%TF.SameCoordinates,Original*%
%TF.FileFunction,Plated,1,4,PTH,Mixed*%
%TF.FilePolarity,Positive*%
%FSLAX46Y46*%
G04 Gerber Fmt 4.6, Leading zero omitted, Abs format (unit mm)*
G04 Created by KiCad (PCBNEW 7.0.9) date 2025-01-08 15:48:21*
%MOMM*%
%LPD*%
G01*
G04 APERTURE LIST*
%TA.AperFunction,ViaDrill*%
%ADD10C,0.400000*%
%TD*%
G04 aperture for slot hole*
%TA.AperFunction,ComponentDrill*%
%ADD11O,0.600000X1.700000*%
%TD*%
G04 aperture for slot hole*
%TA.AperFunction,ComponentDrill*%
%ADD12O,0.600000X1.200000*%
%TD*%
G04 APERTURE END LIST*
D10*
X73152000Y-131064000D03*
X73660000Y-119888000D03*
X75692000Y-130048000D03*
X75692000Y-131064000D03*
X76722883Y-128427037D03*
X77216000Y-125984000D03*
X77708983Y-132107214D03*
X78740000Y-109728000D03*
X78740000Y-142240000D03*
X79756000Y-118364000D03*
X80772000Y-113792000D03*
X80772000Y-140208000D03*
X81788000Y-123444000D03*
X82804000Y-143764000D03*
X83312000Y-106172000D03*
X83312000Y-140716000D03*
X84836000Y-136652000D03*
X84963000Y-120969000D03*
X85344000Y-128016000D03*
X86233000Y-120969000D03*
X87503000Y-120969000D03*
X88900000Y-130556000D03*
X90043000Y-120969000D03*
X90424000Y-105156000D03*
X90424000Y-148844000D03*
X91313000Y-120969000D03*
X91440000Y-135128000D03*
X91725002Y-143831541D03*
X91948000Y-110236000D03*
X91948000Y-152908000D03*
X92964000Y-123952000D03*
X93789174Y-154752750D03*
X93980000Y-138684000D03*
X94996000Y-144780000D03*
X94996000Y-150876000D03*
X95504000Y-110236000D03*
X95871861Y-115481438D03*
X96012000Y-103632000D03*
X97536000Y-108712000D03*
X97536000Y-112776000D03*
X97758274Y-120104500D03*
X98044000Y-116840000D03*
X98044000Y-142240000D03*
X99060000Y-125476000D03*
X99568000Y-123952000D03*
X99568000Y-143764000D03*
X101092000Y-115824000D03*
X101092000Y-124968000D03*
X101600000Y-107696000D03*
X101600000Y-113792000D03*
X101600000Y-120104500D03*
X101600000Y-146304000D03*
X101600000Y-152250500D03*
X102108000Y-99060000D03*
X102118858Y-129724500D03*
X102616000Y-102108000D03*
X103632000Y-130048000D03*
X104140000Y-129032000D03*
X104648000Y-100076000D03*
X104648000Y-121350498D03*
X104668372Y-126612910D03*
X105125500Y-131572000D03*
X105664000Y-132588000D03*
X106013500Y-121920000D03*
X106680000Y-145288000D03*
X106953160Y-115750682D03*
X107188000Y-126492000D03*
X107188000Y-135128000D03*
X107696000Y-101600000D03*
X108712000Y-104140000D03*
X108712000Y-105156000D03*
X108712000Y-113792000D03*
X109220000Y-100076000D03*
X109220000Y-135128000D03*
X109322312Y-121333159D03*
X109728000Y-153416000D03*
X111252000Y-104140000D03*
X111252000Y-141072264D03*
X111566750Y-143932890D03*
X111764299Y-124455701D03*
X112268000Y-110744000D03*
X112776000Y-100076000D03*
X112776000Y-133096000D03*
X112776000Y-139192000D03*
X113221107Y-115765545D03*
X113792000Y-122428000D03*
X115044652Y-126628853D03*
X115315999Y-121108612D03*
X115824000Y-102108000D03*
X116332000Y-114300000D03*
X116332000Y-134620000D03*
X116840000Y-143256000D03*
X117856000Y-127508000D03*
X117856000Y-136144000D03*
X118114205Y-111124890D03*
X118299000Y-122555000D03*
X118364000Y-109728000D03*
X118872000Y-118364000D03*
X118872000Y-123952000D03*
X119236942Y-104492107D03*
X120214944Y-148604607D03*
X120396000Y-121412000D03*
X120904000Y-131572000D03*
X121412000Y-107188000D03*
X121770521Y-127485162D03*
X122936000Y-121412000D03*
X123040587Y-145564656D03*
X123157884Y-119346778D03*
X123444000Y-132588000D03*
X123951749Y-117122364D03*
X123952000Y-137668000D03*
X124460000Y-127000000D03*
X124968000Y-123444000D03*
X125476000Y-136144000D03*
X125984000Y-119380000D03*
X125984000Y-128524000D03*
X125984000Y-131572000D03*
X126026297Y-139931568D03*
X127508000Y-115824000D03*
X128524000Y-135128000D03*
D11*
%TO.C,J1*%
X97280000Y-151384000D03*
D12*
X97280000Y-155564000D03*
D11*
X105920000Y-151384000D03*
D12*
X105920000Y-155564000D03*
M02*
