%TF.GenerationSoftware,KiCad,Pcbnew,7.0.9*%
%TF.CreationDate,2025-01-08T15:48:33+01:00*%
%TF.ProjectId,DB-radar,44422d72-6164-4617-922e-6b696361645f,rev?*%
%TF.SameCoordinates,Original*%
%TF.FileFunction,Copper,L3,Inr*%
%TF.FilePolarity,Positive*%
%FSLAX46Y46*%
G04 Gerber Fmt 4.6, Leading zero omitted, Abs format (unit mm)*
G04 Created by KiCad (PCBNEW 7.0.9) date 2025-01-08 15:48:33*
%MOMM*%
%LPD*%
G01*
G04 APERTURE LIST*
%TA.AperFunction,ComponentPad*%
%ADD10O,1.000000X1.600000*%
%TD*%
%TA.AperFunction,ComponentPad*%
%ADD11O,1.000000X2.100000*%
%TD*%
%TA.AperFunction,ViaPad*%
%ADD12C,0.800000*%
%TD*%
%TA.AperFunction,Conductor*%
%ADD13C,0.500000*%
%TD*%
%TA.AperFunction,Conductor*%
%ADD14C,0.250000*%
%TD*%
G04 APERTURE END LIST*
D10*
%TO.N,GND*%
%TO.C,J1*%
X105920000Y-155564000D03*
D11*
X105920000Y-151384000D03*
D10*
X97280000Y-155564000D03*
D11*
X97280000Y-151384000D03*
%TD*%
D12*
%TO.N,GND*%
X81788000Y-123444000D03*
X123444000Y-132588000D03*
X125984000Y-119380000D03*
%TO.N,BAT+*%
X112776000Y-100076000D03*
X98044000Y-142240000D03*
X115044652Y-126628853D03*
%TO.N,-BATT*%
X95871861Y-115481438D03*
%TO.N,GND*%
X128524000Y-135128000D03*
X112776000Y-133096000D03*
X123951749Y-117122364D03*
X73660000Y-119888000D03*
X122936000Y-121412000D03*
X115824000Y-102108000D03*
X104668372Y-126612910D03*
X109322312Y-121333159D03*
X79756000Y-118364000D03*
X91948000Y-152908000D03*
X119236942Y-104492107D03*
X97536000Y-108712000D03*
X78740000Y-109728000D03*
X120396000Y-121412000D03*
X108712000Y-113792000D03*
X108712000Y-105156000D03*
X107188000Y-126492000D03*
X127508000Y-115824000D03*
X99568000Y-143764000D03*
X120904000Y-131572000D03*
X106680000Y-145288000D03*
X83312000Y-106172000D03*
X94996000Y-150876000D03*
X108712000Y-104140000D03*
X121412000Y-107188000D03*
X73152000Y-131064000D03*
X83312000Y-140716000D03*
X82804000Y-143764000D03*
X109220000Y-135128000D03*
X96012000Y-103632000D03*
X102108000Y-99060000D03*
X118114205Y-111124890D03*
X125984000Y-131572000D03*
X125476000Y-136144000D03*
X109220000Y-100076000D03*
X115315999Y-121108612D03*
X116332000Y-134620000D03*
X78740000Y-142240000D03*
X116332000Y-114300000D03*
%TO.N,Net-(U2-VCC)*%
X111252000Y-104140000D03*
X98044000Y-116840000D03*
%TO.N,5V*%
X97536000Y-112776000D03*
X94996000Y-144780000D03*
%TO.N,VCC*%
X76722883Y-128427037D03*
X107188000Y-135128000D03*
X113792000Y-122428000D03*
X104648000Y-100076000D03*
X93980000Y-138684000D03*
X77708983Y-132107214D03*
X123157884Y-119346778D03*
X118364000Y-109728000D03*
X84963000Y-120969000D03*
X91440000Y-135128000D03*
X104140000Y-129032000D03*
%TO.N,DTR*%
X120214944Y-148604607D03*
%TO.N,RESET*%
X111252000Y-141072264D03*
X101092000Y-124968000D03*
X123040587Y-145564656D03*
%TO.N,Net-(D1-K)*%
X107696000Y-101600000D03*
X101600000Y-113792000D03*
%TO.N,VCC_bat*%
X111764299Y-124455701D03*
X113221107Y-115765545D03*
%TO.N,Net-(D11-K)*%
X112776000Y-139192000D03*
X116840000Y-143256000D03*
X124460000Y-127000000D03*
X77216000Y-125984000D03*
%TO.N,Net-(D3-A)*%
X126026297Y-139931568D03*
X93789174Y-154752750D03*
X109728000Y-153416000D03*
%TO.N,Net-(D12-K)*%
X124968000Y-123444000D03*
X118872000Y-123952000D03*
X101600000Y-152250500D03*
X80772000Y-113792000D03*
%TO.N,Net-(D13-K)*%
X90424000Y-105156000D03*
X90424000Y-148844000D03*
X125984000Y-128524000D03*
X117856000Y-127508000D03*
%TO.N,Net-(D10-K)*%
X123952000Y-137668000D03*
X80772000Y-140208000D03*
X118299000Y-122555000D03*
X102616000Y-102108000D03*
%TO.N,Net-(D10-A)*%
X75692000Y-131064000D03*
%TO.N,Net-(D11-A)*%
X75692000Y-130048000D03*
%TO.N,Net-(D19-K)*%
X91313000Y-120969000D03*
X112268000Y-110744000D03*
X111566750Y-143932890D03*
%TO.N,Net-(D20-K)*%
X118872000Y-118364000D03*
X86233000Y-120969000D03*
X101600000Y-146304000D03*
%TO.N,Net-(D21-K)*%
X88900000Y-130556000D03*
X91948000Y-110236000D03*
X87503000Y-120969000D03*
X91725002Y-143831541D03*
X121770521Y-127485162D03*
%TO.N,Net-(D22-K)*%
X117856000Y-136144000D03*
X90043000Y-120969000D03*
X101600000Y-107696000D03*
X84836000Y-136652000D03*
%TO.N,RX*%
X99060000Y-125476000D03*
%TO.N,TX*%
X99568000Y-123952000D03*
%TO.N,SCK*%
X105664000Y-132588000D03*
%TO.N,MOSI*%
X103632000Y-130048000D03*
%TO.N,MISO*%
X105125500Y-131572000D03*
%TO.N,Net-(Q1-D12_1)*%
X106953160Y-115750682D03*
X101092000Y-115824000D03*
%TO.N,BUT_3*%
X92964000Y-123952000D03*
%TO.N,LED_PWM*%
X102118858Y-129724500D03*
X95504000Y-110236000D03*
X85344000Y-128016000D03*
%TO.N,A*%
X97758274Y-120104500D03*
%TO.N,B*%
X101600000Y-120104500D03*
%TO.N,C*%
X106013500Y-121920000D03*
%TO.N,D*%
X104648000Y-121350498D03*
%TD*%
D13*
%TO.N,VCC_bat*%
X111760000Y-117226652D02*
X113221107Y-115765545D01*
X111760000Y-124451402D02*
X111760000Y-117226652D01*
X111764299Y-124455701D02*
X111760000Y-124451402D01*
%TO.N,BAT+*%
X98044000Y-142240000D02*
X105969172Y-142240000D01*
X105969172Y-142240000D02*
X115316000Y-132893172D01*
X115316000Y-132893172D02*
X115316000Y-126900201D01*
X115316000Y-126900201D02*
X115044652Y-126628853D01*
%TO.N,5V*%
X95021861Y-115833520D02*
X95504000Y-116315659D01*
X95021861Y-113766139D02*
X95021861Y-115833520D01*
X96012000Y-112776000D02*
X95021861Y-113766139D01*
X95504000Y-144272000D02*
X94996000Y-144780000D01*
X97536000Y-112776000D02*
X96012000Y-112776000D01*
X95504000Y-116315659D02*
X95504000Y-144272000D01*
D14*
%TO.N,Net-(D12-K)*%
X82513000Y-112051000D02*
X98344305Y-112051000D01*
X98344305Y-112051000D02*
X101817000Y-115523695D01*
X118364000Y-128524000D02*
X118872000Y-128016000D01*
X117348000Y-128524000D02*
X118364000Y-128524000D01*
X80772000Y-113792000D02*
X82513000Y-112051000D01*
X118872000Y-128016000D02*
X118872000Y-123952000D01*
X111543000Y-125259000D02*
X115099000Y-125259000D01*
X116840000Y-127000000D02*
X116840000Y-128016000D01*
X115099000Y-125259000D02*
X116840000Y-127000000D01*
X116840000Y-128016000D02*
X117348000Y-128524000D01*
X101817000Y-115523695D02*
X101817000Y-115533000D01*
X101817000Y-115533000D02*
X111543000Y-125259000D01*
%TO.N,Net-(D13-K)*%
X90424000Y-148844000D02*
X100178344Y-148844000D01*
X116898000Y-118042396D02*
X116898000Y-126042000D01*
X117856000Y-127000000D02*
X117856000Y-127508000D01*
X119597000Y-129425344D02*
X125082656Y-129425344D01*
X90424000Y-105156000D02*
X104011604Y-105156000D01*
X100178344Y-148844000D02*
X119597000Y-129425344D01*
X125082656Y-129425344D02*
X125984000Y-128524000D01*
X116898000Y-126042000D02*
X117856000Y-127000000D01*
X104011604Y-105156000D02*
X116898000Y-118042396D01*
%TO.N,Net-(D10-K)*%
X118299000Y-122555000D02*
X117348000Y-121604000D01*
X102616000Y-103124000D02*
X102616000Y-102108000D01*
X117348000Y-121604000D02*
X117348000Y-117856000D01*
X80772000Y-140208000D02*
X89699000Y-149135000D01*
X89699000Y-149135000D02*
X89699000Y-149144305D01*
X89699000Y-149144305D02*
X90123695Y-149569000D01*
X117348000Y-117856000D02*
X102616000Y-103124000D01*
X112051000Y-149569000D02*
X123952000Y-137668000D01*
X90123695Y-149569000D02*
X112051000Y-149569000D01*
%TO.N,Net-(D19-K)*%
X121421305Y-134112000D02*
X127000000Y-134112000D01*
X128524000Y-132588000D02*
X128524000Y-123444000D01*
X111600415Y-143932890D02*
X121421305Y-134112000D01*
X128524000Y-123444000D02*
X115824000Y-110744000D01*
X127000000Y-134112000D02*
X128524000Y-132588000D01*
X115824000Y-110744000D02*
X112268000Y-110744000D01*
X111566750Y-143932890D02*
X111600415Y-143932890D01*
%TO.N,Net-(D20-K)*%
X101600000Y-146304000D02*
X90424000Y-146304000D01*
X90424000Y-146304000D02*
X86233000Y-142113000D01*
X86233000Y-142113000D02*
X86233000Y-120969000D01*
%TO.N,Net-(D21-K)*%
X88900000Y-141006539D02*
X88900000Y-130556000D01*
X91725002Y-143831541D02*
X88900000Y-141006539D01*
%TO.N,LED_PWM*%
X93472000Y-108204000D02*
X95504000Y-110236000D01*
X77724000Y-114808000D02*
X84328000Y-108204000D01*
X85344000Y-128016000D02*
X83820000Y-128016000D01*
X84328000Y-108204000D02*
X93472000Y-108204000D01*
X83820000Y-128016000D02*
X77724000Y-121920000D01*
X77724000Y-121920000D02*
X77724000Y-114808000D01*
%TD*%
%TA.AperFunction,Conductor*%
%TO.N,VCC*%
G36*
X98535896Y-113128421D02*
G01*
X98546925Y-113138210D01*
X99520454Y-114111740D01*
X100437839Y-115029125D01*
X100471324Y-115090448D01*
X100466340Y-115160140D01*
X100442309Y-115199777D01*
X100359466Y-115291785D01*
X100264821Y-115455715D01*
X100264818Y-115455722D01*
X100206327Y-115635740D01*
X100206326Y-115635744D01*
X100186540Y-115824000D01*
X100206326Y-116012256D01*
X100206327Y-116012259D01*
X100264818Y-116192277D01*
X100264821Y-116192284D01*
X100359467Y-116356216D01*
X100475309Y-116484871D01*
X100486129Y-116496888D01*
X100639265Y-116608148D01*
X100639270Y-116608151D01*
X100812192Y-116685142D01*
X100812197Y-116685144D01*
X100997354Y-116724500D01*
X100997355Y-116724500D01*
X101186644Y-116724500D01*
X101186646Y-116724500D01*
X101371803Y-116685144D01*
X101544730Y-116608151D01*
X101697871Y-116496888D01*
X101704449Y-116489581D01*
X101763931Y-116452933D01*
X101833788Y-116454260D01*
X101884281Y-116484871D01*
X106207804Y-120808395D01*
X106241289Y-120869718D01*
X106236305Y-120939410D01*
X106194433Y-120995343D01*
X106128969Y-121019760D01*
X106113388Y-121019500D01*
X106108146Y-121019500D01*
X105918854Y-121019500D01*
X105886397Y-121026398D01*
X105733697Y-121058855D01*
X105733696Y-121058855D01*
X105655415Y-121093709D01*
X105586165Y-121102993D01*
X105522889Y-121073364D01*
X105487050Y-121018749D01*
X105475179Y-120982214D01*
X105380533Y-120818282D01*
X105253871Y-120677610D01*
X105253870Y-120677609D01*
X105100734Y-120566349D01*
X105100729Y-120566346D01*
X104927807Y-120489355D01*
X104927802Y-120489353D01*
X104782001Y-120458363D01*
X104742646Y-120449998D01*
X104553354Y-120449998D01*
X104520897Y-120456896D01*
X104368197Y-120489353D01*
X104368192Y-120489355D01*
X104195270Y-120566346D01*
X104195265Y-120566349D01*
X104042129Y-120677609D01*
X103915466Y-120818283D01*
X103820821Y-120982213D01*
X103820818Y-120982220D01*
X103764089Y-121156816D01*
X103762326Y-121162242D01*
X103742540Y-121350498D01*
X103762326Y-121538754D01*
X103762327Y-121538757D01*
X103820818Y-121718775D01*
X103820821Y-121718782D01*
X103915467Y-121882714D01*
X103993840Y-121969756D01*
X104042129Y-122023386D01*
X104195265Y-122134646D01*
X104195270Y-122134649D01*
X104368192Y-122211640D01*
X104368197Y-122211642D01*
X104553354Y-122250998D01*
X104553355Y-122250998D01*
X104742644Y-122250998D01*
X104742646Y-122250998D01*
X104927803Y-122211642D01*
X105006084Y-122176788D01*
X105075331Y-122167503D01*
X105138608Y-122197131D01*
X105174448Y-122251747D01*
X105186318Y-122288276D01*
X105186321Y-122288284D01*
X105280967Y-122452216D01*
X105398595Y-122582855D01*
X105407629Y-122592888D01*
X105560765Y-122704148D01*
X105560770Y-122704151D01*
X105733692Y-122781142D01*
X105733697Y-122781144D01*
X105918854Y-122820500D01*
X105918855Y-122820500D01*
X106108144Y-122820500D01*
X106108146Y-122820500D01*
X106293303Y-122781144D01*
X106466230Y-122704151D01*
X106619371Y-122592888D01*
X106746033Y-122452216D01*
X106840679Y-122288284D01*
X106899174Y-122108256D01*
X106918960Y-121920000D01*
X106908529Y-121820760D01*
X106921098Y-121752035D01*
X106968830Y-121701011D01*
X107036570Y-121683893D01*
X107102812Y-121706115D01*
X107119531Y-121720122D01*
X111042197Y-125642788D01*
X111052022Y-125655051D01*
X111052243Y-125654869D01*
X111057214Y-125660878D01*
X111060815Y-125664259D01*
X111107635Y-125708226D01*
X111128529Y-125729120D01*
X111134011Y-125733373D01*
X111138443Y-125737157D01*
X111172418Y-125769062D01*
X111189976Y-125778714D01*
X111206235Y-125789395D01*
X111222064Y-125801673D01*
X111264838Y-125820182D01*
X111270056Y-125822738D01*
X111310908Y-125845197D01*
X111330316Y-125850180D01*
X111348717Y-125856480D01*
X111367104Y-125864437D01*
X111410488Y-125871308D01*
X111413119Y-125871725D01*
X111418839Y-125872909D01*
X111463981Y-125884500D01*
X111484016Y-125884500D01*
X111503414Y-125886026D01*
X111523194Y-125889159D01*
X111523195Y-125889160D01*
X111523195Y-125889159D01*
X111523196Y-125889160D01*
X111569584Y-125884775D01*
X111575422Y-125884500D01*
X114224620Y-125884500D01*
X114291659Y-125904185D01*
X114337414Y-125956989D01*
X114347358Y-126026147D01*
X114318333Y-126089703D01*
X114316768Y-126091474D01*
X114312118Y-126096638D01*
X114217473Y-126260568D01*
X114217470Y-126260575D01*
X114164158Y-126424654D01*
X114158978Y-126440597D01*
X114139192Y-126628853D01*
X114158978Y-126817109D01*
X114158979Y-126817112D01*
X114217470Y-126997130D01*
X114217473Y-126997137D01*
X114312119Y-127161069D01*
X114375849Y-127231848D01*
X114438781Y-127301741D01*
X114438785Y-127301745D01*
X114495721Y-127343110D01*
X114504480Y-127349474D01*
X114514384Y-127356669D01*
X114557051Y-127411998D01*
X114565500Y-127456988D01*
X114565500Y-132530941D01*
X114545815Y-132597980D01*
X114529181Y-132618622D01*
X113885567Y-133262235D01*
X113824244Y-133295720D01*
X113754552Y-133290736D01*
X113698619Y-133248864D01*
X113674202Y-133183400D01*
X113674564Y-133161605D01*
X113681460Y-133096000D01*
X113661674Y-132907744D01*
X113603179Y-132727716D01*
X113508533Y-132563784D01*
X113381871Y-132423112D01*
X113381870Y-132423111D01*
X113228734Y-132311851D01*
X113228729Y-132311848D01*
X113055807Y-132234857D01*
X113055802Y-132234855D01*
X112910001Y-132203865D01*
X112870646Y-132195500D01*
X112681354Y-132195500D01*
X112648897Y-132202398D01*
X112496197Y-132234855D01*
X112496192Y-132234857D01*
X112323270Y-132311848D01*
X112323265Y-132311851D01*
X112170129Y-132423111D01*
X112043466Y-132563785D01*
X111948821Y-132727715D01*
X111948818Y-132727722D01*
X111890327Y-132907740D01*
X111890326Y-132907744D01*
X111870540Y-133096000D01*
X111890326Y-133284256D01*
X111890327Y-133284259D01*
X111948818Y-133464277D01*
X111948821Y-133464284D01*
X112043467Y-133628216D01*
X112099604Y-133690562D01*
X112170129Y-133768888D01*
X112323265Y-133880148D01*
X112323270Y-133880151D01*
X112496192Y-133957142D01*
X112496197Y-133957144D01*
X112681354Y-133996500D01*
X112681355Y-133996500D01*
X112851942Y-133996500D01*
X112918981Y-134016185D01*
X112964736Y-134068989D01*
X112974680Y-134138147D01*
X112945655Y-134201703D01*
X112939623Y-134208181D01*
X105694623Y-141453181D01*
X105633300Y-141486666D01*
X105606942Y-141489500D01*
X98583337Y-141489500D01*
X98516298Y-141469815D01*
X98510452Y-141465818D01*
X98496734Y-141455851D01*
X98496729Y-141455848D01*
X98323807Y-141378857D01*
X98323802Y-141378855D01*
X98178001Y-141347865D01*
X98138646Y-141339500D01*
X97949354Y-141339500D01*
X97916897Y-141346398D01*
X97764197Y-141378855D01*
X97764192Y-141378857D01*
X97591270Y-141455848D01*
X97591265Y-141455851D01*
X97438129Y-141567111D01*
X97311466Y-141707785D01*
X97216821Y-141871715D01*
X97216818Y-141871722D01*
X97183988Y-141972764D01*
X97158326Y-142051744D01*
X97138540Y-142240000D01*
X97158326Y-142428256D01*
X97158327Y-142428259D01*
X97216818Y-142608277D01*
X97216821Y-142608284D01*
X97311467Y-142772216D01*
X97415620Y-142887889D01*
X97438129Y-142912888D01*
X97591265Y-143024148D01*
X97591270Y-143024151D01*
X97764192Y-143101142D01*
X97764197Y-143101144D01*
X97949354Y-143140500D01*
X97949355Y-143140500D01*
X98138644Y-143140500D01*
X98138646Y-143140500D01*
X98323803Y-143101144D01*
X98496730Y-143024151D01*
X98498776Y-143022664D01*
X98510452Y-143014182D01*
X98576258Y-142990702D01*
X98583337Y-142990500D01*
X98774212Y-142990500D01*
X98841251Y-143010185D01*
X98887006Y-143062989D01*
X98896950Y-143132147D01*
X98867925Y-143195703D01*
X98866420Y-143197406D01*
X98841842Y-143224702D01*
X98835464Y-143231787D01*
X98740821Y-143395715D01*
X98740818Y-143395722D01*
X98685945Y-143564605D01*
X98682326Y-143575744D01*
X98662540Y-143764000D01*
X98682326Y-143952256D01*
X98682327Y-143952259D01*
X98740818Y-144132277D01*
X98740821Y-144132284D01*
X98835467Y-144296216D01*
X98953095Y-144426855D01*
X98962129Y-144436888D01*
X99115265Y-144548148D01*
X99115270Y-144548151D01*
X99288192Y-144625142D01*
X99288197Y-144625144D01*
X99473354Y-144664500D01*
X99473355Y-144664500D01*
X99662644Y-144664500D01*
X99662646Y-144664500D01*
X99847803Y-144625144D01*
X100020730Y-144548151D01*
X100173871Y-144436888D01*
X100300533Y-144296216D01*
X100395179Y-144132284D01*
X100453674Y-143952256D01*
X100473460Y-143764000D01*
X100453674Y-143575744D01*
X100395179Y-143395716D01*
X100300533Y-143231784D01*
X100269636Y-143197470D01*
X100239408Y-143134481D01*
X100248033Y-143065146D01*
X100292774Y-143011480D01*
X100359427Y-142990522D01*
X100361788Y-142990500D01*
X104847891Y-142990500D01*
X104914930Y-143010185D01*
X104960685Y-143062989D01*
X104970629Y-143132147D01*
X104941604Y-143195703D01*
X104935572Y-143202181D01*
X102440770Y-145696981D01*
X102379447Y-145730466D01*
X102309755Y-145725482D01*
X102260941Y-145692273D01*
X102205871Y-145631112D01*
X102205870Y-145631111D01*
X102052734Y-145519851D01*
X102052729Y-145519848D01*
X101879807Y-145442857D01*
X101879802Y-145442855D01*
X101734001Y-145411865D01*
X101694646Y-145403500D01*
X101505354Y-145403500D01*
X101472897Y-145410398D01*
X101320197Y-145442855D01*
X101320192Y-145442857D01*
X101147270Y-145519848D01*
X101147265Y-145519851D01*
X100994130Y-145631110D01*
X100994126Y-145631114D01*
X100988400Y-145637474D01*
X100928913Y-145674121D01*
X100896252Y-145678500D01*
X95672975Y-145678500D01*
X95605936Y-145658815D01*
X95560181Y-145606011D01*
X95550237Y-145536853D01*
X95579262Y-145473297D01*
X95600091Y-145454181D01*
X95601871Y-145452888D01*
X95728533Y-145312216D01*
X95823179Y-145148284D01*
X95878522Y-144977955D01*
X95908770Y-144928595D01*
X95989641Y-144847724D01*
X96003260Y-144835954D01*
X96022530Y-144821610D01*
X96056123Y-144781574D01*
X96059757Y-144777608D01*
X96065590Y-144771777D01*
X96085923Y-144746060D01*
X96135302Y-144687214D01*
X96135309Y-144687198D01*
X96139272Y-144681176D01*
X96139324Y-144681210D01*
X96143371Y-144674858D01*
X96143317Y-144674825D01*
X96147104Y-144668684D01*
X96147110Y-144668677D01*
X96171817Y-144615692D01*
X96179561Y-144599086D01*
X96197109Y-144564142D01*
X96214040Y-144530433D01*
X96214042Y-144530421D01*
X96216510Y-144523644D01*
X96216568Y-144523665D01*
X96219043Y-144516546D01*
X96218985Y-144516527D01*
X96221256Y-144509672D01*
X96236784Y-144434467D01*
X96254500Y-144359720D01*
X96255339Y-144352548D01*
X96255397Y-144352554D01*
X96256164Y-144345056D01*
X96256104Y-144345051D01*
X96256733Y-144337860D01*
X96255521Y-144296214D01*
X96254500Y-144261102D01*
X96254500Y-135128000D01*
X108314540Y-135128000D01*
X108334326Y-135316256D01*
X108334327Y-135316259D01*
X108392818Y-135496277D01*
X108392821Y-135496284D01*
X108487467Y-135660216D01*
X108596931Y-135781788D01*
X108614129Y-135800888D01*
X108767265Y-135912148D01*
X108767270Y-135912151D01*
X108940192Y-135989142D01*
X108940197Y-135989144D01*
X109125354Y-136028500D01*
X109125355Y-136028500D01*
X109314644Y-136028500D01*
X109314646Y-136028500D01*
X109499803Y-135989144D01*
X109672730Y-135912151D01*
X109825871Y-135800888D01*
X109952533Y-135660216D01*
X110047179Y-135496284D01*
X110105674Y-135316256D01*
X110125460Y-135128000D01*
X110105674Y-134939744D01*
X110047179Y-134759716D01*
X109952533Y-134595784D01*
X109825871Y-134455112D01*
X109793708Y-134431744D01*
X109672734Y-134343851D01*
X109672729Y-134343848D01*
X109499807Y-134266857D01*
X109499802Y-134266855D01*
X109354001Y-134235865D01*
X109314646Y-134227500D01*
X109125354Y-134227500D01*
X109092897Y-134234398D01*
X108940197Y-134266855D01*
X108940192Y-134266857D01*
X108767270Y-134343848D01*
X108767265Y-134343851D01*
X108614129Y-134455111D01*
X108487466Y-134595785D01*
X108392821Y-134759715D01*
X108392818Y-134759722D01*
X108334327Y-134939740D01*
X108334326Y-134939744D01*
X108314540Y-135128000D01*
X96254500Y-135128000D01*
X96254500Y-131572000D01*
X104220040Y-131572000D01*
X104239826Y-131760256D01*
X104239827Y-131760259D01*
X104298318Y-131940277D01*
X104298321Y-131940284D01*
X104392967Y-132104216D01*
X104510595Y-132234855D01*
X104519629Y-132244888D01*
X104672768Y-132356150D01*
X104672770Y-132356151D01*
X104695678Y-132366350D01*
X104748917Y-132411599D01*
X104769240Y-132478447D01*
X104768567Y-132492591D01*
X104761334Y-132561415D01*
X104758540Y-132588000D01*
X104778326Y-132776256D01*
X104778327Y-132776259D01*
X104836818Y-132956277D01*
X104836821Y-132956284D01*
X104931467Y-133120216D01*
X105047303Y-133248864D01*
X105058129Y-133260888D01*
X105211265Y-133372148D01*
X105211270Y-133372151D01*
X105384192Y-133449142D01*
X105384197Y-133449144D01*
X105569354Y-133488500D01*
X105569355Y-133488500D01*
X105758644Y-133488500D01*
X105758646Y-133488500D01*
X105943803Y-133449144D01*
X106116730Y-133372151D01*
X106269871Y-133260888D01*
X106396533Y-133120216D01*
X106491179Y-132956284D01*
X106549674Y-132776256D01*
X106569460Y-132588000D01*
X106549674Y-132399744D01*
X106491179Y-132219716D01*
X106396533Y-132055784D01*
X106269871Y-131915112D01*
X106232655Y-131888073D01*
X106116734Y-131803851D01*
X106116732Y-131803850D01*
X106093816Y-131793647D01*
X106040579Y-131748396D01*
X106020259Y-131681546D01*
X106020932Y-131667406D01*
X106030960Y-131572000D01*
X106011174Y-131383744D01*
X105952679Y-131203716D01*
X105858033Y-131039784D01*
X105731371Y-130899112D01*
X105699208Y-130875744D01*
X105578234Y-130787851D01*
X105578229Y-130787848D01*
X105405307Y-130710857D01*
X105405302Y-130710855D01*
X105259501Y-130679865D01*
X105220146Y-130671500D01*
X105030854Y-130671500D01*
X104998397Y-130678398D01*
X104845697Y-130710855D01*
X104845692Y-130710857D01*
X104672770Y-130787848D01*
X104672765Y-130787851D01*
X104519629Y-130899111D01*
X104392966Y-131039785D01*
X104298321Y-131203715D01*
X104298318Y-131203722D01*
X104239827Y-131383740D01*
X104239826Y-131383744D01*
X104220040Y-131572000D01*
X96254500Y-131572000D01*
X96254500Y-129724500D01*
X101213398Y-129724500D01*
X101233184Y-129912756D01*
X101233185Y-129912759D01*
X101291676Y-130092777D01*
X101291679Y-130092784D01*
X101386325Y-130256716D01*
X101507335Y-130391111D01*
X101512987Y-130397388D01*
X101666123Y-130508648D01*
X101666128Y-130508651D01*
X101839050Y-130585642D01*
X101839055Y-130585644D01*
X102024212Y-130625000D01*
X102024213Y-130625000D01*
X102213502Y-130625000D01*
X102213504Y-130625000D01*
X102398661Y-130585644D01*
X102571588Y-130508651D01*
X102662055Y-130442922D01*
X102727858Y-130419444D01*
X102795912Y-130435269D01*
X102842323Y-130481240D01*
X102882080Y-130550100D01*
X102899467Y-130580216D01*
X103026129Y-130720888D01*
X103179265Y-130832148D01*
X103179270Y-130832151D01*
X103352192Y-130909142D01*
X103352197Y-130909144D01*
X103537354Y-130948500D01*
X103537355Y-130948500D01*
X103726644Y-130948500D01*
X103726646Y-130948500D01*
X103911803Y-130909144D01*
X104084730Y-130832151D01*
X104237871Y-130720888D01*
X104364533Y-130580216D01*
X104459179Y-130416284D01*
X104517674Y-130236256D01*
X104537460Y-130048000D01*
X104517674Y-129859744D01*
X104459179Y-129679716D01*
X104364533Y-129515784D01*
X104237871Y-129375112D01*
X104237870Y-129375111D01*
X104084734Y-129263851D01*
X104084729Y-129263848D01*
X103911807Y-129186857D01*
X103911802Y-129186855D01*
X103757974Y-129154159D01*
X103726646Y-129147500D01*
X103537354Y-129147500D01*
X103506026Y-129154159D01*
X103352197Y-129186855D01*
X103352192Y-129186857D01*
X103179271Y-129263848D01*
X103088805Y-129329575D01*
X103022998Y-129353054D01*
X102954944Y-129337228D01*
X102908533Y-129291256D01*
X102854049Y-129196888D01*
X102851391Y-129192284D01*
X102849569Y-129190261D01*
X102753767Y-129083862D01*
X102724729Y-129051612D01*
X102721269Y-129049098D01*
X102571592Y-128940351D01*
X102571587Y-128940348D01*
X102398665Y-128863357D01*
X102398660Y-128863355D01*
X102250351Y-128831832D01*
X102213504Y-128824000D01*
X102024212Y-128824000D01*
X101991755Y-128830898D01*
X101839055Y-128863355D01*
X101839050Y-128863357D01*
X101666128Y-128940348D01*
X101666123Y-128940351D01*
X101512987Y-129051611D01*
X101386324Y-129192285D01*
X101291679Y-129356215D01*
X101291676Y-129356222D01*
X101233185Y-129536240D01*
X101233184Y-129536244D01*
X101213398Y-129724500D01*
X96254500Y-129724500D01*
X96254500Y-126612910D01*
X103762912Y-126612910D01*
X103782698Y-126801166D01*
X103782699Y-126801169D01*
X103841190Y-126981187D01*
X103841193Y-126981194D01*
X103935839Y-127145126D01*
X104013924Y-127231848D01*
X104062501Y-127285798D01*
X104215637Y-127397058D01*
X104215642Y-127397061D01*
X104388564Y-127474052D01*
X104388569Y-127474054D01*
X104573726Y-127513410D01*
X104573727Y-127513410D01*
X104763016Y-127513410D01*
X104763018Y-127513410D01*
X104948175Y-127474054D01*
X105121102Y-127397061D01*
X105274243Y-127285798D01*
X105400905Y-127145126D01*
X105495551Y-126981194D01*
X105554046Y-126801166D01*
X105573832Y-126612910D01*
X105561124Y-126492000D01*
X106282540Y-126492000D01*
X106302326Y-126680256D01*
X106302327Y-126680259D01*
X106360818Y-126860277D01*
X106360821Y-126860284D01*
X106455467Y-127024216D01*
X106538906Y-127116884D01*
X106582129Y-127164888D01*
X106735265Y-127276148D01*
X106735270Y-127276151D01*
X106908192Y-127353142D01*
X106908197Y-127353144D01*
X107093354Y-127392500D01*
X107093355Y-127392500D01*
X107282644Y-127392500D01*
X107282646Y-127392500D01*
X107467803Y-127353144D01*
X107640730Y-127276151D01*
X107793871Y-127164888D01*
X107920533Y-127024216D01*
X108015179Y-126860284D01*
X108073674Y-126680256D01*
X108093460Y-126492000D01*
X108073674Y-126303744D01*
X108015179Y-126123716D01*
X107920533Y-125959784D01*
X107793871Y-125819112D01*
X107793870Y-125819111D01*
X107640734Y-125707851D01*
X107640729Y-125707848D01*
X107467807Y-125630857D01*
X107467802Y-125630855D01*
X107322001Y-125599865D01*
X107282646Y-125591500D01*
X107093354Y-125591500D01*
X107060897Y-125598398D01*
X106908197Y-125630855D01*
X106908192Y-125630857D01*
X106735270Y-125707848D01*
X106735265Y-125707851D01*
X106582129Y-125819111D01*
X106455466Y-125959785D01*
X106360821Y-126123715D01*
X106360818Y-126123722D01*
X106312125Y-126273586D01*
X106302326Y-126303744D01*
X106282540Y-126492000D01*
X105561124Y-126492000D01*
X105554046Y-126424654D01*
X105495551Y-126244626D01*
X105400905Y-126080694D01*
X105274243Y-125940022D01*
X105274242Y-125940021D01*
X105121106Y-125828761D01*
X105121101Y-125828758D01*
X104948179Y-125751767D01*
X104948174Y-125751765D01*
X104802373Y-125720775D01*
X104763018Y-125712410D01*
X104573726Y-125712410D01*
X104541269Y-125719308D01*
X104388569Y-125751765D01*
X104388564Y-125751767D01*
X104215642Y-125828758D01*
X104215637Y-125828761D01*
X104062501Y-125940021D01*
X103935838Y-126080695D01*
X103841193Y-126244625D01*
X103841190Y-126244632D01*
X103798344Y-126376500D01*
X103782698Y-126424654D01*
X103762912Y-126612910D01*
X96254500Y-126612910D01*
X96254500Y-125476000D01*
X98154540Y-125476000D01*
X98174326Y-125664256D01*
X98174327Y-125664259D01*
X98232818Y-125844277D01*
X98232821Y-125844284D01*
X98327467Y-126008216D01*
X98445095Y-126138855D01*
X98454129Y-126148888D01*
X98607265Y-126260148D01*
X98607270Y-126260151D01*
X98780192Y-126337142D01*
X98780197Y-126337144D01*
X98965354Y-126376500D01*
X98965355Y-126376500D01*
X99154644Y-126376500D01*
X99154646Y-126376500D01*
X99339803Y-126337144D01*
X99512730Y-126260151D01*
X99665871Y-126148888D01*
X99792533Y-126008216D01*
X99887179Y-125844284D01*
X99945674Y-125664256D01*
X99965460Y-125476000D01*
X99945674Y-125287744D01*
X99887179Y-125107716D01*
X99812690Y-124978698D01*
X99796218Y-124910799D01*
X99819071Y-124844772D01*
X99869637Y-124803422D01*
X100020730Y-124736151D01*
X100020734Y-124736147D01*
X100024038Y-124734677D01*
X100093288Y-124725393D01*
X100156565Y-124755021D01*
X100193778Y-124814156D01*
X100197794Y-124860915D01*
X100186540Y-124968000D01*
X100206326Y-125156256D01*
X100206327Y-125156259D01*
X100264818Y-125336277D01*
X100264821Y-125336284D01*
X100359467Y-125500216D01*
X100477095Y-125630855D01*
X100486129Y-125640888D01*
X100639265Y-125752148D01*
X100639270Y-125752151D01*
X100812192Y-125829142D01*
X100812197Y-125829144D01*
X100997354Y-125868500D01*
X100997355Y-125868500D01*
X101186644Y-125868500D01*
X101186646Y-125868500D01*
X101371803Y-125829144D01*
X101544730Y-125752151D01*
X101697871Y-125640888D01*
X101824533Y-125500216D01*
X101919179Y-125336284D01*
X101977674Y-125156256D01*
X101997460Y-124968000D01*
X101977674Y-124779744D01*
X101919179Y-124599716D01*
X101824533Y-124435784D01*
X101697871Y-124295112D01*
X101697870Y-124295111D01*
X101544734Y-124183851D01*
X101544729Y-124183848D01*
X101371807Y-124106857D01*
X101371802Y-124106855D01*
X101226001Y-124075865D01*
X101186646Y-124067500D01*
X100997354Y-124067500D01*
X100947375Y-124078123D01*
X100812199Y-124106855D01*
X100635961Y-124185322D01*
X100566711Y-124194606D01*
X100503434Y-124164978D01*
X100466221Y-124105843D01*
X100462204Y-124059088D01*
X100473460Y-123952000D01*
X100453674Y-123763744D01*
X100395179Y-123583716D01*
X100300533Y-123419784D01*
X100173871Y-123279112D01*
X100141708Y-123255744D01*
X100020734Y-123167851D01*
X100020729Y-123167848D01*
X99847807Y-123090857D01*
X99847802Y-123090855D01*
X99702001Y-123059865D01*
X99662646Y-123051500D01*
X99473354Y-123051500D01*
X99444792Y-123057571D01*
X99288197Y-123090855D01*
X99288192Y-123090857D01*
X99115270Y-123167848D01*
X99115265Y-123167851D01*
X98962129Y-123279111D01*
X98835466Y-123419785D01*
X98740821Y-123583715D01*
X98740818Y-123583722D01*
X98693909Y-123728094D01*
X98682326Y-123763744D01*
X98662540Y-123952000D01*
X98682326Y-124140256D01*
X98682327Y-124140259D01*
X98740818Y-124320277D01*
X98740821Y-124320284D01*
X98815308Y-124449300D01*
X98831781Y-124517201D01*
X98808928Y-124583227D01*
X98758357Y-124624579D01*
X98607270Y-124691848D01*
X98607265Y-124691851D01*
X98454129Y-124803111D01*
X98327466Y-124943785D01*
X98232821Y-125107715D01*
X98232818Y-125107722D01*
X98174327Y-125287740D01*
X98174326Y-125287744D01*
X98154540Y-125476000D01*
X96254500Y-125476000D01*
X96254500Y-120104500D01*
X96852814Y-120104500D01*
X96872600Y-120292756D01*
X96872601Y-120292759D01*
X96931092Y-120472777D01*
X96931095Y-120472784D01*
X97025741Y-120636716D01*
X97126970Y-120749142D01*
X97152403Y-120777388D01*
X97305539Y-120888648D01*
X97305544Y-120888651D01*
X97478466Y-120965642D01*
X97478471Y-120965644D01*
X97663628Y-121005000D01*
X97663629Y-121005000D01*
X97852918Y-121005000D01*
X97852920Y-121005000D01*
X98038077Y-120965644D01*
X98211004Y-120888651D01*
X98364145Y-120777388D01*
X98490807Y-120636716D01*
X98585453Y-120472784D01*
X98643948Y-120292756D01*
X98663734Y-120104500D01*
X100694540Y-120104500D01*
X100714326Y-120292756D01*
X100714327Y-120292759D01*
X100772818Y-120472777D01*
X100772821Y-120472784D01*
X100867467Y-120636716D01*
X100968696Y-120749142D01*
X100994129Y-120777388D01*
X101147265Y-120888648D01*
X101147270Y-120888651D01*
X101320192Y-120965642D01*
X101320197Y-120965644D01*
X101505354Y-121005000D01*
X101505355Y-121005000D01*
X101694644Y-121005000D01*
X101694646Y-121005000D01*
X101879803Y-120965644D01*
X102052730Y-120888651D01*
X102205871Y-120777388D01*
X102332533Y-120636716D01*
X102427179Y-120472784D01*
X102485674Y-120292756D01*
X102505460Y-120104500D01*
X102485674Y-119916244D01*
X102427179Y-119736216D01*
X102332533Y-119572284D01*
X102205871Y-119431612D01*
X102205870Y-119431611D01*
X102052734Y-119320351D01*
X102052729Y-119320348D01*
X101879807Y-119243357D01*
X101879802Y-119243355D01*
X101734001Y-119212365D01*
X101694646Y-119204000D01*
X101505354Y-119204000D01*
X101472897Y-119210898D01*
X101320197Y-119243355D01*
X101320192Y-119243357D01*
X101147270Y-119320348D01*
X101147265Y-119320351D01*
X100994129Y-119431611D01*
X100867466Y-119572285D01*
X100772821Y-119736215D01*
X100772818Y-119736222D01*
X100714327Y-119916240D01*
X100714326Y-119916244D01*
X100694540Y-120104500D01*
X98663734Y-120104500D01*
X98643948Y-119916244D01*
X98585453Y-119736216D01*
X98490807Y-119572284D01*
X98364145Y-119431612D01*
X98364144Y-119431611D01*
X98211008Y-119320351D01*
X98211003Y-119320348D01*
X98038081Y-119243357D01*
X98038076Y-119243355D01*
X97892275Y-119212365D01*
X97852920Y-119204000D01*
X97663628Y-119204000D01*
X97631171Y-119210898D01*
X97478471Y-119243355D01*
X97478466Y-119243357D01*
X97305544Y-119320348D01*
X97305539Y-119320351D01*
X97152403Y-119431611D01*
X97025740Y-119572285D01*
X96931095Y-119736215D01*
X96931092Y-119736222D01*
X96872601Y-119916240D01*
X96872600Y-119916244D01*
X96852814Y-120104500D01*
X96254500Y-120104500D01*
X96254500Y-116840000D01*
X97138540Y-116840000D01*
X97158326Y-117028256D01*
X97158327Y-117028259D01*
X97216818Y-117208277D01*
X97216821Y-117208284D01*
X97311467Y-117372216D01*
X97399136Y-117469582D01*
X97438129Y-117512888D01*
X97591265Y-117624148D01*
X97591270Y-117624151D01*
X97764192Y-117701142D01*
X97764197Y-117701144D01*
X97949354Y-117740500D01*
X97949355Y-117740500D01*
X98138644Y-117740500D01*
X98138646Y-117740500D01*
X98323803Y-117701144D01*
X98496730Y-117624151D01*
X98649871Y-117512888D01*
X98776533Y-117372216D01*
X98871179Y-117208284D01*
X98929674Y-117028256D01*
X98949460Y-116840000D01*
X98929674Y-116651744D01*
X98871179Y-116471716D01*
X98776533Y-116307784D01*
X98649871Y-116167112D01*
X98648627Y-116166208D01*
X98496734Y-116055851D01*
X98496729Y-116055848D01*
X98323807Y-115978857D01*
X98323802Y-115978855D01*
X98178001Y-115947865D01*
X98138646Y-115939500D01*
X97949354Y-115939500D01*
X97916897Y-115946398D01*
X97764197Y-115978855D01*
X97764192Y-115978857D01*
X97591270Y-116055848D01*
X97591265Y-116055851D01*
X97438129Y-116167111D01*
X97311466Y-116307785D01*
X97216821Y-116471715D01*
X97216818Y-116471722D01*
X97158327Y-116651740D01*
X97158326Y-116651744D01*
X97138540Y-116840000D01*
X96254500Y-116840000D01*
X96254500Y-116379365D01*
X96255808Y-116361405D01*
X96256128Y-116359219D01*
X96285315Y-116295737D01*
X96319786Y-116270262D01*
X96318964Y-116268838D01*
X96324587Y-116265590D01*
X96324591Y-116265589D01*
X96477732Y-116154326D01*
X96604394Y-116013654D01*
X96699040Y-115849722D01*
X96757535Y-115669694D01*
X96777321Y-115481438D01*
X96757535Y-115293182D01*
X96699040Y-115113154D01*
X96604394Y-114949222D01*
X96477732Y-114808550D01*
X96467741Y-114801291D01*
X96324595Y-114697289D01*
X96324590Y-114697286D01*
X96151668Y-114620295D01*
X96151663Y-114620293D01*
X96005862Y-114589303D01*
X95966507Y-114580938D01*
X95896361Y-114580938D01*
X95829322Y-114561253D01*
X95783567Y-114508449D01*
X95772361Y-114456938D01*
X95772361Y-114128369D01*
X95792046Y-114061330D01*
X95808680Y-114040688D01*
X96286549Y-113562819D01*
X96347872Y-113529334D01*
X96374230Y-113526500D01*
X96996663Y-113526500D01*
X97063702Y-113546185D01*
X97069548Y-113550182D01*
X97083265Y-113560148D01*
X97083270Y-113560151D01*
X97256192Y-113637142D01*
X97256197Y-113637144D01*
X97441354Y-113676500D01*
X97441355Y-113676500D01*
X97630644Y-113676500D01*
X97630646Y-113676500D01*
X97815803Y-113637144D01*
X97988730Y-113560151D01*
X98141871Y-113448888D01*
X98268533Y-113308216D01*
X98351858Y-113163891D01*
X98402424Y-113115677D01*
X98471031Y-113102453D01*
X98535896Y-113128421D01*
G37*
%TD.AperFunction*%
%TA.AperFunction,Conductor*%
G36*
X94817809Y-112696185D02*
G01*
X94863564Y-112748989D01*
X94873508Y-112818147D01*
X94844483Y-112881703D01*
X94838469Y-112888161D01*
X94610954Y-113115677D01*
X94536219Y-113190412D01*
X94522590Y-113202190D01*
X94503329Y-113216529D01*
X94469759Y-113256536D01*
X94466114Y-113260515D01*
X94460270Y-113266361D01*
X94439920Y-113292098D01*
X94390556Y-113350928D01*
X94386590Y-113356958D01*
X94386543Y-113356927D01*
X94382491Y-113363286D01*
X94382540Y-113363316D01*
X94378750Y-113369460D01*
X94346285Y-113439080D01*
X94311821Y-113507705D01*
X94309349Y-113514496D01*
X94309293Y-113514475D01*
X94306821Y-113521589D01*
X94306876Y-113521608D01*
X94304603Y-113528466D01*
X94299551Y-113552937D01*
X94289068Y-113603704D01*
X94281143Y-113637144D01*
X94271359Y-113678425D01*
X94270522Y-113685593D01*
X94270462Y-113685586D01*
X94269696Y-113693084D01*
X94269756Y-113693090D01*
X94269126Y-113700279D01*
X94271361Y-113777055D01*
X94271361Y-115769814D01*
X94270052Y-115787783D01*
X94266571Y-115811545D01*
X94271125Y-115863584D01*
X94271361Y-115868990D01*
X94271361Y-115877229D01*
X94275167Y-115909794D01*
X94281861Y-115986311D01*
X94283322Y-115993387D01*
X94283264Y-115993398D01*
X94284895Y-116000757D01*
X94284953Y-116000744D01*
X94286618Y-116007770D01*
X94312886Y-116079944D01*
X94337046Y-116152851D01*
X94340097Y-116159394D01*
X94340043Y-116159418D01*
X94343331Y-116166208D01*
X94343382Y-116166183D01*
X94346622Y-116172633D01*
X94346623Y-116172634D01*
X94346624Y-116172637D01*
X94372672Y-116212242D01*
X94388826Y-116236803D01*
X94429148Y-116302175D01*
X94433627Y-116307839D01*
X94433580Y-116307875D01*
X94438344Y-116313722D01*
X94438390Y-116313684D01*
X94443028Y-116319212D01*
X94443031Y-116319216D01*
X94443034Y-116319218D01*
X94443035Y-116319220D01*
X94498881Y-116371907D01*
X94717181Y-116590207D01*
X94750666Y-116651530D01*
X94753500Y-116677888D01*
X94753500Y-143821721D01*
X94733815Y-143888760D01*
X94681011Y-143934515D01*
X94679936Y-143935000D01*
X94543270Y-143995848D01*
X94543265Y-143995851D01*
X94390129Y-144107111D01*
X94263466Y-144247785D01*
X94168821Y-144411715D01*
X94168818Y-144411722D01*
X94124491Y-144548148D01*
X94110326Y-144591744D01*
X94090540Y-144780000D01*
X94110326Y-144968256D01*
X94110327Y-144968259D01*
X94168818Y-145148277D01*
X94168821Y-145148284D01*
X94263467Y-145312216D01*
X94287202Y-145338576D01*
X94390128Y-145452887D01*
X94391909Y-145454181D01*
X94392690Y-145455194D01*
X94394958Y-145457236D01*
X94394584Y-145457650D01*
X94434576Y-145509510D01*
X94440556Y-145579124D01*
X94407950Y-145640919D01*
X94347112Y-145675277D01*
X94319025Y-145678500D01*
X90734452Y-145678500D01*
X90667413Y-145658815D01*
X90646771Y-145642181D01*
X86894819Y-141890228D01*
X86861334Y-141828905D01*
X86858500Y-141802547D01*
X86858500Y-130556000D01*
X87994540Y-130556000D01*
X88014326Y-130744256D01*
X88014327Y-130744259D01*
X88072818Y-130924277D01*
X88072821Y-130924284D01*
X88167467Y-131088216D01*
X88210772Y-131136310D01*
X88242650Y-131171715D01*
X88272880Y-131234706D01*
X88274500Y-131254687D01*
X88274500Y-140923794D01*
X88272775Y-140939411D01*
X88273061Y-140939438D01*
X88272326Y-140947204D01*
X88274500Y-141016353D01*
X88274500Y-141045882D01*
X88274501Y-141045899D01*
X88275368Y-141052770D01*
X88275826Y-141058589D01*
X88277290Y-141105163D01*
X88277291Y-141105166D01*
X88282880Y-141124406D01*
X88286824Y-141143450D01*
X88289336Y-141163330D01*
X88306490Y-141206658D01*
X88308382Y-141212186D01*
X88318850Y-141248216D01*
X88321382Y-141256929D01*
X88323507Y-141260523D01*
X88331580Y-141274173D01*
X88340138Y-141291642D01*
X88347514Y-141310271D01*
X88374898Y-141347962D01*
X88378106Y-141352846D01*
X88401827Y-141392955D01*
X88401833Y-141392963D01*
X88415990Y-141407119D01*
X88428627Y-141421914D01*
X88440406Y-141438126D01*
X88461828Y-141455848D01*
X88476309Y-141467827D01*
X88480620Y-141471749D01*
X90211051Y-143202181D01*
X90786040Y-143777170D01*
X90819525Y-143838493D01*
X90821680Y-143851889D01*
X90828433Y-143916136D01*
X90839328Y-144019797D01*
X90839329Y-144019800D01*
X90897820Y-144199818D01*
X90897823Y-144199825D01*
X90992469Y-144363757D01*
X91118608Y-144503848D01*
X91119131Y-144504429D01*
X91272267Y-144615689D01*
X91272272Y-144615692D01*
X91445194Y-144692683D01*
X91445199Y-144692685D01*
X91630356Y-144732041D01*
X91630357Y-144732041D01*
X91819646Y-144732041D01*
X91819648Y-144732041D01*
X92004805Y-144692685D01*
X92177732Y-144615692D01*
X92330873Y-144504429D01*
X92457535Y-144363757D01*
X92552181Y-144199825D01*
X92610676Y-144019797D01*
X92630462Y-143831541D01*
X92610676Y-143643285D01*
X92552181Y-143463257D01*
X92457535Y-143299325D01*
X92330873Y-143158653D01*
X92330872Y-143158652D01*
X92177736Y-143047392D01*
X92177731Y-143047389D01*
X92004809Y-142970398D01*
X92004804Y-142970396D01*
X91859003Y-142939406D01*
X91819648Y-142931041D01*
X91819647Y-142931041D01*
X91760455Y-142931041D01*
X91693416Y-142911356D01*
X91672774Y-142894722D01*
X89561819Y-140783767D01*
X89528334Y-140722444D01*
X89525500Y-140696086D01*
X89525500Y-131254687D01*
X89545185Y-131187648D01*
X89557350Y-131171715D01*
X89575891Y-131151122D01*
X89632533Y-131088216D01*
X89727179Y-130924284D01*
X89785674Y-130744256D01*
X89805460Y-130556000D01*
X89785674Y-130367744D01*
X89727179Y-130187716D01*
X89632533Y-130023784D01*
X89505871Y-129883112D01*
X89473708Y-129859744D01*
X89352734Y-129771851D01*
X89352729Y-129771848D01*
X89179807Y-129694857D01*
X89179802Y-129694855D01*
X89034001Y-129663865D01*
X88994646Y-129655500D01*
X88805354Y-129655500D01*
X88772897Y-129662398D01*
X88620197Y-129694855D01*
X88620192Y-129694857D01*
X88447270Y-129771848D01*
X88447265Y-129771851D01*
X88294129Y-129883111D01*
X88167466Y-130023785D01*
X88072821Y-130187715D01*
X88072818Y-130187722D01*
X88042884Y-130279851D01*
X88014326Y-130367744D01*
X87994540Y-130556000D01*
X86858500Y-130556000D01*
X86858500Y-123952000D01*
X92058540Y-123952000D01*
X92078326Y-124140256D01*
X92078327Y-124140259D01*
X92136818Y-124320277D01*
X92136821Y-124320284D01*
X92231467Y-124484216D01*
X92338499Y-124603087D01*
X92358129Y-124624888D01*
X92511265Y-124736148D01*
X92511270Y-124736151D01*
X92684192Y-124813142D01*
X92684197Y-124813144D01*
X92869354Y-124852500D01*
X92869355Y-124852500D01*
X93058644Y-124852500D01*
X93058646Y-124852500D01*
X93243803Y-124813144D01*
X93416730Y-124736151D01*
X93569871Y-124624888D01*
X93696533Y-124484216D01*
X93791179Y-124320284D01*
X93849674Y-124140256D01*
X93869460Y-123952000D01*
X93849674Y-123763744D01*
X93791179Y-123583716D01*
X93696533Y-123419784D01*
X93569871Y-123279112D01*
X93537708Y-123255744D01*
X93416734Y-123167851D01*
X93416729Y-123167848D01*
X93243807Y-123090857D01*
X93243802Y-123090855D01*
X93098001Y-123059865D01*
X93058646Y-123051500D01*
X92869354Y-123051500D01*
X92840792Y-123057571D01*
X92684197Y-123090855D01*
X92684192Y-123090857D01*
X92511270Y-123167848D01*
X92511265Y-123167851D01*
X92358129Y-123279111D01*
X92231466Y-123419785D01*
X92136821Y-123583715D01*
X92136818Y-123583722D01*
X92089909Y-123728094D01*
X92078326Y-123763744D01*
X92058540Y-123952000D01*
X86858500Y-123952000D01*
X86858500Y-121857185D01*
X86878185Y-121790146D01*
X86930989Y-121744391D01*
X87000147Y-121734447D01*
X87043373Y-121752087D01*
X87044637Y-121749899D01*
X87050270Y-121753151D01*
X87223192Y-121830142D01*
X87223197Y-121830144D01*
X87408354Y-121869500D01*
X87408355Y-121869500D01*
X87597644Y-121869500D01*
X87597646Y-121869500D01*
X87782803Y-121830144D01*
X87955730Y-121753151D01*
X88108871Y-121641888D01*
X88235533Y-121501216D01*
X88330179Y-121337284D01*
X88388674Y-121157256D01*
X88408460Y-120969000D01*
X89137540Y-120969000D01*
X89157326Y-121157256D01*
X89157327Y-121157259D01*
X89215818Y-121337277D01*
X89215821Y-121337284D01*
X89310467Y-121501216D01*
X89399646Y-121600259D01*
X89437129Y-121641888D01*
X89590265Y-121753148D01*
X89590270Y-121753151D01*
X89763192Y-121830142D01*
X89763197Y-121830144D01*
X89948354Y-121869500D01*
X89948355Y-121869500D01*
X90137644Y-121869500D01*
X90137646Y-121869500D01*
X90322803Y-121830144D01*
X90495730Y-121753151D01*
X90605117Y-121673676D01*
X90670920Y-121650198D01*
X90738974Y-121666023D01*
X90750871Y-121673668D01*
X90830806Y-121731744D01*
X90860270Y-121753151D01*
X91033192Y-121830142D01*
X91033197Y-121830144D01*
X91218354Y-121869500D01*
X91218355Y-121869500D01*
X91407644Y-121869500D01*
X91407646Y-121869500D01*
X91592803Y-121830144D01*
X91765730Y-121753151D01*
X91918871Y-121641888D01*
X92045533Y-121501216D01*
X92140179Y-121337284D01*
X92198674Y-121157256D01*
X92218460Y-120969000D01*
X92198674Y-120780744D01*
X92140179Y-120600716D01*
X92045533Y-120436784D01*
X91918871Y-120296112D01*
X91907432Y-120287801D01*
X91765734Y-120184851D01*
X91765729Y-120184848D01*
X91592807Y-120107857D01*
X91592802Y-120107855D01*
X91447001Y-120076865D01*
X91407646Y-120068500D01*
X91218354Y-120068500D01*
X91185897Y-120075398D01*
X91033197Y-120107855D01*
X91033192Y-120107857D01*
X90860270Y-120184848D01*
X90860265Y-120184851D01*
X90750885Y-120264321D01*
X90685079Y-120287801D01*
X90617025Y-120271975D01*
X90605115Y-120264321D01*
X90495734Y-120184851D01*
X90495729Y-120184848D01*
X90322807Y-120107857D01*
X90322802Y-120107855D01*
X90177001Y-120076865D01*
X90137646Y-120068500D01*
X89948354Y-120068500D01*
X89915897Y-120075398D01*
X89763197Y-120107855D01*
X89763192Y-120107857D01*
X89590270Y-120184848D01*
X89590265Y-120184851D01*
X89437129Y-120296111D01*
X89310466Y-120436785D01*
X89215821Y-120600715D01*
X89215818Y-120600722D01*
X89158416Y-120777388D01*
X89157326Y-120780744D01*
X89137540Y-120969000D01*
X88408460Y-120969000D01*
X88388674Y-120780744D01*
X88330179Y-120600716D01*
X88235533Y-120436784D01*
X88108871Y-120296112D01*
X88097432Y-120287801D01*
X87955734Y-120184851D01*
X87955729Y-120184848D01*
X87782807Y-120107857D01*
X87782802Y-120107855D01*
X87637001Y-120076865D01*
X87597646Y-120068500D01*
X87408354Y-120068500D01*
X87375897Y-120075398D01*
X87223197Y-120107855D01*
X87223192Y-120107857D01*
X87050270Y-120184848D01*
X87050265Y-120184851D01*
X86940885Y-120264321D01*
X86875079Y-120287801D01*
X86807025Y-120271975D01*
X86795115Y-120264321D01*
X86685734Y-120184851D01*
X86685729Y-120184848D01*
X86512807Y-120107857D01*
X86512802Y-120107855D01*
X86367001Y-120076865D01*
X86327646Y-120068500D01*
X86138354Y-120068500D01*
X86105897Y-120075398D01*
X85953197Y-120107855D01*
X85953192Y-120107857D01*
X85780270Y-120184848D01*
X85780265Y-120184851D01*
X85627129Y-120296111D01*
X85500466Y-120436785D01*
X85405821Y-120600715D01*
X85405818Y-120600722D01*
X85348416Y-120777388D01*
X85347326Y-120780744D01*
X85327540Y-120969000D01*
X85347326Y-121157256D01*
X85347327Y-121157259D01*
X85405818Y-121337277D01*
X85405821Y-121337284D01*
X85500467Y-121501216D01*
X85543772Y-121549310D01*
X85575650Y-121584715D01*
X85605880Y-121647706D01*
X85607500Y-121667687D01*
X85607500Y-126998263D01*
X85587815Y-127065302D01*
X85535011Y-127111057D01*
X85465853Y-127121001D01*
X85457720Y-127119554D01*
X85438646Y-127115500D01*
X85249354Y-127115500D01*
X85223474Y-127121001D01*
X85064197Y-127154855D01*
X85064192Y-127154857D01*
X84891270Y-127231848D01*
X84891265Y-127231851D01*
X84738130Y-127343110D01*
X84738126Y-127343114D01*
X84732400Y-127349474D01*
X84672913Y-127386121D01*
X84640252Y-127390500D01*
X84130452Y-127390500D01*
X84063413Y-127370815D01*
X84042771Y-127354181D01*
X80132591Y-123444000D01*
X80882540Y-123444000D01*
X80902326Y-123632256D01*
X80902327Y-123632259D01*
X80960818Y-123812277D01*
X80960821Y-123812284D01*
X81055467Y-123976216D01*
X81137660Y-124067500D01*
X81182129Y-124116888D01*
X81335265Y-124228148D01*
X81335270Y-124228151D01*
X81508192Y-124305142D01*
X81508197Y-124305144D01*
X81693354Y-124344500D01*
X81693355Y-124344500D01*
X81882644Y-124344500D01*
X81882646Y-124344500D01*
X82067803Y-124305144D01*
X82240730Y-124228151D01*
X82393871Y-124116888D01*
X82520533Y-123976216D01*
X82615179Y-123812284D01*
X82673674Y-123632256D01*
X82693460Y-123444000D01*
X82673674Y-123255744D01*
X82615179Y-123075716D01*
X82520533Y-122911784D01*
X82393871Y-122771112D01*
X82393870Y-122771111D01*
X82240734Y-122659851D01*
X82240729Y-122659848D01*
X82067807Y-122582857D01*
X82067802Y-122582855D01*
X81922001Y-122551865D01*
X81882646Y-122543500D01*
X81693354Y-122543500D01*
X81660897Y-122550398D01*
X81508197Y-122582855D01*
X81508192Y-122582857D01*
X81335270Y-122659848D01*
X81335265Y-122659851D01*
X81182129Y-122771111D01*
X81055466Y-122911785D01*
X80960821Y-123075715D01*
X80960818Y-123075722D01*
X80907064Y-123241162D01*
X80902326Y-123255744D01*
X80882540Y-123444000D01*
X80132591Y-123444000D01*
X78385819Y-121697228D01*
X78352334Y-121635905D01*
X78349500Y-121609547D01*
X78349500Y-118364000D01*
X78850540Y-118364000D01*
X78870326Y-118552256D01*
X78870327Y-118552259D01*
X78928818Y-118732277D01*
X78928821Y-118732284D01*
X79023467Y-118896216D01*
X79148358Y-119034921D01*
X79150129Y-119036888D01*
X79303265Y-119148148D01*
X79303270Y-119148151D01*
X79476192Y-119225142D01*
X79476197Y-119225144D01*
X79661354Y-119264500D01*
X79661355Y-119264500D01*
X79850644Y-119264500D01*
X79850646Y-119264500D01*
X80035803Y-119225144D01*
X80208730Y-119148151D01*
X80361871Y-119036888D01*
X80488533Y-118896216D01*
X80583179Y-118732284D01*
X80641674Y-118552256D01*
X80661460Y-118364000D01*
X80641674Y-118175744D01*
X80583179Y-117995716D01*
X80488533Y-117831784D01*
X80361871Y-117691112D01*
X80311589Y-117654580D01*
X80208734Y-117579851D01*
X80208729Y-117579848D01*
X80035807Y-117502857D01*
X80035802Y-117502855D01*
X79879260Y-117469582D01*
X79850646Y-117463500D01*
X79661354Y-117463500D01*
X79632792Y-117469571D01*
X79476197Y-117502855D01*
X79476192Y-117502857D01*
X79303270Y-117579848D01*
X79303265Y-117579851D01*
X79150129Y-117691111D01*
X79023466Y-117831785D01*
X78928821Y-117995715D01*
X78928818Y-117995722D01*
X78884097Y-118133361D01*
X78870326Y-118175744D01*
X78850540Y-118364000D01*
X78349500Y-118364000D01*
X78349500Y-115118451D01*
X78369185Y-115051412D01*
X78385814Y-115030775D01*
X79659703Y-113756885D01*
X79721024Y-113723402D01*
X79790716Y-113728386D01*
X79846649Y-113770258D01*
X79870702Y-113831604D01*
X79886326Y-113980256D01*
X79886327Y-113980259D01*
X79944818Y-114160277D01*
X79944821Y-114160284D01*
X80039467Y-114324216D01*
X80108891Y-114401319D01*
X80166129Y-114464888D01*
X80319265Y-114576148D01*
X80319270Y-114576151D01*
X80492192Y-114653142D01*
X80492197Y-114653144D01*
X80677354Y-114692500D01*
X80677355Y-114692500D01*
X80866644Y-114692500D01*
X80866646Y-114692500D01*
X81051803Y-114653144D01*
X81224730Y-114576151D01*
X81377871Y-114464888D01*
X81504533Y-114324216D01*
X81599179Y-114160284D01*
X81657674Y-113980256D01*
X81675321Y-113812344D01*
X81701904Y-113747734D01*
X81710951Y-113737638D01*
X82735772Y-112712819D01*
X82797095Y-112679334D01*
X82823453Y-112676500D01*
X94750770Y-112676500D01*
X94817809Y-112696185D01*
G37*
%TD.AperFunction*%
%TA.AperFunction,Conductor*%
G36*
X114172225Y-116202452D02*
G01*
X114183255Y-116212242D01*
X116236181Y-118265167D01*
X116269666Y-118326490D01*
X116272500Y-118352848D01*
X116272500Y-120503028D01*
X116252815Y-120570067D01*
X116200011Y-120615822D01*
X116130853Y-120625766D01*
X116067297Y-120596741D01*
X116052975Y-120581138D01*
X116052880Y-120581225D01*
X116034568Y-120560888D01*
X115921870Y-120435724D01*
X115921869Y-120435723D01*
X115768733Y-120324463D01*
X115768728Y-120324460D01*
X115595806Y-120247469D01*
X115595801Y-120247467D01*
X115442971Y-120214983D01*
X115410645Y-120208112D01*
X115221353Y-120208112D01*
X115189027Y-120214983D01*
X115036196Y-120247467D01*
X115036191Y-120247469D01*
X114863269Y-120324460D01*
X114863264Y-120324463D01*
X114710128Y-120435723D01*
X114583465Y-120576397D01*
X114488820Y-120740327D01*
X114488817Y-120740334D01*
X114430326Y-120920352D01*
X114430325Y-120920356D01*
X114410539Y-121108612D01*
X114430325Y-121296868D01*
X114430326Y-121296871D01*
X114488817Y-121476889D01*
X114488820Y-121476896D01*
X114583466Y-121640828D01*
X114700537Y-121770848D01*
X114710128Y-121781500D01*
X114863264Y-121892760D01*
X114863269Y-121892763D01*
X115036191Y-121969754D01*
X115036196Y-121969756D01*
X115221353Y-122009112D01*
X115221354Y-122009112D01*
X115410643Y-122009112D01*
X115410645Y-122009112D01*
X115595802Y-121969756D01*
X115768729Y-121892763D01*
X115921870Y-121781500D01*
X116048532Y-121640828D01*
X116048532Y-121640827D01*
X116052880Y-121635999D01*
X116053889Y-121636907D01*
X116103512Y-121598644D01*
X116173126Y-121592665D01*
X116234921Y-121625271D01*
X116269278Y-121686110D01*
X116272500Y-121714195D01*
X116272500Y-125248547D01*
X116252815Y-125315586D01*
X116200011Y-125361341D01*
X116130853Y-125371285D01*
X116067297Y-125342260D01*
X116060819Y-125336228D01*
X115599803Y-124875212D01*
X115589980Y-124862950D01*
X115589759Y-124863134D01*
X115584786Y-124857123D01*
X115579863Y-124852500D01*
X115534364Y-124809773D01*
X115523919Y-124799328D01*
X115513475Y-124788883D01*
X115507986Y-124784625D01*
X115503561Y-124780847D01*
X115469582Y-124748938D01*
X115469580Y-124748936D01*
X115469577Y-124748935D01*
X115452029Y-124739288D01*
X115435763Y-124728604D01*
X115419936Y-124716327D01*
X115419935Y-124716326D01*
X115419933Y-124716325D01*
X115377168Y-124697818D01*
X115371922Y-124695248D01*
X115331093Y-124672803D01*
X115331092Y-124672802D01*
X115311693Y-124667822D01*
X115293281Y-124661518D01*
X115274898Y-124653562D01*
X115274892Y-124653560D01*
X115228874Y-124646272D01*
X115223152Y-124645087D01*
X115178021Y-124633500D01*
X115178019Y-124633500D01*
X115157984Y-124633500D01*
X115138586Y-124631973D01*
X115130586Y-124630706D01*
X115118805Y-124628840D01*
X115118804Y-124628840D01*
X115072416Y-124633225D01*
X115066578Y-124633500D01*
X112788788Y-124633500D01*
X112721749Y-124613815D01*
X112675994Y-124561011D01*
X112665467Y-124496540D01*
X112666762Y-124484214D01*
X112669759Y-124455701D01*
X112649973Y-124267445D01*
X112591478Y-124087417D01*
X112527277Y-123976216D01*
X112527113Y-123975932D01*
X112510500Y-123913932D01*
X112510500Y-117588880D01*
X112530185Y-117521841D01*
X112546815Y-117501203D01*
X113373877Y-116674140D01*
X113435198Y-116640657D01*
X113435534Y-116640584D01*
X113500910Y-116626689D01*
X113673837Y-116549696D01*
X113826978Y-116438433D01*
X113953640Y-116297761D01*
X113988187Y-116237922D01*
X114038753Y-116189708D01*
X114107360Y-116176484D01*
X114172225Y-116202452D01*
G37*
%TD.AperFunction*%
%TA.AperFunction,Conductor*%
G36*
X102688488Y-97216255D02*
G01*
X103775525Y-97275879D01*
X104859659Y-97375164D01*
X105939443Y-97513977D01*
X107013437Y-97692134D01*
X108080208Y-97909397D01*
X109138333Y-98165475D01*
X110186399Y-98460027D01*
X111223008Y-98792660D01*
X112196473Y-99144736D01*
X112252818Y-99186046D01*
X112277886Y-99251264D01*
X112263715Y-99319682D01*
X112227183Y-99361659D01*
X112170128Y-99403112D01*
X112043466Y-99543785D01*
X111948821Y-99707715D01*
X111948818Y-99707722D01*
X111904491Y-99844148D01*
X111890326Y-99887744D01*
X111870540Y-100076000D01*
X111890326Y-100264256D01*
X111890327Y-100264259D01*
X111948818Y-100444277D01*
X111948821Y-100444284D01*
X112043467Y-100608216D01*
X112125660Y-100699500D01*
X112170129Y-100748888D01*
X112323265Y-100860148D01*
X112323270Y-100860151D01*
X112496192Y-100937142D01*
X112496197Y-100937144D01*
X112681354Y-100976500D01*
X112681355Y-100976500D01*
X112870644Y-100976500D01*
X112870646Y-100976500D01*
X113055803Y-100937144D01*
X113228730Y-100860151D01*
X113381871Y-100748888D01*
X113508533Y-100608216D01*
X113603179Y-100444284D01*
X113661674Y-100264256D01*
X113681460Y-100076000D01*
X113669118Y-99958578D01*
X113681687Y-99889853D01*
X113729419Y-99838829D01*
X113797159Y-99821711D01*
X113843008Y-99832402D01*
X114250350Y-100014357D01*
X115227481Y-100494377D01*
X115825628Y-100815851D01*
X116186428Y-101009763D01*
X116210195Y-101023679D01*
X116258102Y-101074539D01*
X116270906Y-101143225D01*
X116244544Y-101207930D01*
X116187384Y-101248111D01*
X116117574Y-101251010D01*
X116109228Y-101248618D01*
X116103805Y-101246856D01*
X115980365Y-101220618D01*
X115918646Y-101207500D01*
X115729354Y-101207500D01*
X115696897Y-101214398D01*
X115544197Y-101246855D01*
X115544192Y-101246857D01*
X115371270Y-101323848D01*
X115371265Y-101323851D01*
X115218129Y-101435111D01*
X115091466Y-101575785D01*
X114996821Y-101739715D01*
X114996818Y-101739722D01*
X114938327Y-101919740D01*
X114938326Y-101919744D01*
X114918540Y-102108000D01*
X114938326Y-102296256D01*
X114938327Y-102296259D01*
X114996818Y-102476277D01*
X114996821Y-102476284D01*
X115091467Y-102640216D01*
X115166650Y-102723715D01*
X115218129Y-102780888D01*
X115371265Y-102892148D01*
X115371270Y-102892151D01*
X115544192Y-102969142D01*
X115544197Y-102969144D01*
X115729354Y-103008500D01*
X115729355Y-103008500D01*
X115918644Y-103008500D01*
X115918646Y-103008500D01*
X116103803Y-102969144D01*
X116276730Y-102892151D01*
X116429871Y-102780888D01*
X116556533Y-102640216D01*
X116651179Y-102476284D01*
X116709674Y-102296256D01*
X116729460Y-102108000D01*
X116709674Y-101919744D01*
X116651179Y-101739716D01*
X116556533Y-101575784D01*
X116429871Y-101435112D01*
X116429870Y-101435111D01*
X116425684Y-101430462D01*
X116395454Y-101367471D01*
X116404079Y-101298136D01*
X116448820Y-101244470D01*
X116515473Y-101223512D01*
X116580483Y-101240481D01*
X117125913Y-101559828D01*
X118044681Y-102143838D01*
X118941507Y-102761014D01*
X119815195Y-103410532D01*
X120664577Y-104091526D01*
X121488522Y-104803086D01*
X122285930Y-105544264D01*
X123055736Y-106314070D01*
X123796914Y-107111478D01*
X124508474Y-107935423D01*
X125189468Y-108784805D01*
X125838986Y-109658493D01*
X126456162Y-110555319D01*
X127040172Y-111474087D01*
X127590237Y-112413572D01*
X128105623Y-113372519D01*
X128331152Y-113831606D01*
X128585643Y-114349650D01*
X129029656Y-115343660D01*
X129437070Y-116353223D01*
X129807340Y-117376992D01*
X130139973Y-118413601D01*
X130434525Y-119461667D01*
X130690603Y-120519792D01*
X130907866Y-121586563D01*
X131086023Y-122660557D01*
X131224836Y-123740341D01*
X131324121Y-124824475D01*
X131383745Y-125911512D01*
X131403629Y-127000000D01*
X131383745Y-128088488D01*
X131360790Y-128506987D01*
X131324121Y-129175525D01*
X131224836Y-130259659D01*
X131086023Y-131339443D01*
X130907866Y-132413437D01*
X130690603Y-133480208D01*
X130434525Y-134538333D01*
X130139973Y-135586399D01*
X129807340Y-136623008D01*
X129437070Y-137646777D01*
X129029656Y-138656340D01*
X128585643Y-139650350D01*
X128105623Y-140627481D01*
X127590237Y-141586428D01*
X127040172Y-142525913D01*
X126456162Y-143444681D01*
X125838986Y-144341507D01*
X125189468Y-145215195D01*
X124508474Y-146064577D01*
X123796914Y-146888522D01*
X123055736Y-147685930D01*
X122285930Y-148455736D01*
X121488522Y-149196914D01*
X120664577Y-149908474D01*
X119815195Y-150589468D01*
X118941507Y-151238986D01*
X118044681Y-151856162D01*
X117125913Y-152440172D01*
X116186428Y-152990237D01*
X115227481Y-153505623D01*
X114441774Y-153891605D01*
X114250350Y-153985643D01*
X113256340Y-154429656D01*
X112246777Y-154837070D01*
X111223008Y-155207340D01*
X110186399Y-155539973D01*
X109138333Y-155834525D01*
X108080208Y-156090603D01*
X107027070Y-156305089D01*
X106957451Y-156299179D01*
X106902079Y-156256568D01*
X106878533Y-156190785D01*
X106880861Y-156158626D01*
X106920500Y-155965741D01*
X106920500Y-155213258D01*
X106905074Y-155061562D01*
X106905074Y-155061560D01*
X106844162Y-154867420D01*
X106844160Y-154867416D01*
X106844159Y-154867412D01*
X106745409Y-154689498D01*
X106745408Y-154689497D01*
X106745407Y-154689495D01*
X106612867Y-154535106D01*
X106612865Y-154535104D01*
X106451962Y-154410554D01*
X106451959Y-154410553D01*
X106451958Y-154410552D01*
X106269271Y-154320940D01*
X106072285Y-154269937D01*
X106072287Y-154269937D01*
X105936804Y-154263066D01*
X105869064Y-154259631D01*
X105869063Y-154259631D01*
X105869061Y-154259631D01*
X105667936Y-154290442D01*
X105667924Y-154290445D01*
X105477118Y-154361111D01*
X105477111Y-154361115D01*
X105304432Y-154468745D01*
X105304427Y-154468749D01*
X105156949Y-154608938D01*
X105156948Y-154608940D01*
X105040705Y-154775949D01*
X104960459Y-154962943D01*
X104919500Y-155162258D01*
X104919500Y-155914743D01*
X104934925Y-156066439D01*
X104995837Y-156260579D01*
X104995844Y-156260594D01*
X105086753Y-156424381D01*
X105102076Y-156492549D01*
X105078112Y-156558181D01*
X105022469Y-156600438D01*
X104994146Y-156607546D01*
X104877267Y-156622572D01*
X104859659Y-156624836D01*
X103775525Y-156724121D01*
X102688488Y-156783745D01*
X101600000Y-156803629D01*
X100511512Y-156783745D01*
X99424475Y-156724121D01*
X98340341Y-156624836D01*
X98202622Y-156607131D01*
X98138640Y-156579059D01*
X98099991Y-156520852D01*
X98098947Y-156450990D01*
X98116657Y-156413308D01*
X98159295Y-156352049D01*
X98239540Y-156165058D01*
X98280500Y-155965741D01*
X98280500Y-155213258D01*
X98265074Y-155061562D01*
X98265074Y-155061560D01*
X98204162Y-154867420D01*
X98204160Y-154867416D01*
X98204159Y-154867412D01*
X98105409Y-154689498D01*
X98105408Y-154689497D01*
X98105407Y-154689495D01*
X97972867Y-154535106D01*
X97972865Y-154535104D01*
X97811962Y-154410554D01*
X97811959Y-154410553D01*
X97811958Y-154410552D01*
X97629271Y-154320940D01*
X97432285Y-154269937D01*
X97432287Y-154269937D01*
X97296804Y-154263066D01*
X97229064Y-154259631D01*
X97229063Y-154259631D01*
X97229061Y-154259631D01*
X97027936Y-154290442D01*
X97027924Y-154290445D01*
X96837118Y-154361111D01*
X96837111Y-154361115D01*
X96664432Y-154468745D01*
X96664427Y-154468749D01*
X96516949Y-154608938D01*
X96516948Y-154608940D01*
X96400705Y-154775949D01*
X96320459Y-154962943D01*
X96279500Y-155162258D01*
X96279500Y-155914743D01*
X96294925Y-156066439D01*
X96320309Y-156147342D01*
X96321596Y-156217200D01*
X96284911Y-156276664D01*
X96221901Y-156306855D01*
X96177250Y-156305969D01*
X95119792Y-156090603D01*
X94099344Y-155843643D01*
X94038815Y-155808741D01*
X94006765Y-155746657D01*
X94013368Y-155677100D01*
X94056528Y-155622154D01*
X94078072Y-155609844D01*
X94241904Y-155536901D01*
X94395045Y-155425638D01*
X94521707Y-155284966D01*
X94616353Y-155121034D01*
X94674848Y-154941006D01*
X94694634Y-154752750D01*
X94674848Y-154564494D01*
X94616353Y-154384466D01*
X94521707Y-154220534D01*
X94395045Y-154079862D01*
X94395044Y-154079861D01*
X94241908Y-153968601D01*
X94241903Y-153968598D01*
X94068981Y-153891607D01*
X94068976Y-153891605D01*
X93923175Y-153860615D01*
X93883820Y-153852250D01*
X93694528Y-153852250D01*
X93662071Y-153859148D01*
X93509371Y-153891605D01*
X93509366Y-153891607D01*
X93336444Y-153968598D01*
X93336439Y-153968601D01*
X93183303Y-154079861D01*
X93056640Y-154220535D01*
X92961995Y-154384465D01*
X92961992Y-154384472D01*
X92903501Y-154564490D01*
X92903500Y-154564494D01*
X92883714Y-154752750D01*
X92903500Y-154941006D01*
X92903501Y-154941009D01*
X92961992Y-155121027D01*
X92961995Y-155121034D01*
X93056640Y-155284965D01*
X93089625Y-155321598D01*
X93119856Y-155384590D01*
X93111231Y-155453925D01*
X93066490Y-155507591D01*
X92999838Y-155528549D01*
X92959589Y-155522641D01*
X91976992Y-155207340D01*
X90953223Y-154837070D01*
X89943660Y-154429656D01*
X88949650Y-153985643D01*
X88758226Y-153891605D01*
X87972519Y-153505623D01*
X87013572Y-152990237D01*
X86873115Y-152908000D01*
X91042540Y-152908000D01*
X91062326Y-153096256D01*
X91062327Y-153096259D01*
X91120818Y-153276277D01*
X91120821Y-153276284D01*
X91215467Y-153440216D01*
X91274360Y-153505623D01*
X91342129Y-153580888D01*
X91495265Y-153692148D01*
X91495270Y-153692151D01*
X91668192Y-153769142D01*
X91668197Y-153769144D01*
X91853354Y-153808500D01*
X91853355Y-153808500D01*
X92042644Y-153808500D01*
X92042646Y-153808500D01*
X92227803Y-153769144D01*
X92400730Y-153692151D01*
X92553871Y-153580888D01*
X92680533Y-153440216D01*
X92694514Y-153416000D01*
X108822540Y-153416000D01*
X108842326Y-153604256D01*
X108842327Y-153604259D01*
X108900818Y-153784277D01*
X108900821Y-153784284D01*
X108995467Y-153948216D01*
X109013822Y-153968601D01*
X109122129Y-154088888D01*
X109275265Y-154200148D01*
X109275270Y-154200151D01*
X109448192Y-154277142D01*
X109448197Y-154277144D01*
X109633354Y-154316500D01*
X109633355Y-154316500D01*
X109822644Y-154316500D01*
X109822646Y-154316500D01*
X110007803Y-154277144D01*
X110180730Y-154200151D01*
X110333871Y-154088888D01*
X110460533Y-153948216D01*
X110555179Y-153784284D01*
X110613674Y-153604256D01*
X110633460Y-153416000D01*
X110613674Y-153227744D01*
X110555179Y-153047716D01*
X110460533Y-152883784D01*
X110333871Y-152743112D01*
X110333870Y-152743111D01*
X110180734Y-152631851D01*
X110180729Y-152631848D01*
X110007807Y-152554857D01*
X110007802Y-152554855D01*
X109862001Y-152523865D01*
X109822646Y-152515500D01*
X109633354Y-152515500D01*
X109600897Y-152522398D01*
X109448197Y-152554855D01*
X109448192Y-152554857D01*
X109275270Y-152631848D01*
X109275265Y-152631851D01*
X109122129Y-152743111D01*
X108995466Y-152883785D01*
X108900821Y-153047715D01*
X108900818Y-153047722D01*
X108842327Y-153227740D01*
X108842326Y-153227744D01*
X108822540Y-153416000D01*
X92694514Y-153416000D01*
X92775179Y-153276284D01*
X92833674Y-153096256D01*
X92853460Y-152908000D01*
X92833674Y-152719744D01*
X92775179Y-152539716D01*
X92680533Y-152375784D01*
X92553871Y-152235112D01*
X92511370Y-152204233D01*
X92400734Y-152123851D01*
X92400729Y-152123848D01*
X92227807Y-152046857D01*
X92227802Y-152046855D01*
X92082001Y-152015865D01*
X92042646Y-152007500D01*
X91853354Y-152007500D01*
X91820897Y-152014398D01*
X91668197Y-152046855D01*
X91668192Y-152046857D01*
X91495270Y-152123848D01*
X91495265Y-152123851D01*
X91342129Y-152235111D01*
X91215466Y-152375785D01*
X91120821Y-152539715D01*
X91120818Y-152539722D01*
X91090884Y-152631851D01*
X91062326Y-152719744D01*
X91042540Y-152908000D01*
X86873115Y-152908000D01*
X86074087Y-152440172D01*
X85155319Y-151856162D01*
X84258493Y-151238986D01*
X83384805Y-150589468D01*
X82535423Y-149908474D01*
X81711478Y-149196914D01*
X80914070Y-148455736D01*
X80144264Y-147685930D01*
X79403086Y-146888522D01*
X78691526Y-146064577D01*
X78010532Y-145215195D01*
X77361014Y-144341507D01*
X76743838Y-143444681D01*
X76159828Y-142525913D01*
X75992427Y-142240000D01*
X77834540Y-142240000D01*
X77854326Y-142428256D01*
X77854327Y-142428259D01*
X77912818Y-142608277D01*
X77912821Y-142608284D01*
X78007467Y-142772216D01*
X78111620Y-142887889D01*
X78134129Y-142912888D01*
X78287265Y-143024148D01*
X78287270Y-143024151D01*
X78460192Y-143101142D01*
X78460197Y-143101144D01*
X78645354Y-143140500D01*
X78645355Y-143140500D01*
X78834644Y-143140500D01*
X78834646Y-143140500D01*
X79019803Y-143101144D01*
X79192730Y-143024151D01*
X79345871Y-142912888D01*
X79472533Y-142772216D01*
X79567179Y-142608284D01*
X79625674Y-142428256D01*
X79645460Y-142240000D01*
X79625674Y-142051744D01*
X79567179Y-141871716D01*
X79472533Y-141707784D01*
X79345871Y-141567112D01*
X79345870Y-141567111D01*
X79192734Y-141455851D01*
X79192729Y-141455848D01*
X79019807Y-141378857D01*
X79019802Y-141378855D01*
X78874001Y-141347865D01*
X78834646Y-141339500D01*
X78645354Y-141339500D01*
X78612897Y-141346398D01*
X78460197Y-141378855D01*
X78460192Y-141378857D01*
X78287270Y-141455848D01*
X78287265Y-141455851D01*
X78134129Y-141567111D01*
X78007466Y-141707785D01*
X77912821Y-141871715D01*
X77912818Y-141871722D01*
X77879988Y-141972764D01*
X77854326Y-142051744D01*
X77834540Y-142240000D01*
X75992427Y-142240000D01*
X75609763Y-141586428D01*
X75094377Y-140627481D01*
X74614357Y-139650350D01*
X74170344Y-138656340D01*
X73762930Y-137646777D01*
X73392660Y-136623008D01*
X73060027Y-135586399D01*
X72765475Y-134538333D01*
X72509397Y-133480208D01*
X72292134Y-132413437D01*
X72211134Y-131925142D01*
X72162349Y-131631045D01*
X72170797Y-131561688D01*
X72215402Y-131507909D01*
X72282000Y-131486782D01*
X72349449Y-131505015D01*
X72392064Y-131548753D01*
X72419467Y-131596216D01*
X72483567Y-131667406D01*
X72546129Y-131736888D01*
X72699265Y-131848148D01*
X72699270Y-131848151D01*
X72872192Y-131925142D01*
X72872197Y-131925144D01*
X73057354Y-131964500D01*
X73057355Y-131964500D01*
X73246644Y-131964500D01*
X73246646Y-131964500D01*
X73431803Y-131925144D01*
X73604730Y-131848151D01*
X73757871Y-131736888D01*
X73884533Y-131596216D01*
X73979179Y-131432284D01*
X74037674Y-131252256D01*
X74057460Y-131064000D01*
X74786540Y-131064000D01*
X74806326Y-131252256D01*
X74806327Y-131252259D01*
X74864818Y-131432277D01*
X74864821Y-131432284D01*
X74959467Y-131596216D01*
X75023567Y-131667406D01*
X75086129Y-131736888D01*
X75239265Y-131848148D01*
X75239270Y-131848151D01*
X75412192Y-131925142D01*
X75412197Y-131925144D01*
X75597354Y-131964500D01*
X75597355Y-131964500D01*
X75786644Y-131964500D01*
X75786646Y-131964500D01*
X75971803Y-131925144D01*
X76144730Y-131848151D01*
X76297871Y-131736888D01*
X76424533Y-131596216D01*
X76519179Y-131432284D01*
X76577674Y-131252256D01*
X76597460Y-131064000D01*
X76577674Y-130875744D01*
X76519179Y-130695716D01*
X76474308Y-130617997D01*
X76457836Y-130550100D01*
X76474309Y-130494001D01*
X76519179Y-130416284D01*
X76577674Y-130236256D01*
X76597460Y-130048000D01*
X76577674Y-129859744D01*
X76519179Y-129679716D01*
X76424533Y-129515784D01*
X76297871Y-129375112D01*
X76297870Y-129375111D01*
X76144734Y-129263851D01*
X76144729Y-129263848D01*
X75971807Y-129186857D01*
X75971802Y-129186855D01*
X75817974Y-129154159D01*
X75786646Y-129147500D01*
X75597354Y-129147500D01*
X75566026Y-129154159D01*
X75412197Y-129186855D01*
X75412192Y-129186857D01*
X75239270Y-129263848D01*
X75239265Y-129263851D01*
X75086129Y-129375111D01*
X74959466Y-129515785D01*
X74864821Y-129679715D01*
X74864818Y-129679722D01*
X74834884Y-129771851D01*
X74806326Y-129859744D01*
X74786540Y-130048000D01*
X74806326Y-130236256D01*
X74806327Y-130236259D01*
X74864820Y-130416283D01*
X74909690Y-130494001D01*
X74926162Y-130561901D01*
X74909690Y-130617999D01*
X74864820Y-130695716D01*
X74820491Y-130832148D01*
X74806326Y-130875744D01*
X74786540Y-131064000D01*
X74057460Y-131064000D01*
X74037674Y-130875744D01*
X73979179Y-130695716D01*
X73884533Y-130531784D01*
X73757871Y-130391112D01*
X73725708Y-130367744D01*
X73604734Y-130279851D01*
X73604729Y-130279848D01*
X73431807Y-130202857D01*
X73431802Y-130202855D01*
X73286001Y-130171865D01*
X73246646Y-130163500D01*
X73057354Y-130163500D01*
X73024897Y-130170398D01*
X72872197Y-130202855D01*
X72872192Y-130202857D01*
X72699270Y-130279848D01*
X72699265Y-130279851D01*
X72546129Y-130391111D01*
X72419466Y-130531785D01*
X72324821Y-130695715D01*
X72324819Y-130695719D01*
X72285001Y-130818266D01*
X72245563Y-130875941D01*
X72181204Y-130903139D01*
X72112358Y-130891224D01*
X72060882Y-130843979D01*
X72044083Y-130795762D01*
X71975164Y-130259659D01*
X71875879Y-129175525D01*
X71839210Y-128506987D01*
X71816255Y-128088488D01*
X71796371Y-127000000D01*
X71814931Y-125984000D01*
X76310540Y-125984000D01*
X76330326Y-126172256D01*
X76330327Y-126172259D01*
X76388818Y-126352277D01*
X76388821Y-126352284D01*
X76483467Y-126516216D01*
X76610129Y-126656888D01*
X76763265Y-126768148D01*
X76763270Y-126768151D01*
X76936192Y-126845142D01*
X76936197Y-126845144D01*
X77121354Y-126884500D01*
X77121355Y-126884500D01*
X77310644Y-126884500D01*
X77310646Y-126884500D01*
X77495803Y-126845144D01*
X77668730Y-126768151D01*
X77821871Y-126656888D01*
X77948533Y-126516216D01*
X78043179Y-126352284D01*
X78101674Y-126172256D01*
X78121460Y-125984000D01*
X78101674Y-125795744D01*
X78043179Y-125615716D01*
X77948533Y-125451784D01*
X77821871Y-125311112D01*
X77789708Y-125287744D01*
X77668734Y-125199851D01*
X77668729Y-125199848D01*
X77495807Y-125122857D01*
X77495802Y-125122855D01*
X77350001Y-125091865D01*
X77310646Y-125083500D01*
X77121354Y-125083500D01*
X77088897Y-125090398D01*
X76936197Y-125122855D01*
X76936192Y-125122857D01*
X76763270Y-125199848D01*
X76763265Y-125199851D01*
X76610129Y-125311111D01*
X76483466Y-125451785D01*
X76388821Y-125615715D01*
X76388818Y-125615722D01*
X76330327Y-125795740D01*
X76330326Y-125795744D01*
X76310540Y-125984000D01*
X71814931Y-125984000D01*
X71816255Y-125911512D01*
X71875879Y-124824475D01*
X71975164Y-123740341D01*
X72113977Y-122660557D01*
X72292134Y-121586563D01*
X72509397Y-120519792D01*
X72541629Y-120386609D01*
X72580949Y-120224134D01*
X72615850Y-120163607D01*
X72677935Y-120131556D01*
X72747492Y-120138159D01*
X72802437Y-120181319D01*
X72819401Y-120214983D01*
X72832819Y-120256280D01*
X72832821Y-120256284D01*
X72927467Y-120420216D01*
X73009660Y-120511500D01*
X73054129Y-120560888D01*
X73207265Y-120672148D01*
X73207270Y-120672151D01*
X73380192Y-120749142D01*
X73380197Y-120749144D01*
X73565354Y-120788500D01*
X73565355Y-120788500D01*
X73754644Y-120788500D01*
X73754646Y-120788500D01*
X73939803Y-120749144D01*
X74112730Y-120672151D01*
X74265871Y-120560888D01*
X74392533Y-120420216D01*
X74487179Y-120256284D01*
X74545674Y-120076256D01*
X74565460Y-119888000D01*
X74545674Y-119699744D01*
X74487179Y-119519716D01*
X74392533Y-119355784D01*
X74265871Y-119215112D01*
X74265870Y-119215111D01*
X74112734Y-119103851D01*
X74112729Y-119103848D01*
X73939807Y-119026857D01*
X73939802Y-119026855D01*
X73794001Y-118995865D01*
X73754646Y-118987500D01*
X73565354Y-118987500D01*
X73532897Y-118994398D01*
X73380197Y-119026855D01*
X73380192Y-119026857D01*
X73207270Y-119103848D01*
X73207265Y-119103851D01*
X73067349Y-119205506D01*
X73001542Y-119228986D01*
X72933489Y-119213160D01*
X72884794Y-119163054D01*
X72870919Y-119094576D01*
X72875087Y-119071648D01*
X73060027Y-118413601D01*
X73392660Y-117376992D01*
X73762930Y-116353223D01*
X74170344Y-115343660D01*
X74418464Y-114788195D01*
X77093840Y-114788195D01*
X77098225Y-114834583D01*
X77098500Y-114840421D01*
X77098500Y-121837255D01*
X77096775Y-121852872D01*
X77097061Y-121852899D01*
X77096326Y-121860665D01*
X77098500Y-121929814D01*
X77098500Y-121959343D01*
X77098501Y-121959360D01*
X77099368Y-121966231D01*
X77099826Y-121972050D01*
X77101290Y-122018624D01*
X77101291Y-122018627D01*
X77106880Y-122037867D01*
X77110824Y-122056911D01*
X77113336Y-122076792D01*
X77127941Y-122113681D01*
X77130490Y-122120119D01*
X77132382Y-122125647D01*
X77134997Y-122134649D01*
X77145382Y-122170390D01*
X77155040Y-122186722D01*
X77155580Y-122187634D01*
X77164136Y-122205100D01*
X77166726Y-122211640D01*
X77171514Y-122223732D01*
X77198898Y-122261423D01*
X77202106Y-122266307D01*
X77225827Y-122306416D01*
X77225833Y-122306424D01*
X77239990Y-122320580D01*
X77252628Y-122335376D01*
X77264405Y-122351586D01*
X77264406Y-122351587D01*
X77300309Y-122381288D01*
X77304620Y-122385210D01*
X81872355Y-126952946D01*
X83319197Y-128399788D01*
X83329022Y-128412051D01*
X83329243Y-128411869D01*
X83334214Y-128417878D01*
X83360217Y-128442295D01*
X83384635Y-128465226D01*
X83405529Y-128486120D01*
X83411011Y-128490373D01*
X83415443Y-128494157D01*
X83449418Y-128526062D01*
X83466976Y-128535714D01*
X83483233Y-128546393D01*
X83499064Y-128558673D01*
X83518737Y-128567186D01*
X83541833Y-128577182D01*
X83547077Y-128579750D01*
X83587908Y-128602197D01*
X83600523Y-128605435D01*
X83607305Y-128607177D01*
X83625719Y-128613481D01*
X83644104Y-128621438D01*
X83690157Y-128628732D01*
X83695826Y-128629906D01*
X83740981Y-128641500D01*
X83761016Y-128641500D01*
X83780413Y-128643026D01*
X83800196Y-128646160D01*
X83846584Y-128641775D01*
X83852422Y-128641500D01*
X84640252Y-128641500D01*
X84707291Y-128661185D01*
X84732400Y-128682526D01*
X84738126Y-128688885D01*
X84738130Y-128688889D01*
X84891265Y-128800148D01*
X84891270Y-128800151D01*
X85064192Y-128877142D01*
X85064197Y-128877144D01*
X85249354Y-128916500D01*
X85249355Y-128916500D01*
X85438641Y-128916500D01*
X85438646Y-128916500D01*
X85457721Y-128912445D01*
X85527383Y-128917760D01*
X85583118Y-128959895D01*
X85607225Y-129025475D01*
X85607500Y-129033735D01*
X85607500Y-135856085D01*
X85587815Y-135923124D01*
X85535011Y-135968879D01*
X85465853Y-135978823D01*
X85410615Y-135956403D01*
X85288734Y-135867851D01*
X85288729Y-135867848D01*
X85115807Y-135790857D01*
X85115802Y-135790855D01*
X84970001Y-135759865D01*
X84930646Y-135751500D01*
X84741354Y-135751500D01*
X84708897Y-135758398D01*
X84556197Y-135790855D01*
X84556192Y-135790857D01*
X84383270Y-135867848D01*
X84383265Y-135867851D01*
X84230129Y-135979111D01*
X84103466Y-136119785D01*
X84008821Y-136283715D01*
X84008818Y-136283722D01*
X83950327Y-136463740D01*
X83950326Y-136463744D01*
X83930540Y-136652000D01*
X83950326Y-136840256D01*
X83950327Y-136840259D01*
X84008818Y-137020277D01*
X84008821Y-137020284D01*
X84103467Y-137184216D01*
X84229434Y-137324116D01*
X84230129Y-137324888D01*
X84383265Y-137436148D01*
X84383270Y-137436151D01*
X84556192Y-137513142D01*
X84556197Y-137513144D01*
X84741354Y-137552500D01*
X84741355Y-137552500D01*
X84930644Y-137552500D01*
X84930646Y-137552500D01*
X85115803Y-137513144D01*
X85288730Y-137436151D01*
X85410617Y-137347594D01*
X85476420Y-137324116D01*
X85544474Y-137339941D01*
X85593169Y-137390047D01*
X85607500Y-137447914D01*
X85607500Y-142030255D01*
X85605775Y-142045872D01*
X85606061Y-142045899D01*
X85605326Y-142053665D01*
X85607500Y-142122814D01*
X85607500Y-142152343D01*
X85607501Y-142152360D01*
X85608368Y-142159231D01*
X85608826Y-142165050D01*
X85610290Y-142211624D01*
X85610291Y-142211627D01*
X85615880Y-142230867D01*
X85619824Y-142249911D01*
X85622336Y-142269791D01*
X85639490Y-142313119D01*
X85641382Y-142318647D01*
X85654381Y-142363388D01*
X85664580Y-142380634D01*
X85673138Y-142398103D01*
X85680514Y-142416732D01*
X85707898Y-142454423D01*
X85711106Y-142459307D01*
X85734827Y-142499416D01*
X85734833Y-142499424D01*
X85748990Y-142513580D01*
X85761628Y-142528376D01*
X85773405Y-142544586D01*
X85773406Y-142544587D01*
X85809309Y-142574288D01*
X85813620Y-142578210D01*
X88909530Y-145674121D01*
X89923197Y-146687788D01*
X89933022Y-146700051D01*
X89933243Y-146699869D01*
X89938214Y-146705878D01*
X89964217Y-146730295D01*
X89988635Y-146753226D01*
X90009529Y-146774120D01*
X90015011Y-146778373D01*
X90019443Y-146782157D01*
X90053418Y-146814062D01*
X90070976Y-146823714D01*
X90087233Y-146834393D01*
X90103064Y-146846673D01*
X90122737Y-146855186D01*
X90145833Y-146865182D01*
X90151077Y-146867750D01*
X90191908Y-146890197D01*
X90204523Y-146893435D01*
X90211305Y-146895177D01*
X90229719Y-146901481D01*
X90248104Y-146909438D01*
X90294157Y-146916732D01*
X90299826Y-146917906D01*
X90344981Y-146929500D01*
X90365016Y-146929500D01*
X90384413Y-146931026D01*
X90404196Y-146934160D01*
X90450584Y-146929775D01*
X90456422Y-146929500D01*
X100896252Y-146929500D01*
X100963291Y-146949185D01*
X100988394Y-146970519D01*
X100994129Y-146976888D01*
X100994131Y-146976889D01*
X100994382Y-146977168D01*
X101024618Y-147040156D01*
X101016000Y-147109492D01*
X100989921Y-147147830D01*
X99955572Y-148182181D01*
X99894249Y-148215666D01*
X99867891Y-148218500D01*
X91127748Y-148218500D01*
X91060709Y-148198815D01*
X91035600Y-148177474D01*
X91029873Y-148171114D01*
X91029869Y-148171110D01*
X90876734Y-148059851D01*
X90876729Y-148059848D01*
X90703807Y-147982857D01*
X90703802Y-147982855D01*
X90558001Y-147951865D01*
X90518646Y-147943500D01*
X90329354Y-147943500D01*
X90296897Y-147950398D01*
X90144197Y-147982855D01*
X90144192Y-147982857D01*
X89971270Y-148059848D01*
X89971265Y-148059851D01*
X89818135Y-148171106D01*
X89818127Y-148171113D01*
X89811543Y-148178425D01*
X89752053Y-148215069D01*
X89682196Y-148213734D01*
X89631718Y-148183127D01*
X83276772Y-141828181D01*
X83243287Y-141766858D01*
X83248271Y-141697166D01*
X83290143Y-141641233D01*
X83355607Y-141616816D01*
X83364453Y-141616500D01*
X83406644Y-141616500D01*
X83406646Y-141616500D01*
X83591803Y-141577144D01*
X83764730Y-141500151D01*
X83917871Y-141388888D01*
X84044533Y-141248216D01*
X84139179Y-141084284D01*
X84197674Y-140904256D01*
X84217460Y-140716000D01*
X84197674Y-140527744D01*
X84139179Y-140347716D01*
X84044533Y-140183784D01*
X83917871Y-140043112D01*
X83885708Y-140019744D01*
X83764734Y-139931851D01*
X83764729Y-139931848D01*
X83591807Y-139854857D01*
X83591802Y-139854855D01*
X83446001Y-139823865D01*
X83406646Y-139815500D01*
X83217354Y-139815500D01*
X83184897Y-139822398D01*
X83032197Y-139854855D01*
X83032192Y-139854857D01*
X82859270Y-139931848D01*
X82859265Y-139931851D01*
X82706129Y-140043111D01*
X82579466Y-140183785D01*
X82484821Y-140347715D01*
X82484818Y-140347722D01*
X82426327Y-140527740D01*
X82426326Y-140527744D01*
X82410703Y-140676391D01*
X82384118Y-140741005D01*
X82326821Y-140780990D01*
X82257002Y-140783650D01*
X82199701Y-140751110D01*
X81710960Y-140262369D01*
X81677475Y-140201046D01*
X81675323Y-140187668D01*
X81657674Y-140019744D01*
X81599179Y-139839716D01*
X81504533Y-139675784D01*
X81377871Y-139535112D01*
X81377870Y-139535111D01*
X81224734Y-139423851D01*
X81224729Y-139423848D01*
X81051807Y-139346857D01*
X81051802Y-139346855D01*
X80906001Y-139315865D01*
X80866646Y-139307500D01*
X80677354Y-139307500D01*
X80644897Y-139314398D01*
X80492197Y-139346855D01*
X80492192Y-139346857D01*
X80319270Y-139423848D01*
X80319265Y-139423851D01*
X80166129Y-139535111D01*
X80039466Y-139675785D01*
X79944821Y-139839715D01*
X79944818Y-139839722D01*
X79914884Y-139931851D01*
X79886326Y-140019744D01*
X79866540Y-140208000D01*
X79886326Y-140396256D01*
X79886327Y-140396259D01*
X79944818Y-140576277D01*
X79944821Y-140576284D01*
X80039467Y-140740216D01*
X80078681Y-140783767D01*
X80166129Y-140880888D01*
X80319265Y-140992148D01*
X80319270Y-140992151D01*
X80492192Y-141069142D01*
X80492197Y-141069144D01*
X80677354Y-141108500D01*
X80736548Y-141108500D01*
X80803587Y-141128185D01*
X80824229Y-141144819D01*
X82436800Y-142757390D01*
X82470285Y-142818713D01*
X82465301Y-142888405D01*
X82423429Y-142944338D01*
X82399557Y-142958349D01*
X82351270Y-142979849D01*
X82351268Y-142979849D01*
X82351264Y-142979852D01*
X82198129Y-143091111D01*
X82071466Y-143231785D01*
X81976821Y-143395715D01*
X81976818Y-143395722D01*
X81921945Y-143564605D01*
X81918326Y-143575744D01*
X81898540Y-143764000D01*
X81918326Y-143952256D01*
X81918327Y-143952259D01*
X81976818Y-144132277D01*
X81976821Y-144132284D01*
X82071467Y-144296216D01*
X82189095Y-144426855D01*
X82198129Y-144436888D01*
X82351265Y-144548148D01*
X82351270Y-144548151D01*
X82524192Y-144625142D01*
X82524197Y-144625144D01*
X82709354Y-144664500D01*
X82709355Y-144664500D01*
X82898644Y-144664500D01*
X82898646Y-144664500D01*
X83083803Y-144625144D01*
X83256730Y-144548151D01*
X83409871Y-144436888D01*
X83536533Y-144296216D01*
X83556806Y-144261103D01*
X83616452Y-144157792D01*
X83667018Y-144109576D01*
X83735625Y-144096352D01*
X83800490Y-144122320D01*
X83811519Y-144132109D01*
X86503120Y-146823711D01*
X89176286Y-149496877D01*
X89195336Y-149521436D01*
X89200830Y-149530725D01*
X89200834Y-149530729D01*
X89214991Y-149544886D01*
X89227626Y-149559679D01*
X89239404Y-149575889D01*
X89239406Y-149575892D01*
X89275309Y-149605593D01*
X89279620Y-149609515D01*
X89578579Y-149908474D01*
X89622889Y-149952784D01*
X89632712Y-149965045D01*
X89632934Y-149964863D01*
X89637907Y-149970875D01*
X89688331Y-150018227D01*
X89709218Y-150039115D01*
X89709222Y-150039118D01*
X89709224Y-150039120D01*
X89714706Y-150043373D01*
X89719138Y-150047157D01*
X89753113Y-150079062D01*
X89770671Y-150088714D01*
X89786930Y-150099395D01*
X89802759Y-150111673D01*
X89845533Y-150130182D01*
X89850751Y-150132738D01*
X89891603Y-150155197D01*
X89911011Y-150160180D01*
X89929412Y-150166480D01*
X89947799Y-150174437D01*
X89991183Y-150181308D01*
X89993814Y-150181725D01*
X89999534Y-150182909D01*
X90044676Y-150194500D01*
X90064711Y-150194500D01*
X90084109Y-150196026D01*
X90103889Y-150199159D01*
X90103890Y-150199160D01*
X90103890Y-150199159D01*
X90103891Y-150199160D01*
X90150279Y-150194775D01*
X90156117Y-150194500D01*
X94134882Y-150194500D01*
X94201921Y-150214185D01*
X94247676Y-150266989D01*
X94257620Y-150336147D01*
X94242269Y-150380500D01*
X94168821Y-150507715D01*
X94168818Y-150507722D01*
X94110327Y-150687740D01*
X94110326Y-150687744D01*
X94090540Y-150876000D01*
X94110326Y-151064256D01*
X94110327Y-151064259D01*
X94168818Y-151244277D01*
X94168821Y-151244284D01*
X94263467Y-151408216D01*
X94371658Y-151528374D01*
X94390129Y-151548888D01*
X94543265Y-151660148D01*
X94543270Y-151660151D01*
X94716192Y-151737142D01*
X94716197Y-151737144D01*
X94901354Y-151776500D01*
X94901355Y-151776500D01*
X95090644Y-151776500D01*
X95090646Y-151776500D01*
X95275803Y-151737144D01*
X95448730Y-151660151D01*
X95601871Y-151548888D01*
X95728533Y-151408216D01*
X95823179Y-151244284D01*
X95881674Y-151064256D01*
X95901460Y-150876000D01*
X95881674Y-150687744D01*
X95823179Y-150507716D01*
X95749731Y-150380500D01*
X95733258Y-150312599D01*
X95756111Y-150246573D01*
X95811032Y-150203382D01*
X95857118Y-150194500D01*
X96277549Y-150194500D01*
X96344588Y-150214185D01*
X96390343Y-150266989D01*
X96400287Y-150336147D01*
X96391500Y-150367400D01*
X96320460Y-150532941D01*
X96279500Y-150732258D01*
X96279500Y-151984743D01*
X96294925Y-152136439D01*
X96355837Y-152330579D01*
X96355844Y-152330594D01*
X96454589Y-152508499D01*
X96454592Y-152508504D01*
X96587132Y-152662893D01*
X96587134Y-152662895D01*
X96748037Y-152787445D01*
X96748038Y-152787445D01*
X96748042Y-152787448D01*
X96930729Y-152877060D01*
X97127715Y-152928063D01*
X97330936Y-152938369D01*
X97532071Y-152907556D01*
X97722887Y-152836886D01*
X97895571Y-152729252D01*
X98043053Y-152589059D01*
X98159295Y-152422049D01*
X98162645Y-152414240D01*
X98207167Y-152360398D01*
X98273734Y-152339171D01*
X98341210Y-152357303D01*
X98352074Y-152364755D01*
X98419767Y-152416698D01*
X98559764Y-152474687D01*
X98672280Y-152489500D01*
X98672287Y-152489500D01*
X98747713Y-152489500D01*
X98747720Y-152489500D01*
X98860236Y-152474687D01*
X99000233Y-152416698D01*
X99120451Y-152324451D01*
X99177196Y-152250500D01*
X100694540Y-152250500D01*
X100714326Y-152438756D01*
X100714327Y-152438759D01*
X100772818Y-152618777D01*
X100772821Y-152618784D01*
X100867467Y-152782716D01*
X100958470Y-152883785D01*
X100994129Y-152923388D01*
X101147265Y-153034648D01*
X101147270Y-153034651D01*
X101320192Y-153111642D01*
X101320197Y-153111644D01*
X101505354Y-153151000D01*
X101505355Y-153151000D01*
X101694644Y-153151000D01*
X101694646Y-153151000D01*
X101879803Y-153111644D01*
X102052730Y-153034651D01*
X102205871Y-152923388D01*
X102332533Y-152782716D01*
X102427179Y-152618784D01*
X102485674Y-152438756D01*
X102505460Y-152250500D01*
X102485674Y-152062244D01*
X102427179Y-151882216D01*
X102332533Y-151718284D01*
X102205871Y-151577612D01*
X102166336Y-151548888D01*
X102052734Y-151466351D01*
X102052729Y-151466348D01*
X101879807Y-151389357D01*
X101879802Y-151389355D01*
X101710237Y-151353314D01*
X101694646Y-151350000D01*
X101505354Y-151350000D01*
X101489763Y-151353314D01*
X101320197Y-151389355D01*
X101320192Y-151389357D01*
X101147270Y-151466348D01*
X101147265Y-151466351D01*
X100994129Y-151577611D01*
X100867466Y-151718285D01*
X100772821Y-151882215D01*
X100772818Y-151882222D01*
X100714327Y-152062240D01*
X100714326Y-152062244D01*
X100694540Y-152250500D01*
X99177196Y-152250500D01*
X99212698Y-152204233D01*
X99270687Y-152064236D01*
X99290466Y-151914000D01*
X99270687Y-151763764D01*
X99212698Y-151623767D01*
X99120451Y-151503549D01*
X99000233Y-151411302D01*
X99000229Y-151411300D01*
X98936801Y-151385027D01*
X98860236Y-151353313D01*
X98838467Y-151350447D01*
X98747727Y-151338500D01*
X98747720Y-151338500D01*
X98672280Y-151338500D01*
X98672272Y-151338500D01*
X98559764Y-151353313D01*
X98559760Y-151353314D01*
X98451952Y-151397969D01*
X98382482Y-151405438D01*
X98320003Y-151374162D01*
X98284352Y-151314073D01*
X98280500Y-151283408D01*
X98280500Y-150783256D01*
X98265074Y-150631560D01*
X98204162Y-150437420D01*
X98204160Y-150437416D01*
X98204159Y-150437412D01*
X98197835Y-150426019D01*
X98171559Y-150378677D01*
X98156236Y-150310508D01*
X98180200Y-150244877D01*
X98235843Y-150202620D01*
X98279978Y-150194500D01*
X104917549Y-150194500D01*
X104984588Y-150214185D01*
X105030343Y-150266989D01*
X105040287Y-150336147D01*
X105031500Y-150367400D01*
X104960460Y-150532941D01*
X104919500Y-150732258D01*
X104919500Y-151283408D01*
X104899815Y-151350447D01*
X104847011Y-151396202D01*
X104777853Y-151406146D01*
X104748048Y-151397969D01*
X104640239Y-151353314D01*
X104640237Y-151353313D01*
X104640236Y-151353313D01*
X104618467Y-151350447D01*
X104527727Y-151338500D01*
X104527720Y-151338500D01*
X104452280Y-151338500D01*
X104452272Y-151338500D01*
X104339764Y-151353313D01*
X104339763Y-151353313D01*
X104199770Y-151411300D01*
X104079549Y-151503549D01*
X103987300Y-151623770D01*
X103929313Y-151763763D01*
X103929312Y-151763765D01*
X103909534Y-151913999D01*
X103909534Y-151914000D01*
X103929312Y-152064234D01*
X103929313Y-152064236D01*
X103959220Y-152136439D01*
X103987302Y-152204233D01*
X104079549Y-152324451D01*
X104199767Y-152416698D01*
X104339764Y-152474687D01*
X104452280Y-152489500D01*
X104452287Y-152489500D01*
X104527713Y-152489500D01*
X104527720Y-152489500D01*
X104640236Y-152474687D01*
X104780233Y-152416698D01*
X104850853Y-152362508D01*
X104916022Y-152337314D01*
X104984467Y-152351352D01*
X105034457Y-152400166D01*
X105034759Y-152400706D01*
X105056665Y-152440172D01*
X105094589Y-152508499D01*
X105094592Y-152508503D01*
X105094592Y-152508504D01*
X105227132Y-152662893D01*
X105227134Y-152662895D01*
X105388037Y-152787445D01*
X105388038Y-152787445D01*
X105388042Y-152787448D01*
X105570729Y-152877060D01*
X105767715Y-152928063D01*
X105970936Y-152938369D01*
X106172071Y-152907556D01*
X106362887Y-152836886D01*
X106535571Y-152729252D01*
X106683053Y-152589059D01*
X106799295Y-152422049D01*
X106879540Y-152235058D01*
X106920500Y-152035741D01*
X106920500Y-150783258D01*
X106905074Y-150631562D01*
X106905074Y-150631560D01*
X106844162Y-150437420D01*
X106844160Y-150437416D01*
X106844159Y-150437412D01*
X106837835Y-150426019D01*
X106811559Y-150378677D01*
X106796236Y-150310508D01*
X106820200Y-150244877D01*
X106875843Y-150202620D01*
X106919978Y-150194500D01*
X111968257Y-150194500D01*
X111983877Y-150196224D01*
X111983904Y-150195939D01*
X111991660Y-150196671D01*
X111991667Y-150196673D01*
X112060814Y-150194500D01*
X112090350Y-150194500D01*
X112097228Y-150193630D01*
X112103041Y-150193172D01*
X112149627Y-150191709D01*
X112168869Y-150186117D01*
X112187912Y-150182174D01*
X112207792Y-150179664D01*
X112251122Y-150162507D01*
X112256646Y-150160617D01*
X112260396Y-150159527D01*
X112301390Y-150147618D01*
X112318629Y-150137422D01*
X112336103Y-150128862D01*
X112354727Y-150121488D01*
X112354727Y-150121487D01*
X112354732Y-150121486D01*
X112392449Y-150094082D01*
X112397305Y-150090892D01*
X112437420Y-150067170D01*
X112451589Y-150052999D01*
X112466379Y-150040368D01*
X112482587Y-150028594D01*
X112512299Y-149992676D01*
X112516212Y-149988376D01*
X113899981Y-148604607D01*
X119309484Y-148604607D01*
X119329270Y-148792863D01*
X119329271Y-148792866D01*
X119387762Y-148972884D01*
X119387765Y-148972891D01*
X119482411Y-149136823D01*
X119609073Y-149277495D01*
X119762209Y-149388755D01*
X119762214Y-149388758D01*
X119935136Y-149465749D01*
X119935141Y-149465751D01*
X120120298Y-149505107D01*
X120120299Y-149505107D01*
X120309588Y-149505107D01*
X120309590Y-149505107D01*
X120494747Y-149465751D01*
X120667674Y-149388758D01*
X120820815Y-149277495D01*
X120947477Y-149136823D01*
X121042123Y-148972891D01*
X121100618Y-148792863D01*
X121120404Y-148604607D01*
X121100618Y-148416351D01*
X121042123Y-148236323D01*
X120947477Y-148072391D01*
X120820815Y-147931719D01*
X120820814Y-147931718D01*
X120667678Y-147820458D01*
X120667673Y-147820455D01*
X120494751Y-147743464D01*
X120494746Y-147743462D01*
X120348945Y-147712472D01*
X120309590Y-147704107D01*
X120120298Y-147704107D01*
X120087841Y-147711005D01*
X119935141Y-147743462D01*
X119935136Y-147743464D01*
X119762214Y-147820455D01*
X119762209Y-147820458D01*
X119609073Y-147931718D01*
X119482410Y-148072392D01*
X119387765Y-148236322D01*
X119387762Y-148236329D01*
X119329271Y-148416347D01*
X119329270Y-148416351D01*
X119309484Y-148604607D01*
X113899981Y-148604607D01*
X116939933Y-145564656D01*
X122135127Y-145564656D01*
X122154913Y-145752912D01*
X122154914Y-145752915D01*
X122213405Y-145932933D01*
X122213408Y-145932940D01*
X122308054Y-146096872D01*
X122434716Y-146237544D01*
X122587852Y-146348804D01*
X122587857Y-146348807D01*
X122760779Y-146425798D01*
X122760784Y-146425800D01*
X122945941Y-146465156D01*
X122945942Y-146465156D01*
X123135231Y-146465156D01*
X123135233Y-146465156D01*
X123320390Y-146425800D01*
X123493317Y-146348807D01*
X123646458Y-146237544D01*
X123773120Y-146096872D01*
X123867766Y-145932940D01*
X123926261Y-145752912D01*
X123946047Y-145564656D01*
X123926261Y-145376400D01*
X123867766Y-145196372D01*
X123773120Y-145032440D01*
X123646458Y-144891768D01*
X123646457Y-144891767D01*
X123493321Y-144780507D01*
X123493316Y-144780504D01*
X123320394Y-144703513D01*
X123320389Y-144703511D01*
X123174588Y-144672521D01*
X123135233Y-144664156D01*
X122945941Y-144664156D01*
X122913484Y-144671054D01*
X122760784Y-144703511D01*
X122760779Y-144703513D01*
X122587857Y-144780504D01*
X122587852Y-144780507D01*
X122434716Y-144891767D01*
X122308053Y-145032441D01*
X122213408Y-145196371D01*
X122213405Y-145196378D01*
X122154914Y-145376396D01*
X122154913Y-145376400D01*
X122135127Y-145564656D01*
X116939933Y-145564656D01*
X122573022Y-139931568D01*
X125120837Y-139931568D01*
X125140623Y-140119824D01*
X125140624Y-140119827D01*
X125199115Y-140299845D01*
X125199118Y-140299852D01*
X125293764Y-140463784D01*
X125395060Y-140576284D01*
X125420426Y-140604456D01*
X125573562Y-140715716D01*
X125573567Y-140715719D01*
X125746489Y-140792710D01*
X125746494Y-140792712D01*
X125931651Y-140832068D01*
X125931652Y-140832068D01*
X126120941Y-140832068D01*
X126120943Y-140832068D01*
X126306100Y-140792712D01*
X126479027Y-140715719D01*
X126632168Y-140604456D01*
X126758830Y-140463784D01*
X126853476Y-140299852D01*
X126911971Y-140119824D01*
X126931757Y-139931568D01*
X126911971Y-139743312D01*
X126853476Y-139563284D01*
X126758830Y-139399352D01*
X126632168Y-139258680D01*
X126632167Y-139258679D01*
X126479031Y-139147419D01*
X126479026Y-139147416D01*
X126306104Y-139070425D01*
X126306099Y-139070423D01*
X126160298Y-139039433D01*
X126120943Y-139031068D01*
X125931651Y-139031068D01*
X125899194Y-139037966D01*
X125746494Y-139070423D01*
X125746489Y-139070425D01*
X125573567Y-139147416D01*
X125573562Y-139147419D01*
X125420426Y-139258679D01*
X125293763Y-139399353D01*
X125199118Y-139563283D01*
X125199115Y-139563290D01*
X125142986Y-139736038D01*
X125140623Y-139743312D01*
X125120837Y-139931568D01*
X122573022Y-139931568D01*
X123899771Y-138604819D01*
X123961094Y-138571334D01*
X123987452Y-138568500D01*
X124046644Y-138568500D01*
X124046646Y-138568500D01*
X124231803Y-138529144D01*
X124404730Y-138452151D01*
X124557871Y-138340888D01*
X124684533Y-138200216D01*
X124779179Y-138036284D01*
X124837674Y-137856256D01*
X124857460Y-137668000D01*
X124837674Y-137479744D01*
X124779179Y-137299716D01*
X124684533Y-137135784D01*
X124557871Y-136995112D01*
X124499240Y-136952514D01*
X124404734Y-136883851D01*
X124404729Y-136883848D01*
X124231807Y-136806857D01*
X124231802Y-136806855D01*
X124086001Y-136775865D01*
X124046646Y-136767500D01*
X123857354Y-136767500D01*
X123824897Y-136774398D01*
X123672197Y-136806855D01*
X123672192Y-136806857D01*
X123499270Y-136883848D01*
X123499265Y-136883851D01*
X123346129Y-136995111D01*
X123219466Y-137135785D01*
X123124821Y-137299715D01*
X123124818Y-137299722D01*
X123095470Y-137390047D01*
X123066326Y-137479744D01*
X123062816Y-137513142D01*
X123048678Y-137647651D01*
X123022093Y-137712266D01*
X123013038Y-137722370D01*
X117847519Y-142887889D01*
X117786196Y-142921374D01*
X117716504Y-142916390D01*
X117660571Y-142874518D01*
X117652461Y-142862224D01*
X117572533Y-142723784D01*
X117445871Y-142583112D01*
X117445870Y-142583111D01*
X117292734Y-142471851D01*
X117292729Y-142471848D01*
X117119807Y-142394857D01*
X117119802Y-142394855D01*
X116971756Y-142363388D01*
X116934646Y-142355500D01*
X116745354Y-142355500D01*
X116712897Y-142362398D01*
X116560197Y-142394855D01*
X116560192Y-142394857D01*
X116387270Y-142471848D01*
X116387265Y-142471851D01*
X116234129Y-142583111D01*
X116107466Y-142723785D01*
X116012821Y-142887715D01*
X116012818Y-142887722D01*
X115955871Y-143062989D01*
X115954326Y-143067744D01*
X115934540Y-143256000D01*
X115954326Y-143444256D01*
X115954327Y-143444259D01*
X116012818Y-143624277D01*
X116012821Y-143624284D01*
X116107467Y-143788216D01*
X116217957Y-143910927D01*
X116234129Y-143928888D01*
X116387265Y-144040148D01*
X116387267Y-144040149D01*
X116387270Y-144040151D01*
X116435555Y-144061649D01*
X116488791Y-144106900D01*
X116509112Y-144173749D01*
X116490066Y-144240972D01*
X116472799Y-144262609D01*
X111828228Y-148907181D01*
X111766905Y-148940666D01*
X111740547Y-148943500D01*
X101262796Y-148943500D01*
X101195757Y-148923815D01*
X101150002Y-148871011D01*
X101140058Y-148801853D01*
X101169083Y-148738297D01*
X101175115Y-148731819D01*
X104618934Y-145288000D01*
X105774540Y-145288000D01*
X105794326Y-145476256D01*
X105794327Y-145476259D01*
X105852818Y-145656277D01*
X105852821Y-145656284D01*
X105947467Y-145820216D01*
X106074129Y-145960888D01*
X106227265Y-146072148D01*
X106227270Y-146072151D01*
X106400192Y-146149142D01*
X106400197Y-146149144D01*
X106585354Y-146188500D01*
X106585355Y-146188500D01*
X106774644Y-146188500D01*
X106774646Y-146188500D01*
X106959803Y-146149144D01*
X107132730Y-146072151D01*
X107285871Y-145960888D01*
X107412533Y-145820216D01*
X107507179Y-145656284D01*
X107565674Y-145476256D01*
X107585460Y-145288000D01*
X107565674Y-145099744D01*
X107507179Y-144919716D01*
X107412533Y-144755784D01*
X107285871Y-144615112D01*
X107273024Y-144605778D01*
X107132734Y-144503851D01*
X107132729Y-144503848D01*
X106959807Y-144426857D01*
X106959802Y-144426855D01*
X106814001Y-144395865D01*
X106774646Y-144387500D01*
X106585354Y-144387500D01*
X106552897Y-144394398D01*
X106400197Y-144426855D01*
X106400192Y-144426857D01*
X106227270Y-144503848D01*
X106227265Y-144503851D01*
X106074129Y-144615111D01*
X105947466Y-144755785D01*
X105852821Y-144919715D01*
X105852818Y-144919722D01*
X105816194Y-145032441D01*
X105794326Y-145099744D01*
X105774540Y-145288000D01*
X104618934Y-145288000D01*
X108834669Y-141072264D01*
X110346540Y-141072264D01*
X110366326Y-141260520D01*
X110366327Y-141260523D01*
X110424818Y-141440541D01*
X110424821Y-141440548D01*
X110519467Y-141604480D01*
X110552560Y-141641233D01*
X110646129Y-141745152D01*
X110799265Y-141856412D01*
X110799270Y-141856415D01*
X110972192Y-141933406D01*
X110972197Y-141933408D01*
X111157354Y-141972764D01*
X111157355Y-141972764D01*
X111346644Y-141972764D01*
X111346646Y-141972764D01*
X111531803Y-141933408D01*
X111704730Y-141856415D01*
X111857871Y-141745152D01*
X111984533Y-141604480D01*
X112079179Y-141440548D01*
X112137674Y-141260520D01*
X112157460Y-141072264D01*
X112137674Y-140884008D01*
X112079179Y-140703980D01*
X111984533Y-140540048D01*
X111857871Y-140399376D01*
X111853577Y-140396256D01*
X111704734Y-140288115D01*
X111704729Y-140288112D01*
X111531807Y-140211121D01*
X111531802Y-140211119D01*
X111386001Y-140180129D01*
X111346646Y-140171764D01*
X111157354Y-140171764D01*
X111124897Y-140178662D01*
X110972197Y-140211119D01*
X110972192Y-140211121D01*
X110799270Y-140288112D01*
X110799265Y-140288115D01*
X110646129Y-140399375D01*
X110519466Y-140540049D01*
X110424821Y-140703979D01*
X110424818Y-140703986D01*
X110366327Y-140884004D01*
X110366326Y-140884008D01*
X110346540Y-141072264D01*
X108834669Y-141072264D01*
X110714933Y-139192000D01*
X111870540Y-139192000D01*
X111890326Y-139380256D01*
X111890327Y-139380259D01*
X111948818Y-139560277D01*
X111948821Y-139560284D01*
X112043467Y-139724216D01*
X112161095Y-139854855D01*
X112170129Y-139864888D01*
X112323265Y-139976148D01*
X112323270Y-139976151D01*
X112496192Y-140053142D01*
X112496197Y-140053144D01*
X112681354Y-140092500D01*
X112681355Y-140092500D01*
X112870644Y-140092500D01*
X112870646Y-140092500D01*
X113055803Y-140053144D01*
X113228730Y-139976151D01*
X113381871Y-139864888D01*
X113508533Y-139724216D01*
X113603179Y-139560284D01*
X113661674Y-139380256D01*
X113681460Y-139192000D01*
X113661674Y-139003744D01*
X113603179Y-138823716D01*
X113508533Y-138659784D01*
X113381871Y-138519112D01*
X113381870Y-138519111D01*
X113228734Y-138407851D01*
X113228729Y-138407848D01*
X113055807Y-138330857D01*
X113055802Y-138330855D01*
X112910001Y-138299865D01*
X112870646Y-138291500D01*
X112681354Y-138291500D01*
X112648897Y-138298398D01*
X112496197Y-138330855D01*
X112496192Y-138330857D01*
X112323270Y-138407848D01*
X112323265Y-138407851D01*
X112170129Y-138519111D01*
X112043466Y-138659785D01*
X111948821Y-138823715D01*
X111948818Y-138823722D01*
X111890327Y-139003740D01*
X111890326Y-139003744D01*
X111870540Y-139192000D01*
X110714933Y-139192000D01*
X115229436Y-134677496D01*
X115290757Y-134644013D01*
X115360449Y-134648997D01*
X115416382Y-134690869D01*
X115440436Y-134752216D01*
X115446326Y-134808256D01*
X115446327Y-134808259D01*
X115504818Y-134988277D01*
X115504821Y-134988284D01*
X115599467Y-135152216D01*
X115681660Y-135243500D01*
X115726129Y-135292888D01*
X115879265Y-135404148D01*
X115879270Y-135404151D01*
X116052192Y-135481142D01*
X116052197Y-135481144D01*
X116237354Y-135520500D01*
X116237355Y-135520500D01*
X116426644Y-135520500D01*
X116426646Y-135520500D01*
X116611803Y-135481144D01*
X116784730Y-135404151D01*
X116937871Y-135292888D01*
X117064533Y-135152216D01*
X117159179Y-134988284D01*
X117217674Y-134808256D01*
X117237460Y-134620000D01*
X117217674Y-134431744D01*
X117159179Y-134251716D01*
X117064533Y-134087784D01*
X116937871Y-133947112D01*
X116937870Y-133947111D01*
X116784734Y-133835851D01*
X116784729Y-133835848D01*
X116611807Y-133758857D01*
X116611802Y-133758855D01*
X116452754Y-133725049D01*
X116391272Y-133691857D01*
X116357496Y-133630694D01*
X116362148Y-133560979D01*
X116390852Y-133516080D01*
X118334933Y-131572000D01*
X119998540Y-131572000D01*
X120018326Y-131760256D01*
X120018327Y-131760259D01*
X120076818Y-131940277D01*
X120076821Y-131940284D01*
X120171467Y-132104216D01*
X120289095Y-132234855D01*
X120298129Y-132244888D01*
X120451265Y-132356148D01*
X120451270Y-132356151D01*
X120624192Y-132433142D01*
X120624197Y-132433144D01*
X120809354Y-132472500D01*
X120809355Y-132472500D01*
X120998644Y-132472500D01*
X120998646Y-132472500D01*
X121183803Y-132433144D01*
X121356730Y-132356151D01*
X121509871Y-132244888D01*
X121636533Y-132104216D01*
X121731179Y-131940284D01*
X121789674Y-131760256D01*
X121809460Y-131572000D01*
X125078540Y-131572000D01*
X125098326Y-131760256D01*
X125098327Y-131760259D01*
X125156818Y-131940277D01*
X125156821Y-131940284D01*
X125251467Y-132104216D01*
X125369095Y-132234855D01*
X125378129Y-132244888D01*
X125531265Y-132356148D01*
X125531270Y-132356151D01*
X125704192Y-132433142D01*
X125704197Y-132433144D01*
X125889354Y-132472500D01*
X125889355Y-132472500D01*
X126078644Y-132472500D01*
X126078646Y-132472500D01*
X126263803Y-132433144D01*
X126436730Y-132356151D01*
X126589871Y-132244888D01*
X126716533Y-132104216D01*
X126811179Y-131940284D01*
X126869674Y-131760256D01*
X126889460Y-131572000D01*
X126869674Y-131383744D01*
X126811179Y-131203716D01*
X126716533Y-131039784D01*
X126589871Y-130899112D01*
X126557708Y-130875744D01*
X126436734Y-130787851D01*
X126436729Y-130787848D01*
X126263807Y-130710857D01*
X126263802Y-130710855D01*
X126118001Y-130679865D01*
X126078646Y-130671500D01*
X125889354Y-130671500D01*
X125856897Y-130678398D01*
X125704197Y-130710855D01*
X125704192Y-130710857D01*
X125531270Y-130787848D01*
X125531265Y-130787851D01*
X125378129Y-130899111D01*
X125251466Y-131039785D01*
X125156821Y-131203715D01*
X125156818Y-131203722D01*
X125098327Y-131383740D01*
X125098326Y-131383744D01*
X125078540Y-131572000D01*
X121809460Y-131572000D01*
X121789674Y-131383744D01*
X121731179Y-131203716D01*
X121636533Y-131039784D01*
X121509871Y-130899112D01*
X121477708Y-130875744D01*
X121356734Y-130787851D01*
X121356729Y-130787848D01*
X121183807Y-130710857D01*
X121183802Y-130710855D01*
X121038001Y-130679865D01*
X120998646Y-130671500D01*
X120809354Y-130671500D01*
X120776897Y-130678398D01*
X120624197Y-130710855D01*
X120624192Y-130710857D01*
X120451270Y-130787848D01*
X120451265Y-130787851D01*
X120298129Y-130899111D01*
X120171466Y-131039785D01*
X120076821Y-131203715D01*
X120076818Y-131203722D01*
X120018327Y-131383740D01*
X120018326Y-131383744D01*
X119998540Y-131572000D01*
X118334933Y-131572000D01*
X119819771Y-130087163D01*
X119881094Y-130053678D01*
X119907452Y-130050844D01*
X124999913Y-130050844D01*
X125015533Y-130052568D01*
X125015560Y-130052283D01*
X125023316Y-130053015D01*
X125023323Y-130053017D01*
X125092470Y-130050844D01*
X125122006Y-130050844D01*
X125128884Y-130049974D01*
X125134697Y-130049516D01*
X125181283Y-130048053D01*
X125200525Y-130042461D01*
X125219568Y-130038518D01*
X125239448Y-130036008D01*
X125282778Y-130018851D01*
X125288302Y-130016961D01*
X125292052Y-130015871D01*
X125333046Y-130003962D01*
X125350285Y-129993766D01*
X125367759Y-129985206D01*
X125386383Y-129977832D01*
X125386383Y-129977831D01*
X125386388Y-129977830D01*
X125424105Y-129950426D01*
X125428961Y-129947236D01*
X125469076Y-129923514D01*
X125483245Y-129909343D01*
X125498035Y-129896712D01*
X125514243Y-129884938D01*
X125543955Y-129849020D01*
X125547868Y-129844720D01*
X125931773Y-129460817D01*
X125993095Y-129427334D01*
X126019453Y-129424500D01*
X126078644Y-129424500D01*
X126078646Y-129424500D01*
X126263803Y-129385144D01*
X126436730Y-129308151D01*
X126589871Y-129196888D01*
X126716533Y-129056216D01*
X126811179Y-128892284D01*
X126869674Y-128712256D01*
X126889460Y-128524000D01*
X126869674Y-128335744D01*
X126811179Y-128155716D01*
X126716533Y-127991784D01*
X126589871Y-127851112D01*
X126589870Y-127851111D01*
X126436734Y-127739851D01*
X126436729Y-127739848D01*
X126263807Y-127662857D01*
X126263802Y-127662855D01*
X126118001Y-127631865D01*
X126078646Y-127623500D01*
X125889354Y-127623500D01*
X125856897Y-127630398D01*
X125704197Y-127662855D01*
X125704192Y-127662857D01*
X125531270Y-127739848D01*
X125531265Y-127739851D01*
X125378129Y-127851111D01*
X125251466Y-127991785D01*
X125156821Y-128155715D01*
X125156818Y-128155722D01*
X125098327Y-128335740D01*
X125098326Y-128335744D01*
X125083450Y-128477288D01*
X125080679Y-128503650D01*
X125054094Y-128568264D01*
X125045039Y-128578369D01*
X124859884Y-128763525D01*
X124798561Y-128797010D01*
X124772203Y-128799844D01*
X119679743Y-128799844D01*
X119664122Y-128798119D01*
X119664095Y-128798405D01*
X119656333Y-128797670D01*
X119587172Y-128799844D01*
X119557649Y-128799844D01*
X119550778Y-128800711D01*
X119544959Y-128801169D01*
X119498374Y-128802633D01*
X119498368Y-128802634D01*
X119479126Y-128808224D01*
X119460087Y-128812167D01*
X119440217Y-128814678D01*
X119440203Y-128814681D01*
X119396883Y-128831832D01*
X119391358Y-128833724D01*
X119346613Y-128846724D01*
X119346610Y-128846725D01*
X119329366Y-128856923D01*
X119311905Y-128865477D01*
X119293274Y-128872854D01*
X119293262Y-128872861D01*
X119255570Y-128900246D01*
X119250687Y-128903453D01*
X119210580Y-128927173D01*
X119196414Y-128941339D01*
X119181624Y-128953971D01*
X119165414Y-128965748D01*
X119165411Y-128965751D01*
X119135710Y-129001653D01*
X119131777Y-129005975D01*
X116278181Y-131859572D01*
X116216858Y-131893057D01*
X116147166Y-131888073D01*
X116091233Y-131846201D01*
X116066816Y-131780737D01*
X116066500Y-131771891D01*
X116066500Y-128397164D01*
X116086185Y-128330125D01*
X116138989Y-128284370D01*
X116208147Y-128274426D01*
X116271703Y-128303451D01*
X116290815Y-128324275D01*
X116314899Y-128357424D01*
X116318106Y-128362307D01*
X116341827Y-128402416D01*
X116341833Y-128402424D01*
X116355990Y-128416580D01*
X116368628Y-128431376D01*
X116380405Y-128447586D01*
X116380406Y-128447587D01*
X116416309Y-128477288D01*
X116420620Y-128481210D01*
X116651666Y-128712256D01*
X116847194Y-128907784D01*
X116857017Y-128920045D01*
X116857239Y-128919863D01*
X116862212Y-128925875D01*
X116912636Y-128973227D01*
X116933523Y-128994115D01*
X116933527Y-128994118D01*
X116933529Y-128994120D01*
X116939011Y-128998373D01*
X116943443Y-129002157D01*
X116977418Y-129034062D01*
X116994976Y-129043714D01*
X117011235Y-129054395D01*
X117027064Y-129066673D01*
X117069838Y-129085182D01*
X117075056Y-129087738D01*
X117115908Y-129110197D01*
X117135316Y-129115180D01*
X117153717Y-129121480D01*
X117172104Y-129129437D01*
X117215488Y-129136308D01*
X117218119Y-129136725D01*
X117223839Y-129137909D01*
X117268981Y-129149500D01*
X117289016Y-129149500D01*
X117308415Y-129151027D01*
X117328196Y-129154160D01*
X117368434Y-129150356D01*
X117374582Y-129149775D01*
X117380420Y-129149500D01*
X118281257Y-129149500D01*
X118296877Y-129151224D01*
X118296904Y-129150939D01*
X118304660Y-129151671D01*
X118304667Y-129151673D01*
X118373814Y-129149500D01*
X118403350Y-129149500D01*
X118410228Y-129148630D01*
X118416041Y-129148172D01*
X118462627Y-129146709D01*
X118481869Y-129141117D01*
X118500912Y-129137174D01*
X118520792Y-129134664D01*
X118564122Y-129117507D01*
X118569646Y-129115617D01*
X118573396Y-129114527D01*
X118614390Y-129102618D01*
X118631629Y-129092422D01*
X118649103Y-129083862D01*
X118667727Y-129076488D01*
X118667727Y-129076487D01*
X118667732Y-129076486D01*
X118705449Y-129049082D01*
X118710305Y-129045892D01*
X118750420Y-129022170D01*
X118764589Y-129007999D01*
X118779379Y-128995368D01*
X118795587Y-128983594D01*
X118825299Y-128947676D01*
X118829212Y-128943376D01*
X119255785Y-128516803D01*
X119268041Y-128506987D01*
X119267858Y-128506765D01*
X119273875Y-128501787D01*
X119273874Y-128501787D01*
X119273877Y-128501786D01*
X119308209Y-128465226D01*
X119321227Y-128451364D01*
X119331671Y-128440918D01*
X119342120Y-128430471D01*
X119346379Y-128424978D01*
X119350152Y-128420561D01*
X119382062Y-128386582D01*
X119391713Y-128369024D01*
X119402396Y-128352761D01*
X119414673Y-128336936D01*
X119433185Y-128294153D01*
X119435738Y-128288941D01*
X119458197Y-128248092D01*
X119463180Y-128228680D01*
X119469481Y-128210280D01*
X119477437Y-128191896D01*
X119484729Y-128145852D01*
X119485906Y-128140171D01*
X119497500Y-128095019D01*
X119497500Y-128074983D01*
X119499027Y-128055582D01*
X119499064Y-128055350D01*
X119502160Y-128035804D01*
X119497775Y-127989418D01*
X119497500Y-127983580D01*
X119497500Y-127485162D01*
X120865061Y-127485162D01*
X120884847Y-127673418D01*
X120884848Y-127673421D01*
X120943339Y-127853439D01*
X120943342Y-127853446D01*
X121037988Y-128017378D01*
X121108656Y-128095862D01*
X121164650Y-128158050D01*
X121317786Y-128269310D01*
X121317791Y-128269313D01*
X121490713Y-128346304D01*
X121490718Y-128346306D01*
X121675875Y-128385662D01*
X121675876Y-128385662D01*
X121865165Y-128385662D01*
X121865167Y-128385662D01*
X122050324Y-128346306D01*
X122223251Y-128269313D01*
X122376392Y-128158050D01*
X122503054Y-128017378D01*
X122597700Y-127853446D01*
X122656195Y-127673418D01*
X122675981Y-127485162D01*
X122656195Y-127296906D01*
X122599040Y-127121001D01*
X122597702Y-127116884D01*
X122597701Y-127116883D01*
X122597700Y-127116878D01*
X122530221Y-127000000D01*
X123554540Y-127000000D01*
X123574326Y-127188256D01*
X123574327Y-127188259D01*
X123632818Y-127368277D01*
X123632821Y-127368284D01*
X123727467Y-127532216D01*
X123809660Y-127623500D01*
X123854129Y-127672888D01*
X124007265Y-127784148D01*
X124007270Y-127784151D01*
X124180192Y-127861142D01*
X124180197Y-127861144D01*
X124365354Y-127900500D01*
X124365355Y-127900500D01*
X124554644Y-127900500D01*
X124554646Y-127900500D01*
X124739803Y-127861144D01*
X124912730Y-127784151D01*
X125065871Y-127672888D01*
X125192533Y-127532216D01*
X125287179Y-127368284D01*
X125345674Y-127188256D01*
X125365460Y-127000000D01*
X125345674Y-126811744D01*
X125287179Y-126631716D01*
X125192533Y-126467784D01*
X125065871Y-126327112D01*
X125065870Y-126327111D01*
X124912734Y-126215851D01*
X124912729Y-126215848D01*
X124739807Y-126138857D01*
X124739802Y-126138855D01*
X124594001Y-126107865D01*
X124554646Y-126099500D01*
X124365354Y-126099500D01*
X124332897Y-126106398D01*
X124180197Y-126138855D01*
X124180192Y-126138857D01*
X124007270Y-126215848D01*
X124007265Y-126215851D01*
X123854129Y-126327111D01*
X123727466Y-126467785D01*
X123632821Y-126631715D01*
X123632818Y-126631722D01*
X123588491Y-126768148D01*
X123574326Y-126811744D01*
X123554540Y-127000000D01*
X122530221Y-127000000D01*
X122503054Y-126952946D01*
X122376392Y-126812274D01*
X122375657Y-126811740D01*
X122223255Y-126701013D01*
X122223250Y-126701010D01*
X122050328Y-126624019D01*
X122050323Y-126624017D01*
X121904522Y-126593027D01*
X121865167Y-126584662D01*
X121675875Y-126584662D01*
X121643418Y-126591560D01*
X121490718Y-126624017D01*
X121490713Y-126624019D01*
X121317791Y-126701010D01*
X121317786Y-126701013D01*
X121164650Y-126812273D01*
X121037987Y-126952947D01*
X120943342Y-127116877D01*
X120943339Y-127116884D01*
X120888456Y-127285798D01*
X120884847Y-127296906D01*
X120865061Y-127485162D01*
X119497500Y-127485162D01*
X119497500Y-124650687D01*
X119517185Y-124583648D01*
X119529350Y-124567715D01*
X119547891Y-124547122D01*
X119604533Y-124484216D01*
X119699179Y-124320284D01*
X119757674Y-124140256D01*
X119777460Y-123952000D01*
X119757674Y-123763744D01*
X119699179Y-123583716D01*
X119618514Y-123444000D01*
X124062540Y-123444000D01*
X124082326Y-123632256D01*
X124082327Y-123632259D01*
X124140818Y-123812277D01*
X124140821Y-123812284D01*
X124235467Y-123976216D01*
X124317660Y-124067500D01*
X124362129Y-124116888D01*
X124515265Y-124228148D01*
X124515270Y-124228151D01*
X124688192Y-124305142D01*
X124688197Y-124305144D01*
X124873354Y-124344500D01*
X124873355Y-124344500D01*
X125062644Y-124344500D01*
X125062646Y-124344500D01*
X125247803Y-124305144D01*
X125420730Y-124228151D01*
X125573871Y-124116888D01*
X125700533Y-123976216D01*
X125795179Y-123812284D01*
X125853674Y-123632256D01*
X125873460Y-123444000D01*
X125853674Y-123255744D01*
X125795179Y-123075716D01*
X125700533Y-122911784D01*
X125573871Y-122771112D01*
X125573870Y-122771111D01*
X125420734Y-122659851D01*
X125420729Y-122659848D01*
X125247807Y-122582857D01*
X125247802Y-122582855D01*
X125102001Y-122551865D01*
X125062646Y-122543500D01*
X124873354Y-122543500D01*
X124840897Y-122550398D01*
X124688197Y-122582855D01*
X124688192Y-122582857D01*
X124515270Y-122659848D01*
X124515265Y-122659851D01*
X124362129Y-122771111D01*
X124235466Y-122911785D01*
X124140821Y-123075715D01*
X124140818Y-123075722D01*
X124087064Y-123241162D01*
X124082326Y-123255744D01*
X124062540Y-123444000D01*
X119618514Y-123444000D01*
X119604533Y-123419784D01*
X119477871Y-123279112D01*
X119445708Y-123255744D01*
X119324734Y-123167851D01*
X119324729Y-123167848D01*
X119180263Y-123103527D01*
X119127026Y-123058277D01*
X119106705Y-122991428D01*
X119123314Y-122928245D01*
X119126179Y-122923284D01*
X119184674Y-122743256D01*
X119204460Y-122555000D01*
X119184674Y-122366744D01*
X119126179Y-122186716D01*
X119031533Y-122022784D01*
X118904871Y-121882112D01*
X118887512Y-121869500D01*
X118751734Y-121770851D01*
X118751729Y-121770848D01*
X118578807Y-121693857D01*
X118578802Y-121693855D01*
X118423798Y-121660909D01*
X118393646Y-121654500D01*
X118393645Y-121654500D01*
X118334452Y-121654500D01*
X118267413Y-121634815D01*
X118246771Y-121618181D01*
X118040591Y-121412000D01*
X119490540Y-121412000D01*
X119510326Y-121600256D01*
X119510327Y-121600259D01*
X119568818Y-121780277D01*
X119568821Y-121780284D01*
X119663467Y-121944216D01*
X119747783Y-122037858D01*
X119790129Y-122084888D01*
X119943265Y-122196148D01*
X119943270Y-122196151D01*
X120116192Y-122273142D01*
X120116197Y-122273144D01*
X120301354Y-122312500D01*
X120301355Y-122312500D01*
X120490644Y-122312500D01*
X120490646Y-122312500D01*
X120675803Y-122273144D01*
X120848730Y-122196151D01*
X121001871Y-122084888D01*
X121128533Y-121944216D01*
X121223179Y-121780284D01*
X121281674Y-121600256D01*
X121301460Y-121412000D01*
X122030540Y-121412000D01*
X122050326Y-121600256D01*
X122050327Y-121600259D01*
X122108818Y-121780277D01*
X122108821Y-121780284D01*
X122203467Y-121944216D01*
X122287783Y-122037858D01*
X122330129Y-122084888D01*
X122483265Y-122196148D01*
X122483270Y-122196151D01*
X122656192Y-122273142D01*
X122656197Y-122273144D01*
X122841354Y-122312500D01*
X122841355Y-122312500D01*
X123030644Y-122312500D01*
X123030646Y-122312500D01*
X123215803Y-122273144D01*
X123388730Y-122196151D01*
X123541871Y-122084888D01*
X123668533Y-121944216D01*
X123763179Y-121780284D01*
X123821674Y-121600256D01*
X123841460Y-121412000D01*
X123821674Y-121223744D01*
X123763179Y-121043716D01*
X123668533Y-120879784D01*
X123541871Y-120739112D01*
X123541870Y-120739111D01*
X123388734Y-120627851D01*
X123388729Y-120627848D01*
X123215807Y-120550857D01*
X123215802Y-120550855D01*
X123069657Y-120519792D01*
X123030646Y-120511500D01*
X122841354Y-120511500D01*
X122808897Y-120518398D01*
X122656197Y-120550855D01*
X122656192Y-120550857D01*
X122483270Y-120627848D01*
X122483265Y-120627851D01*
X122330129Y-120739111D01*
X122203466Y-120879785D01*
X122108821Y-121043715D01*
X122108818Y-121043722D01*
X122070309Y-121162242D01*
X122050326Y-121223744D01*
X122030540Y-121412000D01*
X121301460Y-121412000D01*
X121281674Y-121223744D01*
X121223179Y-121043716D01*
X121128533Y-120879784D01*
X121001871Y-120739112D01*
X121001870Y-120739111D01*
X120848734Y-120627851D01*
X120848729Y-120627848D01*
X120675807Y-120550857D01*
X120675802Y-120550855D01*
X120529657Y-120519792D01*
X120490646Y-120511500D01*
X120301354Y-120511500D01*
X120268897Y-120518398D01*
X120116197Y-120550855D01*
X120116192Y-120550857D01*
X119943270Y-120627848D01*
X119943265Y-120627851D01*
X119790129Y-120739111D01*
X119663466Y-120879785D01*
X119568821Y-121043715D01*
X119568818Y-121043722D01*
X119530309Y-121162242D01*
X119510326Y-121223744D01*
X119490540Y-121412000D01*
X118040591Y-121412000D01*
X118009819Y-121381228D01*
X117976334Y-121319905D01*
X117973500Y-121293547D01*
X117973500Y-119034921D01*
X117993185Y-118967882D01*
X118045989Y-118922127D01*
X118115147Y-118912183D01*
X118178703Y-118941208D01*
X118189644Y-118951943D01*
X118264358Y-119034921D01*
X118266129Y-119036888D01*
X118419265Y-119148148D01*
X118419270Y-119148151D01*
X118592192Y-119225142D01*
X118592197Y-119225144D01*
X118777354Y-119264500D01*
X118777355Y-119264500D01*
X118966644Y-119264500D01*
X118966646Y-119264500D01*
X119151803Y-119225144D01*
X119324730Y-119148151D01*
X119477871Y-119036888D01*
X119604533Y-118896216D01*
X119699179Y-118732284D01*
X119757674Y-118552256D01*
X119777460Y-118364000D01*
X119757674Y-118175744D01*
X119699179Y-117995716D01*
X119604533Y-117831784D01*
X119477871Y-117691112D01*
X119427589Y-117654580D01*
X119324734Y-117579851D01*
X119324729Y-117579848D01*
X119151807Y-117502857D01*
X119151802Y-117502855D01*
X118995260Y-117469582D01*
X118966646Y-117463500D01*
X118777354Y-117463500D01*
X118748792Y-117469571D01*
X118592197Y-117502855D01*
X118592192Y-117502857D01*
X118419270Y-117579848D01*
X118419265Y-117579851D01*
X118266129Y-117691111D01*
X118177293Y-117789774D01*
X118117806Y-117826423D01*
X118047949Y-117825092D01*
X117989901Y-117786206D01*
X117966067Y-117741398D01*
X117965121Y-117738142D01*
X117961174Y-117719084D01*
X117958664Y-117699208D01*
X117941507Y-117655875D01*
X117939619Y-117650359D01*
X117926619Y-117605612D01*
X117916418Y-117588363D01*
X117907860Y-117570894D01*
X117900486Y-117552268D01*
X117900483Y-117552264D01*
X117900483Y-117552263D01*
X117873098Y-117514571D01*
X117869890Y-117509687D01*
X117846172Y-117469582D01*
X117846163Y-117469571D01*
X117832005Y-117455413D01*
X117819370Y-117440620D01*
X117807593Y-117424412D01*
X117771693Y-117394713D01*
X117767381Y-117390790D01*
X114676591Y-114300000D01*
X115426540Y-114300000D01*
X115446326Y-114488256D01*
X115446327Y-114488259D01*
X115504818Y-114668277D01*
X115504821Y-114668284D01*
X115599467Y-114832216D01*
X115689589Y-114932306D01*
X115726129Y-114972888D01*
X115879265Y-115084148D01*
X115879270Y-115084151D01*
X116052192Y-115161142D01*
X116052197Y-115161144D01*
X116237354Y-115200500D01*
X116237355Y-115200500D01*
X116426644Y-115200500D01*
X116426646Y-115200500D01*
X116611803Y-115161144D01*
X116784730Y-115084151D01*
X116937871Y-114972888D01*
X117064533Y-114832216D01*
X117159179Y-114668284D01*
X117217674Y-114488256D01*
X117237460Y-114300000D01*
X117217674Y-114111744D01*
X117159179Y-113931716D01*
X117064533Y-113767784D01*
X116937871Y-113627112D01*
X116905708Y-113603744D01*
X116784734Y-113515851D01*
X116784729Y-113515848D01*
X116611807Y-113438857D01*
X116611802Y-113438855D01*
X116466001Y-113407865D01*
X116426646Y-113399500D01*
X116237354Y-113399500D01*
X116204897Y-113406398D01*
X116052197Y-113438855D01*
X116052192Y-113438857D01*
X115879270Y-113515848D01*
X115879265Y-113515851D01*
X115726129Y-113627111D01*
X115599466Y-113767785D01*
X115504821Y-113931715D01*
X115504818Y-113931722D01*
X115446327Y-114111740D01*
X115446326Y-114111744D01*
X115426540Y-114300000D01*
X114676591Y-114300000D01*
X112232772Y-111856181D01*
X112199287Y-111794858D01*
X112204271Y-111725166D01*
X112246143Y-111669233D01*
X112311607Y-111644816D01*
X112320453Y-111644500D01*
X112362644Y-111644500D01*
X112362646Y-111644500D01*
X112547803Y-111605144D01*
X112720730Y-111528151D01*
X112873871Y-111416888D01*
X112877199Y-111413192D01*
X112879600Y-111410526D01*
X112939087Y-111373879D01*
X112971748Y-111369500D01*
X115513548Y-111369500D01*
X115580587Y-111389185D01*
X115601229Y-111405819D01*
X127862181Y-123666771D01*
X127895666Y-123728094D01*
X127898500Y-123754452D01*
X127898500Y-132277547D01*
X127878815Y-132344586D01*
X127862181Y-132365228D01*
X126777228Y-133450181D01*
X126715905Y-133483666D01*
X126689547Y-133486500D01*
X124120975Y-133486500D01*
X124053936Y-133466815D01*
X124008181Y-133414011D01*
X123998237Y-133344853D01*
X124027262Y-133281297D01*
X124048091Y-133262181D01*
X124049871Y-133260888D01*
X124176533Y-133120216D01*
X124271179Y-132956284D01*
X124329674Y-132776256D01*
X124349460Y-132588000D01*
X124329674Y-132399744D01*
X124271179Y-132219716D01*
X124176533Y-132055784D01*
X124049871Y-131915112D01*
X124012655Y-131888073D01*
X123896734Y-131803851D01*
X123896729Y-131803848D01*
X123723807Y-131726857D01*
X123723802Y-131726855D01*
X123578001Y-131695865D01*
X123538646Y-131687500D01*
X123349354Y-131687500D01*
X123316897Y-131694398D01*
X123164197Y-131726855D01*
X123164192Y-131726857D01*
X122991270Y-131803848D01*
X122991265Y-131803851D01*
X122838129Y-131915111D01*
X122711466Y-132055785D01*
X122616821Y-132219715D01*
X122616818Y-132219722D01*
X122572490Y-132356151D01*
X122558326Y-132399744D01*
X122538540Y-132588000D01*
X122558326Y-132776256D01*
X122558327Y-132776259D01*
X122616818Y-132956277D01*
X122616821Y-132956284D01*
X122711467Y-133120216D01*
X122824118Y-133245327D01*
X122838128Y-133260887D01*
X122839909Y-133262181D01*
X122840690Y-133263194D01*
X122842958Y-133265236D01*
X122842584Y-133265650D01*
X122882576Y-133317510D01*
X122888556Y-133387124D01*
X122855950Y-133448919D01*
X122795112Y-133483277D01*
X122767025Y-133486500D01*
X121504048Y-133486500D01*
X121488427Y-133484775D01*
X121488401Y-133485061D01*
X121480639Y-133484327D01*
X121480638Y-133484327D01*
X121411491Y-133486500D01*
X121381954Y-133486500D01*
X121375071Y-133487369D01*
X121369254Y-133487826D01*
X121322678Y-133489290D01*
X121303434Y-133494881D01*
X121284384Y-133498825D01*
X121264516Y-133501334D01*
X121221189Y-133518488D01*
X121215663Y-133520379D01*
X121170919Y-133533379D01*
X121170915Y-133533381D01*
X121153671Y-133543579D01*
X121136210Y-133552133D01*
X121117579Y-133559510D01*
X121117567Y-133559517D01*
X121079875Y-133586902D01*
X121074992Y-133590109D01*
X121034885Y-133613829D01*
X121020719Y-133627995D01*
X121005929Y-133640627D01*
X120989719Y-133652404D01*
X120989716Y-133652407D01*
X120960015Y-133688309D01*
X120956082Y-133692631D01*
X118866925Y-135781788D01*
X118805602Y-135815273D01*
X118735910Y-135810289D01*
X118679977Y-135768417D01*
X118671865Y-135756120D01*
X118588533Y-135611784D01*
X118461871Y-135471112D01*
X118461870Y-135471111D01*
X118308734Y-135359851D01*
X118308729Y-135359848D01*
X118135807Y-135282857D01*
X118135802Y-135282855D01*
X117990001Y-135251865D01*
X117950646Y-135243500D01*
X117761354Y-135243500D01*
X117728897Y-135250398D01*
X117576197Y-135282855D01*
X117576192Y-135282857D01*
X117403270Y-135359848D01*
X117403265Y-135359851D01*
X117250129Y-135471111D01*
X117123466Y-135611785D01*
X117028821Y-135775715D01*
X117028818Y-135775722D01*
X116998884Y-135867851D01*
X116970326Y-135955744D01*
X116950540Y-136144000D01*
X116970326Y-136332256D01*
X116970327Y-136332259D01*
X117028818Y-136512277D01*
X117028821Y-136512284D01*
X117123467Y-136676216D01*
X117205660Y-136767500D01*
X117250129Y-136816888D01*
X117403265Y-136928148D01*
X117403267Y-136928149D01*
X117403270Y-136928151D01*
X117457994Y-136952516D01*
X117511229Y-136997764D01*
X117531551Y-137064613D01*
X117512506Y-137131837D01*
X117495238Y-137153475D01*
X111652643Y-142996071D01*
X111591320Y-143029556D01*
X111564962Y-143032390D01*
X111472104Y-143032390D01*
X111439647Y-143039288D01*
X111286947Y-143071745D01*
X111286942Y-143071747D01*
X111114020Y-143148738D01*
X111114015Y-143148741D01*
X110960879Y-143260001D01*
X110834216Y-143400675D01*
X110739571Y-143564605D01*
X110739568Y-143564612D01*
X110714006Y-143643285D01*
X110681076Y-143744634D01*
X110661290Y-143932890D01*
X110681076Y-144121146D01*
X110681077Y-144121149D01*
X110739568Y-144301167D01*
X110739571Y-144301174D01*
X110834217Y-144465106D01*
X110960879Y-144605778D01*
X111114015Y-144717038D01*
X111114020Y-144717041D01*
X111286942Y-144794032D01*
X111286947Y-144794034D01*
X111472104Y-144833390D01*
X111472105Y-144833390D01*
X111661394Y-144833390D01*
X111661396Y-144833390D01*
X111846553Y-144794034D01*
X112019480Y-144717041D01*
X112172621Y-144605778D01*
X112299283Y-144465106D01*
X112393929Y-144301174D01*
X112452424Y-144121146D01*
X112466117Y-143990856D01*
X112492701Y-143926242D01*
X112501748Y-143916145D01*
X120273896Y-136144000D01*
X124570540Y-136144000D01*
X124590326Y-136332256D01*
X124590327Y-136332259D01*
X124648818Y-136512277D01*
X124648821Y-136512284D01*
X124743467Y-136676216D01*
X124825660Y-136767500D01*
X124870129Y-136816888D01*
X125023265Y-136928148D01*
X125023270Y-136928151D01*
X125196192Y-137005142D01*
X125196197Y-137005144D01*
X125381354Y-137044500D01*
X125381355Y-137044500D01*
X125570644Y-137044500D01*
X125570646Y-137044500D01*
X125755803Y-137005144D01*
X125928730Y-136928151D01*
X126081871Y-136816888D01*
X126208533Y-136676216D01*
X126303179Y-136512284D01*
X126361674Y-136332256D01*
X126381460Y-136144000D01*
X126361674Y-135955744D01*
X126303179Y-135775716D01*
X126208533Y-135611784D01*
X126081871Y-135471112D01*
X126081870Y-135471111D01*
X125928734Y-135359851D01*
X125928729Y-135359848D01*
X125755807Y-135282857D01*
X125755802Y-135282855D01*
X125610001Y-135251865D01*
X125570646Y-135243500D01*
X125381354Y-135243500D01*
X125348897Y-135250398D01*
X125196197Y-135282855D01*
X125196192Y-135282857D01*
X125023270Y-135359848D01*
X125023265Y-135359851D01*
X124870129Y-135471111D01*
X124743466Y-135611785D01*
X124648821Y-135775715D01*
X124648818Y-135775722D01*
X124618884Y-135867851D01*
X124590326Y-135955744D01*
X124570540Y-136144000D01*
X120273896Y-136144000D01*
X121289896Y-135128000D01*
X127618540Y-135128000D01*
X127638326Y-135316256D01*
X127638327Y-135316259D01*
X127696818Y-135496277D01*
X127696821Y-135496284D01*
X127791467Y-135660216D01*
X127900931Y-135781788D01*
X127918129Y-135800888D01*
X128071265Y-135912148D01*
X128071270Y-135912151D01*
X128244192Y-135989142D01*
X128244197Y-135989144D01*
X128429354Y-136028500D01*
X128429355Y-136028500D01*
X128618644Y-136028500D01*
X128618646Y-136028500D01*
X128803803Y-135989144D01*
X128976730Y-135912151D01*
X129129871Y-135800888D01*
X129256533Y-135660216D01*
X129351179Y-135496284D01*
X129409674Y-135316256D01*
X129429460Y-135128000D01*
X129409674Y-134939744D01*
X129351179Y-134759716D01*
X129256533Y-134595784D01*
X129129871Y-134455112D01*
X129097708Y-134431744D01*
X128976734Y-134343851D01*
X128976729Y-134343848D01*
X128803807Y-134266857D01*
X128803802Y-134266855D01*
X128658001Y-134235865D01*
X128618646Y-134227500D01*
X128429354Y-134227500D01*
X128396897Y-134234398D01*
X128244197Y-134266855D01*
X128244192Y-134266857D01*
X128071270Y-134343848D01*
X128071265Y-134343851D01*
X127918129Y-134455111D01*
X127791466Y-134595785D01*
X127696821Y-134759715D01*
X127696818Y-134759722D01*
X127638327Y-134939740D01*
X127638326Y-134939744D01*
X127618540Y-135128000D01*
X121289896Y-135128000D01*
X121644077Y-134773819D01*
X121705400Y-134740334D01*
X121731758Y-134737500D01*
X126917257Y-134737500D01*
X126932877Y-134739224D01*
X126932904Y-134738939D01*
X126940660Y-134739671D01*
X126940667Y-134739673D01*
X127009814Y-134737500D01*
X127039350Y-134737500D01*
X127046228Y-134736630D01*
X127052041Y-134736172D01*
X127098627Y-134734709D01*
X127117869Y-134729117D01*
X127136912Y-134725174D01*
X127156792Y-134722664D01*
X127200122Y-134705507D01*
X127205646Y-134703617D01*
X127209396Y-134702527D01*
X127250390Y-134690618D01*
X127267629Y-134680422D01*
X127285103Y-134671862D01*
X127303727Y-134664488D01*
X127303727Y-134664487D01*
X127303732Y-134664486D01*
X127341449Y-134637082D01*
X127346305Y-134633892D01*
X127386420Y-134610170D01*
X127400589Y-134595999D01*
X127415379Y-134583368D01*
X127431587Y-134571594D01*
X127461299Y-134535676D01*
X127465212Y-134531376D01*
X128907787Y-133088802D01*
X128920042Y-133078986D01*
X128919859Y-133078764D01*
X128925866Y-133073792D01*
X128925877Y-133073786D01*
X128956775Y-133040882D01*
X128973227Y-133023364D01*
X128983671Y-133012918D01*
X128994120Y-133002471D01*
X128998379Y-132996978D01*
X129002152Y-132992561D01*
X129034062Y-132958582D01*
X129043713Y-132941024D01*
X129054396Y-132924761D01*
X129066673Y-132908936D01*
X129085185Y-132866153D01*
X129087738Y-132860941D01*
X129110197Y-132820092D01*
X129115180Y-132800680D01*
X129121481Y-132782280D01*
X129129437Y-132763896D01*
X129136729Y-132717852D01*
X129137906Y-132712171D01*
X129149500Y-132667019D01*
X129149500Y-132646983D01*
X129151027Y-132627582D01*
X129154160Y-132607804D01*
X129149775Y-132561415D01*
X129149500Y-132555577D01*
X129149500Y-123526737D01*
X129151224Y-123511123D01*
X129150938Y-123511096D01*
X129151672Y-123503333D01*
X129149500Y-123434203D01*
X129149500Y-123404651D01*
X129149500Y-123404650D01*
X129148629Y-123397759D01*
X129148172Y-123391945D01*
X129146709Y-123345372D01*
X129141122Y-123326144D01*
X129137174Y-123307084D01*
X129134664Y-123287208D01*
X129117507Y-123243875D01*
X129115619Y-123238359D01*
X129102619Y-123193612D01*
X129092418Y-123176363D01*
X129083860Y-123158894D01*
X129076486Y-123140268D01*
X129076483Y-123140264D01*
X129076483Y-123140263D01*
X129049098Y-123102571D01*
X129045890Y-123097687D01*
X129022172Y-123057582D01*
X129022163Y-123057571D01*
X129008005Y-123043413D01*
X128995370Y-123028620D01*
X128983593Y-123012412D01*
X128947693Y-122982713D01*
X128943381Y-122978790D01*
X126351200Y-120386609D01*
X126317715Y-120325286D01*
X126322699Y-120255594D01*
X126364571Y-120199661D01*
X126388445Y-120185649D01*
X126436730Y-120164151D01*
X126589871Y-120052888D01*
X126716533Y-119912216D01*
X126811179Y-119748284D01*
X126869674Y-119568256D01*
X126889460Y-119380000D01*
X126869674Y-119191744D01*
X126811179Y-119011716D01*
X126716533Y-118847784D01*
X126589871Y-118707112D01*
X126589870Y-118707111D01*
X126436734Y-118595851D01*
X126436729Y-118595848D01*
X126263807Y-118518857D01*
X126263802Y-118518855D01*
X126118001Y-118487865D01*
X126078646Y-118479500D01*
X125889354Y-118479500D01*
X125856897Y-118486398D01*
X125704197Y-118518855D01*
X125704192Y-118518857D01*
X125531270Y-118595848D01*
X125531265Y-118595851D01*
X125378129Y-118707111D01*
X125251466Y-118847785D01*
X125171548Y-118986208D01*
X125120981Y-119034423D01*
X125052374Y-119047647D01*
X124987510Y-119021679D01*
X124976480Y-119011889D01*
X124159275Y-118194684D01*
X124125790Y-118133361D01*
X124130774Y-118063669D01*
X124172646Y-118007736D01*
X124221175Y-117985713D01*
X124231552Y-117983508D01*
X124404479Y-117906515D01*
X124557620Y-117795252D01*
X124684282Y-117654580D01*
X124778928Y-117490648D01*
X124837423Y-117310620D01*
X124857209Y-117122364D01*
X124837423Y-116934108D01*
X124778928Y-116754080D01*
X124684282Y-116590148D01*
X124557620Y-116449476D01*
X124542421Y-116438433D01*
X124404483Y-116338215D01*
X124404478Y-116338212D01*
X124231556Y-116261221D01*
X124231551Y-116261219D01*
X124085750Y-116230229D01*
X124046395Y-116221864D01*
X123857103Y-116221864D01*
X123824646Y-116228762D01*
X123671946Y-116261219D01*
X123671941Y-116261221D01*
X123499019Y-116338212D01*
X123499014Y-116338215D01*
X123345878Y-116449475D01*
X123219215Y-116590149D01*
X123124570Y-116754079D01*
X123124568Y-116754083D01*
X123087557Y-116867992D01*
X123048119Y-116925667D01*
X122983760Y-116952865D01*
X122914914Y-116940950D01*
X122881945Y-116917354D01*
X121788591Y-115824000D01*
X126602540Y-115824000D01*
X126622326Y-116012256D01*
X126622327Y-116012259D01*
X126680818Y-116192277D01*
X126680821Y-116192284D01*
X126775467Y-116356216D01*
X126891309Y-116484871D01*
X126902129Y-116496888D01*
X127055265Y-116608148D01*
X127055270Y-116608151D01*
X127228192Y-116685142D01*
X127228197Y-116685144D01*
X127413354Y-116724500D01*
X127413355Y-116724500D01*
X127602644Y-116724500D01*
X127602646Y-116724500D01*
X127787803Y-116685144D01*
X127960730Y-116608151D01*
X128113871Y-116496888D01*
X128240533Y-116356216D01*
X128335179Y-116192284D01*
X128393674Y-116012256D01*
X128413460Y-115824000D01*
X128393674Y-115635744D01*
X128335179Y-115455716D01*
X128240533Y-115291784D01*
X128113871Y-115151112D01*
X128113870Y-115151111D01*
X127960734Y-115039851D01*
X127960729Y-115039848D01*
X127787807Y-114962857D01*
X127787802Y-114962855D01*
X127642001Y-114931865D01*
X127602646Y-114923500D01*
X127413354Y-114923500D01*
X127380897Y-114930398D01*
X127228197Y-114962855D01*
X127228192Y-114962857D01*
X127055270Y-115039848D01*
X127055265Y-115039851D01*
X126902129Y-115151111D01*
X126775466Y-115291785D01*
X126680821Y-115455715D01*
X126680818Y-115455722D01*
X126622327Y-115635740D01*
X126622326Y-115635744D01*
X126602540Y-115824000D01*
X121788591Y-115824000D01*
X118189836Y-112225245D01*
X118156351Y-112163922D01*
X118161335Y-112094230D01*
X118203207Y-112038297D01*
X118251735Y-112016274D01*
X118394008Y-111986034D01*
X118421468Y-111973807D01*
X118490713Y-111964521D01*
X118553990Y-111994147D01*
X118582387Y-112030790D01*
X118588609Y-112043002D01*
X118617660Y-112072052D01*
X118630297Y-112086848D01*
X118632054Y-112089266D01*
X118634473Y-112091024D01*
X118649271Y-112103663D01*
X118678313Y-112132706D01*
X118678316Y-112132708D01*
X118678318Y-112132710D01*
X118714933Y-112151366D01*
X118731520Y-112161532D01*
X118731530Y-112161539D01*
X118733932Y-112163284D01*
X118736772Y-112164206D01*
X118754735Y-112171646D01*
X118791356Y-112190306D01*
X118831941Y-112196734D01*
X118850858Y-112201276D01*
X118853231Y-112202046D01*
X118853696Y-112202198D01*
X118853697Y-112202198D01*
X118856683Y-112202198D01*
X118876081Y-112203725D01*
X118916658Y-112210152D01*
X118916660Y-112210152D01*
X118916662Y-112210152D01*
X118957239Y-112203725D01*
X118976637Y-112202198D01*
X118979621Y-112202198D01*
X118979624Y-112202198D01*
X118982465Y-112201274D01*
X119001372Y-112196735D01*
X119041964Y-112190306D01*
X119078576Y-112171650D01*
X119096554Y-112164204D01*
X119099388Y-112163284D01*
X119101804Y-112161527D01*
X119118378Y-112151370D01*
X119155002Y-112132710D01*
X119184066Y-112103645D01*
X119198849Y-112091021D01*
X119201266Y-112089266D01*
X119203023Y-112086848D01*
X119215645Y-112072066D01*
X119244710Y-112043002D01*
X119263370Y-112006378D01*
X119273527Y-111989804D01*
X119275284Y-111987388D01*
X119276204Y-111984554D01*
X119283650Y-111966576D01*
X119302306Y-111929964D01*
X119308734Y-111889375D01*
X119313276Y-111870462D01*
X119314197Y-111867626D01*
X119314198Y-111867624D01*
X119314717Y-111854340D01*
X119315428Y-111847109D01*
X119322152Y-111804660D01*
X119315430Y-111762221D01*
X119314717Y-111754969D01*
X119314198Y-111741696D01*
X119313276Y-111738858D01*
X119308734Y-111719941D01*
X119302306Y-111679356D01*
X119283646Y-111642735D01*
X119276206Y-111624772D01*
X119275284Y-111621932D01*
X119273532Y-111619520D01*
X119263366Y-111602933D01*
X119244710Y-111566318D01*
X119244708Y-111566316D01*
X119244706Y-111566313D01*
X119215663Y-111537271D01*
X119203024Y-111522473D01*
X119201266Y-111520054D01*
X119201267Y-111520054D01*
X119198848Y-111518297D01*
X119184052Y-111505660D01*
X119155002Y-111476610D01*
X119118389Y-111457954D01*
X119101803Y-111447790D01*
X119099391Y-111446038D01*
X119099390Y-111446037D01*
X119099388Y-111446036D01*
X119099385Y-111446035D01*
X119099383Y-111446034D01*
X119096549Y-111445113D01*
X119078576Y-111437668D01*
X119067391Y-111431969D01*
X119016594Y-111383995D01*
X118999799Y-111316174D01*
X119000361Y-111308553D01*
X119019665Y-111124890D01*
X118999879Y-110936634D01*
X118941384Y-110756606D01*
X118846738Y-110592674D01*
X118720076Y-110452002D01*
X118720075Y-110452001D01*
X118566939Y-110340741D01*
X118566934Y-110340738D01*
X118394012Y-110263747D01*
X118394007Y-110263745D01*
X118248206Y-110232755D01*
X118208851Y-110224390D01*
X118019559Y-110224390D01*
X117987102Y-110231288D01*
X117834402Y-110263745D01*
X117834397Y-110263747D01*
X117661475Y-110340738D01*
X117661470Y-110340741D01*
X117508334Y-110452001D01*
X117381671Y-110592675D01*
X117287026Y-110756605D01*
X117287023Y-110756612D01*
X117228531Y-110936632D01*
X117228530Y-110936636D01*
X117224575Y-110974266D01*
X117197990Y-111038880D01*
X117140692Y-111078864D01*
X117070873Y-111081522D01*
X117013574Y-111048983D01*
X116324803Y-110360212D01*
X116314980Y-110347950D01*
X116314759Y-110348134D01*
X116309786Y-110342123D01*
X116308311Y-110340738D01*
X116259364Y-110294773D01*
X116248919Y-110284328D01*
X116238475Y-110273883D01*
X116232986Y-110269625D01*
X116228561Y-110265847D01*
X116194582Y-110233938D01*
X116194580Y-110233936D01*
X116194577Y-110233935D01*
X116177029Y-110224288D01*
X116160763Y-110213604D01*
X116144933Y-110201325D01*
X116102168Y-110182818D01*
X116096922Y-110180248D01*
X116056093Y-110157803D01*
X116056092Y-110157802D01*
X116036693Y-110152822D01*
X116018281Y-110146518D01*
X115999898Y-110138562D01*
X115999892Y-110138560D01*
X115953874Y-110131272D01*
X115948152Y-110130087D01*
X115903021Y-110118500D01*
X115903019Y-110118500D01*
X115882984Y-110118500D01*
X115863586Y-110116973D01*
X115856162Y-110115797D01*
X115843805Y-110113840D01*
X115843804Y-110113840D01*
X115797416Y-110118225D01*
X115791578Y-110118500D01*
X112971748Y-110118500D01*
X112904709Y-110098815D01*
X112879600Y-110077474D01*
X112873873Y-110071114D01*
X112873869Y-110071110D01*
X112720734Y-109959851D01*
X112720729Y-109959848D01*
X112547807Y-109882857D01*
X112547802Y-109882855D01*
X112370874Y-109845249D01*
X112362646Y-109843500D01*
X112173354Y-109843500D01*
X112165126Y-109845249D01*
X111988197Y-109882855D01*
X111988192Y-109882857D01*
X111815270Y-109959848D01*
X111815265Y-109959851D01*
X111662129Y-110071111D01*
X111535466Y-110211785D01*
X111440821Y-110375715D01*
X111440818Y-110375722D01*
X111396491Y-110512148D01*
X111382326Y-110555744D01*
X111366703Y-110704391D01*
X111340118Y-110769005D01*
X111282821Y-110808990D01*
X111213002Y-110811650D01*
X111155701Y-110779110D01*
X110059932Y-109683341D01*
X116389848Y-109683341D01*
X116396275Y-109723919D01*
X116397802Y-109743317D01*
X116397802Y-109746304D01*
X116398725Y-109749146D01*
X116403265Y-109768057D01*
X116409694Y-109808645D01*
X116428348Y-109845256D01*
X116435793Y-109863229D01*
X116436714Y-109866063D01*
X116436718Y-109866071D01*
X116438470Y-109868483D01*
X116448634Y-109885069D01*
X116467290Y-109921682D01*
X116496340Y-109950732D01*
X116508977Y-109965528D01*
X116510734Y-109967946D01*
X116513153Y-109969704D01*
X116527951Y-109982343D01*
X116556993Y-110011386D01*
X116556996Y-110011388D01*
X116556998Y-110011390D01*
X116593613Y-110030046D01*
X116610200Y-110040212D01*
X116610210Y-110040219D01*
X116612612Y-110041964D01*
X116615452Y-110042886D01*
X116633415Y-110050326D01*
X116670036Y-110068986D01*
X116710621Y-110075414D01*
X116729538Y-110079956D01*
X116731911Y-110080726D01*
X116732376Y-110080878D01*
X116732377Y-110080878D01*
X116735363Y-110080878D01*
X116754761Y-110082405D01*
X116795338Y-110088832D01*
X116795340Y-110088832D01*
X116795342Y-110088832D01*
X116835919Y-110082405D01*
X116855317Y-110080878D01*
X116858301Y-110080878D01*
X116858304Y-110080878D01*
X116861145Y-110079954D01*
X116880052Y-110075415D01*
X116920644Y-110068986D01*
X116957256Y-110050330D01*
X116975234Y-110042884D01*
X116978068Y-110041964D01*
X116980484Y-110040207D01*
X116997058Y-110030050D01*
X117033682Y-110011390D01*
X117062746Y-109982325D01*
X117077529Y-109969701D01*
X117079946Y-109967946D01*
X117081703Y-109965528D01*
X117094325Y-109950746D01*
X117123390Y-109921682D01*
X117142050Y-109885058D01*
X117152209Y-109868483D01*
X117153964Y-109866068D01*
X117154884Y-109863234D01*
X117162330Y-109845256D01*
X117180986Y-109808644D01*
X117187414Y-109768055D01*
X117191956Y-109749142D01*
X117192877Y-109746306D01*
X117192878Y-109746304D01*
X117193397Y-109733020D01*
X117194108Y-109725789D01*
X117200832Y-109683340D01*
X117194110Y-109640901D01*
X117193397Y-109633649D01*
X117192878Y-109620376D01*
X117191956Y-109617538D01*
X117187414Y-109598621D01*
X117180986Y-109558036D01*
X117162326Y-109521415D01*
X117154886Y-109503452D01*
X117153964Y-109500612D01*
X117152212Y-109498200D01*
X117142046Y-109481613D01*
X117123390Y-109444998D01*
X117123388Y-109444996D01*
X117123386Y-109444993D01*
X117094343Y-109415951D01*
X117081704Y-109401153D01*
X117079946Y-109398734D01*
X117079947Y-109398734D01*
X117077528Y-109396977D01*
X117062732Y-109384340D01*
X117033682Y-109355290D01*
X116997069Y-109336634D01*
X116980483Y-109326470D01*
X116978071Y-109324718D01*
X116978070Y-109324717D01*
X116978068Y-109324716D01*
X116978065Y-109324715D01*
X116978063Y-109324714D01*
X116975229Y-109323793D01*
X116957256Y-109316348D01*
X116920644Y-109297694D01*
X116920647Y-109297694D01*
X116880057Y-109291265D01*
X116861146Y-109286725D01*
X116858305Y-109285802D01*
X116858304Y-109285802D01*
X116855317Y-109285802D01*
X116835919Y-109284275D01*
X116795342Y-109277848D01*
X116795338Y-109277848D01*
X116754761Y-109284275D01*
X116735363Y-109285802D01*
X116732372Y-109285802D01*
X116729520Y-109286729D01*
X116710625Y-109291263D01*
X116670042Y-109297692D01*
X116670032Y-109297695D01*
X116633421Y-109316349D01*
X116615459Y-109323790D01*
X116612614Y-109324714D01*
X116612611Y-109324716D01*
X116610194Y-109326472D01*
X116593616Y-109336630D01*
X116557000Y-109355287D01*
X116527943Y-109384344D01*
X116513163Y-109396968D01*
X116510736Y-109398731D01*
X116510731Y-109398736D01*
X116508968Y-109401163D01*
X116496344Y-109415943D01*
X116467287Y-109445000D01*
X116448630Y-109481616D01*
X116438472Y-109498194D01*
X116436716Y-109500611D01*
X116436714Y-109500614D01*
X116435790Y-109503459D01*
X116428349Y-109521421D01*
X116409695Y-109558032D01*
X116409692Y-109558042D01*
X116403263Y-109598625D01*
X116398729Y-109617520D01*
X116397802Y-109620372D01*
X116397802Y-109623362D01*
X116396275Y-109642760D01*
X116389848Y-109683338D01*
X116389848Y-109683341D01*
X110059932Y-109683341D01*
X107564591Y-107188000D01*
X120506540Y-107188000D01*
X120526326Y-107376256D01*
X120526327Y-107376259D01*
X120584818Y-107556277D01*
X120584821Y-107556284D01*
X120679467Y-107720216D01*
X120761660Y-107811500D01*
X120806129Y-107860888D01*
X120959265Y-107972148D01*
X120959270Y-107972151D01*
X121132192Y-108049142D01*
X121132197Y-108049144D01*
X121317354Y-108088500D01*
X121317355Y-108088500D01*
X121506644Y-108088500D01*
X121506646Y-108088500D01*
X121691803Y-108049144D01*
X121864730Y-107972151D01*
X122017871Y-107860888D01*
X122144533Y-107720216D01*
X122239179Y-107556284D01*
X122297674Y-107376256D01*
X122317460Y-107188000D01*
X122297674Y-106999744D01*
X122239179Y-106819716D01*
X122144533Y-106655784D01*
X122017871Y-106515112D01*
X122017870Y-106515111D01*
X121864734Y-106403851D01*
X121864729Y-106403848D01*
X121691807Y-106326857D01*
X121691802Y-106326855D01*
X121546001Y-106295865D01*
X121506646Y-106287500D01*
X121317354Y-106287500D01*
X121284897Y-106294398D01*
X121132197Y-106326855D01*
X121132192Y-106326857D01*
X120959270Y-106403848D01*
X120959265Y-106403851D01*
X120806129Y-106515111D01*
X120679466Y-106655785D01*
X120584821Y-106819715D01*
X120584818Y-106819722D01*
X120554884Y-106911851D01*
X120526326Y-106999744D01*
X120506540Y-107188000D01*
X107564591Y-107188000D01*
X105532591Y-105156000D01*
X107806540Y-105156000D01*
X107826326Y-105344256D01*
X107826327Y-105344259D01*
X107884818Y-105524277D01*
X107884821Y-105524284D01*
X107979467Y-105688216D01*
X108096162Y-105817819D01*
X108106129Y-105828888D01*
X108259265Y-105940148D01*
X108259270Y-105940151D01*
X108432192Y-106017142D01*
X108432197Y-106017144D01*
X108617354Y-106056500D01*
X108617355Y-106056500D01*
X108806644Y-106056500D01*
X108806646Y-106056500D01*
X108991803Y-106017144D01*
X109164730Y-105940151D01*
X109317871Y-105828888D01*
X109444533Y-105688216D01*
X109539179Y-105524284D01*
X109597674Y-105344256D01*
X109617460Y-105156000D01*
X109597674Y-104967744D01*
X109539179Y-104787716D01*
X109494308Y-104709997D01*
X109477836Y-104642100D01*
X109494309Y-104586001D01*
X109539179Y-104508284D01*
X109597674Y-104328256D01*
X109617460Y-104140000D01*
X110346540Y-104140000D01*
X110366326Y-104328256D01*
X110366327Y-104328259D01*
X110424818Y-104508277D01*
X110424821Y-104508283D01*
X110424821Y-104508284D01*
X110519467Y-104672216D01*
X110637303Y-104803086D01*
X110646129Y-104812888D01*
X110799265Y-104924148D01*
X110799270Y-104924151D01*
X110972192Y-105001142D01*
X110972197Y-105001144D01*
X111157354Y-105040500D01*
X111157355Y-105040500D01*
X111346644Y-105040500D01*
X111346646Y-105040500D01*
X111531803Y-105001144D01*
X111704730Y-104924151D01*
X111857871Y-104812888D01*
X111984533Y-104672216D01*
X112079179Y-104508284D01*
X112084435Y-104492107D01*
X118331482Y-104492107D01*
X118351268Y-104680363D01*
X118351269Y-104680366D01*
X118409760Y-104860384D01*
X118409763Y-104860391D01*
X118504409Y-105024323D01*
X118622972Y-105156000D01*
X118631071Y-105164995D01*
X118784207Y-105276255D01*
X118784212Y-105276258D01*
X118957134Y-105353249D01*
X118957139Y-105353251D01*
X119142296Y-105392607D01*
X119142297Y-105392607D01*
X119331586Y-105392607D01*
X119331588Y-105392607D01*
X119516745Y-105353251D01*
X119689672Y-105276258D01*
X119842813Y-105164995D01*
X119969475Y-105024323D01*
X120064121Y-104860391D01*
X120122616Y-104680363D01*
X120142402Y-104492107D01*
X120122616Y-104303851D01*
X120064121Y-104123823D01*
X119969475Y-103959891D01*
X119842813Y-103819219D01*
X119777439Y-103771722D01*
X119689676Y-103707958D01*
X119689671Y-103707955D01*
X119516749Y-103630964D01*
X119516744Y-103630962D01*
X119370943Y-103599972D01*
X119331588Y-103591607D01*
X119142296Y-103591607D01*
X119109839Y-103598505D01*
X118957139Y-103630962D01*
X118957134Y-103630964D01*
X118784212Y-103707955D01*
X118784207Y-103707958D01*
X118631071Y-103819218D01*
X118504408Y-103959892D01*
X118409763Y-104123822D01*
X118409760Y-104123829D01*
X118354190Y-104294857D01*
X118351268Y-104303851D01*
X118331482Y-104492107D01*
X112084435Y-104492107D01*
X112137674Y-104328256D01*
X112157460Y-104140000D01*
X112137674Y-103951744D01*
X112079179Y-103771716D01*
X111984533Y-103607784D01*
X111857871Y-103467112D01*
X111857870Y-103467111D01*
X111704734Y-103355851D01*
X111704729Y-103355848D01*
X111531807Y-103278857D01*
X111531802Y-103278855D01*
X111386001Y-103247865D01*
X111346646Y-103239500D01*
X111157354Y-103239500D01*
X111124897Y-103246398D01*
X110972197Y-103278855D01*
X110972192Y-103278857D01*
X110799270Y-103355848D01*
X110799265Y-103355851D01*
X110646129Y-103467111D01*
X110519466Y-103607785D01*
X110424821Y-103771715D01*
X110424818Y-103771722D01*
X110366327Y-103951740D01*
X110366326Y-103951744D01*
X110346540Y-104140000D01*
X109617460Y-104140000D01*
X109597674Y-103951744D01*
X109539179Y-103771716D01*
X109444533Y-103607784D01*
X109317871Y-103467112D01*
X109317870Y-103467111D01*
X109164734Y-103355851D01*
X109164729Y-103355848D01*
X108991807Y-103278857D01*
X108991802Y-103278855D01*
X108846001Y-103247865D01*
X108806646Y-103239500D01*
X108617354Y-103239500D01*
X108584897Y-103246398D01*
X108432197Y-103278855D01*
X108432192Y-103278857D01*
X108259270Y-103355848D01*
X108259265Y-103355851D01*
X108106129Y-103467111D01*
X107979466Y-103607785D01*
X107884821Y-103771715D01*
X107884818Y-103771722D01*
X107826327Y-103951740D01*
X107826326Y-103951744D01*
X107806540Y-104140000D01*
X107826326Y-104328256D01*
X107826327Y-104328259D01*
X107884820Y-104508283D01*
X107929690Y-104586001D01*
X107946162Y-104653901D01*
X107929690Y-104709999D01*
X107884820Y-104787716D01*
X107861207Y-104860391D01*
X107826326Y-104967744D01*
X107806540Y-105156000D01*
X105532591Y-105156000D01*
X103277819Y-102901228D01*
X103244334Y-102839905D01*
X103241500Y-102813547D01*
X103241500Y-102806687D01*
X103261185Y-102739648D01*
X103273350Y-102723715D01*
X103291891Y-102703122D01*
X103348533Y-102640216D01*
X103443179Y-102476284D01*
X103501674Y-102296256D01*
X103521460Y-102108000D01*
X103501674Y-101919744D01*
X103443179Y-101739716D01*
X103362514Y-101600000D01*
X106790540Y-101600000D01*
X106810326Y-101788256D01*
X106810327Y-101788259D01*
X106868818Y-101968277D01*
X106868821Y-101968284D01*
X106963467Y-102132216D01*
X106973932Y-102143838D01*
X107090129Y-102272888D01*
X107243265Y-102384148D01*
X107243270Y-102384151D01*
X107416192Y-102461142D01*
X107416197Y-102461144D01*
X107601354Y-102500500D01*
X107601355Y-102500500D01*
X107790644Y-102500500D01*
X107790646Y-102500500D01*
X107975803Y-102461144D01*
X108148730Y-102384151D01*
X108301871Y-102272888D01*
X108428533Y-102132216D01*
X108523179Y-101968284D01*
X108581674Y-101788256D01*
X108601460Y-101600000D01*
X108581674Y-101411744D01*
X108523179Y-101231716D01*
X108428533Y-101067784D01*
X108301871Y-100927112D01*
X108301870Y-100927111D01*
X108148734Y-100815851D01*
X108148729Y-100815848D01*
X107975807Y-100738857D01*
X107975802Y-100738855D01*
X107830001Y-100707865D01*
X107790646Y-100699500D01*
X107601354Y-100699500D01*
X107568897Y-100706398D01*
X107416197Y-100738855D01*
X107416192Y-100738857D01*
X107243270Y-100815848D01*
X107243265Y-100815851D01*
X107090129Y-100927111D01*
X106963466Y-101067785D01*
X106868821Y-101231715D01*
X106868818Y-101231722D01*
X106816535Y-101392634D01*
X106810326Y-101411744D01*
X106790540Y-101600000D01*
X103362514Y-101600000D01*
X103348533Y-101575784D01*
X103221871Y-101435112D01*
X103189708Y-101411744D01*
X103068734Y-101323851D01*
X103068729Y-101323848D01*
X102895807Y-101246857D01*
X102895802Y-101246855D01*
X102750001Y-101215865D01*
X102710646Y-101207500D01*
X102521354Y-101207500D01*
X102488897Y-101214398D01*
X102336197Y-101246855D01*
X102336192Y-101246857D01*
X102163270Y-101323848D01*
X102163265Y-101323851D01*
X102010129Y-101435111D01*
X101883466Y-101575785D01*
X101788821Y-101739715D01*
X101788818Y-101739722D01*
X101730327Y-101919740D01*
X101730326Y-101919744D01*
X101710540Y-102108000D01*
X101730326Y-102296256D01*
X101730327Y-102296259D01*
X101788818Y-102476277D01*
X101788821Y-102476284D01*
X101883467Y-102640216D01*
X101926772Y-102688310D01*
X101958650Y-102723715D01*
X101988880Y-102786706D01*
X101990500Y-102806687D01*
X101990500Y-103041255D01*
X101988775Y-103056872D01*
X101989061Y-103056899D01*
X101988326Y-103064665D01*
X101990500Y-103133814D01*
X101990500Y-103163343D01*
X101990501Y-103163360D01*
X101991368Y-103170231D01*
X101991826Y-103176050D01*
X101993290Y-103222624D01*
X101993291Y-103222627D01*
X101998880Y-103241867D01*
X102002824Y-103260911D01*
X102005092Y-103278857D01*
X102005336Y-103280791D01*
X102022490Y-103324119D01*
X102024382Y-103329647D01*
X102037381Y-103374388D01*
X102047580Y-103391634D01*
X102056138Y-103409103D01*
X102063514Y-103427732D01*
X102090898Y-103465423D01*
X102094106Y-103470307D01*
X102117827Y-103510416D01*
X102117833Y-103510424D01*
X102131990Y-103524580D01*
X102144628Y-103539376D01*
X102156405Y-103555586D01*
X102156406Y-103555587D01*
X102192309Y-103585288D01*
X102196620Y-103589210D01*
X102379125Y-103771715D01*
X102531554Y-103924144D01*
X102565039Y-103985467D01*
X102560055Y-104055159D01*
X102518183Y-104111092D01*
X102510913Y-104116140D01*
X102451951Y-104154032D01*
X102367118Y-104251937D01*
X102367117Y-104251938D01*
X102313302Y-104369774D01*
X102305485Y-104424148D01*
X102276460Y-104487703D01*
X102217681Y-104525477D01*
X102182747Y-104530500D01*
X101019178Y-104530500D01*
X100952139Y-104510815D01*
X100906384Y-104458011D01*
X100900292Y-104438202D01*
X100899886Y-104438328D01*
X100896510Y-104427385D01*
X100892261Y-104408475D01*
X100886698Y-104369779D01*
X100886697Y-104369777D01*
X100886697Y-104369774D01*
X100863844Y-104319735D01*
X100860998Y-104312259D01*
X100857726Y-104301650D01*
X100857189Y-104300863D01*
X100846857Y-104282539D01*
X100832882Y-104251937D01*
X100792768Y-104205642D01*
X100788408Y-104199980D01*
X100781736Y-104190194D01*
X100779928Y-104188246D01*
X100766648Y-104175497D01*
X100748049Y-104154033D01*
X100748048Y-104154032D01*
X100748047Y-104154031D01*
X100690668Y-104117156D01*
X100685528Y-104113470D01*
X100676271Y-104106087D01*
X100668810Y-104101780D01*
X100658694Y-104096608D01*
X100639071Y-104083996D01*
X100639065Y-104083994D01*
X100565914Y-104062515D01*
X100560731Y-104060741D01*
X100550699Y-104056804D01*
X100541645Y-104054738D01*
X100541726Y-104054379D01*
X100532432Y-104052685D01*
X100514772Y-104047500D01*
X100428855Y-104047500D01*
X100424218Y-104047326D01*
X100416183Y-104046723D01*
X100408141Y-104047327D01*
X100403505Y-104047500D01*
X100385228Y-104047500D01*
X100290834Y-104075214D01*
X100287177Y-104076168D01*
X100284664Y-104076742D01*
X100284328Y-104076874D01*
X100279158Y-104078643D01*
X100260935Y-104083994D01*
X100260931Y-104083996D01*
X100151950Y-104154033D01*
X100067118Y-104251937D01*
X100067117Y-104251938D01*
X100013302Y-104369774D01*
X100005485Y-104424148D01*
X99976460Y-104487703D01*
X99917681Y-104525477D01*
X99882747Y-104530500D01*
X96688975Y-104530500D01*
X96621936Y-104510815D01*
X96576181Y-104458011D01*
X96566237Y-104388853D01*
X96595262Y-104325297D01*
X96616091Y-104306181D01*
X96617871Y-104304888D01*
X96744533Y-104164216D01*
X96839179Y-104000284D01*
X96897674Y-103820256D01*
X96917460Y-103632000D01*
X96897674Y-103443744D01*
X96839179Y-103263716D01*
X96744533Y-103099784D01*
X96617871Y-102959112D01*
X96617870Y-102959111D01*
X96464734Y-102847851D01*
X96464729Y-102847848D01*
X96291807Y-102770857D01*
X96291802Y-102770855D01*
X96144980Y-102739648D01*
X96106646Y-102731500D01*
X95917354Y-102731500D01*
X95884897Y-102738398D01*
X95732197Y-102770855D01*
X95732192Y-102770857D01*
X95559270Y-102847848D01*
X95559265Y-102847851D01*
X95406129Y-102959111D01*
X95279466Y-103099785D01*
X95184821Y-103263715D01*
X95184818Y-103263722D01*
X95126327Y-103443740D01*
X95126326Y-103443744D01*
X95106540Y-103632000D01*
X95126326Y-103820256D01*
X95126327Y-103820259D01*
X95184818Y-104000277D01*
X95184821Y-104000284D01*
X95279467Y-104164216D01*
X95361660Y-104255500D01*
X95406128Y-104304887D01*
X95407909Y-104306181D01*
X95408690Y-104307194D01*
X95410958Y-104309236D01*
X95410584Y-104309650D01*
X95450576Y-104361510D01*
X95456556Y-104431124D01*
X95423950Y-104492919D01*
X95363112Y-104527277D01*
X95335025Y-104530500D01*
X91127748Y-104530500D01*
X91060709Y-104510815D01*
X91035600Y-104489474D01*
X91029873Y-104483114D01*
X91029869Y-104483110D01*
X90876734Y-104371851D01*
X90876729Y-104371848D01*
X90703807Y-104294857D01*
X90703802Y-104294855D01*
X90558001Y-104263865D01*
X90518646Y-104255500D01*
X90329354Y-104255500D01*
X90296897Y-104262398D01*
X90144197Y-104294855D01*
X90144192Y-104294857D01*
X89971270Y-104371848D01*
X89971265Y-104371851D01*
X89818129Y-104483111D01*
X89691466Y-104623785D01*
X89596821Y-104787715D01*
X89596818Y-104787722D01*
X89573207Y-104860391D01*
X89538326Y-104967744D01*
X89518540Y-105156000D01*
X89538326Y-105344256D01*
X89538327Y-105344259D01*
X89596818Y-105524277D01*
X89596821Y-105524284D01*
X89691467Y-105688216D01*
X89808162Y-105817819D01*
X89818129Y-105828888D01*
X89971265Y-105940148D01*
X89971270Y-105940151D01*
X90144192Y-106017142D01*
X90144197Y-106017144D01*
X90329354Y-106056500D01*
X90329355Y-106056500D01*
X90518644Y-106056500D01*
X90518646Y-106056500D01*
X90703803Y-106017144D01*
X90876730Y-105940151D01*
X91029871Y-105828888D01*
X91032788Y-105825647D01*
X91035600Y-105822526D01*
X91095087Y-105785879D01*
X91127748Y-105781500D01*
X103701152Y-105781500D01*
X103768191Y-105801185D01*
X103788833Y-105817819D01*
X112772304Y-114801291D01*
X112805789Y-114862614D01*
X112800805Y-114932306D01*
X112758933Y-114988239D01*
X112757508Y-114989290D01*
X112615236Y-115092656D01*
X112488573Y-115233330D01*
X112393928Y-115397260D01*
X112393926Y-115397264D01*
X112338586Y-115567584D01*
X112308336Y-115616946D01*
X111274358Y-116650924D01*
X111260729Y-116662703D01*
X111241468Y-116677042D01*
X111207898Y-116717049D01*
X111204253Y-116721028D01*
X111198409Y-116726874D01*
X111178059Y-116752611D01*
X111128695Y-116811441D01*
X111124729Y-116817471D01*
X111124682Y-116817440D01*
X111120630Y-116823799D01*
X111120679Y-116823829D01*
X111116889Y-116829973D01*
X111084424Y-116899593D01*
X111049960Y-116968218D01*
X111047488Y-116975009D01*
X111047432Y-116974988D01*
X111044960Y-116982102D01*
X111045015Y-116982121D01*
X111042742Y-116988979D01*
X111034975Y-117026598D01*
X111027207Y-117064217D01*
X111022148Y-117085565D01*
X111009498Y-117138938D01*
X111008661Y-117146106D01*
X111008601Y-117146099D01*
X111007835Y-117153597D01*
X111007895Y-117153603D01*
X111007265Y-117160792D01*
X111009500Y-117237568D01*
X111009500Y-123541547D01*
X110989815Y-123608586D01*
X110937011Y-123654341D01*
X110867853Y-123664285D01*
X110804297Y-123635260D01*
X110797819Y-123629228D01*
X109564166Y-122395576D01*
X109530681Y-122334253D01*
X109535665Y-122264561D01*
X109577537Y-122208628D01*
X109601411Y-122194616D01*
X109602113Y-122194303D01*
X109602115Y-122194303D01*
X109775042Y-122117310D01*
X109928183Y-122006047D01*
X110054845Y-121865375D01*
X110149491Y-121701443D01*
X110207986Y-121521415D01*
X110227772Y-121333159D01*
X110207986Y-121144903D01*
X110149491Y-120964875D01*
X110054845Y-120800943D01*
X109928183Y-120660271D01*
X109928182Y-120660270D01*
X109775046Y-120549010D01*
X109775041Y-120549007D01*
X109602119Y-120472016D01*
X109602114Y-120472014D01*
X109436369Y-120436785D01*
X109416958Y-120432659D01*
X109227666Y-120432659D01*
X109208255Y-120436785D01*
X109042509Y-120472014D01*
X109042504Y-120472016D01*
X108869582Y-120549007D01*
X108869577Y-120549010D01*
X108716441Y-120660270D01*
X108589778Y-120800944D01*
X108495133Y-120964874D01*
X108495132Y-120964876D01*
X108468967Y-121045403D01*
X108429528Y-121103078D01*
X108365169Y-121130275D01*
X108296323Y-121118360D01*
X108263355Y-121094764D01*
X102919273Y-115750682D01*
X106047700Y-115750682D01*
X106067486Y-115938938D01*
X106067487Y-115938941D01*
X106125978Y-116118959D01*
X106125981Y-116118966D01*
X106220627Y-116282898D01*
X106307487Y-116379365D01*
X106347289Y-116423570D01*
X106500425Y-116534830D01*
X106500430Y-116534833D01*
X106673352Y-116611824D01*
X106673357Y-116611826D01*
X106858514Y-116651182D01*
X106858515Y-116651182D01*
X107047804Y-116651182D01*
X107047806Y-116651182D01*
X107232963Y-116611826D01*
X107405890Y-116534833D01*
X107559031Y-116423570D01*
X107685693Y-116282898D01*
X107780339Y-116118966D01*
X107838834Y-115938938D01*
X107858620Y-115750682D01*
X107838834Y-115562426D01*
X107780339Y-115382398D01*
X107685693Y-115218466D01*
X107559031Y-115077794D01*
X107559030Y-115077793D01*
X107405894Y-114966533D01*
X107405889Y-114966530D01*
X107232967Y-114889539D01*
X107232962Y-114889537D01*
X107087161Y-114858547D01*
X107047806Y-114850182D01*
X106858514Y-114850182D01*
X106826057Y-114857080D01*
X106673357Y-114889537D01*
X106673352Y-114889539D01*
X106500430Y-114966530D01*
X106500425Y-114966533D01*
X106347289Y-115077793D01*
X106220626Y-115218467D01*
X106125981Y-115382397D01*
X106125978Y-115382404D01*
X106067487Y-115562422D01*
X106067486Y-115562426D01*
X106047700Y-115750682D01*
X102919273Y-115750682D01*
X102339714Y-115171123D01*
X102320663Y-115146562D01*
X102315172Y-115137278D01*
X102315170Y-115137274D01*
X102315166Y-115137270D01*
X102315163Y-115137266D01*
X102301005Y-115123108D01*
X102288370Y-115108315D01*
X102276593Y-115092107D01*
X102240693Y-115062408D01*
X102236381Y-115058485D01*
X101973638Y-114795742D01*
X101940153Y-114734419D01*
X101945137Y-114664727D01*
X101987009Y-114608794D01*
X102010875Y-114594786D01*
X102052730Y-114576151D01*
X102205871Y-114464888D01*
X102332533Y-114324216D01*
X102427179Y-114160284D01*
X102485674Y-113980256D01*
X102505460Y-113792000D01*
X107806540Y-113792000D01*
X107826326Y-113980256D01*
X107826327Y-113980259D01*
X107884818Y-114160277D01*
X107884821Y-114160284D01*
X107979467Y-114324216D01*
X108048891Y-114401319D01*
X108106129Y-114464888D01*
X108259265Y-114576148D01*
X108259270Y-114576151D01*
X108432192Y-114653142D01*
X108432197Y-114653144D01*
X108617354Y-114692500D01*
X108617355Y-114692500D01*
X108806644Y-114692500D01*
X108806646Y-114692500D01*
X108991803Y-114653144D01*
X109164730Y-114576151D01*
X109317871Y-114464888D01*
X109444533Y-114324216D01*
X109539179Y-114160284D01*
X109597674Y-113980256D01*
X109617460Y-113792000D01*
X109597674Y-113603744D01*
X109539179Y-113423716D01*
X109444533Y-113259784D01*
X109317871Y-113119112D01*
X109317870Y-113119111D01*
X109164734Y-113007851D01*
X109164729Y-113007848D01*
X108991807Y-112930857D01*
X108991802Y-112930855D01*
X108846001Y-112899865D01*
X108806646Y-112891500D01*
X108617354Y-112891500D01*
X108584897Y-112898398D01*
X108432197Y-112930855D01*
X108432192Y-112930857D01*
X108259270Y-113007848D01*
X108259265Y-113007851D01*
X108106129Y-113119111D01*
X107979466Y-113259785D01*
X107884821Y-113423715D01*
X107884818Y-113423722D01*
X107851424Y-113526500D01*
X107826326Y-113603744D01*
X107806540Y-113792000D01*
X102505460Y-113792000D01*
X102485674Y-113603744D01*
X102427179Y-113423716D01*
X102332533Y-113259784D01*
X102205871Y-113119112D01*
X102205870Y-113119111D01*
X102052734Y-113007851D01*
X102052729Y-113007848D01*
X101879807Y-112930857D01*
X101879802Y-112930855D01*
X101734001Y-112899865D01*
X101694646Y-112891500D01*
X101505354Y-112891500D01*
X101472897Y-112898398D01*
X101320197Y-112930855D01*
X101320192Y-112930857D01*
X101147270Y-113007848D01*
X101147265Y-113007851D01*
X100994129Y-113119111D01*
X100867467Y-113259783D01*
X100790953Y-113392309D01*
X100740386Y-113440524D01*
X100671778Y-113453746D01*
X100606914Y-113427778D01*
X100595885Y-113417989D01*
X98845108Y-111667212D01*
X98835285Y-111654950D01*
X98835064Y-111655134D01*
X98830091Y-111649123D01*
X98779669Y-111601773D01*
X98769224Y-111591328D01*
X98758780Y-111580883D01*
X98753291Y-111576625D01*
X98748866Y-111572847D01*
X98714887Y-111540938D01*
X98714885Y-111540936D01*
X98714882Y-111540935D01*
X98697334Y-111531288D01*
X98681068Y-111520604D01*
X98665238Y-111508325D01*
X98622473Y-111489818D01*
X98617227Y-111487248D01*
X98576398Y-111464803D01*
X98576397Y-111464802D01*
X98556998Y-111459822D01*
X98538586Y-111453518D01*
X98520203Y-111445562D01*
X98520197Y-111445560D01*
X98474179Y-111438272D01*
X98468457Y-111437087D01*
X98423326Y-111425500D01*
X98423324Y-111425500D01*
X98403289Y-111425500D01*
X98383891Y-111423973D01*
X98376467Y-111422797D01*
X98364110Y-111420840D01*
X98364109Y-111420840D01*
X98317721Y-111425225D01*
X98311883Y-111425500D01*
X82595743Y-111425500D01*
X82580122Y-111423775D01*
X82580096Y-111424061D01*
X82572334Y-111423327D01*
X82572333Y-111423327D01*
X82503186Y-111425500D01*
X82473649Y-111425500D01*
X82466766Y-111426369D01*
X82460949Y-111426826D01*
X82414373Y-111428290D01*
X82395129Y-111433881D01*
X82376079Y-111437825D01*
X82356211Y-111440334D01*
X82312884Y-111457488D01*
X82307358Y-111459380D01*
X82277598Y-111468026D01*
X82207729Y-111467829D01*
X82149058Y-111429888D01*
X82120213Y-111366251D01*
X82130352Y-111297121D01*
X82155317Y-111261272D01*
X83180590Y-110236000D01*
X91042540Y-110236000D01*
X91062326Y-110424256D01*
X91062327Y-110424259D01*
X91120818Y-110604277D01*
X91120821Y-110604284D01*
X91215467Y-110768216D01*
X91342129Y-110908888D01*
X91495265Y-111020148D01*
X91495270Y-111020151D01*
X91668192Y-111097142D01*
X91668197Y-111097144D01*
X91853354Y-111136500D01*
X91853355Y-111136500D01*
X92042644Y-111136500D01*
X92042646Y-111136500D01*
X92227803Y-111097144D01*
X92400730Y-111020151D01*
X92553871Y-110908888D01*
X92680533Y-110768216D01*
X92775179Y-110604284D01*
X92833674Y-110424256D01*
X92853460Y-110236000D01*
X92833674Y-110047744D01*
X92775179Y-109867716D01*
X92680533Y-109703784D01*
X92553871Y-109563112D01*
X92546886Y-109558037D01*
X92400734Y-109451851D01*
X92400729Y-109451848D01*
X92227807Y-109374857D01*
X92227802Y-109374855D01*
X92082001Y-109343865D01*
X92042646Y-109335500D01*
X91853354Y-109335500D01*
X91820897Y-109342398D01*
X91668197Y-109374855D01*
X91668192Y-109374857D01*
X91495270Y-109451848D01*
X91495265Y-109451851D01*
X91342129Y-109563111D01*
X91215466Y-109703785D01*
X91120821Y-109867715D01*
X91120818Y-109867722D01*
X91064775Y-110040207D01*
X91062326Y-110047744D01*
X91042540Y-110236000D01*
X83180590Y-110236000D01*
X84550772Y-108865819D01*
X84612095Y-108832334D01*
X84638453Y-108829500D01*
X93161548Y-108829500D01*
X93228587Y-108849185D01*
X93249229Y-108865819D01*
X94565038Y-110181629D01*
X94598523Y-110242952D01*
X94600678Y-110256348D01*
X94604717Y-110294773D01*
X94618326Y-110424256D01*
X94618327Y-110424259D01*
X94676818Y-110604277D01*
X94676821Y-110604284D01*
X94771467Y-110768216D01*
X94898129Y-110908888D01*
X95051265Y-111020148D01*
X95051270Y-111020151D01*
X95224192Y-111097142D01*
X95224197Y-111097144D01*
X95409354Y-111136500D01*
X95409355Y-111136500D01*
X95598644Y-111136500D01*
X95598646Y-111136500D01*
X95783803Y-111097144D01*
X95956730Y-111020151D01*
X96109871Y-110908888D01*
X96236533Y-110768216D01*
X96331179Y-110604284D01*
X96389674Y-110424256D01*
X96409460Y-110236000D01*
X96389674Y-110047744D01*
X96331179Y-109867716D01*
X96236533Y-109703784D01*
X96109871Y-109563112D01*
X96102886Y-109558037D01*
X95956734Y-109451851D01*
X95956729Y-109451848D01*
X95783807Y-109374857D01*
X95783802Y-109374855D01*
X95638001Y-109343865D01*
X95598646Y-109335500D01*
X95598645Y-109335500D01*
X95539452Y-109335500D01*
X95472413Y-109315815D01*
X95451771Y-109299181D01*
X94864590Y-108712000D01*
X96630540Y-108712000D01*
X96650326Y-108900256D01*
X96650327Y-108900259D01*
X96708818Y-109080277D01*
X96708821Y-109080284D01*
X96803467Y-109244216D01*
X96907844Y-109360138D01*
X96930129Y-109384888D01*
X97083265Y-109496148D01*
X97083270Y-109496151D01*
X97256192Y-109573142D01*
X97256197Y-109573144D01*
X97441354Y-109612500D01*
X97441355Y-109612500D01*
X97630644Y-109612500D01*
X97630646Y-109612500D01*
X97815803Y-109573144D01*
X97988730Y-109496151D01*
X98141871Y-109384888D01*
X98268533Y-109244216D01*
X98363179Y-109080284D01*
X98421674Y-108900256D01*
X98441460Y-108712000D01*
X98421674Y-108523744D01*
X98363179Y-108343716D01*
X98268533Y-108179784D01*
X98141871Y-108039112D01*
X98141870Y-108039111D01*
X97988734Y-107927851D01*
X97988729Y-107927848D01*
X97815807Y-107850857D01*
X97815802Y-107850855D01*
X97670001Y-107819865D01*
X97630646Y-107811500D01*
X97441354Y-107811500D01*
X97408897Y-107818398D01*
X97256197Y-107850855D01*
X97256192Y-107850857D01*
X97083270Y-107927848D01*
X97083265Y-107927851D01*
X96930129Y-108039111D01*
X96803466Y-108179785D01*
X96708821Y-108343715D01*
X96708818Y-108343722D01*
X96664491Y-108480148D01*
X96650326Y-108523744D01*
X96630540Y-108712000D01*
X94864590Y-108712000D01*
X93972803Y-107820212D01*
X93962980Y-107807950D01*
X93962759Y-107808134D01*
X93957786Y-107802123D01*
X93939159Y-107784631D01*
X93907364Y-107754773D01*
X93896919Y-107744328D01*
X93886475Y-107733883D01*
X93880986Y-107729625D01*
X93876561Y-107725847D01*
X93844778Y-107696000D01*
X100694540Y-107696000D01*
X100714326Y-107884256D01*
X100714327Y-107884259D01*
X100772818Y-108064277D01*
X100772821Y-108064284D01*
X100867467Y-108228216D01*
X100994129Y-108368888D01*
X101147265Y-108480148D01*
X101147270Y-108480151D01*
X101320192Y-108557142D01*
X101320197Y-108557144D01*
X101505354Y-108596500D01*
X101505355Y-108596500D01*
X101694644Y-108596500D01*
X101694646Y-108596500D01*
X101879803Y-108557144D01*
X102052730Y-108480151D01*
X102205871Y-108368888D01*
X102332533Y-108228216D01*
X102427179Y-108064284D01*
X102485674Y-107884256D01*
X102505460Y-107696000D01*
X102485674Y-107507744D01*
X102427179Y-107327716D01*
X102332533Y-107163784D01*
X102205871Y-107023112D01*
X102173708Y-106999744D01*
X102052734Y-106911851D01*
X102052729Y-106911848D01*
X101879807Y-106834857D01*
X101879802Y-106834855D01*
X101734001Y-106803865D01*
X101694646Y-106795500D01*
X101505354Y-106795500D01*
X101472897Y-106802398D01*
X101320197Y-106834855D01*
X101320192Y-106834857D01*
X101147270Y-106911848D01*
X101147265Y-106911851D01*
X100994129Y-107023111D01*
X100867466Y-107163785D01*
X100772821Y-107327715D01*
X100772818Y-107327722D01*
X100714327Y-107507740D01*
X100714326Y-107507744D01*
X100694540Y-107696000D01*
X93844778Y-107696000D01*
X93842582Y-107693938D01*
X93842580Y-107693936D01*
X93842577Y-107693935D01*
X93825029Y-107684288D01*
X93808763Y-107673604D01*
X93792933Y-107661325D01*
X93750168Y-107642818D01*
X93744922Y-107640248D01*
X93704093Y-107617803D01*
X93704092Y-107617802D01*
X93684693Y-107612822D01*
X93666281Y-107606518D01*
X93647898Y-107598562D01*
X93647892Y-107598560D01*
X93601874Y-107591272D01*
X93596152Y-107590087D01*
X93551021Y-107578500D01*
X93551019Y-107578500D01*
X93530984Y-107578500D01*
X93511586Y-107576973D01*
X93504162Y-107575797D01*
X93491805Y-107573840D01*
X93491804Y-107573840D01*
X93445416Y-107578225D01*
X93439578Y-107578500D01*
X84410737Y-107578500D01*
X84395120Y-107576776D01*
X84395093Y-107577062D01*
X84387331Y-107576327D01*
X84318203Y-107578500D01*
X84288650Y-107578500D01*
X84287929Y-107578590D01*
X84281757Y-107579369D01*
X84275945Y-107579826D01*
X84229372Y-107581290D01*
X84229369Y-107581291D01*
X84210126Y-107586881D01*
X84191083Y-107590825D01*
X84171204Y-107593336D01*
X84171203Y-107593337D01*
X84127878Y-107610490D01*
X84122352Y-107612382D01*
X84077608Y-107625383D01*
X84077604Y-107625385D01*
X84060365Y-107635580D01*
X84042898Y-107644137D01*
X84024269Y-107651512D01*
X84024267Y-107651513D01*
X83986564Y-107678906D01*
X83981682Y-107682112D01*
X83941580Y-107705828D01*
X83927408Y-107720000D01*
X83912623Y-107732628D01*
X83896412Y-107744407D01*
X83866709Y-107780310D01*
X83862777Y-107784631D01*
X77340208Y-114307199D01*
X77327951Y-114317020D01*
X77328134Y-114317241D01*
X77322123Y-114322213D01*
X77274772Y-114372636D01*
X77253889Y-114393519D01*
X77253877Y-114393532D01*
X77249621Y-114399017D01*
X77245837Y-114403447D01*
X77213937Y-114437418D01*
X77213936Y-114437420D01*
X77204284Y-114454976D01*
X77193610Y-114471226D01*
X77181329Y-114487061D01*
X77181324Y-114487068D01*
X77162815Y-114529838D01*
X77160245Y-114535084D01*
X77137803Y-114575906D01*
X77132822Y-114595307D01*
X77126521Y-114613710D01*
X77118562Y-114632102D01*
X77118561Y-114632105D01*
X77111271Y-114678127D01*
X77110087Y-114683846D01*
X77098501Y-114728972D01*
X77098500Y-114728982D01*
X77098500Y-114749016D01*
X77096973Y-114768415D01*
X77093840Y-114788194D01*
X77093840Y-114788195D01*
X74418464Y-114788195D01*
X74614357Y-114349650D01*
X75094377Y-113372519D01*
X75609763Y-112413572D01*
X76159828Y-111474087D01*
X76743838Y-110555319D01*
X76867438Y-110375715D01*
X77313181Y-109728000D01*
X77834540Y-109728000D01*
X77854326Y-109916256D01*
X77854327Y-109916259D01*
X77912818Y-110096277D01*
X77912821Y-110096284D01*
X78007467Y-110260216D01*
X78134129Y-110400888D01*
X78287265Y-110512148D01*
X78287270Y-110512151D01*
X78460192Y-110589142D01*
X78460197Y-110589144D01*
X78645354Y-110628500D01*
X78645355Y-110628500D01*
X78834644Y-110628500D01*
X78834646Y-110628500D01*
X79019803Y-110589144D01*
X79192730Y-110512151D01*
X79345871Y-110400888D01*
X79472533Y-110260216D01*
X79567179Y-110096284D01*
X79625674Y-109916256D01*
X79645460Y-109728000D01*
X79625674Y-109539744D01*
X79567179Y-109359716D01*
X79472533Y-109195784D01*
X79345871Y-109055112D01*
X79345786Y-109055050D01*
X79192734Y-108943851D01*
X79192729Y-108943848D01*
X79019807Y-108866857D01*
X79019802Y-108866855D01*
X78844055Y-108829500D01*
X78834646Y-108827500D01*
X78645354Y-108827500D01*
X78635945Y-108829500D01*
X78460197Y-108866855D01*
X78460192Y-108866857D01*
X78287270Y-108943848D01*
X78287265Y-108943851D01*
X78134129Y-109055111D01*
X78134128Y-109055112D01*
X78041189Y-109158331D01*
X77998941Y-109184358D01*
X77997193Y-109210005D01*
X77988256Y-109229057D01*
X77912820Y-109359718D01*
X77912818Y-109359722D01*
X77860277Y-109521428D01*
X77854326Y-109539744D01*
X77834540Y-109728000D01*
X77313181Y-109728000D01*
X77361014Y-109658494D01*
X77541331Y-109415943D01*
X77781357Y-109093075D01*
X77831802Y-109055050D01*
X77837247Y-109021708D01*
X77849523Y-109001382D01*
X78010532Y-108784805D01*
X78691526Y-107935423D01*
X79403086Y-107111478D01*
X80144264Y-106314070D01*
X80286334Y-106172000D01*
X82406540Y-106172000D01*
X82426326Y-106360256D01*
X82426327Y-106360259D01*
X82484818Y-106540277D01*
X82484821Y-106540284D01*
X82579467Y-106704216D01*
X82697095Y-106834855D01*
X82706129Y-106844888D01*
X82859265Y-106956148D01*
X82859270Y-106956151D01*
X83032192Y-107033142D01*
X83032197Y-107033144D01*
X83217354Y-107072500D01*
X83217355Y-107072500D01*
X83406644Y-107072500D01*
X83406646Y-107072500D01*
X83591803Y-107033144D01*
X83764730Y-106956151D01*
X83917871Y-106844888D01*
X84044533Y-106704216D01*
X84139179Y-106540284D01*
X84197674Y-106360256D01*
X84217460Y-106172000D01*
X84197674Y-105983744D01*
X84139179Y-105803716D01*
X84044533Y-105639784D01*
X83917871Y-105499112D01*
X83917870Y-105499111D01*
X83764734Y-105387851D01*
X83764729Y-105387848D01*
X83591807Y-105310857D01*
X83591802Y-105310855D01*
X83446001Y-105279865D01*
X83406646Y-105271500D01*
X83217354Y-105271500D01*
X83194969Y-105276258D01*
X83032197Y-105310855D01*
X83032192Y-105310857D01*
X82859270Y-105387848D01*
X82859265Y-105387851D01*
X82706129Y-105499111D01*
X82579466Y-105639785D01*
X82484821Y-105803715D01*
X82484818Y-105803722D01*
X82440491Y-105940148D01*
X82426326Y-105983744D01*
X82406540Y-106172000D01*
X80286334Y-106172000D01*
X80914070Y-105544264D01*
X81711478Y-104803086D01*
X82535423Y-104091526D01*
X83384805Y-103410532D01*
X84258493Y-102761014D01*
X85155319Y-102143838D01*
X86074087Y-101559828D01*
X87013572Y-101009763D01*
X87972519Y-100494377D01*
X88824169Y-100076000D01*
X108314540Y-100076000D01*
X108334326Y-100264256D01*
X108334327Y-100264259D01*
X108392818Y-100444277D01*
X108392821Y-100444284D01*
X108487467Y-100608216D01*
X108569660Y-100699500D01*
X108614129Y-100748888D01*
X108767265Y-100860148D01*
X108767270Y-100860151D01*
X108940192Y-100937142D01*
X108940197Y-100937144D01*
X109125354Y-100976500D01*
X109125355Y-100976500D01*
X109314644Y-100976500D01*
X109314646Y-100976500D01*
X109499803Y-100937144D01*
X109672730Y-100860151D01*
X109825871Y-100748888D01*
X109952533Y-100608216D01*
X110047179Y-100444284D01*
X110105674Y-100264256D01*
X110125460Y-100076000D01*
X110105674Y-99887744D01*
X110047179Y-99707716D01*
X109952533Y-99543784D01*
X109825871Y-99403112D01*
X109825870Y-99403111D01*
X109672734Y-99291851D01*
X109672729Y-99291848D01*
X109499807Y-99214857D01*
X109499802Y-99214855D01*
X109354001Y-99183865D01*
X109314646Y-99175500D01*
X109125354Y-99175500D01*
X109092897Y-99182398D01*
X108940197Y-99214855D01*
X108940192Y-99214857D01*
X108767270Y-99291848D01*
X108767265Y-99291851D01*
X108614129Y-99403111D01*
X108487466Y-99543785D01*
X108392821Y-99707715D01*
X108392818Y-99707722D01*
X108348491Y-99844148D01*
X108334326Y-99887744D01*
X108314540Y-100076000D01*
X88824169Y-100076000D01*
X88949650Y-100014357D01*
X89943660Y-99570344D01*
X90953223Y-99162930D01*
X91237817Y-99060000D01*
X101202540Y-99060000D01*
X101222326Y-99248256D01*
X101222327Y-99248259D01*
X101280818Y-99428277D01*
X101280821Y-99428284D01*
X101375467Y-99592216D01*
X101502129Y-99732888D01*
X101655265Y-99844148D01*
X101655270Y-99844151D01*
X101828192Y-99921142D01*
X101828197Y-99921144D01*
X102013354Y-99960500D01*
X102013355Y-99960500D01*
X102202644Y-99960500D01*
X102202646Y-99960500D01*
X102387803Y-99921144D01*
X102560730Y-99844151D01*
X102713871Y-99732888D01*
X102840533Y-99592216D01*
X102935179Y-99428284D01*
X102993674Y-99248256D01*
X103013460Y-99060000D01*
X102993674Y-98871744D01*
X102935179Y-98691716D01*
X102840533Y-98527784D01*
X102713871Y-98387112D01*
X102713870Y-98387111D01*
X102560734Y-98275851D01*
X102560729Y-98275848D01*
X102387807Y-98198857D01*
X102387802Y-98198855D01*
X102230756Y-98165475D01*
X102202646Y-98159500D01*
X102013354Y-98159500D01*
X101985244Y-98165475D01*
X101828197Y-98198855D01*
X101828192Y-98198857D01*
X101655270Y-98275848D01*
X101655265Y-98275851D01*
X101502129Y-98387111D01*
X101375466Y-98527785D01*
X101280821Y-98691715D01*
X101280818Y-98691722D01*
X101222327Y-98871740D01*
X101222326Y-98871744D01*
X101202540Y-99060000D01*
X91237817Y-99060000D01*
X91976992Y-98792660D01*
X93013601Y-98460027D01*
X94061667Y-98165475D01*
X95119792Y-97909397D01*
X96186563Y-97692134D01*
X97260557Y-97513977D01*
X98340341Y-97375164D01*
X99424475Y-97275879D01*
X100511512Y-97216255D01*
X101600000Y-97196371D01*
X102688488Y-97216255D01*
G37*
%TD.AperFunction*%
%TD*%
M02*
