%TF.GenerationSoftware,KiCad,Pcbnew,7.0.9*%
%TF.CreationDate,2025-01-08T15:48:33+01:00*%
%TF.ProjectId,DB-radar,44422d72-6164-4617-922e-6b696361645f,rev?*%
%TF.SameCoordinates,Original*%
%TF.FileFunction,Paste,Top*%
%TF.FilePolarity,Positive*%
%FSLAX46Y46*%
G04 Gerber Fmt 4.6, Leading zero omitted, Abs format (unit mm)*
G04 Created by KiCad (PCBNEW 7.0.9) date 2025-01-08 15:48:33*
%MOMM*%
%LPD*%
G01*
G04 APERTURE LIST*
G04 Aperture macros list*
%AMRoundRect*
0 Rectangle with rounded corners*
0 $1 Rounding radius*
0 $2 $3 $4 $5 $6 $7 $8 $9 X,Y pos of 4 corners*
0 Add a 4 corners polygon primitive as box body*
4,1,4,$2,$3,$4,$5,$6,$7,$8,$9,$2,$3,0*
0 Add four circle primitives for the rounded corners*
1,1,$1+$1,$2,$3*
1,1,$1+$1,$4,$5*
1,1,$1+$1,$6,$7*
1,1,$1+$1,$8,$9*
0 Add four rect primitives between the rounded corners*
20,1,$1+$1,$2,$3,$4,$5,0*
20,1,$1+$1,$4,$5,$6,$7,0*
20,1,$1+$1,$6,$7,$8,$9,0*
20,1,$1+$1,$8,$9,$2,$3,0*%
%AMRotRect*
0 Rectangle, with rotation*
0 The origin of the aperture is its center*
0 $1 length*
0 $2 width*
0 $3 Rotation angle, in degrees counterclockwise*
0 Add horizontal line*
21,1,$1,$2,0,0,$3*%
G04 Aperture macros list end*
%ADD10RoundRect,0.243750X0.439219X0.273249X0.017031X0.516999X-0.439219X-0.273249X-0.017031X-0.516999X0*%
%ADD11RoundRect,0.225000X-0.069856X-0.329006X0.319856X-0.104006X0.069856X0.329006X-0.319856X0.104006X0*%
%ADD12RotRect,0.700000X1.525000X165.000000*%
%ADD13RotRect,2.513000X3.402000X75.000000*%
%ADD14RoundRect,0.200000X-0.275000X0.200000X-0.275000X-0.200000X0.275000X-0.200000X0.275000X0.200000X0*%
%ADD15RoundRect,0.243750X0.243750X0.456250X-0.243750X0.456250X-0.243750X-0.456250X0.243750X-0.456250X0*%
%ADD16RoundRect,0.243750X-0.516999X-0.017031X-0.273249X-0.439219X0.516999X0.017031X0.273249X0.439219X0*%
%ADD17RoundRect,0.243750X-0.017031X0.516999X-0.439219X0.273249X0.017031X-0.516999X0.439219X-0.273249X0*%
%ADD18RoundRect,0.243750X0.273249X-0.439219X0.516999X-0.017031X-0.273249X0.439219X-0.516999X0.017031X0*%
%ADD19RoundRect,0.225000X-0.183247X0.282038X-0.299716X-0.152629X0.183247X-0.282038X0.299716X0.152629X0*%
%ADD20RoundRect,0.243750X-0.456250X0.243750X-0.456250X-0.243750X0.456250X-0.243750X0.456250X0.243750X0*%
%ADD21RoundRect,0.243750X0.456250X-0.243750X0.456250X0.243750X-0.456250X0.243750X-0.456250X-0.243750X0*%
%ADD22RoundRect,0.243750X-0.273249X0.439219X-0.516999X0.017031X0.273249X-0.439219X0.516999X-0.017031X0*%
%ADD23R,2.540000X0.550000*%
%ADD24R,2.000000X0.550000*%
%ADD25RoundRect,0.200000X-0.035705X-0.338157X0.310705X-0.138157X0.035705X0.338157X-0.310705X0.138157X0*%
%ADD26R,1.600000X0.550000*%
%ADD27R,0.550000X1.600000*%
%ADD28RoundRect,0.225000X0.250000X-0.225000X0.250000X0.225000X-0.250000X0.225000X-0.250000X-0.225000X0*%
%ADD29RoundRect,0.243750X0.017031X-0.516999X0.439219X-0.273249X-0.017031X0.516999X-0.439219X0.273249X0*%
%ADD30RoundRect,0.243750X0.516999X0.017031X0.273249X0.439219X-0.516999X-0.017031X-0.273249X-0.439219X0*%
%ADD31RoundRect,0.150000X0.150000X-0.587500X0.150000X0.587500X-0.150000X0.587500X-0.150000X-0.587500X0*%
%ADD32RoundRect,0.150000X0.150000X-0.825000X0.150000X0.825000X-0.150000X0.825000X-0.150000X-0.825000X0*%
%ADD33RoundRect,0.200000X-0.200000X-0.275000X0.200000X-0.275000X0.200000X0.275000X-0.200000X0.275000X0*%
%ADD34R,1.150000X0.600000*%
%ADD35RoundRect,0.243750X-0.439219X-0.273249X-0.017031X-0.516999X0.439219X0.273249X0.017031X0.516999X0*%
%ADD36RoundRect,0.225000X0.225000X0.250000X-0.225000X0.250000X-0.225000X-0.250000X0.225000X-0.250000X0*%
%ADD37R,1.475000X0.450000*%
%ADD38RoundRect,0.225000X-0.250000X0.225000X-0.250000X-0.225000X0.250000X-0.225000X0.250000X0.225000X0*%
%ADD39RoundRect,0.200000X0.275000X-0.200000X0.275000X0.200000X-0.275000X0.200000X-0.275000X-0.200000X0*%
%ADD40RoundRect,0.243750X-0.243750X-0.456250X0.243750X-0.456250X0.243750X0.456250X-0.243750X0.456250X0*%
%ADD41RoundRect,0.150000X-0.150000X0.587500X-0.150000X-0.587500X0.150000X-0.587500X0.150000X0.587500X0*%
%ADD42RoundRect,0.200000X0.213866X-0.264360X0.317393X0.122010X-0.213866X0.264360X-0.317393X-0.122010X0*%
%ADD43RoundRect,0.250000X0.450000X-0.350000X0.450000X0.350000X-0.450000X0.350000X-0.450000X-0.350000X0*%
G04 APERTURE END LIST*
D10*
%TO.C,D28*%
X84814263Y-117308750D03*
X83190465Y-116371250D03*
%TD*%
D11*
%TO.C,C9*%
X108367170Y-137552736D03*
X107024830Y-138327736D03*
%TD*%
D12*
%TO.C,U3*%
X105153994Y-106266541D03*
X106380720Y-106595241D03*
X107607446Y-106923941D03*
X108834171Y-107252641D03*
X110238006Y-102013459D03*
X109011280Y-101684759D03*
X107784554Y-101356059D03*
X106557829Y-101027359D03*
D13*
X107696000Y-104140000D03*
%TD*%
D14*
%TO.C,R4*%
X94658224Y-128672989D03*
X94658224Y-130322989D03*
%TD*%
D15*
%TO.C,D11*%
X77137500Y-127000000D03*
X75262500Y-127000000D03*
%TD*%
D10*
%TO.C,D12*%
X80414854Y-114768750D03*
X78791056Y-113831250D03*
%TD*%
D16*
%TO.C,D23*%
X111291250Y-143785737D03*
X112228750Y-145409535D03*
%TD*%
D17*
%TO.C,D26*%
X84814263Y-136691250D03*
X83190465Y-137628750D03*
%TD*%
D18*
%TO.C,D19*%
X111291250Y-110214263D03*
X112228750Y-108590465D03*
%TD*%
D19*
%TO.C,C4*%
X108204000Y-109220000D03*
X107802830Y-110717186D03*
%TD*%
D20*
%TO.C,D8*%
X101600000Y-151462500D03*
X101600000Y-153337500D03*
%TD*%
D21*
%TO.C,D14*%
X101600000Y-102537500D03*
X101600000Y-100662500D03*
%TD*%
D22*
%TO.C,D25*%
X91908750Y-143785737D03*
X90971250Y-145409535D03*
%TD*%
D23*
%TO.C,Y1*%
X92075000Y-130740000D03*
X92075000Y-128340000D03*
D24*
X92075000Y-129540000D03*
%TD*%
D17*
%TO.C,D10*%
X80414854Y-139231250D03*
X78791056Y-140168750D03*
%TD*%
D25*
%TO.C,R11*%
X107997529Y-140112500D03*
X109426471Y-139287500D03*
%TD*%
D26*
%TO.C,U1*%
X97350000Y-124200000D03*
X97350000Y-125000000D03*
X97350000Y-125800000D03*
X97350000Y-126600000D03*
X97350000Y-127400000D03*
X97350000Y-128200000D03*
X97350000Y-129000000D03*
X97350000Y-129800000D03*
D27*
X98800000Y-131250000D03*
X99600000Y-131250000D03*
X100400000Y-131250000D03*
X101200000Y-131250000D03*
X102000000Y-131250000D03*
X102800000Y-131250000D03*
X103600000Y-131250000D03*
X104400000Y-131250000D03*
D26*
X105850000Y-129800000D03*
X105850000Y-129000000D03*
X105850000Y-128200000D03*
X105850000Y-127400000D03*
X105850000Y-126600000D03*
X105850000Y-125800000D03*
X105850000Y-125000000D03*
X105850000Y-124200000D03*
D27*
X104400000Y-122750000D03*
X103600000Y-122750000D03*
X102800000Y-122750000D03*
X102000000Y-122750000D03*
X101200000Y-122750000D03*
X100400000Y-122750000D03*
X99600000Y-122750000D03*
X98800000Y-122750000D03*
%TD*%
D28*
%TO.C,C7*%
X114838000Y-132106000D03*
X114838000Y-130556000D03*
%TD*%
D29*
%TO.C,D4*%
X122785146Y-114768750D03*
X124408944Y-113831250D03*
%TD*%
D30*
%TO.C,D13*%
X89368750Y-105814854D03*
X88431250Y-104191056D03*
%TD*%
D31*
%TO.C,U4*%
X114300000Y-128791000D03*
X116200000Y-128791000D03*
X115250000Y-126916000D03*
%TD*%
D32*
%TO.C,U8*%
X91694000Y-140078000D03*
X92964000Y-140078000D03*
X94234000Y-140078000D03*
X95504000Y-140078000D03*
X96774000Y-140078000D03*
X98044000Y-140078000D03*
X99314000Y-140078000D03*
X100584000Y-140078000D03*
X100584000Y-135128000D03*
X99314000Y-135128000D03*
X98044000Y-135128000D03*
X96774000Y-135128000D03*
X95504000Y-135128000D03*
X94234000Y-135128000D03*
X92964000Y-135128000D03*
X91694000Y-135128000D03*
%TD*%
D33*
%TO.C,R14*%
X91440000Y-112776000D03*
X93090000Y-112776000D03*
%TD*%
D34*
%TO.C,U2*%
X94302000Y-116073000D03*
X94302000Y-117023000D03*
X94302000Y-117973000D03*
X95902000Y-117973000D03*
X95902000Y-117023000D03*
X95902000Y-116073000D03*
%TD*%
D18*
%TO.C,D3*%
X113831250Y-105814854D03*
X114768750Y-104191056D03*
%TD*%
D32*
%TO.C,U5*%
X84963000Y-125919000D03*
X86233000Y-125919000D03*
X87503000Y-125919000D03*
X88773000Y-125919000D03*
X90043000Y-125919000D03*
X91313000Y-125919000D03*
X92583000Y-125919000D03*
X93853000Y-125919000D03*
X93853000Y-120969000D03*
X92583000Y-120969000D03*
X91313000Y-120969000D03*
X90043000Y-120969000D03*
X88773000Y-120969000D03*
X87503000Y-120969000D03*
X86233000Y-120969000D03*
X84963000Y-120969000D03*
%TD*%
D35*
%TO.C,D22*%
X118385737Y-136691250D03*
X120009535Y-137628750D03*
%TD*%
D36*
%TO.C,C1*%
X110008000Y-127254000D03*
X108458000Y-127254000D03*
%TD*%
D30*
%TO.C,D29*%
X91908750Y-110214263D03*
X90971250Y-108590465D03*
%TD*%
D37*
%TO.C,Q1*%
X101092000Y-116048000D03*
X101092000Y-116698000D03*
X101092000Y-117348000D03*
X101092000Y-117998000D03*
X106968000Y-117998000D03*
X106968000Y-117348000D03*
X106968000Y-116698000D03*
X106968000Y-116048000D03*
%TD*%
D33*
%TO.C,R9*%
X90932000Y-116840000D03*
X92582000Y-116840000D03*
%TD*%
D29*
%TO.C,D20*%
X118385737Y-117308750D03*
X120009535Y-116371250D03*
%TD*%
D28*
%TO.C,C2*%
X97934000Y-117023000D03*
X97934000Y-115473000D03*
%TD*%
D38*
%TO.C,C5*%
X117256112Y-123617346D03*
X117256112Y-125167346D03*
%TD*%
D21*
%TO.C,D1*%
X101600000Y-113635000D03*
X101600000Y-111760000D03*
%TD*%
D11*
%TO.C,C10*%
X109056830Y-141847264D03*
X110399170Y-141072264D03*
%TD*%
D20*
%TO.C,D24*%
X101600000Y-146382500D03*
X101600000Y-148257500D03*
%TD*%
D38*
%TO.C,C6*%
X114746112Y-123617346D03*
X114746112Y-125167346D03*
%TD*%
D22*
%TO.C,D9*%
X89368750Y-148185146D03*
X88431250Y-149808944D03*
%TD*%
D21*
%TO.C,D30*%
X101600000Y-107617500D03*
X101600000Y-105742500D03*
%TD*%
D39*
%TO.C,R3*%
X88900000Y-118872000D03*
X88900000Y-117222000D03*
%TD*%
D40*
%TO.C,D21*%
X120982500Y-127000000D03*
X122857500Y-127000000D03*
%TD*%
%TO.C,D5*%
X126062500Y-127000000D03*
X127937500Y-127000000D03*
%TD*%
D28*
%TO.C,C8*%
X117348000Y-132106000D03*
X117348000Y-130556000D03*
%TD*%
D41*
%TO.C,Q3*%
X87950000Y-112933000D03*
X89850000Y-112933000D03*
X88900000Y-114808000D03*
%TD*%
D15*
%TO.C,D27*%
X82217500Y-127000000D03*
X80342500Y-127000000D03*
%TD*%
D42*
%TO.C,R6*%
X111546474Y-103920889D03*
X111973526Y-102327111D03*
%TD*%
D35*
%TO.C,D6*%
X122785146Y-139231250D03*
X124408944Y-140168750D03*
%TD*%
D16*
%TO.C,D7*%
X113831250Y-148185146D03*
X114768750Y-149808944D03*
%TD*%
D43*
%TO.C,R10*%
X105664000Y-110728000D03*
X105664000Y-108728000D03*
%TD*%
D33*
%TO.C,R7*%
X97918000Y-111760000D03*
X99568000Y-111760000D03*
%TD*%
M02*
