%TF.GenerationSoftware,KiCad,Pcbnew,7.0.9*%
%TF.CreationDate,2025-01-08T15:48:33+01:00*%
%TF.ProjectId,DB-radar,44422d72-6164-4617-922e-6b696361645f,rev?*%
%TF.SameCoordinates,Original*%
%TF.FileFunction,Legend,Top*%
%TF.FilePolarity,Positive*%
%FSLAX46Y46*%
G04 Gerber Fmt 4.6, Leading zero omitted, Abs format (unit mm)*
G04 Created by KiCad (PCBNEW 7.0.9) date 2025-01-08 15:48:33*
%MOMM*%
%LPD*%
G01*
G04 APERTURE LIST*
%ADD10C,0.150000*%
%ADD11C,0.254000*%
%ADD12C,0.120000*%
%ADD13C,0.200000*%
G04 APERTURE END LIST*
D10*
X92062493Y-137045819D02*
X92062493Y-137760104D01*
X92062493Y-137760104D02*
X92014874Y-137902961D01*
X92014874Y-137902961D02*
X91919636Y-137998200D01*
X91919636Y-137998200D02*
X91776779Y-138045819D01*
X91776779Y-138045819D02*
X91681541Y-138045819D01*
X93014874Y-138045819D02*
X92538684Y-138045819D01*
X92538684Y-138045819D02*
X92538684Y-137045819D01*
X93919636Y-137950580D02*
X93872017Y-137998200D01*
X93872017Y-137998200D02*
X93729160Y-138045819D01*
X93729160Y-138045819D02*
X93633922Y-138045819D01*
X93633922Y-138045819D02*
X93491065Y-137998200D01*
X93491065Y-137998200D02*
X93395827Y-137902961D01*
X93395827Y-137902961D02*
X93348208Y-137807723D01*
X93348208Y-137807723D02*
X93300589Y-137617247D01*
X93300589Y-137617247D02*
X93300589Y-137474390D01*
X93300589Y-137474390D02*
X93348208Y-137283914D01*
X93348208Y-137283914D02*
X93395827Y-137188676D01*
X93395827Y-137188676D02*
X93491065Y-137093438D01*
X93491065Y-137093438D02*
X93633922Y-137045819D01*
X93633922Y-137045819D02*
X93729160Y-137045819D01*
X93729160Y-137045819D02*
X93872017Y-137093438D01*
X93872017Y-137093438D02*
X93919636Y-137141057D01*
X94633922Y-137045819D02*
X94633922Y-137760104D01*
X94633922Y-137760104D02*
X94586303Y-137902961D01*
X94586303Y-137902961D02*
X94491065Y-137998200D01*
X94491065Y-137998200D02*
X94348208Y-138045819D01*
X94348208Y-138045819D02*
X94252970Y-138045819D01*
X95586303Y-138045819D02*
X95110113Y-138045819D01*
X95110113Y-138045819D02*
X95110113Y-137045819D01*
X96491065Y-137950580D02*
X96443446Y-137998200D01*
X96443446Y-137998200D02*
X96300589Y-138045819D01*
X96300589Y-138045819D02*
X96205351Y-138045819D01*
X96205351Y-138045819D02*
X96062494Y-137998200D01*
X96062494Y-137998200D02*
X95967256Y-137902961D01*
X95967256Y-137902961D02*
X95919637Y-137807723D01*
X95919637Y-137807723D02*
X95872018Y-137617247D01*
X95872018Y-137617247D02*
X95872018Y-137474390D01*
X95872018Y-137474390D02*
X95919637Y-137283914D01*
X95919637Y-137283914D02*
X95967256Y-137188676D01*
X95967256Y-137188676D02*
X96062494Y-137093438D01*
X96062494Y-137093438D02*
X96205351Y-137045819D01*
X96205351Y-137045819D02*
X96300589Y-137045819D01*
X96300589Y-137045819D02*
X96443446Y-137093438D01*
X96443446Y-137093438D02*
X96491065Y-137141057D01*
X97205351Y-137045819D02*
X97205351Y-137760104D01*
X97205351Y-137760104D02*
X97157732Y-137902961D01*
X97157732Y-137902961D02*
X97062494Y-137998200D01*
X97062494Y-137998200D02*
X96919637Y-138045819D01*
X96919637Y-138045819D02*
X96824399Y-138045819D01*
X98157732Y-138045819D02*
X97681542Y-138045819D01*
X97681542Y-138045819D02*
X97681542Y-137045819D01*
X99062494Y-137950580D02*
X99014875Y-137998200D01*
X99014875Y-137998200D02*
X98872018Y-138045819D01*
X98872018Y-138045819D02*
X98776780Y-138045819D01*
X98776780Y-138045819D02*
X98633923Y-137998200D01*
X98633923Y-137998200D02*
X98538685Y-137902961D01*
X98538685Y-137902961D02*
X98491066Y-137807723D01*
X98491066Y-137807723D02*
X98443447Y-137617247D01*
X98443447Y-137617247D02*
X98443447Y-137474390D01*
X98443447Y-137474390D02*
X98491066Y-137283914D01*
X98491066Y-137283914D02*
X98538685Y-137188676D01*
X98538685Y-137188676D02*
X98633923Y-137093438D01*
X98633923Y-137093438D02*
X98776780Y-137045819D01*
X98776780Y-137045819D02*
X98872018Y-137045819D01*
X98872018Y-137045819D02*
X99014875Y-137093438D01*
X99014875Y-137093438D02*
X99062494Y-137141057D01*
X81898352Y-118055683D02*
X82398352Y-117189658D01*
X82398352Y-117189658D02*
X82604548Y-117308706D01*
X82604548Y-117308706D02*
X82704457Y-117421374D01*
X82704457Y-117421374D02*
X82739316Y-117551471D01*
X82739316Y-117551471D02*
X82732936Y-117657759D01*
X82732936Y-117657759D02*
X82678938Y-117846526D01*
X82678938Y-117846526D02*
X82607509Y-117970244D01*
X82607509Y-117970244D02*
X82471032Y-118111392D01*
X82471032Y-118111392D02*
X82382173Y-118170061D01*
X82382173Y-118170061D02*
X82252076Y-118204920D01*
X82252076Y-118204920D02*
X82104548Y-118174731D01*
X82104548Y-118174731D02*
X81898352Y-118055683D01*
X83175519Y-117748327D02*
X83240568Y-117730897D01*
X83240568Y-117730897D02*
X83346856Y-117737277D01*
X83346856Y-117737277D02*
X83553052Y-117856325D01*
X83553052Y-117856325D02*
X83611721Y-117945183D01*
X83611721Y-117945183D02*
X83629151Y-118010232D01*
X83629151Y-118010232D02*
X83622771Y-118116520D01*
X83622771Y-118116520D02*
X83575152Y-118198999D01*
X83575152Y-118198999D02*
X83462484Y-118298907D01*
X83462484Y-118298907D02*
X82681898Y-118508064D01*
X82681898Y-118508064D02*
X83218009Y-118817588D01*
X83998595Y-118608431D02*
X83939926Y-118519573D01*
X83939926Y-118519573D02*
X83922497Y-118454524D01*
X83922497Y-118454524D02*
X83928876Y-118348236D01*
X83928876Y-118348236D02*
X83952686Y-118306996D01*
X83952686Y-118306996D02*
X84041544Y-118248327D01*
X84041544Y-118248327D02*
X84106593Y-118230897D01*
X84106593Y-118230897D02*
X84212881Y-118237277D01*
X84212881Y-118237277D02*
X84377838Y-118332515D01*
X84377838Y-118332515D02*
X84436507Y-118421374D01*
X84436507Y-118421374D02*
X84453937Y-118486422D01*
X84453937Y-118486422D02*
X84447557Y-118592711D01*
X84447557Y-118592711D02*
X84423748Y-118633950D01*
X84423748Y-118633950D02*
X84334890Y-118692619D01*
X84334890Y-118692619D02*
X84269841Y-118710049D01*
X84269841Y-118710049D02*
X84163553Y-118703669D01*
X84163553Y-118703669D02*
X83998595Y-118608431D01*
X83998595Y-118608431D02*
X83892307Y-118602051D01*
X83892307Y-118602051D02*
X83827258Y-118619481D01*
X83827258Y-118619481D02*
X83738400Y-118678150D01*
X83738400Y-118678150D02*
X83643162Y-118843107D01*
X83643162Y-118843107D02*
X83636782Y-118949395D01*
X83636782Y-118949395D02*
X83654212Y-119014444D01*
X83654212Y-119014444D02*
X83712881Y-119103303D01*
X83712881Y-119103303D02*
X83877838Y-119198541D01*
X83877838Y-119198541D02*
X83984126Y-119204920D01*
X83984126Y-119204920D02*
X84049175Y-119187491D01*
X84049175Y-119187491D02*
X84138034Y-119128822D01*
X84138034Y-119128822D02*
X84233272Y-118963864D01*
X84233272Y-118963864D02*
X84239651Y-118857576D01*
X84239651Y-118857576D02*
X84222222Y-118792527D01*
X84222222Y-118792527D02*
X84163553Y-118703669D01*
X105191453Y-139586739D02*
X105174023Y-139651788D01*
X105174023Y-139651788D02*
X105074115Y-139764456D01*
X105074115Y-139764456D02*
X104991636Y-139812075D01*
X104991636Y-139812075D02*
X104844109Y-139842264D01*
X104844109Y-139842264D02*
X104714011Y-139807404D01*
X104714011Y-139807404D02*
X104625153Y-139748735D01*
X104625153Y-139748735D02*
X104488675Y-139607588D01*
X104488675Y-139607588D02*
X104417247Y-139483870D01*
X104417247Y-139483870D02*
X104363248Y-139295103D01*
X104363248Y-139295103D02*
X104356868Y-139188815D01*
X104356868Y-139188815D02*
X104391728Y-139058717D01*
X104391728Y-139058717D02*
X104491636Y-138946049D01*
X104491636Y-138946049D02*
X104574115Y-138898430D01*
X104574115Y-138898430D02*
X104721642Y-138868241D01*
X104721642Y-138868241D02*
X104786691Y-138885671D01*
X105651465Y-139431122D02*
X105816422Y-139335884D01*
X105816422Y-139335884D02*
X105875091Y-139247026D01*
X105875091Y-139247026D02*
X105892521Y-139181977D01*
X105892521Y-139181977D02*
X105903571Y-139010640D01*
X105903571Y-139010640D02*
X105849572Y-138821873D01*
X105849572Y-138821873D02*
X105659096Y-138491959D01*
X105659096Y-138491959D02*
X105570238Y-138433290D01*
X105570238Y-138433290D02*
X105505189Y-138415860D01*
X105505189Y-138415860D02*
X105398901Y-138422240D01*
X105398901Y-138422240D02*
X105233944Y-138517478D01*
X105233944Y-138517478D02*
X105175274Y-138606336D01*
X105175274Y-138606336D02*
X105157845Y-138671385D01*
X105157845Y-138671385D02*
X105164224Y-138777673D01*
X105164224Y-138777673D02*
X105283272Y-138983870D01*
X105283272Y-138983870D02*
X105372130Y-139042539D01*
X105372130Y-139042539D02*
X105437179Y-139059968D01*
X105437179Y-139059968D02*
X105543467Y-139053589D01*
X105543467Y-139053589D02*
X105708425Y-138958351D01*
X105708425Y-138958351D02*
X105767094Y-138869492D01*
X105767094Y-138869492D02*
X105784523Y-138804443D01*
X105784523Y-138804443D02*
X105778144Y-138698155D01*
D11*
X106941407Y-98645584D02*
X106675316Y-99638648D01*
X106675316Y-99638648D02*
X106702427Y-99771131D01*
X106702427Y-99771131D02*
X106745190Y-99845199D01*
X106745190Y-99845199D02*
X106846369Y-99934920D01*
X106846369Y-99934920D02*
X107080031Y-99997529D01*
X107080031Y-99997529D02*
X107212514Y-99970418D01*
X107212514Y-99970418D02*
X107286582Y-99927655D01*
X107286582Y-99927655D02*
X107376303Y-99826477D01*
X107376303Y-99826477D02*
X107642393Y-98833413D01*
X108109717Y-98958632D02*
X108869119Y-99162113D01*
X108869119Y-99162113D02*
X108334991Y-99519870D01*
X108334991Y-99519870D02*
X108510238Y-99566828D01*
X108510238Y-99566828D02*
X108611416Y-99656548D01*
X108611416Y-99656548D02*
X108654179Y-99730616D01*
X108654179Y-99730616D02*
X108681290Y-99863099D01*
X108681290Y-99863099D02*
X108603028Y-100155177D01*
X108603028Y-100155177D02*
X108513308Y-100256355D01*
X108513308Y-100256355D02*
X108439240Y-100299119D01*
X108439240Y-100299119D02*
X108306757Y-100326229D01*
X108306757Y-100326229D02*
X107956263Y-100232315D01*
X107956263Y-100232315D02*
X107855085Y-100142595D01*
X107855085Y-100142595D02*
X107812322Y-100068527D01*
D10*
X94321333Y-132026819D02*
X93988000Y-131550628D01*
X93749905Y-132026819D02*
X93749905Y-131026819D01*
X93749905Y-131026819D02*
X94130857Y-131026819D01*
X94130857Y-131026819D02*
X94226095Y-131074438D01*
X94226095Y-131074438D02*
X94273714Y-131122057D01*
X94273714Y-131122057D02*
X94321333Y-131217295D01*
X94321333Y-131217295D02*
X94321333Y-131360152D01*
X94321333Y-131360152D02*
X94273714Y-131455390D01*
X94273714Y-131455390D02*
X94226095Y-131503009D01*
X94226095Y-131503009D02*
X94130857Y-131550628D01*
X94130857Y-131550628D02*
X93749905Y-131550628D01*
X95178476Y-131360152D02*
X95178476Y-132026819D01*
X94940381Y-130979200D02*
X94702286Y-131693485D01*
X94702286Y-131693485D02*
X95321333Y-131693485D01*
X74985714Y-129104819D02*
X74985714Y-128104819D01*
X74985714Y-128104819D02*
X75223809Y-128104819D01*
X75223809Y-128104819D02*
X75366666Y-128152438D01*
X75366666Y-128152438D02*
X75461904Y-128247676D01*
X75461904Y-128247676D02*
X75509523Y-128342914D01*
X75509523Y-128342914D02*
X75557142Y-128533390D01*
X75557142Y-128533390D02*
X75557142Y-128676247D01*
X75557142Y-128676247D02*
X75509523Y-128866723D01*
X75509523Y-128866723D02*
X75461904Y-128961961D01*
X75461904Y-128961961D02*
X75366666Y-129057200D01*
X75366666Y-129057200D02*
X75223809Y-129104819D01*
X75223809Y-129104819D02*
X74985714Y-129104819D01*
X76509523Y-129104819D02*
X75938095Y-129104819D01*
X76223809Y-129104819D02*
X76223809Y-128104819D01*
X76223809Y-128104819D02*
X76128571Y-128247676D01*
X76128571Y-128247676D02*
X76033333Y-128342914D01*
X76033333Y-128342914D02*
X75938095Y-128390533D01*
X77461904Y-129104819D02*
X76890476Y-129104819D01*
X77176190Y-129104819D02*
X77176190Y-128104819D01*
X77176190Y-128104819D02*
X77080952Y-128247676D01*
X77080952Y-128247676D02*
X76985714Y-128342914D01*
X76985714Y-128342914D02*
X76890476Y-128390533D01*
X77498943Y-115515683D02*
X77998943Y-114649658D01*
X77998943Y-114649658D02*
X78205139Y-114768706D01*
X78205139Y-114768706D02*
X78305048Y-114881374D01*
X78305048Y-114881374D02*
X78339907Y-115011471D01*
X78339907Y-115011471D02*
X78333527Y-115117759D01*
X78333527Y-115117759D02*
X78279529Y-115306526D01*
X78279529Y-115306526D02*
X78208100Y-115430244D01*
X78208100Y-115430244D02*
X78071623Y-115571392D01*
X78071623Y-115571392D02*
X77982764Y-115630061D01*
X77982764Y-115630061D02*
X77852667Y-115664920D01*
X77852667Y-115664920D02*
X77705139Y-115634731D01*
X77705139Y-115634731D02*
X77498943Y-115515683D01*
X78818600Y-116277588D02*
X78323729Y-115991874D01*
X78571165Y-116134731D02*
X79071165Y-115268706D01*
X79071165Y-115268706D02*
X78917257Y-115344805D01*
X78917257Y-115344805D02*
X78787160Y-115379664D01*
X78787160Y-115379664D02*
X78680872Y-115373284D01*
X79600896Y-115684518D02*
X79665945Y-115667088D01*
X79665945Y-115667088D02*
X79772233Y-115673468D01*
X79772233Y-115673468D02*
X79978429Y-115792515D01*
X79978429Y-115792515D02*
X80037098Y-115881374D01*
X80037098Y-115881374D02*
X80054528Y-115946422D01*
X80054528Y-115946422D02*
X80048148Y-116052711D01*
X80048148Y-116052711D02*
X80000529Y-116135189D01*
X80000529Y-116135189D02*
X79887862Y-116235098D01*
X79887862Y-116235098D02*
X79107276Y-116444255D01*
X79107276Y-116444255D02*
X79643387Y-116753779D01*
X112187914Y-142948443D02*
X113053939Y-142448443D01*
X113053939Y-142448443D02*
X113172987Y-142654639D01*
X113172987Y-142654639D02*
X113203176Y-142802167D01*
X113203176Y-142802167D02*
X113168316Y-142932264D01*
X113168316Y-142932264D02*
X113109647Y-143021123D01*
X113109647Y-143021123D02*
X112968500Y-143157600D01*
X112968500Y-143157600D02*
X112844782Y-143229029D01*
X112844782Y-143229029D02*
X112656015Y-143283027D01*
X112656015Y-143283027D02*
X112549727Y-143289407D01*
X112549727Y-143289407D02*
X112419629Y-143254548D01*
X112419629Y-143254548D02*
X112306961Y-143154639D01*
X112306961Y-143154639D02*
X112187914Y-142948443D01*
X113447651Y-143320848D02*
X113512700Y-143338278D01*
X113512700Y-143338278D02*
X113601558Y-143396947D01*
X113601558Y-143396947D02*
X113720606Y-143603143D01*
X113720606Y-143603143D02*
X113726986Y-143709431D01*
X113726986Y-143709431D02*
X113709556Y-143774480D01*
X113709556Y-143774480D02*
X113650887Y-143863339D01*
X113650887Y-143863339D02*
X113568408Y-143910958D01*
X113568408Y-143910958D02*
X113420881Y-143941147D01*
X113420881Y-143941147D02*
X112640295Y-143731990D01*
X112640295Y-143731990D02*
X112949819Y-144268100D01*
X113982511Y-144056776D02*
X114292034Y-144592887D01*
X114292034Y-144592887D02*
X113795453Y-144494688D01*
X113795453Y-144494688D02*
X113866882Y-144618406D01*
X113866882Y-144618406D02*
X113873262Y-144724694D01*
X113873262Y-144724694D02*
X113855832Y-144789743D01*
X113855832Y-144789743D02*
X113797163Y-144878601D01*
X113797163Y-144878601D02*
X113590966Y-144997649D01*
X113590966Y-144997649D02*
X113484678Y-145004028D01*
X113484678Y-145004028D02*
X113419629Y-144986598D01*
X113419629Y-144986598D02*
X113330771Y-144927929D01*
X113330771Y-144927929D02*
X113187914Y-144680494D01*
X113187914Y-144680494D02*
X113181534Y-144574205D01*
X113181534Y-144574205D02*
X113198964Y-144509157D01*
X84003171Y-139589969D02*
X83503171Y-138723944D01*
X83503171Y-138723944D02*
X83709367Y-138604896D01*
X83709367Y-138604896D02*
X83856895Y-138574707D01*
X83856895Y-138574707D02*
X83986992Y-138609567D01*
X83986992Y-138609567D02*
X84075851Y-138668236D01*
X84075851Y-138668236D02*
X84212328Y-138809383D01*
X84212328Y-138809383D02*
X84283757Y-138933101D01*
X84283757Y-138933101D02*
X84337755Y-139121868D01*
X84337755Y-139121868D02*
X84344135Y-139228156D01*
X84344135Y-139228156D02*
X84309276Y-139358254D01*
X84309276Y-139358254D02*
X84209367Y-139470922D01*
X84209367Y-139470922D02*
X84003171Y-139589969D01*
X84375576Y-138330232D02*
X84393006Y-138265183D01*
X84393006Y-138265183D02*
X84451675Y-138176325D01*
X84451675Y-138176325D02*
X84657871Y-138057277D01*
X84657871Y-138057277D02*
X84764159Y-138050897D01*
X84764159Y-138050897D02*
X84829208Y-138068327D01*
X84829208Y-138068327D02*
X84918067Y-138126996D01*
X84918067Y-138126996D02*
X84965686Y-138209475D01*
X84965686Y-138209475D02*
X84995875Y-138357002D01*
X84995875Y-138357002D02*
X84786718Y-139137588D01*
X84786718Y-139137588D02*
X85322828Y-138828064D01*
X85565136Y-137533468D02*
X85400179Y-137628706D01*
X85400179Y-137628706D02*
X85341510Y-137717564D01*
X85341510Y-137717564D02*
X85324080Y-137782613D01*
X85324080Y-137782613D02*
X85313030Y-137953950D01*
X85313030Y-137953950D02*
X85367029Y-138142717D01*
X85367029Y-138142717D02*
X85557505Y-138472631D01*
X85557505Y-138472631D02*
X85646363Y-138531300D01*
X85646363Y-138531300D02*
X85711412Y-138548730D01*
X85711412Y-138548730D02*
X85817700Y-138542350D01*
X85817700Y-138542350D02*
X85982657Y-138447112D01*
X85982657Y-138447112D02*
X86041326Y-138358254D01*
X86041326Y-138358254D02*
X86058756Y-138293205D01*
X86058756Y-138293205D02*
X86052377Y-138186917D01*
X86052377Y-138186917D02*
X85933329Y-137980720D01*
X85933329Y-137980720D02*
X85844471Y-137922051D01*
X85844471Y-137922051D02*
X85779422Y-137904621D01*
X85779422Y-137904621D02*
X85673134Y-137911001D01*
X85673134Y-137911001D02*
X85508176Y-138006239D01*
X85508176Y-138006239D02*
X85449507Y-138095098D01*
X85449507Y-138095098D02*
X85432077Y-138160146D01*
X85432077Y-138160146D02*
X85438457Y-138266435D01*
X110117799Y-109856375D02*
X109251774Y-109356375D01*
X109251774Y-109356375D02*
X109370822Y-109150179D01*
X109370822Y-109150179D02*
X109483490Y-109050270D01*
X109483490Y-109050270D02*
X109613587Y-109015411D01*
X109613587Y-109015411D02*
X109719875Y-109021791D01*
X109719875Y-109021791D02*
X109908642Y-109075789D01*
X109908642Y-109075789D02*
X110032360Y-109147218D01*
X110032360Y-109147218D02*
X110173508Y-109283695D01*
X110173508Y-109283695D02*
X110232177Y-109372554D01*
X110232177Y-109372554D02*
X110267036Y-109502651D01*
X110267036Y-109502651D02*
X110236847Y-109650179D01*
X110236847Y-109650179D02*
X110117799Y-109856375D01*
X110879704Y-108536718D02*
X110593990Y-109031589D01*
X110736847Y-108784153D02*
X109870822Y-108284153D01*
X109870822Y-108284153D02*
X109946921Y-108438061D01*
X109946921Y-108438061D02*
X109981780Y-108568158D01*
X109981780Y-108568158D02*
X109975400Y-108674446D01*
X111117799Y-108124324D02*
X111213038Y-107959367D01*
X111213038Y-107959367D02*
X111219417Y-107853079D01*
X111219417Y-107853079D02*
X111201988Y-107788030D01*
X111201988Y-107788030D02*
X111125889Y-107634123D01*
X111125889Y-107634123D02*
X110984741Y-107497646D01*
X110984741Y-107497646D02*
X110654827Y-107307170D01*
X110654827Y-107307170D02*
X110548538Y-107300790D01*
X110548538Y-107300790D02*
X110483490Y-107318220D01*
X110483490Y-107318220D02*
X110394631Y-107376889D01*
X110394631Y-107376889D02*
X110299393Y-107541846D01*
X110299393Y-107541846D02*
X110293013Y-107648134D01*
X110293013Y-107648134D02*
X110310443Y-107713183D01*
X110310443Y-107713183D02*
X110369112Y-107802041D01*
X110369112Y-107802041D02*
X110575309Y-107921089D01*
X110575309Y-107921089D02*
X110681597Y-107927469D01*
X110681597Y-107927469D02*
X110746646Y-107910039D01*
X110746646Y-107910039D02*
X110835504Y-107851370D01*
X110835504Y-107851370D02*
X110930742Y-107686412D01*
X110930742Y-107686412D02*
X110937122Y-107580124D01*
X110937122Y-107580124D02*
X110919692Y-107515076D01*
X110919692Y-107515076D02*
X110861023Y-107426217D01*
X108965946Y-112064192D02*
X108907625Y-112097863D01*
X108907625Y-112097863D02*
X108757311Y-112106886D01*
X108757311Y-112106886D02*
X108665318Y-112082236D01*
X108665318Y-112082236D02*
X108539653Y-111999266D01*
X108539653Y-111999266D02*
X108472309Y-111882623D01*
X108472309Y-111882623D02*
X108450962Y-111778306D01*
X108450962Y-111778306D02*
X108454265Y-111581995D01*
X108454265Y-111581995D02*
X108491239Y-111444006D01*
X108491239Y-111444006D02*
X108586534Y-111272344D01*
X108586534Y-111272344D02*
X108657180Y-111192676D01*
X108657180Y-111192676D02*
X108773823Y-111125333D01*
X108773823Y-111125333D02*
X108924137Y-111116310D01*
X108924137Y-111116310D02*
X109016130Y-111140960D01*
X109016130Y-111140960D02*
X109141794Y-111223931D01*
X109141794Y-111223931D02*
X109175466Y-111282252D01*
X109941779Y-111734079D02*
X109769233Y-112378029D01*
X109810394Y-111304484D02*
X109395541Y-111932807D01*
X109395541Y-111932807D02*
X109993495Y-112093028D01*
X103704819Y-153138094D02*
X102704819Y-153138094D01*
X102704819Y-153138094D02*
X102704819Y-152899999D01*
X102704819Y-152899999D02*
X102752438Y-152757142D01*
X102752438Y-152757142D02*
X102847676Y-152661904D01*
X102847676Y-152661904D02*
X102942914Y-152614285D01*
X102942914Y-152614285D02*
X103133390Y-152566666D01*
X103133390Y-152566666D02*
X103276247Y-152566666D01*
X103276247Y-152566666D02*
X103466723Y-152614285D01*
X103466723Y-152614285D02*
X103561961Y-152661904D01*
X103561961Y-152661904D02*
X103657200Y-152757142D01*
X103657200Y-152757142D02*
X103704819Y-152899999D01*
X103704819Y-152899999D02*
X103704819Y-153138094D01*
X103133390Y-151995237D02*
X103085771Y-152090475D01*
X103085771Y-152090475D02*
X103038152Y-152138094D01*
X103038152Y-152138094D02*
X102942914Y-152185713D01*
X102942914Y-152185713D02*
X102895295Y-152185713D01*
X102895295Y-152185713D02*
X102800057Y-152138094D01*
X102800057Y-152138094D02*
X102752438Y-152090475D01*
X102752438Y-152090475D02*
X102704819Y-151995237D01*
X102704819Y-151995237D02*
X102704819Y-151804761D01*
X102704819Y-151804761D02*
X102752438Y-151709523D01*
X102752438Y-151709523D02*
X102800057Y-151661904D01*
X102800057Y-151661904D02*
X102895295Y-151614285D01*
X102895295Y-151614285D02*
X102942914Y-151614285D01*
X102942914Y-151614285D02*
X103038152Y-151661904D01*
X103038152Y-151661904D02*
X103085771Y-151709523D01*
X103085771Y-151709523D02*
X103133390Y-151804761D01*
X103133390Y-151804761D02*
X103133390Y-151995237D01*
X103133390Y-151995237D02*
X103181009Y-152090475D01*
X103181009Y-152090475D02*
X103228628Y-152138094D01*
X103228628Y-152138094D02*
X103323866Y-152185713D01*
X103323866Y-152185713D02*
X103514342Y-152185713D01*
X103514342Y-152185713D02*
X103609580Y-152138094D01*
X103609580Y-152138094D02*
X103657200Y-152090475D01*
X103657200Y-152090475D02*
X103704819Y-151995237D01*
X103704819Y-151995237D02*
X103704819Y-151804761D01*
X103704819Y-151804761D02*
X103657200Y-151709523D01*
X103657200Y-151709523D02*
X103609580Y-151661904D01*
X103609580Y-151661904D02*
X103514342Y-151614285D01*
X103514342Y-151614285D02*
X103323866Y-151614285D01*
X103323866Y-151614285D02*
X103228628Y-151661904D01*
X103228628Y-151661904D02*
X103181009Y-151709523D01*
X103181009Y-151709523D02*
X103133390Y-151804761D01*
X100404819Y-102814285D02*
X99404819Y-102814285D01*
X99404819Y-102814285D02*
X99404819Y-102576190D01*
X99404819Y-102576190D02*
X99452438Y-102433333D01*
X99452438Y-102433333D02*
X99547676Y-102338095D01*
X99547676Y-102338095D02*
X99642914Y-102290476D01*
X99642914Y-102290476D02*
X99833390Y-102242857D01*
X99833390Y-102242857D02*
X99976247Y-102242857D01*
X99976247Y-102242857D02*
X100166723Y-102290476D01*
X100166723Y-102290476D02*
X100261961Y-102338095D01*
X100261961Y-102338095D02*
X100357200Y-102433333D01*
X100357200Y-102433333D02*
X100404819Y-102576190D01*
X100404819Y-102576190D02*
X100404819Y-102814285D01*
X100404819Y-101290476D02*
X100404819Y-101861904D01*
X100404819Y-101576190D02*
X99404819Y-101576190D01*
X99404819Y-101576190D02*
X99547676Y-101671428D01*
X99547676Y-101671428D02*
X99642914Y-101766666D01*
X99642914Y-101766666D02*
X99690533Y-101861904D01*
X99738152Y-100433333D02*
X100404819Y-100433333D01*
X99357200Y-100671428D02*
X100071485Y-100909523D01*
X100071485Y-100909523D02*
X100071485Y-100290476D01*
X92655683Y-146701647D02*
X91789658Y-146201647D01*
X91789658Y-146201647D02*
X91908706Y-145995451D01*
X91908706Y-145995451D02*
X92021374Y-145895542D01*
X92021374Y-145895542D02*
X92151471Y-145860683D01*
X92151471Y-145860683D02*
X92257759Y-145867063D01*
X92257759Y-145867063D02*
X92446526Y-145921061D01*
X92446526Y-145921061D02*
X92570244Y-145992490D01*
X92570244Y-145992490D02*
X92711392Y-146128967D01*
X92711392Y-146128967D02*
X92770061Y-146217826D01*
X92770061Y-146217826D02*
X92804920Y-146347923D01*
X92804920Y-146347923D02*
X92774731Y-146495451D01*
X92774731Y-146495451D02*
X92655683Y-146701647D01*
X92348327Y-145424480D02*
X92330897Y-145359431D01*
X92330897Y-145359431D02*
X92337277Y-145253143D01*
X92337277Y-145253143D02*
X92456325Y-145046947D01*
X92456325Y-145046947D02*
X92545183Y-144988278D01*
X92545183Y-144988278D02*
X92610232Y-144970848D01*
X92610232Y-144970848D02*
X92716520Y-144977228D01*
X92716520Y-144977228D02*
X92798999Y-145024847D01*
X92798999Y-145024847D02*
X92898907Y-145137515D01*
X92898907Y-145137515D02*
X93108064Y-145918101D01*
X93108064Y-145918101D02*
X93417588Y-145381990D01*
X93003944Y-144098443D02*
X92765849Y-144510836D01*
X92765849Y-144510836D02*
X93154432Y-144790170D01*
X93154432Y-144790170D02*
X93137002Y-144725122D01*
X93137002Y-144725122D02*
X93143382Y-144618833D01*
X93143382Y-144618833D02*
X93262430Y-144412637D01*
X93262430Y-144412637D02*
X93351288Y-144353968D01*
X93351288Y-144353968D02*
X93416337Y-144336538D01*
X93416337Y-144336538D02*
X93522625Y-144342918D01*
X93522625Y-144342918D02*
X93728822Y-144461965D01*
X93728822Y-144461965D02*
X93787491Y-144550824D01*
X93787491Y-144550824D02*
X93804920Y-144615873D01*
X93804920Y-144615873D02*
X93798541Y-144722161D01*
X93798541Y-144722161D02*
X93679493Y-144928357D01*
X93679493Y-144928357D02*
X93590635Y-144987026D01*
X93590635Y-144987026D02*
X93525586Y-145004456D01*
X89348809Y-129010628D02*
X89348809Y-129486819D01*
X89015476Y-128486819D02*
X89348809Y-129010628D01*
X89348809Y-129010628D02*
X89682142Y-128486819D01*
X90539285Y-129486819D02*
X89967857Y-129486819D01*
X90253571Y-129486819D02*
X90253571Y-128486819D01*
X90253571Y-128486819D02*
X90158333Y-128629676D01*
X90158333Y-128629676D02*
X90063095Y-128724914D01*
X90063095Y-128724914D02*
X89967857Y-128772533D01*
X79603762Y-142129969D02*
X79103762Y-141263944D01*
X79103762Y-141263944D02*
X79309958Y-141144896D01*
X79309958Y-141144896D02*
X79457486Y-141114707D01*
X79457486Y-141114707D02*
X79587583Y-141149567D01*
X79587583Y-141149567D02*
X79676442Y-141208236D01*
X79676442Y-141208236D02*
X79812919Y-141349383D01*
X79812919Y-141349383D02*
X79884348Y-141473101D01*
X79884348Y-141473101D02*
X79938346Y-141661868D01*
X79938346Y-141661868D02*
X79944726Y-141768156D01*
X79944726Y-141768156D02*
X79909867Y-141898254D01*
X79909867Y-141898254D02*
X79809958Y-142010922D01*
X79809958Y-142010922D02*
X79603762Y-142129969D01*
X80923419Y-141368064D02*
X80428548Y-141653779D01*
X80675984Y-141510922D02*
X80175984Y-140644896D01*
X80175984Y-140644896D02*
X80164934Y-140816233D01*
X80164934Y-140816233D02*
X80130074Y-140946331D01*
X80130074Y-140946331D02*
X80071405Y-141035189D01*
X80959530Y-140192515D02*
X81042009Y-140144896D01*
X81042009Y-140144896D02*
X81148297Y-140138516D01*
X81148297Y-140138516D02*
X81213346Y-140155946D01*
X81213346Y-140155946D02*
X81302204Y-140214615D01*
X81302204Y-140214615D02*
X81438682Y-140355763D01*
X81438682Y-140355763D02*
X81557729Y-140561960D01*
X81557729Y-140561960D02*
X81611728Y-140750726D01*
X81611728Y-140750726D02*
X81618108Y-140857014D01*
X81618108Y-140857014D02*
X81600678Y-140922063D01*
X81600678Y-140922063D02*
X81542009Y-141010922D01*
X81542009Y-141010922D02*
X81459530Y-141058541D01*
X81459530Y-141058541D02*
X81353242Y-141064920D01*
X81353242Y-141064920D02*
X81288194Y-141047491D01*
X81288194Y-141047491D02*
X81199335Y-140988822D01*
X81199335Y-140988822D02*
X81062858Y-140847674D01*
X81062858Y-140847674D02*
X80943810Y-140641477D01*
X80943810Y-140641477D02*
X80889811Y-140452711D01*
X80889811Y-140452711D02*
X80883432Y-140346422D01*
X80883432Y-140346422D02*
X80900861Y-140281374D01*
X80900861Y-140281374D02*
X80959530Y-140192515D01*
X105842678Y-141939313D02*
X105315908Y-141693587D01*
X105347807Y-142225027D02*
X104847807Y-141359002D01*
X104847807Y-141359002D02*
X105177721Y-141168526D01*
X105177721Y-141168526D02*
X105284009Y-141162146D01*
X105284009Y-141162146D02*
X105349058Y-141179576D01*
X105349058Y-141179576D02*
X105437916Y-141238245D01*
X105437916Y-141238245D02*
X105509345Y-141361963D01*
X105509345Y-141361963D02*
X105515725Y-141468251D01*
X105515725Y-141468251D02*
X105498295Y-141533300D01*
X105498295Y-141533300D02*
X105439626Y-141622158D01*
X105439626Y-141622158D02*
X105109711Y-141812634D01*
X106667464Y-141463122D02*
X106172593Y-141748837D01*
X106420029Y-141605980D02*
X105920029Y-140739954D01*
X105920029Y-140739954D02*
X105908979Y-140911291D01*
X105908979Y-140911291D02*
X105874119Y-141041389D01*
X105874119Y-141041389D02*
X105815450Y-141130247D01*
X107492251Y-140986932D02*
X106997379Y-141272646D01*
X107244815Y-141129789D02*
X106744815Y-140263764D01*
X106744815Y-140263764D02*
X106733765Y-140435101D01*
X106733765Y-140435101D02*
X106698905Y-140565198D01*
X106698905Y-140565198D02*
X106640236Y-140654057D01*
X100838095Y-120404819D02*
X100838095Y-121214342D01*
X100838095Y-121214342D02*
X100885714Y-121309580D01*
X100885714Y-121309580D02*
X100933333Y-121357200D01*
X100933333Y-121357200D02*
X101028571Y-121404819D01*
X101028571Y-121404819D02*
X101219047Y-121404819D01*
X101219047Y-121404819D02*
X101314285Y-121357200D01*
X101314285Y-121357200D02*
X101361904Y-121309580D01*
X101361904Y-121309580D02*
X101409523Y-121214342D01*
X101409523Y-121214342D02*
X101409523Y-120404819D01*
X102409523Y-121404819D02*
X101838095Y-121404819D01*
X102123809Y-121404819D02*
X102123809Y-120404819D01*
X102123809Y-120404819D02*
X102028571Y-120547676D01*
X102028571Y-120547676D02*
X101933333Y-120642914D01*
X101933333Y-120642914D02*
X101838095Y-120690533D01*
X112609333Y-131690580D02*
X112561714Y-131738200D01*
X112561714Y-131738200D02*
X112418857Y-131785819D01*
X112418857Y-131785819D02*
X112323619Y-131785819D01*
X112323619Y-131785819D02*
X112180762Y-131738200D01*
X112180762Y-131738200D02*
X112085524Y-131642961D01*
X112085524Y-131642961D02*
X112037905Y-131547723D01*
X112037905Y-131547723D02*
X111990286Y-131357247D01*
X111990286Y-131357247D02*
X111990286Y-131214390D01*
X111990286Y-131214390D02*
X112037905Y-131023914D01*
X112037905Y-131023914D02*
X112085524Y-130928676D01*
X112085524Y-130928676D02*
X112180762Y-130833438D01*
X112180762Y-130833438D02*
X112323619Y-130785819D01*
X112323619Y-130785819D02*
X112418857Y-130785819D01*
X112418857Y-130785819D02*
X112561714Y-130833438D01*
X112561714Y-130833438D02*
X112609333Y-130881057D01*
X112942667Y-130785819D02*
X113609333Y-130785819D01*
X113609333Y-130785819D02*
X113180762Y-131785819D01*
X122360245Y-113633990D02*
X121860245Y-112767964D01*
X121860245Y-112767964D02*
X122066442Y-112648917D01*
X122066442Y-112648917D02*
X122213969Y-112618727D01*
X122213969Y-112618727D02*
X122344067Y-112653587D01*
X122344067Y-112653587D02*
X122432925Y-112712256D01*
X122432925Y-112712256D02*
X122569403Y-112853404D01*
X122569403Y-112853404D02*
X122640831Y-112977122D01*
X122640831Y-112977122D02*
X122694830Y-113165888D01*
X122694830Y-113165888D02*
X122701210Y-113272177D01*
X122701210Y-113272177D02*
X122666350Y-113402274D01*
X122666350Y-113402274D02*
X122566442Y-113514942D01*
X122566442Y-113514942D02*
X122360245Y-113633990D01*
X123264091Y-112342354D02*
X123597424Y-112919704D01*
X122867418Y-112131487D02*
X123018365Y-112869124D01*
X123018365Y-112869124D02*
X123554476Y-112559600D01*
X86470030Y-105003762D02*
X87336055Y-104503762D01*
X87336055Y-104503762D02*
X87455103Y-104709958D01*
X87455103Y-104709958D02*
X87485292Y-104857486D01*
X87485292Y-104857486D02*
X87450432Y-104987583D01*
X87450432Y-104987583D02*
X87391763Y-105076442D01*
X87391763Y-105076442D02*
X87250616Y-105212919D01*
X87250616Y-105212919D02*
X87126898Y-105284348D01*
X87126898Y-105284348D02*
X86938131Y-105338346D01*
X86938131Y-105338346D02*
X86831843Y-105344726D01*
X86831843Y-105344726D02*
X86701745Y-105309867D01*
X86701745Y-105309867D02*
X86589077Y-105209958D01*
X86589077Y-105209958D02*
X86470030Y-105003762D01*
X87231935Y-106323419D02*
X86946220Y-105828548D01*
X87089077Y-106075984D02*
X87955103Y-105575984D01*
X87955103Y-105575984D02*
X87783766Y-105564934D01*
X87783766Y-105564934D02*
X87653668Y-105530074D01*
X87653668Y-105530074D02*
X87564810Y-105471405D01*
X88264627Y-106112095D02*
X88574150Y-106648206D01*
X88574150Y-106648206D02*
X88077569Y-106550007D01*
X88077569Y-106550007D02*
X88148998Y-106673725D01*
X88148998Y-106673725D02*
X88155378Y-106780013D01*
X88155378Y-106780013D02*
X88137948Y-106845062D01*
X88137948Y-106845062D02*
X88079279Y-106933920D01*
X88079279Y-106933920D02*
X87873082Y-107052968D01*
X87873082Y-107052968D02*
X87766794Y-107059347D01*
X87766794Y-107059347D02*
X87701745Y-107041917D01*
X87701745Y-107041917D02*
X87612887Y-106983248D01*
X87612887Y-106983248D02*
X87470030Y-106735813D01*
X87470030Y-106735813D02*
X87463650Y-106629524D01*
X87463650Y-106629524D02*
X87481080Y-106564476D01*
X111506095Y-127308319D02*
X111506095Y-128117842D01*
X111506095Y-128117842D02*
X111553714Y-128213080D01*
X111553714Y-128213080D02*
X111601333Y-128260700D01*
X111601333Y-128260700D02*
X111696571Y-128308319D01*
X111696571Y-128308319D02*
X111887047Y-128308319D01*
X111887047Y-128308319D02*
X111982285Y-128260700D01*
X111982285Y-128260700D02*
X112029904Y-128213080D01*
X112029904Y-128213080D02*
X112077523Y-128117842D01*
X112077523Y-128117842D02*
X112077523Y-127308319D01*
X112982285Y-127641652D02*
X112982285Y-128308319D01*
X112744190Y-127260700D02*
X112506095Y-127974985D01*
X112506095Y-127974985D02*
X113125142Y-127974985D01*
X89154095Y-137057819D02*
X89154095Y-137867342D01*
X89154095Y-137867342D02*
X89201714Y-137962580D01*
X89201714Y-137962580D02*
X89249333Y-138010200D01*
X89249333Y-138010200D02*
X89344571Y-138057819D01*
X89344571Y-138057819D02*
X89535047Y-138057819D01*
X89535047Y-138057819D02*
X89630285Y-138010200D01*
X89630285Y-138010200D02*
X89677904Y-137962580D01*
X89677904Y-137962580D02*
X89725523Y-137867342D01*
X89725523Y-137867342D02*
X89725523Y-137057819D01*
X90344571Y-137486390D02*
X90249333Y-137438771D01*
X90249333Y-137438771D02*
X90201714Y-137391152D01*
X90201714Y-137391152D02*
X90154095Y-137295914D01*
X90154095Y-137295914D02*
X90154095Y-137248295D01*
X90154095Y-137248295D02*
X90201714Y-137153057D01*
X90201714Y-137153057D02*
X90249333Y-137105438D01*
X90249333Y-137105438D02*
X90344571Y-137057819D01*
X90344571Y-137057819D02*
X90535047Y-137057819D01*
X90535047Y-137057819D02*
X90630285Y-137105438D01*
X90630285Y-137105438D02*
X90677904Y-137153057D01*
X90677904Y-137153057D02*
X90725523Y-137248295D01*
X90725523Y-137248295D02*
X90725523Y-137295914D01*
X90725523Y-137295914D02*
X90677904Y-137391152D01*
X90677904Y-137391152D02*
X90630285Y-137438771D01*
X90630285Y-137438771D02*
X90535047Y-137486390D01*
X90535047Y-137486390D02*
X90344571Y-137486390D01*
X90344571Y-137486390D02*
X90249333Y-137534009D01*
X90249333Y-137534009D02*
X90201714Y-137581628D01*
X90201714Y-137581628D02*
X90154095Y-137676866D01*
X90154095Y-137676866D02*
X90154095Y-137867342D01*
X90154095Y-137867342D02*
X90201714Y-137962580D01*
X90201714Y-137962580D02*
X90249333Y-138010200D01*
X90249333Y-138010200D02*
X90344571Y-138057819D01*
X90344571Y-138057819D02*
X90535047Y-138057819D01*
X90535047Y-138057819D02*
X90630285Y-138010200D01*
X90630285Y-138010200D02*
X90677904Y-137962580D01*
X90677904Y-137962580D02*
X90725523Y-137867342D01*
X90725523Y-137867342D02*
X90725523Y-137676866D01*
X90725523Y-137676866D02*
X90677904Y-137581628D01*
X90677904Y-137581628D02*
X90630285Y-137534009D01*
X90630285Y-137534009D02*
X90535047Y-137486390D01*
X93337142Y-111800819D02*
X93003809Y-111324628D01*
X92765714Y-111800819D02*
X92765714Y-110800819D01*
X92765714Y-110800819D02*
X93146666Y-110800819D01*
X93146666Y-110800819D02*
X93241904Y-110848438D01*
X93241904Y-110848438D02*
X93289523Y-110896057D01*
X93289523Y-110896057D02*
X93337142Y-110991295D01*
X93337142Y-110991295D02*
X93337142Y-111134152D01*
X93337142Y-111134152D02*
X93289523Y-111229390D01*
X93289523Y-111229390D02*
X93241904Y-111277009D01*
X93241904Y-111277009D02*
X93146666Y-111324628D01*
X93146666Y-111324628D02*
X92765714Y-111324628D01*
X94289523Y-111800819D02*
X93718095Y-111800819D01*
X94003809Y-111800819D02*
X94003809Y-110800819D01*
X94003809Y-110800819D02*
X93908571Y-110943676D01*
X93908571Y-110943676D02*
X93813333Y-111038914D01*
X93813333Y-111038914D02*
X93718095Y-111086533D01*
X95146666Y-111134152D02*
X95146666Y-111800819D01*
X94908571Y-110753200D02*
X94670476Y-111467485D01*
X94670476Y-111467485D02*
X95289523Y-111467485D01*
D11*
X94134380Y-113604318D02*
X94134380Y-114632413D01*
X94134380Y-114632413D02*
X94194857Y-114753365D01*
X94194857Y-114753365D02*
X94255333Y-114813842D01*
X94255333Y-114813842D02*
X94376285Y-114874318D01*
X94376285Y-114874318D02*
X94618190Y-114874318D01*
X94618190Y-114874318D02*
X94739142Y-114813842D01*
X94739142Y-114813842D02*
X94799619Y-114753365D01*
X94799619Y-114753365D02*
X94860095Y-114632413D01*
X94860095Y-114632413D02*
X94860095Y-113604318D01*
X95404380Y-113725270D02*
X95464856Y-113664794D01*
X95464856Y-113664794D02*
X95585809Y-113604318D01*
X95585809Y-113604318D02*
X95888190Y-113604318D01*
X95888190Y-113604318D02*
X96009142Y-113664794D01*
X96009142Y-113664794D02*
X96069618Y-113725270D01*
X96069618Y-113725270D02*
X96130095Y-113846222D01*
X96130095Y-113846222D02*
X96130095Y-113967175D01*
X96130095Y-113967175D02*
X96069618Y-114148603D01*
X96069618Y-114148603D02*
X95343904Y-114874318D01*
X95343904Y-114874318D02*
X96130095Y-114874318D01*
D10*
X112895895Y-105044573D02*
X112029870Y-104544573D01*
X112029870Y-104544573D02*
X112148917Y-104338376D01*
X112148917Y-104338376D02*
X112261585Y-104238468D01*
X112261585Y-104238468D02*
X112391683Y-104203608D01*
X112391683Y-104203608D02*
X112497971Y-104209988D01*
X112497971Y-104209988D02*
X112686738Y-104263987D01*
X112686738Y-104263987D02*
X112810456Y-104335415D01*
X112810456Y-104335415D02*
X112951603Y-104471893D01*
X112951603Y-104471893D02*
X113010272Y-104560751D01*
X113010272Y-104560751D02*
X113045132Y-104690849D01*
X113045132Y-104690849D02*
X113014943Y-104838376D01*
X113014943Y-104838376D02*
X112895895Y-105044573D01*
X112482251Y-103761026D02*
X112791774Y-103224915D01*
X112791774Y-103224915D02*
X112955022Y-103704066D01*
X112955022Y-103704066D02*
X113026451Y-103580348D01*
X113026451Y-103580348D02*
X113115309Y-103521679D01*
X113115309Y-103521679D02*
X113180358Y-103504250D01*
X113180358Y-103504250D02*
X113286646Y-103510629D01*
X113286646Y-103510629D02*
X113492843Y-103629677D01*
X113492843Y-103629677D02*
X113551512Y-103718535D01*
X113551512Y-103718535D02*
X113568941Y-103783584D01*
X113568941Y-103783584D02*
X113562562Y-103889872D01*
X113562562Y-103889872D02*
X113419704Y-104137308D01*
X113419704Y-104137308D02*
X113330846Y-104195977D01*
X113330846Y-104195977D02*
X113265797Y-104213407D01*
X82550095Y-122898819D02*
X82550095Y-123708342D01*
X82550095Y-123708342D02*
X82597714Y-123803580D01*
X82597714Y-123803580D02*
X82645333Y-123851200D01*
X82645333Y-123851200D02*
X82740571Y-123898819D01*
X82740571Y-123898819D02*
X82931047Y-123898819D01*
X82931047Y-123898819D02*
X83026285Y-123851200D01*
X83026285Y-123851200D02*
X83073904Y-123803580D01*
X83073904Y-123803580D02*
X83121523Y-123708342D01*
X83121523Y-123708342D02*
X83121523Y-122898819D01*
X84073904Y-122898819D02*
X83597714Y-122898819D01*
X83597714Y-122898819D02*
X83550095Y-123375009D01*
X83550095Y-123375009D02*
X83597714Y-123327390D01*
X83597714Y-123327390D02*
X83692952Y-123279771D01*
X83692952Y-123279771D02*
X83931047Y-123279771D01*
X83931047Y-123279771D02*
X84026285Y-123327390D01*
X84026285Y-123327390D02*
X84073904Y-123375009D01*
X84073904Y-123375009D02*
X84121523Y-123470247D01*
X84121523Y-123470247D02*
X84121523Y-123708342D01*
X84121523Y-123708342D02*
X84073904Y-123803580D01*
X84073904Y-123803580D02*
X84026285Y-123851200D01*
X84026285Y-123851200D02*
X83931047Y-123898819D01*
X83931047Y-123898819D02*
X83692952Y-123898819D01*
X83692952Y-123898819D02*
X83597714Y-123851200D01*
X83597714Y-123851200D02*
X83550095Y-123803580D01*
X118743624Y-135517799D02*
X119243624Y-134651774D01*
X119243624Y-134651774D02*
X119449820Y-134770822D01*
X119449820Y-134770822D02*
X119549729Y-134883490D01*
X119549729Y-134883490D02*
X119584588Y-135013587D01*
X119584588Y-135013587D02*
X119578208Y-135119875D01*
X119578208Y-135119875D02*
X119524210Y-135308642D01*
X119524210Y-135308642D02*
X119452781Y-135432360D01*
X119452781Y-135432360D02*
X119316304Y-135573508D01*
X119316304Y-135573508D02*
X119227445Y-135632177D01*
X119227445Y-135632177D02*
X119097348Y-135667036D01*
X119097348Y-135667036D02*
X118949820Y-135636847D01*
X118949820Y-135636847D02*
X118743624Y-135517799D01*
X120020791Y-135210443D02*
X120085840Y-135193013D01*
X120085840Y-135193013D02*
X120192128Y-135199393D01*
X120192128Y-135199393D02*
X120398324Y-135318441D01*
X120398324Y-135318441D02*
X120456993Y-135407299D01*
X120456993Y-135407299D02*
X120474423Y-135472348D01*
X120474423Y-135472348D02*
X120468043Y-135578636D01*
X120468043Y-135578636D02*
X120420424Y-135661115D01*
X120420424Y-135661115D02*
X120307756Y-135761023D01*
X120307756Y-135761023D02*
X119527170Y-135970180D01*
X119527170Y-135970180D02*
X120063281Y-136279704D01*
X120845577Y-135686634D02*
X120910626Y-135669204D01*
X120910626Y-135669204D02*
X121016914Y-135675584D01*
X121016914Y-135675584D02*
X121223110Y-135794631D01*
X121223110Y-135794631D02*
X121281779Y-135883490D01*
X121281779Y-135883490D02*
X121299209Y-135948538D01*
X121299209Y-135948538D02*
X121292829Y-136054827D01*
X121292829Y-136054827D02*
X121245210Y-136137305D01*
X121245210Y-136137305D02*
X121132543Y-136237214D01*
X121132543Y-136237214D02*
X120351957Y-136446371D01*
X120351957Y-136446371D02*
X120888068Y-136755895D01*
X109053333Y-126343580D02*
X109005714Y-126391200D01*
X109005714Y-126391200D02*
X108862857Y-126438819D01*
X108862857Y-126438819D02*
X108767619Y-126438819D01*
X108767619Y-126438819D02*
X108624762Y-126391200D01*
X108624762Y-126391200D02*
X108529524Y-126295961D01*
X108529524Y-126295961D02*
X108481905Y-126200723D01*
X108481905Y-126200723D02*
X108434286Y-126010247D01*
X108434286Y-126010247D02*
X108434286Y-125867390D01*
X108434286Y-125867390D02*
X108481905Y-125676914D01*
X108481905Y-125676914D02*
X108529524Y-125581676D01*
X108529524Y-125581676D02*
X108624762Y-125486438D01*
X108624762Y-125486438D02*
X108767619Y-125438819D01*
X108767619Y-125438819D02*
X108862857Y-125438819D01*
X108862857Y-125438819D02*
X109005714Y-125486438D01*
X109005714Y-125486438D02*
X109053333Y-125534057D01*
X110005714Y-126438819D02*
X109434286Y-126438819D01*
X109720000Y-126438819D02*
X109720000Y-125438819D01*
X109720000Y-125438819D02*
X109624762Y-125581676D01*
X109624762Y-125581676D02*
X109529524Y-125676914D01*
X109529524Y-125676914D02*
X109434286Y-125724533D01*
X89010030Y-109403171D02*
X89876055Y-108903171D01*
X89876055Y-108903171D02*
X89995103Y-109109367D01*
X89995103Y-109109367D02*
X90025292Y-109256895D01*
X90025292Y-109256895D02*
X89990432Y-109386992D01*
X89990432Y-109386992D02*
X89931763Y-109475851D01*
X89931763Y-109475851D02*
X89790616Y-109612328D01*
X89790616Y-109612328D02*
X89666898Y-109683757D01*
X89666898Y-109683757D02*
X89478131Y-109737755D01*
X89478131Y-109737755D02*
X89371843Y-109744135D01*
X89371843Y-109744135D02*
X89241745Y-109709276D01*
X89241745Y-109709276D02*
X89129077Y-109609367D01*
X89129077Y-109609367D02*
X89010030Y-109403171D01*
X90269767Y-109775576D02*
X90334816Y-109793006D01*
X90334816Y-109793006D02*
X90423674Y-109851675D01*
X90423674Y-109851675D02*
X90542722Y-110057871D01*
X90542722Y-110057871D02*
X90549102Y-110164159D01*
X90549102Y-110164159D02*
X90531672Y-110229208D01*
X90531672Y-110229208D02*
X90473003Y-110318067D01*
X90473003Y-110318067D02*
X90390524Y-110365686D01*
X90390524Y-110365686D02*
X90242997Y-110395875D01*
X90242997Y-110395875D02*
X89462411Y-110186718D01*
X89462411Y-110186718D02*
X89771935Y-110722828D01*
X90010030Y-111135222D02*
X90105268Y-111300179D01*
X90105268Y-111300179D02*
X90194126Y-111358848D01*
X90194126Y-111358848D02*
X90259175Y-111376278D01*
X90259175Y-111376278D02*
X90430512Y-111387328D01*
X90430512Y-111387328D02*
X90619279Y-111333329D01*
X90619279Y-111333329D02*
X90949193Y-111142853D01*
X90949193Y-111142853D02*
X91007862Y-111053994D01*
X91007862Y-111053994D02*
X91025292Y-110988946D01*
X91025292Y-110988946D02*
X91018912Y-110882657D01*
X91018912Y-110882657D02*
X90923674Y-110717700D01*
X90923674Y-110717700D02*
X90834816Y-110659031D01*
X90834816Y-110659031D02*
X90769767Y-110641601D01*
X90769767Y-110641601D02*
X90663479Y-110647981D01*
X90663479Y-110647981D02*
X90457282Y-110767029D01*
X90457282Y-110767029D02*
X90398613Y-110855887D01*
X90398613Y-110855887D02*
X90381184Y-110920936D01*
X90381184Y-110920936D02*
X90387563Y-111027224D01*
X90387563Y-111027224D02*
X90482801Y-111192181D01*
X90482801Y-111192181D02*
X90571660Y-111250850D01*
X90571660Y-111250850D02*
X90636709Y-111268280D01*
X90636709Y-111268280D02*
X90742997Y-111261900D01*
D11*
X104019047Y-115503270D02*
X103898095Y-115442794D01*
X103898095Y-115442794D02*
X103777142Y-115321842D01*
X103777142Y-115321842D02*
X103595714Y-115140413D01*
X103595714Y-115140413D02*
X103474761Y-115079937D01*
X103474761Y-115079937D02*
X103353809Y-115079937D01*
X103414285Y-115382318D02*
X103293333Y-115321842D01*
X103293333Y-115321842D02*
X103172380Y-115200889D01*
X103172380Y-115200889D02*
X103111904Y-114958984D01*
X103111904Y-114958984D02*
X103111904Y-114535651D01*
X103111904Y-114535651D02*
X103172380Y-114293746D01*
X103172380Y-114293746D02*
X103293333Y-114172794D01*
X103293333Y-114172794D02*
X103414285Y-114112318D01*
X103414285Y-114112318D02*
X103656190Y-114112318D01*
X103656190Y-114112318D02*
X103777142Y-114172794D01*
X103777142Y-114172794D02*
X103898095Y-114293746D01*
X103898095Y-114293746D02*
X103958571Y-114535651D01*
X103958571Y-114535651D02*
X103958571Y-114958984D01*
X103958571Y-114958984D02*
X103898095Y-115200889D01*
X103898095Y-115200889D02*
X103777142Y-115321842D01*
X103777142Y-115321842D02*
X103656190Y-115382318D01*
X103656190Y-115382318D02*
X103414285Y-115382318D01*
X105168095Y-115382318D02*
X104442380Y-115382318D01*
X104805237Y-115382318D02*
X104805237Y-114112318D01*
X104805237Y-114112318D02*
X104684285Y-114293746D01*
X104684285Y-114293746D02*
X104563333Y-114414699D01*
X104563333Y-114414699D02*
X104442380Y-114475175D01*
D10*
X91590333Y-115864819D02*
X91257000Y-115388628D01*
X91018905Y-115864819D02*
X91018905Y-114864819D01*
X91018905Y-114864819D02*
X91399857Y-114864819D01*
X91399857Y-114864819D02*
X91495095Y-114912438D01*
X91495095Y-114912438D02*
X91542714Y-114960057D01*
X91542714Y-114960057D02*
X91590333Y-115055295D01*
X91590333Y-115055295D02*
X91590333Y-115198152D01*
X91590333Y-115198152D02*
X91542714Y-115293390D01*
X91542714Y-115293390D02*
X91495095Y-115341009D01*
X91495095Y-115341009D02*
X91399857Y-115388628D01*
X91399857Y-115388628D02*
X91018905Y-115388628D01*
X92066524Y-115864819D02*
X92257000Y-115864819D01*
X92257000Y-115864819D02*
X92352238Y-115817200D01*
X92352238Y-115817200D02*
X92399857Y-115769580D01*
X92399857Y-115769580D02*
X92495095Y-115626723D01*
X92495095Y-115626723D02*
X92542714Y-115436247D01*
X92542714Y-115436247D02*
X92542714Y-115055295D01*
X92542714Y-115055295D02*
X92495095Y-114960057D01*
X92495095Y-114960057D02*
X92447476Y-114912438D01*
X92447476Y-114912438D02*
X92352238Y-114864819D01*
X92352238Y-114864819D02*
X92161762Y-114864819D01*
X92161762Y-114864819D02*
X92066524Y-114912438D01*
X92066524Y-114912438D02*
X92018905Y-114960057D01*
X92018905Y-114960057D02*
X91971286Y-115055295D01*
X91971286Y-115055295D02*
X91971286Y-115293390D01*
X91971286Y-115293390D02*
X92018905Y-115388628D01*
X92018905Y-115388628D02*
X92066524Y-115436247D01*
X92066524Y-115436247D02*
X92161762Y-115483866D01*
X92161762Y-115483866D02*
X92352238Y-115483866D01*
X92352238Y-115483866D02*
X92447476Y-115436247D01*
X92447476Y-115436247D02*
X92495095Y-115388628D01*
X92495095Y-115388628D02*
X92542714Y-115293390D01*
X117548443Y-116412085D02*
X117048443Y-115546060D01*
X117048443Y-115546060D02*
X117254639Y-115427012D01*
X117254639Y-115427012D02*
X117402167Y-115396823D01*
X117402167Y-115396823D02*
X117532264Y-115431683D01*
X117532264Y-115431683D02*
X117621123Y-115490352D01*
X117621123Y-115490352D02*
X117757600Y-115631499D01*
X117757600Y-115631499D02*
X117829029Y-115755217D01*
X117829029Y-115755217D02*
X117883027Y-115943984D01*
X117883027Y-115943984D02*
X117889407Y-116050272D01*
X117889407Y-116050272D02*
X117854548Y-116180370D01*
X117854548Y-116180370D02*
X117754639Y-116293038D01*
X117754639Y-116293038D02*
X117548443Y-116412085D01*
X117920848Y-115152348D02*
X117938278Y-115087299D01*
X117938278Y-115087299D02*
X117996947Y-114998441D01*
X117996947Y-114998441D02*
X118203143Y-114879393D01*
X118203143Y-114879393D02*
X118309431Y-114873013D01*
X118309431Y-114873013D02*
X118374480Y-114890443D01*
X118374480Y-114890443D02*
X118463339Y-114949112D01*
X118463339Y-114949112D02*
X118510958Y-115031591D01*
X118510958Y-115031591D02*
X118541147Y-115179118D01*
X118541147Y-115179118D02*
X118331990Y-115959704D01*
X118331990Y-115959704D02*
X118868100Y-115650180D01*
X118904211Y-114474631D02*
X118986690Y-114427012D01*
X118986690Y-114427012D02*
X119092978Y-114420632D01*
X119092978Y-114420632D02*
X119158027Y-114438062D01*
X119158027Y-114438062D02*
X119246885Y-114496731D01*
X119246885Y-114496731D02*
X119383363Y-114637879D01*
X119383363Y-114637879D02*
X119502410Y-114844076D01*
X119502410Y-114844076D02*
X119556409Y-115032842D01*
X119556409Y-115032842D02*
X119562789Y-115139130D01*
X119562789Y-115139130D02*
X119545359Y-115204179D01*
X119545359Y-115204179D02*
X119486690Y-115293038D01*
X119486690Y-115293038D02*
X119404211Y-115340657D01*
X119404211Y-115340657D02*
X119297923Y-115347036D01*
X119297923Y-115347036D02*
X119232875Y-115329607D01*
X119232875Y-115329607D02*
X119144016Y-115270938D01*
X119144016Y-115270938D02*
X119007539Y-115129790D01*
X119007539Y-115129790D02*
X118888491Y-114923593D01*
X118888491Y-114923593D02*
X118834492Y-114734827D01*
X118834492Y-114734827D02*
X118828113Y-114628538D01*
X118828113Y-114628538D02*
X118845542Y-114563490D01*
X118845542Y-114563490D02*
X118904211Y-114474631D01*
X97877333Y-114659580D02*
X97829714Y-114707200D01*
X97829714Y-114707200D02*
X97686857Y-114754819D01*
X97686857Y-114754819D02*
X97591619Y-114754819D01*
X97591619Y-114754819D02*
X97448762Y-114707200D01*
X97448762Y-114707200D02*
X97353524Y-114611961D01*
X97353524Y-114611961D02*
X97305905Y-114516723D01*
X97305905Y-114516723D02*
X97258286Y-114326247D01*
X97258286Y-114326247D02*
X97258286Y-114183390D01*
X97258286Y-114183390D02*
X97305905Y-113992914D01*
X97305905Y-113992914D02*
X97353524Y-113897676D01*
X97353524Y-113897676D02*
X97448762Y-113802438D01*
X97448762Y-113802438D02*
X97591619Y-113754819D01*
X97591619Y-113754819D02*
X97686857Y-113754819D01*
X97686857Y-113754819D02*
X97829714Y-113802438D01*
X97829714Y-113802438D02*
X97877333Y-113850057D01*
X98258286Y-113850057D02*
X98305905Y-113802438D01*
X98305905Y-113802438D02*
X98401143Y-113754819D01*
X98401143Y-113754819D02*
X98639238Y-113754819D01*
X98639238Y-113754819D02*
X98734476Y-113802438D01*
X98734476Y-113802438D02*
X98782095Y-113850057D01*
X98782095Y-113850057D02*
X98829714Y-113945295D01*
X98829714Y-113945295D02*
X98829714Y-114040533D01*
X98829714Y-114040533D02*
X98782095Y-114183390D01*
X98782095Y-114183390D02*
X98210667Y-114754819D01*
X98210667Y-114754819D02*
X98829714Y-114754819D01*
X118705333Y-124751926D02*
X118657714Y-124799546D01*
X118657714Y-124799546D02*
X118514857Y-124847165D01*
X118514857Y-124847165D02*
X118419619Y-124847165D01*
X118419619Y-124847165D02*
X118276762Y-124799546D01*
X118276762Y-124799546D02*
X118181524Y-124704307D01*
X118181524Y-124704307D02*
X118133905Y-124609069D01*
X118133905Y-124609069D02*
X118086286Y-124418593D01*
X118086286Y-124418593D02*
X118086286Y-124275736D01*
X118086286Y-124275736D02*
X118133905Y-124085260D01*
X118133905Y-124085260D02*
X118181524Y-123990022D01*
X118181524Y-123990022D02*
X118276762Y-123894784D01*
X118276762Y-123894784D02*
X118419619Y-123847165D01*
X118419619Y-123847165D02*
X118514857Y-123847165D01*
X118514857Y-123847165D02*
X118657714Y-123894784D01*
X118657714Y-123894784D02*
X118705333Y-123942403D01*
X119610095Y-123847165D02*
X119133905Y-123847165D01*
X119133905Y-123847165D02*
X119086286Y-124323355D01*
X119086286Y-124323355D02*
X119133905Y-124275736D01*
X119133905Y-124275736D02*
X119229143Y-124228117D01*
X119229143Y-124228117D02*
X119467238Y-124228117D01*
X119467238Y-124228117D02*
X119562476Y-124275736D01*
X119562476Y-124275736D02*
X119610095Y-124323355D01*
X119610095Y-124323355D02*
X119657714Y-124418593D01*
X119657714Y-124418593D02*
X119657714Y-124656688D01*
X119657714Y-124656688D02*
X119610095Y-124751926D01*
X119610095Y-124751926D02*
X119562476Y-124799546D01*
X119562476Y-124799546D02*
X119467238Y-124847165D01*
X119467238Y-124847165D02*
X119229143Y-124847165D01*
X119229143Y-124847165D02*
X119133905Y-124799546D01*
X119133905Y-124799546D02*
X119086286Y-124751926D01*
X100861905Y-110690819D02*
X100861905Y-109690819D01*
X100861905Y-109690819D02*
X101100000Y-109690819D01*
X101100000Y-109690819D02*
X101242857Y-109738438D01*
X101242857Y-109738438D02*
X101338095Y-109833676D01*
X101338095Y-109833676D02*
X101385714Y-109928914D01*
X101385714Y-109928914D02*
X101433333Y-110119390D01*
X101433333Y-110119390D02*
X101433333Y-110262247D01*
X101433333Y-110262247D02*
X101385714Y-110452723D01*
X101385714Y-110452723D02*
X101338095Y-110547961D01*
X101338095Y-110547961D02*
X101242857Y-110643200D01*
X101242857Y-110643200D02*
X101100000Y-110690819D01*
X101100000Y-110690819D02*
X100861905Y-110690819D01*
X102385714Y-110690819D02*
X101814286Y-110690819D01*
X102100000Y-110690819D02*
X102100000Y-109690819D01*
X102100000Y-109690819D02*
X102004762Y-109833676D01*
X102004762Y-109833676D02*
X101909524Y-109928914D01*
X101909524Y-109928914D02*
X101814286Y-109976533D01*
X106811059Y-143888834D02*
X106793630Y-143953883D01*
X106793630Y-143953883D02*
X106693721Y-144066551D01*
X106693721Y-144066551D02*
X106611243Y-144114170D01*
X106611243Y-144114170D02*
X106463715Y-144144359D01*
X106463715Y-144144359D02*
X106333617Y-144109500D01*
X106333617Y-144109500D02*
X106244759Y-144050831D01*
X106244759Y-144050831D02*
X106108282Y-143909683D01*
X106108282Y-143909683D02*
X106036853Y-143785965D01*
X106036853Y-143785965D02*
X105982854Y-143597198D01*
X105982854Y-143597198D02*
X105976475Y-143490910D01*
X105976475Y-143490910D02*
X106011334Y-143360813D01*
X106011334Y-143360813D02*
X106111243Y-143248145D01*
X106111243Y-143248145D02*
X106193721Y-143200526D01*
X106193721Y-143200526D02*
X106341249Y-143170336D01*
X106341249Y-143170336D02*
X106406297Y-143187766D01*
X107683464Y-143495122D02*
X107188593Y-143780837D01*
X107436029Y-143637980D02*
X106936029Y-142771954D01*
X106936029Y-142771954D02*
X106924979Y-142943291D01*
X106924979Y-142943291D02*
X106890119Y-143073389D01*
X106890119Y-143073389D02*
X106831450Y-143162247D01*
X107719575Y-142319573D02*
X107802054Y-142271954D01*
X107802054Y-142271954D02*
X107908342Y-142265574D01*
X107908342Y-142265574D02*
X107973391Y-142283004D01*
X107973391Y-142283004D02*
X108062249Y-142341673D01*
X108062249Y-142341673D02*
X108198727Y-142482821D01*
X108198727Y-142482821D02*
X108317774Y-142689018D01*
X108317774Y-142689018D02*
X108371773Y-142877784D01*
X108371773Y-142877784D02*
X108378153Y-142984072D01*
X108378153Y-142984072D02*
X108360723Y-143049121D01*
X108360723Y-143049121D02*
X108302054Y-143137980D01*
X108302054Y-143137980D02*
X108219575Y-143185599D01*
X108219575Y-143185599D02*
X108113287Y-143191978D01*
X108113287Y-143191978D02*
X108048239Y-143174549D01*
X108048239Y-143174549D02*
X107959380Y-143115880D01*
X107959380Y-143115880D02*
X107822903Y-142974732D01*
X107822903Y-142974732D02*
X107703855Y-142768535D01*
X107703855Y-142768535D02*
X107649856Y-142579769D01*
X107649856Y-142579769D02*
X107643477Y-142473480D01*
X107643477Y-142473480D02*
X107660906Y-142408432D01*
X107660906Y-142408432D02*
X107719575Y-142319573D01*
X103704819Y-148534285D02*
X102704819Y-148534285D01*
X102704819Y-148534285D02*
X102704819Y-148296190D01*
X102704819Y-148296190D02*
X102752438Y-148153333D01*
X102752438Y-148153333D02*
X102847676Y-148058095D01*
X102847676Y-148058095D02*
X102942914Y-148010476D01*
X102942914Y-148010476D02*
X103133390Y-147962857D01*
X103133390Y-147962857D02*
X103276247Y-147962857D01*
X103276247Y-147962857D02*
X103466723Y-148010476D01*
X103466723Y-148010476D02*
X103561961Y-148058095D01*
X103561961Y-148058095D02*
X103657200Y-148153333D01*
X103657200Y-148153333D02*
X103704819Y-148296190D01*
X103704819Y-148296190D02*
X103704819Y-148534285D01*
X102800057Y-147581904D02*
X102752438Y-147534285D01*
X102752438Y-147534285D02*
X102704819Y-147439047D01*
X102704819Y-147439047D02*
X102704819Y-147200952D01*
X102704819Y-147200952D02*
X102752438Y-147105714D01*
X102752438Y-147105714D02*
X102800057Y-147058095D01*
X102800057Y-147058095D02*
X102895295Y-147010476D01*
X102895295Y-147010476D02*
X102990533Y-147010476D01*
X102990533Y-147010476D02*
X103133390Y-147058095D01*
X103133390Y-147058095D02*
X103704819Y-147629523D01*
X103704819Y-147629523D02*
X103704819Y-147010476D01*
X103038152Y-146153333D02*
X103704819Y-146153333D01*
X102657200Y-146391428D02*
X103371485Y-146629523D01*
X103371485Y-146629523D02*
X103371485Y-146010476D01*
X112609333Y-124819580D02*
X112561714Y-124867200D01*
X112561714Y-124867200D02*
X112418857Y-124914819D01*
X112418857Y-124914819D02*
X112323619Y-124914819D01*
X112323619Y-124914819D02*
X112180762Y-124867200D01*
X112180762Y-124867200D02*
X112085524Y-124771961D01*
X112085524Y-124771961D02*
X112037905Y-124676723D01*
X112037905Y-124676723D02*
X111990286Y-124486247D01*
X111990286Y-124486247D02*
X111990286Y-124343390D01*
X111990286Y-124343390D02*
X112037905Y-124152914D01*
X112037905Y-124152914D02*
X112085524Y-124057676D01*
X112085524Y-124057676D02*
X112180762Y-123962438D01*
X112180762Y-123962438D02*
X112323619Y-123914819D01*
X112323619Y-123914819D02*
X112418857Y-123914819D01*
X112418857Y-123914819D02*
X112561714Y-123962438D01*
X112561714Y-123962438D02*
X112609333Y-124010057D01*
X113466476Y-123914819D02*
X113276000Y-123914819D01*
X113276000Y-123914819D02*
X113180762Y-123962438D01*
X113180762Y-123962438D02*
X113133143Y-124010057D01*
X113133143Y-124010057D02*
X113037905Y-124152914D01*
X113037905Y-124152914D02*
X112990286Y-124343390D01*
X112990286Y-124343390D02*
X112990286Y-124724342D01*
X112990286Y-124724342D02*
X113037905Y-124819580D01*
X113037905Y-124819580D02*
X113085524Y-124867200D01*
X113085524Y-124867200D02*
X113180762Y-124914819D01*
X113180762Y-124914819D02*
X113371238Y-124914819D01*
X113371238Y-124914819D02*
X113466476Y-124867200D01*
X113466476Y-124867200D02*
X113514095Y-124819580D01*
X113514095Y-124819580D02*
X113561714Y-124724342D01*
X113561714Y-124724342D02*
X113561714Y-124486247D01*
X113561714Y-124486247D02*
X113514095Y-124391009D01*
X113514095Y-124391009D02*
X113466476Y-124343390D01*
X113466476Y-124343390D02*
X113371238Y-124295771D01*
X113371238Y-124295771D02*
X113180762Y-124295771D01*
X113180762Y-124295771D02*
X113085524Y-124343390D01*
X113085524Y-124343390D02*
X113037905Y-124391009D01*
X113037905Y-124391009D02*
X112990286Y-124486247D01*
X90353779Y-150688663D02*
X89487754Y-150188663D01*
X89487754Y-150188663D02*
X89606801Y-149982466D01*
X89606801Y-149982466D02*
X89719469Y-149882558D01*
X89719469Y-149882558D02*
X89849567Y-149847698D01*
X89849567Y-149847698D02*
X89955855Y-149854078D01*
X89955855Y-149854078D02*
X90144622Y-149908077D01*
X90144622Y-149908077D02*
X90268340Y-149979505D01*
X90268340Y-149979505D02*
X90409487Y-150115983D01*
X90409487Y-150115983D02*
X90468156Y-150204841D01*
X90468156Y-150204841D02*
X90503016Y-150334939D01*
X90503016Y-150334939D02*
X90472827Y-150482466D01*
X90472827Y-150482466D02*
X90353779Y-150688663D01*
X90877588Y-149781398D02*
X90972827Y-149616441D01*
X90972827Y-149616441D02*
X90979206Y-149510153D01*
X90979206Y-149510153D02*
X90961777Y-149445104D01*
X90961777Y-149445104D02*
X90885678Y-149291197D01*
X90885678Y-149291197D02*
X90744530Y-149154719D01*
X90744530Y-149154719D02*
X90414616Y-148964243D01*
X90414616Y-148964243D02*
X90308327Y-148957863D01*
X90308327Y-148957863D02*
X90243279Y-148975293D01*
X90243279Y-148975293D02*
X90154420Y-149033962D01*
X90154420Y-149033962D02*
X90059182Y-149198920D01*
X90059182Y-149198920D02*
X90052802Y-149305208D01*
X90052802Y-149305208D02*
X90070232Y-149370256D01*
X90070232Y-149370256D02*
X90128901Y-149459115D01*
X90128901Y-149459115D02*
X90335098Y-149578162D01*
X90335098Y-149578162D02*
X90441386Y-149584542D01*
X90441386Y-149584542D02*
X90506435Y-149567112D01*
X90506435Y-149567112D02*
X90595293Y-149508443D01*
X90595293Y-149508443D02*
X90690531Y-149343486D01*
X90690531Y-149343486D02*
X90696911Y-149237198D01*
X90696911Y-149237198D02*
X90679481Y-149172149D01*
X90679481Y-149172149D02*
X90620812Y-149083291D01*
X100404819Y-107894285D02*
X99404819Y-107894285D01*
X99404819Y-107894285D02*
X99404819Y-107656190D01*
X99404819Y-107656190D02*
X99452438Y-107513333D01*
X99452438Y-107513333D02*
X99547676Y-107418095D01*
X99547676Y-107418095D02*
X99642914Y-107370476D01*
X99642914Y-107370476D02*
X99833390Y-107322857D01*
X99833390Y-107322857D02*
X99976247Y-107322857D01*
X99976247Y-107322857D02*
X100166723Y-107370476D01*
X100166723Y-107370476D02*
X100261961Y-107418095D01*
X100261961Y-107418095D02*
X100357200Y-107513333D01*
X100357200Y-107513333D02*
X100404819Y-107656190D01*
X100404819Y-107656190D02*
X100404819Y-107894285D01*
X99404819Y-106989523D02*
X99404819Y-106370476D01*
X99404819Y-106370476D02*
X99785771Y-106703809D01*
X99785771Y-106703809D02*
X99785771Y-106560952D01*
X99785771Y-106560952D02*
X99833390Y-106465714D01*
X99833390Y-106465714D02*
X99881009Y-106418095D01*
X99881009Y-106418095D02*
X99976247Y-106370476D01*
X99976247Y-106370476D02*
X100214342Y-106370476D01*
X100214342Y-106370476D02*
X100309580Y-106418095D01*
X100309580Y-106418095D02*
X100357200Y-106465714D01*
X100357200Y-106465714D02*
X100404819Y-106560952D01*
X100404819Y-106560952D02*
X100404819Y-106846666D01*
X100404819Y-106846666D02*
X100357200Y-106941904D01*
X100357200Y-106941904D02*
X100309580Y-106989523D01*
X99404819Y-105751428D02*
X99404819Y-105656190D01*
X99404819Y-105656190D02*
X99452438Y-105560952D01*
X99452438Y-105560952D02*
X99500057Y-105513333D01*
X99500057Y-105513333D02*
X99595295Y-105465714D01*
X99595295Y-105465714D02*
X99785771Y-105418095D01*
X99785771Y-105418095D02*
X100023866Y-105418095D01*
X100023866Y-105418095D02*
X100214342Y-105465714D01*
X100214342Y-105465714D02*
X100309580Y-105513333D01*
X100309580Y-105513333D02*
X100357200Y-105560952D01*
X100357200Y-105560952D02*
X100404819Y-105656190D01*
X100404819Y-105656190D02*
X100404819Y-105751428D01*
X100404819Y-105751428D02*
X100357200Y-105846666D01*
X100357200Y-105846666D02*
X100309580Y-105894285D01*
X100309580Y-105894285D02*
X100214342Y-105941904D01*
X100214342Y-105941904D02*
X100023866Y-105989523D01*
X100023866Y-105989523D02*
X99785771Y-105989523D01*
X99785771Y-105989523D02*
X99595295Y-105941904D01*
X99595295Y-105941904D02*
X99500057Y-105894285D01*
X99500057Y-105894285D02*
X99452438Y-105846666D01*
X99452438Y-105846666D02*
X99404819Y-105751428D01*
X87209333Y-118501819D02*
X86876000Y-118025628D01*
X86637905Y-118501819D02*
X86637905Y-117501819D01*
X86637905Y-117501819D02*
X87018857Y-117501819D01*
X87018857Y-117501819D02*
X87114095Y-117549438D01*
X87114095Y-117549438D02*
X87161714Y-117597057D01*
X87161714Y-117597057D02*
X87209333Y-117692295D01*
X87209333Y-117692295D02*
X87209333Y-117835152D01*
X87209333Y-117835152D02*
X87161714Y-117930390D01*
X87161714Y-117930390D02*
X87114095Y-117978009D01*
X87114095Y-117978009D02*
X87018857Y-118025628D01*
X87018857Y-118025628D02*
X86637905Y-118025628D01*
X87542667Y-117501819D02*
X88161714Y-117501819D01*
X88161714Y-117501819D02*
X87828381Y-117882771D01*
X87828381Y-117882771D02*
X87971238Y-117882771D01*
X87971238Y-117882771D02*
X88066476Y-117930390D01*
X88066476Y-117930390D02*
X88114095Y-117978009D01*
X88114095Y-117978009D02*
X88161714Y-118073247D01*
X88161714Y-118073247D02*
X88161714Y-118311342D01*
X88161714Y-118311342D02*
X88114095Y-118406580D01*
X88114095Y-118406580D02*
X88066476Y-118454200D01*
X88066476Y-118454200D02*
X87971238Y-118501819D01*
X87971238Y-118501819D02*
X87685524Y-118501819D01*
X87685524Y-118501819D02*
X87590286Y-118454200D01*
X87590286Y-118454200D02*
X87542667Y-118406580D01*
X120705714Y-125804819D02*
X120705714Y-124804819D01*
X120705714Y-124804819D02*
X120943809Y-124804819D01*
X120943809Y-124804819D02*
X121086666Y-124852438D01*
X121086666Y-124852438D02*
X121181904Y-124947676D01*
X121181904Y-124947676D02*
X121229523Y-125042914D01*
X121229523Y-125042914D02*
X121277142Y-125233390D01*
X121277142Y-125233390D02*
X121277142Y-125376247D01*
X121277142Y-125376247D02*
X121229523Y-125566723D01*
X121229523Y-125566723D02*
X121181904Y-125661961D01*
X121181904Y-125661961D02*
X121086666Y-125757200D01*
X121086666Y-125757200D02*
X120943809Y-125804819D01*
X120943809Y-125804819D02*
X120705714Y-125804819D01*
X121658095Y-124900057D02*
X121705714Y-124852438D01*
X121705714Y-124852438D02*
X121800952Y-124804819D01*
X121800952Y-124804819D02*
X122039047Y-124804819D01*
X122039047Y-124804819D02*
X122134285Y-124852438D01*
X122134285Y-124852438D02*
X122181904Y-124900057D01*
X122181904Y-124900057D02*
X122229523Y-124995295D01*
X122229523Y-124995295D02*
X122229523Y-125090533D01*
X122229523Y-125090533D02*
X122181904Y-125233390D01*
X122181904Y-125233390D02*
X121610476Y-125804819D01*
X121610476Y-125804819D02*
X122229523Y-125804819D01*
X123181904Y-125804819D02*
X122610476Y-125804819D01*
X122896190Y-125804819D02*
X122896190Y-124804819D01*
X122896190Y-124804819D02*
X122800952Y-124947676D01*
X122800952Y-124947676D02*
X122705714Y-125042914D01*
X122705714Y-125042914D02*
X122610476Y-125090533D01*
X126261905Y-125804819D02*
X126261905Y-124804819D01*
X126261905Y-124804819D02*
X126500000Y-124804819D01*
X126500000Y-124804819D02*
X126642857Y-124852438D01*
X126642857Y-124852438D02*
X126738095Y-124947676D01*
X126738095Y-124947676D02*
X126785714Y-125042914D01*
X126785714Y-125042914D02*
X126833333Y-125233390D01*
X126833333Y-125233390D02*
X126833333Y-125376247D01*
X126833333Y-125376247D02*
X126785714Y-125566723D01*
X126785714Y-125566723D02*
X126738095Y-125661961D01*
X126738095Y-125661961D02*
X126642857Y-125757200D01*
X126642857Y-125757200D02*
X126500000Y-125804819D01*
X126500000Y-125804819D02*
X126261905Y-125804819D01*
X127738095Y-124804819D02*
X127261905Y-124804819D01*
X127261905Y-124804819D02*
X127214286Y-125281009D01*
X127214286Y-125281009D02*
X127261905Y-125233390D01*
X127261905Y-125233390D02*
X127357143Y-125185771D01*
X127357143Y-125185771D02*
X127595238Y-125185771D01*
X127595238Y-125185771D02*
X127690476Y-125233390D01*
X127690476Y-125233390D02*
X127738095Y-125281009D01*
X127738095Y-125281009D02*
X127785714Y-125376247D01*
X127785714Y-125376247D02*
X127785714Y-125614342D01*
X127785714Y-125614342D02*
X127738095Y-125709580D01*
X127738095Y-125709580D02*
X127690476Y-125757200D01*
X127690476Y-125757200D02*
X127595238Y-125804819D01*
X127595238Y-125804819D02*
X127357143Y-125804819D01*
X127357143Y-125804819D02*
X127261905Y-125757200D01*
X127261905Y-125757200D02*
X127214286Y-125709580D01*
X119213333Y-131690580D02*
X119165714Y-131738200D01*
X119165714Y-131738200D02*
X119022857Y-131785819D01*
X119022857Y-131785819D02*
X118927619Y-131785819D01*
X118927619Y-131785819D02*
X118784762Y-131738200D01*
X118784762Y-131738200D02*
X118689524Y-131642961D01*
X118689524Y-131642961D02*
X118641905Y-131547723D01*
X118641905Y-131547723D02*
X118594286Y-131357247D01*
X118594286Y-131357247D02*
X118594286Y-131214390D01*
X118594286Y-131214390D02*
X118641905Y-131023914D01*
X118641905Y-131023914D02*
X118689524Y-130928676D01*
X118689524Y-130928676D02*
X118784762Y-130833438D01*
X118784762Y-130833438D02*
X118927619Y-130785819D01*
X118927619Y-130785819D02*
X119022857Y-130785819D01*
X119022857Y-130785819D02*
X119165714Y-130833438D01*
X119165714Y-130833438D02*
X119213333Y-130881057D01*
X119784762Y-131214390D02*
X119689524Y-131166771D01*
X119689524Y-131166771D02*
X119641905Y-131119152D01*
X119641905Y-131119152D02*
X119594286Y-131023914D01*
X119594286Y-131023914D02*
X119594286Y-130976295D01*
X119594286Y-130976295D02*
X119641905Y-130881057D01*
X119641905Y-130881057D02*
X119689524Y-130833438D01*
X119689524Y-130833438D02*
X119784762Y-130785819D01*
X119784762Y-130785819D02*
X119975238Y-130785819D01*
X119975238Y-130785819D02*
X120070476Y-130833438D01*
X120070476Y-130833438D02*
X120118095Y-130881057D01*
X120118095Y-130881057D02*
X120165714Y-130976295D01*
X120165714Y-130976295D02*
X120165714Y-131023914D01*
X120165714Y-131023914D02*
X120118095Y-131119152D01*
X120118095Y-131119152D02*
X120070476Y-131166771D01*
X120070476Y-131166771D02*
X119975238Y-131214390D01*
X119975238Y-131214390D02*
X119784762Y-131214390D01*
X119784762Y-131214390D02*
X119689524Y-131262009D01*
X119689524Y-131262009D02*
X119641905Y-131309628D01*
X119641905Y-131309628D02*
X119594286Y-131404866D01*
X119594286Y-131404866D02*
X119594286Y-131595342D01*
X119594286Y-131595342D02*
X119641905Y-131690580D01*
X119641905Y-131690580D02*
X119689524Y-131738200D01*
X119689524Y-131738200D02*
X119784762Y-131785819D01*
X119784762Y-131785819D02*
X119975238Y-131785819D01*
X119975238Y-131785819D02*
X120070476Y-131738200D01*
X120070476Y-131738200D02*
X120118095Y-131690580D01*
X120118095Y-131690580D02*
X120165714Y-131595342D01*
X120165714Y-131595342D02*
X120165714Y-131404866D01*
X120165714Y-131404866D02*
X120118095Y-131309628D01*
X120118095Y-131309628D02*
X120070476Y-131262009D01*
X120070476Y-131262009D02*
X119975238Y-131214390D01*
X86264761Y-113834057D02*
X86169523Y-113786438D01*
X86169523Y-113786438D02*
X86074285Y-113691200D01*
X86074285Y-113691200D02*
X85931428Y-113548342D01*
X85931428Y-113548342D02*
X85836190Y-113500723D01*
X85836190Y-113500723D02*
X85740952Y-113500723D01*
X85788571Y-113738819D02*
X85693333Y-113691200D01*
X85693333Y-113691200D02*
X85598095Y-113595961D01*
X85598095Y-113595961D02*
X85550476Y-113405485D01*
X85550476Y-113405485D02*
X85550476Y-113072152D01*
X85550476Y-113072152D02*
X85598095Y-112881676D01*
X85598095Y-112881676D02*
X85693333Y-112786438D01*
X85693333Y-112786438D02*
X85788571Y-112738819D01*
X85788571Y-112738819D02*
X85979047Y-112738819D01*
X85979047Y-112738819D02*
X86074285Y-112786438D01*
X86074285Y-112786438D02*
X86169523Y-112881676D01*
X86169523Y-112881676D02*
X86217142Y-113072152D01*
X86217142Y-113072152D02*
X86217142Y-113405485D01*
X86217142Y-113405485D02*
X86169523Y-113595961D01*
X86169523Y-113595961D02*
X86074285Y-113691200D01*
X86074285Y-113691200D02*
X85979047Y-113738819D01*
X85979047Y-113738819D02*
X85788571Y-113738819D01*
X86550476Y-112738819D02*
X87169523Y-112738819D01*
X87169523Y-112738819D02*
X86836190Y-113119771D01*
X86836190Y-113119771D02*
X86979047Y-113119771D01*
X86979047Y-113119771D02*
X87074285Y-113167390D01*
X87074285Y-113167390D02*
X87121904Y-113215009D01*
X87121904Y-113215009D02*
X87169523Y-113310247D01*
X87169523Y-113310247D02*
X87169523Y-113548342D01*
X87169523Y-113548342D02*
X87121904Y-113643580D01*
X87121904Y-113643580D02*
X87074285Y-113691200D01*
X87074285Y-113691200D02*
X86979047Y-113738819D01*
X86979047Y-113738819D02*
X86693333Y-113738819D01*
X86693333Y-113738819D02*
X86598095Y-113691200D01*
X86598095Y-113691200D02*
X86550476Y-113643580D01*
X80065714Y-129104819D02*
X80065714Y-128104819D01*
X80065714Y-128104819D02*
X80303809Y-128104819D01*
X80303809Y-128104819D02*
X80446666Y-128152438D01*
X80446666Y-128152438D02*
X80541904Y-128247676D01*
X80541904Y-128247676D02*
X80589523Y-128342914D01*
X80589523Y-128342914D02*
X80637142Y-128533390D01*
X80637142Y-128533390D02*
X80637142Y-128676247D01*
X80637142Y-128676247D02*
X80589523Y-128866723D01*
X80589523Y-128866723D02*
X80541904Y-128961961D01*
X80541904Y-128961961D02*
X80446666Y-129057200D01*
X80446666Y-129057200D02*
X80303809Y-129104819D01*
X80303809Y-129104819D02*
X80065714Y-129104819D01*
X81018095Y-128200057D02*
X81065714Y-128152438D01*
X81065714Y-128152438D02*
X81160952Y-128104819D01*
X81160952Y-128104819D02*
X81399047Y-128104819D01*
X81399047Y-128104819D02*
X81494285Y-128152438D01*
X81494285Y-128152438D02*
X81541904Y-128200057D01*
X81541904Y-128200057D02*
X81589523Y-128295295D01*
X81589523Y-128295295D02*
X81589523Y-128390533D01*
X81589523Y-128390533D02*
X81541904Y-128533390D01*
X81541904Y-128533390D02*
X80970476Y-129104819D01*
X80970476Y-129104819D02*
X81589523Y-129104819D01*
X81922857Y-128104819D02*
X82589523Y-128104819D01*
X82589523Y-128104819D02*
X82160952Y-129104819D01*
X111989296Y-101488185D02*
X111790568Y-100941947D01*
X111437339Y-101340288D02*
X111696158Y-100374362D01*
X111696158Y-100374362D02*
X112064130Y-100472960D01*
X112064130Y-100472960D02*
X112143798Y-100543606D01*
X112143798Y-100543606D02*
X112177470Y-100601927D01*
X112177470Y-100601927D02*
X112198817Y-100706245D01*
X112198817Y-100706245D02*
X112161843Y-100844234D01*
X112161843Y-100844234D02*
X112091197Y-100923902D01*
X112091197Y-100923902D02*
X112032875Y-100957574D01*
X112032875Y-100957574D02*
X111928558Y-100978921D01*
X111928558Y-100978921D02*
X111560586Y-100880323D01*
X113076052Y-100744104D02*
X112892066Y-100694805D01*
X112892066Y-100694805D02*
X112787748Y-100716152D01*
X112787748Y-100716152D02*
X112729427Y-100749824D01*
X112729427Y-100749824D02*
X112600460Y-100863164D01*
X112600460Y-100863164D02*
X112505165Y-101034825D01*
X112505165Y-101034825D02*
X112406567Y-101402796D01*
X112406567Y-101402796D02*
X112427914Y-101507114D01*
X112427914Y-101507114D02*
X112461586Y-101565435D01*
X112461586Y-101565435D02*
X112541254Y-101636081D01*
X112541254Y-101636081D02*
X112725240Y-101685380D01*
X112725240Y-101685380D02*
X112829558Y-101664033D01*
X112829558Y-101664033D02*
X112887879Y-101630361D01*
X112887879Y-101630361D02*
X112958525Y-101550693D01*
X112958525Y-101550693D02*
X113020148Y-101320711D01*
X113020148Y-101320711D02*
X112998801Y-101216393D01*
X112998801Y-101216393D02*
X112965130Y-101158072D01*
X112965130Y-101158072D02*
X112885461Y-101087426D01*
X112885461Y-101087426D02*
X112701475Y-101038127D01*
X112701475Y-101038127D02*
X112597158Y-101059474D01*
X112597158Y-101059474D02*
X112538837Y-101093146D01*
X112538837Y-101093146D02*
X112468191Y-101172814D01*
X123555426Y-138295895D02*
X124055426Y-137429870D01*
X124055426Y-137429870D02*
X124261623Y-137548917D01*
X124261623Y-137548917D02*
X124361531Y-137661585D01*
X124361531Y-137661585D02*
X124396391Y-137791683D01*
X124396391Y-137791683D02*
X124390011Y-137897971D01*
X124390011Y-137897971D02*
X124336012Y-138086738D01*
X124336012Y-138086738D02*
X124264584Y-138210456D01*
X124264584Y-138210456D02*
X124128106Y-138351603D01*
X124128106Y-138351603D02*
X124039248Y-138410272D01*
X124039248Y-138410272D02*
X123909150Y-138445132D01*
X123909150Y-138445132D02*
X123761623Y-138414943D01*
X123761623Y-138414943D02*
X123555426Y-138295895D01*
X125292605Y-138144155D02*
X125127648Y-138048917D01*
X125127648Y-138048917D02*
X125021360Y-138042537D01*
X125021360Y-138042537D02*
X124956311Y-138059967D01*
X124956311Y-138059967D02*
X124802404Y-138136066D01*
X124802404Y-138136066D02*
X124665927Y-138277214D01*
X124665927Y-138277214D02*
X124475450Y-138607128D01*
X124475450Y-138607128D02*
X124469071Y-138713416D01*
X124469071Y-138713416D02*
X124486500Y-138778465D01*
X124486500Y-138778465D02*
X124545169Y-138867324D01*
X124545169Y-138867324D02*
X124710127Y-138962562D01*
X124710127Y-138962562D02*
X124816415Y-138968941D01*
X124816415Y-138968941D02*
X124881464Y-138951512D01*
X124881464Y-138951512D02*
X124970322Y-138892843D01*
X124970322Y-138892843D02*
X125089370Y-138686646D01*
X125089370Y-138686646D02*
X125095749Y-138580358D01*
X125095749Y-138580358D02*
X125078320Y-138515309D01*
X125078320Y-138515309D02*
X125019651Y-138426451D01*
X125019651Y-138426451D02*
X124854693Y-138331213D01*
X124854693Y-138331213D02*
X124748405Y-138324833D01*
X124748405Y-138324833D02*
X124683356Y-138342263D01*
X124683356Y-138342263D02*
X124594498Y-138400932D01*
X114966009Y-147760245D02*
X115832035Y-147260245D01*
X115832035Y-147260245D02*
X115951082Y-147466442D01*
X115951082Y-147466442D02*
X115981272Y-147613969D01*
X115981272Y-147613969D02*
X115946412Y-147744067D01*
X115946412Y-147744067D02*
X115887743Y-147832925D01*
X115887743Y-147832925D02*
X115746595Y-147969403D01*
X115746595Y-147969403D02*
X115622877Y-148040831D01*
X115622877Y-148040831D02*
X115434111Y-148094830D01*
X115434111Y-148094830D02*
X115327822Y-148101210D01*
X115327822Y-148101210D02*
X115197725Y-148066350D01*
X115197725Y-148066350D02*
X115085057Y-147966442D01*
X115085057Y-147966442D02*
X114966009Y-147760245D01*
X116284416Y-148043792D02*
X116617749Y-148621142D01*
X116617749Y-148621142D02*
X115537438Y-148749989D01*
X104513142Y-112722819D02*
X104179809Y-112246628D01*
X103941714Y-112722819D02*
X103941714Y-111722819D01*
X103941714Y-111722819D02*
X104322666Y-111722819D01*
X104322666Y-111722819D02*
X104417904Y-111770438D01*
X104417904Y-111770438D02*
X104465523Y-111818057D01*
X104465523Y-111818057D02*
X104513142Y-111913295D01*
X104513142Y-111913295D02*
X104513142Y-112056152D01*
X104513142Y-112056152D02*
X104465523Y-112151390D01*
X104465523Y-112151390D02*
X104417904Y-112199009D01*
X104417904Y-112199009D02*
X104322666Y-112246628D01*
X104322666Y-112246628D02*
X103941714Y-112246628D01*
X105465523Y-112722819D02*
X104894095Y-112722819D01*
X105179809Y-112722819D02*
X105179809Y-111722819D01*
X105179809Y-111722819D02*
X105084571Y-111865676D01*
X105084571Y-111865676D02*
X104989333Y-111960914D01*
X104989333Y-111960914D02*
X104894095Y-112008533D01*
X106084571Y-111722819D02*
X106179809Y-111722819D01*
X106179809Y-111722819D02*
X106275047Y-111770438D01*
X106275047Y-111770438D02*
X106322666Y-111818057D01*
X106322666Y-111818057D02*
X106370285Y-111913295D01*
X106370285Y-111913295D02*
X106417904Y-112103771D01*
X106417904Y-112103771D02*
X106417904Y-112341866D01*
X106417904Y-112341866D02*
X106370285Y-112532342D01*
X106370285Y-112532342D02*
X106322666Y-112627580D01*
X106322666Y-112627580D02*
X106275047Y-112675200D01*
X106275047Y-112675200D02*
X106179809Y-112722819D01*
X106179809Y-112722819D02*
X106084571Y-112722819D01*
X106084571Y-112722819D02*
X105989333Y-112675200D01*
X105989333Y-112675200D02*
X105941714Y-112627580D01*
X105941714Y-112627580D02*
X105894095Y-112532342D01*
X105894095Y-112532342D02*
X105846476Y-112341866D01*
X105846476Y-112341866D02*
X105846476Y-112103771D01*
X105846476Y-112103771D02*
X105894095Y-111913295D01*
X105894095Y-111913295D02*
X105941714Y-111818057D01*
X105941714Y-111818057D02*
X105989333Y-111770438D01*
X105989333Y-111770438D02*
X106084571Y-111722819D01*
X98385333Y-110690819D02*
X98052000Y-110214628D01*
X97813905Y-110690819D02*
X97813905Y-109690819D01*
X97813905Y-109690819D02*
X98194857Y-109690819D01*
X98194857Y-109690819D02*
X98290095Y-109738438D01*
X98290095Y-109738438D02*
X98337714Y-109786057D01*
X98337714Y-109786057D02*
X98385333Y-109881295D01*
X98385333Y-109881295D02*
X98385333Y-110024152D01*
X98385333Y-110024152D02*
X98337714Y-110119390D01*
X98337714Y-110119390D02*
X98290095Y-110167009D01*
X98290095Y-110167009D02*
X98194857Y-110214628D01*
X98194857Y-110214628D02*
X97813905Y-110214628D01*
X98718667Y-109690819D02*
X99385333Y-109690819D01*
X99385333Y-109690819D02*
X98956762Y-110690819D01*
D12*
%TO.C,D28*%
X84981617Y-118513884D02*
X85941617Y-116851116D01*
X85941617Y-116851116D02*
X83616339Y-115508616D01*
X82656339Y-117171384D02*
X84981617Y-118513884D01*
%TO.C,C9*%
X107829254Y-138452199D02*
X108072746Y-138311619D01*
X107319254Y-137568853D02*
X107562746Y-137428273D01*
D13*
%TO.C,U3*%
X104280367Y-106822369D02*
X104675066Y-105349332D01*
D12*
%TO.C,R4*%
X95180724Y-129260731D02*
X95180724Y-129735247D01*
X94135724Y-129260731D02*
X94135724Y-129735247D01*
%TO.C,D11*%
X77885000Y-127960000D02*
X77885000Y-126040000D01*
X77885000Y-126040000D02*
X75200000Y-126040000D01*
X75200000Y-127960000D02*
X77885000Y-127960000D01*
%TO.C,D12*%
X80582208Y-115973884D02*
X81542208Y-114311116D01*
X81542208Y-114311116D02*
X79216930Y-112968616D01*
X78256930Y-114631384D02*
X80582208Y-115973884D01*
%TO.C,D23*%
X111748884Y-142658383D02*
X110086116Y-143618383D01*
X110086116Y-143618383D02*
X111428616Y-145943661D01*
X113091384Y-144983661D02*
X111748884Y-142658383D01*
%TO.C,D26*%
X85941617Y-137148884D02*
X84981617Y-135486116D01*
X84981617Y-135486116D02*
X82656339Y-136828616D01*
X83616339Y-138491384D02*
X85941617Y-137148884D01*
%TO.C,D19*%
X110086116Y-110381617D02*
X111748884Y-111341617D01*
X111748884Y-111341617D02*
X113091384Y-109016339D01*
X111428616Y-108056339D02*
X110086116Y-110381617D01*
%TO.C,C4*%
X108532422Y-109964801D02*
X108459652Y-110236381D01*
X107547178Y-109700805D02*
X107474408Y-109972385D01*
%TO.C,D8*%
X102560000Y-150715000D02*
X100640000Y-150715000D01*
X100640000Y-150715000D02*
X100640000Y-153400000D01*
X102560000Y-153400000D02*
X102560000Y-150715000D01*
%TO.C,D14*%
X100640000Y-103285000D02*
X102560000Y-103285000D01*
X102560000Y-103285000D02*
X102560000Y-100600000D01*
X100640000Y-100600000D02*
X100640000Y-103285000D01*
%TO.C,D25*%
X93113884Y-143618383D02*
X91451116Y-142658383D01*
X91451116Y-142658383D02*
X90108616Y-144983661D01*
X91771384Y-145943661D02*
X93113884Y-143618383D01*
%TO.C,Y1*%
X91425000Y-131140000D02*
X92725000Y-131140000D01*
X92725000Y-131140000D02*
X92725000Y-127940000D01*
X92725000Y-127940000D02*
X91425000Y-127940000D01*
X91425000Y-127940000D02*
X91425000Y-131140000D01*
%TO.C,D10*%
X81542208Y-139688884D02*
X80582208Y-138026116D01*
X80582208Y-138026116D02*
X78256930Y-139368616D01*
X79216930Y-141031384D02*
X81542208Y-139688884D01*
%TO.C,R11*%
X108245279Y-139366131D02*
X108656221Y-139128873D01*
X108767779Y-140271127D02*
X109178721Y-140033869D01*
D10*
%TO.C,U1*%
X97975000Y-123375000D02*
X97975000Y-123600000D01*
X97975000Y-123375000D02*
X98300000Y-123375000D01*
X97975000Y-123600000D02*
X96550000Y-123600000D01*
X97975000Y-130625000D02*
X97975000Y-130300000D01*
X97975000Y-130625000D02*
X98300000Y-130625000D01*
X105225000Y-123375000D02*
X104900000Y-123375000D01*
X105225000Y-123375000D02*
X105225000Y-123700000D01*
X105225000Y-130625000D02*
X104900000Y-130625000D01*
X105225000Y-130625000D02*
X105225000Y-130300000D01*
D12*
%TO.C,C7*%
X114328000Y-131471580D02*
X114328000Y-131190420D01*
X115348000Y-131471580D02*
X115348000Y-131190420D01*
%TO.C,D4*%
X121657792Y-114311116D02*
X122617792Y-115973884D01*
X122617792Y-115973884D02*
X124943070Y-114631384D01*
X123983070Y-112968616D02*
X121657792Y-114311116D01*
%TO.C,D13*%
X88911116Y-106942208D02*
X90573884Y-105982208D01*
X90573884Y-105982208D02*
X89231384Y-103656930D01*
X87568616Y-104616930D02*
X88911116Y-106942208D01*
%TO.C,U4*%
X113690000Y-127853500D02*
X113690000Y-129528500D01*
X113690000Y-127853500D02*
X113690000Y-127203500D01*
X116810000Y-127853500D02*
X116810000Y-128503500D01*
X116810000Y-127853500D02*
X116810000Y-127203500D01*
%TO.C,U8*%
X91079000Y-137603000D02*
X91079000Y-141053000D01*
X91079000Y-137603000D02*
X91079000Y-135653000D01*
X101199000Y-137603000D02*
X101199000Y-139553000D01*
X101199000Y-137603000D02*
X101199000Y-135653000D01*
%TO.C,R14*%
X92027742Y-112253500D02*
X92502258Y-112253500D01*
X92027742Y-113298500D02*
X92502258Y-113298500D01*
D13*
%TO.C,U2*%
X93727000Y-115423000D02*
X94877000Y-115423000D01*
D12*
%TO.C,D3*%
X112626116Y-105982208D02*
X114288884Y-106942208D01*
X114288884Y-106942208D02*
X115631384Y-104616930D01*
X113968616Y-103656930D02*
X112626116Y-105982208D01*
%TO.C,U5*%
X84348000Y-123444000D02*
X84348000Y-126894000D01*
X84348000Y-123444000D02*
X84348000Y-121494000D01*
X94468000Y-123444000D02*
X94468000Y-125394000D01*
X94468000Y-123444000D02*
X94468000Y-121494000D01*
%TO.C,D22*%
X118218383Y-135486116D02*
X117258383Y-137148884D01*
X117258383Y-137148884D02*
X119583661Y-138491384D01*
X120543661Y-136828616D02*
X118218383Y-135486116D01*
%TO.C,C1*%
X109373580Y-127764000D02*
X109092420Y-127764000D01*
X109373580Y-126744000D02*
X109092420Y-126744000D01*
%TO.C,D29*%
X91451116Y-111341617D02*
X93113884Y-110381617D01*
X93113884Y-110381617D02*
X91771384Y-108056339D01*
X90108616Y-109016339D02*
X91451116Y-111341617D01*
D13*
%TO.C,Q1*%
X100355000Y-115473000D02*
X101830000Y-115473000D01*
X102180000Y-115558000D02*
X105880000Y-115558000D01*
X102180000Y-118488000D02*
X102180000Y-115558000D01*
X105880000Y-115558000D02*
X105880000Y-118488000D01*
X105880000Y-118488000D02*
X102180000Y-118488000D01*
D12*
%TO.C,R9*%
X91519742Y-116317500D02*
X91994258Y-116317500D01*
X91519742Y-117362500D02*
X91994258Y-117362500D01*
%TO.C,D20*%
X117258383Y-116851116D02*
X118218383Y-118513884D01*
X118218383Y-118513884D02*
X120543661Y-117171384D01*
X119583661Y-115508616D02*
X117258383Y-116851116D01*
%TO.C,C2*%
X97424000Y-116388580D02*
X97424000Y-116107420D01*
X98444000Y-116388580D02*
X98444000Y-116107420D01*
%TO.C,C5*%
X117766112Y-124251766D02*
X117766112Y-124532926D01*
X116746112Y-124251766D02*
X116746112Y-124532926D01*
%TO.C,D1*%
X100640000Y-114382500D02*
X102560000Y-114382500D01*
X102560000Y-114382500D02*
X102560000Y-111697500D01*
X100640000Y-111697500D02*
X100640000Y-114382500D01*
%TO.C,C10*%
X109351254Y-141088381D02*
X109594746Y-140947801D01*
X109861254Y-141971727D02*
X110104746Y-141831147D01*
%TO.C,D24*%
X102560000Y-145635000D02*
X100640000Y-145635000D01*
X100640000Y-145635000D02*
X100640000Y-148320000D01*
X102560000Y-148320000D02*
X102560000Y-145635000D01*
%TO.C,C6*%
X115256112Y-124251766D02*
X115256112Y-124532926D01*
X114236112Y-124251766D02*
X114236112Y-124532926D01*
%TO.C,D9*%
X90573884Y-148017792D02*
X88911116Y-147057792D01*
X88911116Y-147057792D02*
X87568616Y-149383070D01*
X89231384Y-150343070D02*
X90573884Y-148017792D01*
%TO.C,D30*%
X100640000Y-108365000D02*
X102560000Y-108365000D01*
X102560000Y-108365000D02*
X102560000Y-105680000D01*
X100640000Y-105680000D02*
X100640000Y-108365000D01*
%TO.C,R3*%
X88377500Y-118284258D02*
X88377500Y-117809742D01*
X89422500Y-118284258D02*
X89422500Y-117809742D01*
%TO.C,D21*%
X120235000Y-126040000D02*
X120235000Y-127960000D01*
X120235000Y-127960000D02*
X122920000Y-127960000D01*
X122920000Y-126040000D02*
X120235000Y-126040000D01*
%TO.C,D5*%
X125315000Y-126040000D02*
X125315000Y-127960000D01*
X125315000Y-127960000D02*
X128000000Y-127960000D01*
X128000000Y-126040000D02*
X125315000Y-126040000D01*
%TO.C,C8*%
X116838000Y-131471580D02*
X116838000Y-131190420D01*
X117858000Y-131471580D02*
X117858000Y-131190420D01*
%TO.C,Q3*%
X90460000Y-113870500D02*
X90460000Y-112195500D01*
X90460000Y-113870500D02*
X90460000Y-114520500D01*
X87340000Y-113870500D02*
X87340000Y-113220500D01*
X87340000Y-113870500D02*
X87340000Y-114520500D01*
%TO.C,D27*%
X82965000Y-127960000D02*
X82965000Y-126040000D01*
X82965000Y-126040000D02*
X80280000Y-126040000D01*
X80280000Y-127960000D02*
X82965000Y-127960000D01*
%TO.C,R6*%
X111193897Y-103217941D02*
X111316711Y-102759593D01*
X112203289Y-103488407D02*
X112326103Y-103030059D01*
%TO.C,D6*%
X122617792Y-138026116D02*
X121657792Y-139688884D01*
X121657792Y-139688884D02*
X123983070Y-141031384D01*
X124943070Y-139368616D02*
X122617792Y-138026116D01*
%TO.C,D7*%
X114288884Y-147057792D02*
X112626116Y-148017792D01*
X112626116Y-148017792D02*
X113968616Y-150343070D01*
X115631384Y-149383070D02*
X114288884Y-147057792D01*
%TO.C,R10*%
X104929000Y-109955064D02*
X104929000Y-109500936D01*
X106399000Y-109955064D02*
X106399000Y-109500936D01*
%TO.C,R7*%
X98505742Y-111237500D02*
X98980258Y-111237500D01*
X98505742Y-112282500D02*
X98980258Y-112282500D01*
%TD*%
M02*
