%TF.GenerationSoftware,KiCad,Pcbnew,7.0.9*%
%TF.CreationDate,2025-01-08T15:48:33+01:00*%
%TF.ProjectId,DB-radar,44422d72-6164-4617-922e-6b696361645f,rev?*%
%TF.SameCoordinates,Original*%
%TF.FileFunction,Copper,L2,Inr*%
%TF.FilePolarity,Positive*%
%FSLAX46Y46*%
G04 Gerber Fmt 4.6, Leading zero omitted, Abs format (unit mm)*
G04 Created by KiCad (PCBNEW 7.0.9) date 2025-01-08 15:48:33*
%MOMM*%
%LPD*%
G01*
G04 APERTURE LIST*
%TA.AperFunction,ComponentPad*%
%ADD10O,1.000000X1.600000*%
%TD*%
%TA.AperFunction,ComponentPad*%
%ADD11O,1.000000X2.100000*%
%TD*%
%TA.AperFunction,ViaPad*%
%ADD12C,0.800000*%
%TD*%
%TA.AperFunction,Conductor*%
%ADD13C,0.250000*%
%TD*%
G04 APERTURE END LIST*
D10*
%TO.N,GND*%
%TO.C,J1*%
X105920000Y-155564000D03*
D11*
X105920000Y-151384000D03*
D10*
X97280000Y-155564000D03*
D11*
X97280000Y-151384000D03*
%TD*%
D12*
%TO.N,GND*%
X81788000Y-123444000D03*
X123444000Y-132588000D03*
X125984000Y-119380000D03*
%TO.N,BAT+*%
X112776000Y-100076000D03*
X98044000Y-142240000D03*
X115044652Y-126628853D03*
%TO.N,-BATT*%
X95871861Y-115481438D03*
%TO.N,GND*%
X128524000Y-135128000D03*
X112776000Y-133096000D03*
X123951749Y-117122364D03*
X73660000Y-119888000D03*
X122936000Y-121412000D03*
X115824000Y-102108000D03*
X104668372Y-126612910D03*
X109322312Y-121333159D03*
X79756000Y-118364000D03*
X91948000Y-152908000D03*
X119236942Y-104492107D03*
X97536000Y-108712000D03*
X78740000Y-109728000D03*
X120396000Y-121412000D03*
X108712000Y-113792000D03*
X108712000Y-105156000D03*
X107188000Y-126492000D03*
X127508000Y-115824000D03*
X99568000Y-143764000D03*
X120904000Y-131572000D03*
X106680000Y-145288000D03*
X83312000Y-106172000D03*
X94996000Y-150876000D03*
X108712000Y-104140000D03*
X121412000Y-107188000D03*
X73152000Y-131064000D03*
X83312000Y-140716000D03*
X82804000Y-143764000D03*
X109220000Y-135128000D03*
X96012000Y-103632000D03*
X102108000Y-99060000D03*
X118114205Y-111124890D03*
X125984000Y-131572000D03*
X125476000Y-136144000D03*
X109220000Y-100076000D03*
X115315999Y-121108612D03*
X116332000Y-134620000D03*
X78740000Y-142240000D03*
X116332000Y-114300000D03*
%TO.N,Net-(U2-VCC)*%
X111252000Y-104140000D03*
X98044000Y-116840000D03*
%TO.N,5V*%
X97536000Y-112776000D03*
X94996000Y-144780000D03*
%TO.N,VCC*%
X76722883Y-128427037D03*
X107188000Y-135128000D03*
X113792000Y-122428000D03*
X104648000Y-100076000D03*
X93980000Y-138684000D03*
X77708983Y-132107214D03*
X123157884Y-119346778D03*
X118364000Y-109728000D03*
X84963000Y-120969000D03*
X91440000Y-135128000D03*
X104140000Y-129032000D03*
%TO.N,DTR*%
X120214944Y-148604607D03*
%TO.N,RESET*%
X111252000Y-141072264D03*
X101092000Y-124968000D03*
X123040587Y-145564656D03*
%TO.N,Net-(D1-K)*%
X107696000Y-101600000D03*
X101600000Y-113792000D03*
%TO.N,VCC_bat*%
X111764299Y-124455701D03*
X113221107Y-115765545D03*
%TO.N,Net-(D11-K)*%
X112776000Y-139192000D03*
X116840000Y-143256000D03*
X124460000Y-127000000D03*
X77216000Y-125984000D03*
%TO.N,Net-(D3-A)*%
X126026297Y-139931568D03*
X93789174Y-154752750D03*
X109728000Y-153416000D03*
%TO.N,Net-(D12-K)*%
X124968000Y-123444000D03*
X118872000Y-123952000D03*
X101600000Y-152250500D03*
X80772000Y-113792000D03*
%TO.N,Net-(D13-K)*%
X90424000Y-105156000D03*
X90424000Y-148844000D03*
X125984000Y-128524000D03*
X117856000Y-127508000D03*
%TO.N,Net-(D10-K)*%
X123952000Y-137668000D03*
X80772000Y-140208000D03*
X118299000Y-122555000D03*
X102616000Y-102108000D03*
%TO.N,Net-(D10-A)*%
X75692000Y-131064000D03*
%TO.N,Net-(D11-A)*%
X75692000Y-130048000D03*
%TO.N,Net-(D19-K)*%
X91313000Y-120969000D03*
X112268000Y-110744000D03*
X111566750Y-143932890D03*
%TO.N,Net-(D20-K)*%
X118872000Y-118364000D03*
X86233000Y-120969000D03*
X101600000Y-146304000D03*
%TO.N,Net-(D21-K)*%
X88900000Y-130556000D03*
X91948000Y-110236000D03*
X87503000Y-120969000D03*
X91725002Y-143831541D03*
X121770521Y-127485162D03*
%TO.N,Net-(D22-K)*%
X117856000Y-136144000D03*
X90043000Y-120969000D03*
X101600000Y-107696000D03*
X84836000Y-136652000D03*
%TO.N,RX*%
X99060000Y-125476000D03*
%TO.N,TX*%
X99568000Y-123952000D03*
%TO.N,SCK*%
X105664000Y-132588000D03*
%TO.N,MOSI*%
X103632000Y-130048000D03*
%TO.N,MISO*%
X105125500Y-131572000D03*
%TO.N,Net-(Q1-D12_1)*%
X106953160Y-115750682D03*
X101092000Y-115824000D03*
%TO.N,BUT_3*%
X92964000Y-123952000D03*
%TO.N,LED_PWM*%
X102118858Y-129724500D03*
X95504000Y-110236000D03*
X85344000Y-128016000D03*
%TO.N,A*%
X97758274Y-120104500D03*
%TO.N,B*%
X101600000Y-120104500D03*
%TO.N,C*%
X106013500Y-121920000D03*
%TO.N,D*%
X104648000Y-121350498D03*
%TD*%
D13*
%TO.N,Net-(D12-K)*%
X121412000Y-123952000D02*
X118872000Y-123952000D01*
X122495521Y-125035521D02*
X121412000Y-123952000D01*
X111769305Y-149352000D02*
X122495521Y-138625784D01*
X104431500Y-149352000D02*
X111769305Y-149352000D01*
X101600000Y-152183500D02*
X104431500Y-149352000D01*
X122495521Y-138625784D02*
X122495521Y-125035521D01*
X101600000Y-152250500D02*
X101600000Y-152183500D01*
%TO.N,Net-(U2-VCC)*%
X102108000Y-116840000D02*
X98044000Y-116840000D01*
X111252000Y-107696000D02*
X102108000Y-116840000D01*
X111252000Y-104140000D02*
X111252000Y-107696000D01*
%TO.N,Net-(D1-K)*%
X101600000Y-113792000D02*
X107696000Y-107696000D01*
X107696000Y-107696000D02*
X107696000Y-101600000D01*
%TO.N,Net-(D11-K)*%
X84826695Y-137668000D02*
X77447883Y-130289188D01*
X111252000Y-137668000D02*
X84826695Y-137668000D01*
X116840000Y-143256000D02*
X111252000Y-137668000D01*
X77447883Y-130289188D02*
X77447883Y-126215883D01*
X77447883Y-126215883D02*
X77216000Y-125984000D01*
%TO.N,Net-(D3-A)*%
X109728000Y-153415999D02*
G75*
G03*
X126112697Y-139767030I-8128000J26415999D01*
G01*
%TO.N,Net-(D19-K)*%
X112268000Y-111461147D02*
X112268000Y-110744000D01*
X92772000Y-122428000D02*
X101301147Y-122428000D01*
X91313000Y-120969000D02*
X92772000Y-122428000D01*
X101301147Y-122428000D02*
X112268000Y-111461147D01*
%TO.N,Net-(D20-K)*%
X86233000Y-121889000D02*
X87280000Y-122936000D01*
X101609305Y-122936000D02*
X106181305Y-118364000D01*
X86233000Y-120969000D02*
X86233000Y-121889000D01*
X87280000Y-122936000D02*
X101609305Y-122936000D01*
X106181305Y-118364000D02*
X118872000Y-118364000D01*
%TO.N,Net-(D21-K)*%
X118482683Y-130773000D02*
X84545000Y-130773000D01*
X84545000Y-130773000D02*
X83312000Y-129540000D01*
X87503000Y-114681000D02*
X91948000Y-110236000D01*
X121770521Y-127485162D02*
X118482683Y-130773000D01*
X85914000Y-119380000D02*
X87503000Y-120969000D01*
X83312000Y-129540000D02*
X83312000Y-119888000D01*
X83312000Y-119888000D02*
X83820000Y-119380000D01*
X83820000Y-119380000D02*
X85914000Y-119380000D01*
X87503000Y-120969000D02*
X87503000Y-114681000D01*
%TO.N,Net-(D22-K)*%
X117856000Y-136144000D02*
X117348000Y-136652000D01*
X92673000Y-110536305D02*
X92673000Y-110527000D01*
X90043000Y-120969000D02*
X90043000Y-113157000D01*
X90043000Y-113157000D02*
X92239000Y-110961000D01*
X92248305Y-110961000D02*
X92673000Y-110536305D01*
X95504000Y-107696000D02*
X101600000Y-107696000D01*
X117348000Y-136652000D02*
X84836000Y-136652000D01*
X92673000Y-110527000D02*
X95504000Y-107696000D01*
X92239000Y-110961000D02*
X92248305Y-110961000D01*
%TO.N,LED_PWM*%
X85852000Y-128524000D02*
X100918358Y-128524000D01*
X85344000Y-128016000D02*
X85852000Y-128524000D01*
X100918358Y-128524000D02*
X102118858Y-129724500D01*
%TD*%
%TA.AperFunction,Conductor*%
%TO.N,VCC*%
G36*
X102688488Y-97216255D02*
G01*
X103775525Y-97275879D01*
X104859659Y-97375164D01*
X105939443Y-97513977D01*
X107013437Y-97692134D01*
X108080208Y-97909397D01*
X109138333Y-98165475D01*
X110186399Y-98460027D01*
X111223008Y-98792660D01*
X112196473Y-99144736D01*
X112252818Y-99186046D01*
X112277886Y-99251264D01*
X112263715Y-99319682D01*
X112227183Y-99361659D01*
X112170128Y-99403112D01*
X112043466Y-99543785D01*
X111948821Y-99707715D01*
X111948818Y-99707722D01*
X111904491Y-99844148D01*
X111890326Y-99887744D01*
X111870540Y-100076000D01*
X111890326Y-100264256D01*
X111890327Y-100264259D01*
X111948818Y-100444277D01*
X111948821Y-100444284D01*
X112043467Y-100608216D01*
X112125660Y-100699500D01*
X112170129Y-100748888D01*
X112323265Y-100860148D01*
X112323270Y-100860151D01*
X112496192Y-100937142D01*
X112496197Y-100937144D01*
X112681354Y-100976500D01*
X112681355Y-100976500D01*
X112870644Y-100976500D01*
X112870646Y-100976500D01*
X113055803Y-100937144D01*
X113228730Y-100860151D01*
X113381871Y-100748888D01*
X113508533Y-100608216D01*
X113603179Y-100444284D01*
X113661674Y-100264256D01*
X113681460Y-100076000D01*
X113669118Y-99958578D01*
X113681687Y-99889853D01*
X113729419Y-99838829D01*
X113797159Y-99821711D01*
X113843008Y-99832402D01*
X114250350Y-100014357D01*
X115227481Y-100494377D01*
X115825628Y-100815851D01*
X116186428Y-101009763D01*
X116210195Y-101023679D01*
X116258102Y-101074539D01*
X116270906Y-101143225D01*
X116244544Y-101207930D01*
X116187384Y-101248111D01*
X116117574Y-101251010D01*
X116109228Y-101248618D01*
X116103805Y-101246856D01*
X115980365Y-101220618D01*
X115918646Y-101207500D01*
X115729354Y-101207500D01*
X115696897Y-101214398D01*
X115544197Y-101246855D01*
X115544192Y-101246857D01*
X115371270Y-101323848D01*
X115371265Y-101323851D01*
X115218129Y-101435111D01*
X115091466Y-101575785D01*
X114996821Y-101739715D01*
X114996818Y-101739722D01*
X114938327Y-101919740D01*
X114938326Y-101919744D01*
X114918540Y-102108000D01*
X114938326Y-102296256D01*
X114938327Y-102296259D01*
X114996818Y-102476277D01*
X114996821Y-102476284D01*
X115091467Y-102640216D01*
X115173660Y-102731500D01*
X115218129Y-102780888D01*
X115371265Y-102892148D01*
X115371270Y-102892151D01*
X115544192Y-102969142D01*
X115544197Y-102969144D01*
X115729354Y-103008500D01*
X115729355Y-103008500D01*
X115918644Y-103008500D01*
X115918646Y-103008500D01*
X116103803Y-102969144D01*
X116276730Y-102892151D01*
X116429871Y-102780888D01*
X116556533Y-102640216D01*
X116651179Y-102476284D01*
X116709674Y-102296256D01*
X116729460Y-102108000D01*
X116709674Y-101919744D01*
X116651179Y-101739716D01*
X116556533Y-101575784D01*
X116429871Y-101435112D01*
X116429870Y-101435111D01*
X116425684Y-101430462D01*
X116395454Y-101367471D01*
X116404079Y-101298136D01*
X116448820Y-101244470D01*
X116515473Y-101223512D01*
X116580483Y-101240481D01*
X117125913Y-101559828D01*
X118044681Y-102143838D01*
X118941507Y-102761014D01*
X119815195Y-103410532D01*
X120664577Y-104091526D01*
X121488522Y-104803086D01*
X122285930Y-105544264D01*
X123055736Y-106314070D01*
X123796914Y-107111478D01*
X124508474Y-107935423D01*
X125189468Y-108784805D01*
X125838986Y-109658493D01*
X126456162Y-110555319D01*
X127040172Y-111474087D01*
X127590237Y-112413572D01*
X128105623Y-113372519D01*
X128507224Y-114190020D01*
X128585643Y-114349650D01*
X129029656Y-115343660D01*
X129437070Y-116353223D01*
X129807340Y-117376992D01*
X130139973Y-118413601D01*
X130434525Y-119461667D01*
X130690603Y-120519792D01*
X130907866Y-121586563D01*
X131086023Y-122660557D01*
X131224836Y-123740341D01*
X131324121Y-124824475D01*
X131383745Y-125911512D01*
X131403629Y-127000000D01*
X131389305Y-127784151D01*
X131383745Y-128088489D01*
X131324121Y-129175525D01*
X131224836Y-130259659D01*
X131086023Y-131339443D01*
X130907866Y-132413437D01*
X130690603Y-133480208D01*
X130434525Y-134538333D01*
X130139973Y-135586399D01*
X129807340Y-136623008D01*
X129437070Y-137646777D01*
X129029656Y-138656340D01*
X128585643Y-139650350D01*
X128105623Y-140627481D01*
X127590237Y-141586428D01*
X127040172Y-142525913D01*
X126456162Y-143444681D01*
X125838986Y-144341507D01*
X125189468Y-145215195D01*
X124508474Y-146064577D01*
X123796914Y-146888522D01*
X123055736Y-147685930D01*
X122285930Y-148455736D01*
X121488522Y-149196914D01*
X120664577Y-149908474D01*
X119815195Y-150589468D01*
X118941507Y-151238986D01*
X118044681Y-151856162D01*
X117125913Y-152440172D01*
X116186428Y-152990237D01*
X115227481Y-153505623D01*
X114514293Y-153855980D01*
X114250350Y-153985643D01*
X113256340Y-154429656D01*
X112246777Y-154837070D01*
X111223008Y-155207340D01*
X110186399Y-155539973D01*
X109138333Y-155834525D01*
X108080208Y-156090603D01*
X107027070Y-156305089D01*
X106957451Y-156299179D01*
X106902079Y-156256568D01*
X106878533Y-156190785D01*
X106880861Y-156158626D01*
X106920500Y-155965741D01*
X106920500Y-155213258D01*
X106905074Y-155061562D01*
X106905074Y-155061560D01*
X106844162Y-154867420D01*
X106844160Y-154867416D01*
X106844159Y-154867412D01*
X106745409Y-154689498D01*
X106745408Y-154689497D01*
X106745407Y-154689495D01*
X106612867Y-154535106D01*
X106612865Y-154535104D01*
X106451962Y-154410554D01*
X106451959Y-154410553D01*
X106451958Y-154410552D01*
X106269271Y-154320940D01*
X106072285Y-154269937D01*
X106072287Y-154269937D01*
X105936804Y-154263066D01*
X105869064Y-154259631D01*
X105869063Y-154259631D01*
X105869061Y-154259631D01*
X105667936Y-154290442D01*
X105667924Y-154290445D01*
X105477118Y-154361111D01*
X105477111Y-154361115D01*
X105304432Y-154468745D01*
X105304427Y-154468749D01*
X105156949Y-154608938D01*
X105156948Y-154608940D01*
X105040705Y-154775949D01*
X104960459Y-154962943D01*
X104919500Y-155162258D01*
X104919500Y-155914743D01*
X104934925Y-156066439D01*
X104995837Y-156260579D01*
X104995844Y-156260594D01*
X105086753Y-156424381D01*
X105102076Y-156492549D01*
X105078112Y-156558181D01*
X105022469Y-156600438D01*
X104994146Y-156607546D01*
X104877267Y-156622572D01*
X104859659Y-156624836D01*
X103775525Y-156724121D01*
X102688488Y-156783745D01*
X101600000Y-156803629D01*
X100511512Y-156783745D01*
X99424475Y-156724121D01*
X98340341Y-156624836D01*
X98202622Y-156607131D01*
X98138640Y-156579059D01*
X98099991Y-156520852D01*
X98098947Y-156450990D01*
X98116657Y-156413308D01*
X98159295Y-156352049D01*
X98239540Y-156165058D01*
X98280500Y-155965741D01*
X98280500Y-155213258D01*
X98265074Y-155061562D01*
X98265074Y-155061560D01*
X98204162Y-154867420D01*
X98204160Y-154867416D01*
X98204159Y-154867412D01*
X98105409Y-154689498D01*
X98105408Y-154689497D01*
X98105407Y-154689495D01*
X97972867Y-154535106D01*
X97972865Y-154535104D01*
X97811962Y-154410554D01*
X97811959Y-154410553D01*
X97811958Y-154410552D01*
X97629271Y-154320940D01*
X97432285Y-154269937D01*
X97432287Y-154269937D01*
X97296804Y-154263066D01*
X97229064Y-154259631D01*
X97229063Y-154259631D01*
X97229061Y-154259631D01*
X97027936Y-154290442D01*
X97027924Y-154290445D01*
X96837118Y-154361111D01*
X96837111Y-154361115D01*
X96664432Y-154468745D01*
X96664427Y-154468749D01*
X96516949Y-154608938D01*
X96516948Y-154608940D01*
X96400705Y-154775949D01*
X96320459Y-154962943D01*
X96279500Y-155162258D01*
X96279500Y-155914743D01*
X96294925Y-156066439D01*
X96320309Y-156147342D01*
X96321596Y-156217200D01*
X96284911Y-156276664D01*
X96221901Y-156306855D01*
X96177250Y-156305969D01*
X95119792Y-156090603D01*
X94099344Y-155843643D01*
X94038815Y-155808741D01*
X94006765Y-155746657D01*
X94013368Y-155677100D01*
X94056528Y-155622154D01*
X94078072Y-155609844D01*
X94241904Y-155536901D01*
X94395045Y-155425638D01*
X94521707Y-155284966D01*
X94616353Y-155121034D01*
X94674848Y-154941006D01*
X94694634Y-154752750D01*
X94674848Y-154564494D01*
X94616353Y-154384466D01*
X94521707Y-154220534D01*
X94395045Y-154079862D01*
X94395044Y-154079861D01*
X94241908Y-153968601D01*
X94241903Y-153968598D01*
X94068981Y-153891607D01*
X94068976Y-153891605D01*
X93901368Y-153855980D01*
X93883820Y-153852250D01*
X93694528Y-153852250D01*
X93676980Y-153855980D01*
X93509371Y-153891605D01*
X93509366Y-153891607D01*
X93336444Y-153968598D01*
X93336439Y-153968601D01*
X93183303Y-154079861D01*
X93056640Y-154220535D01*
X92961995Y-154384465D01*
X92961992Y-154384472D01*
X92903501Y-154564490D01*
X92903500Y-154564494D01*
X92883714Y-154752750D01*
X92903500Y-154941006D01*
X92903501Y-154941009D01*
X92961992Y-155121027D01*
X92961995Y-155121034D01*
X93056640Y-155284965D01*
X93089625Y-155321598D01*
X93119856Y-155384590D01*
X93111231Y-155453925D01*
X93066490Y-155507591D01*
X92999838Y-155528549D01*
X92959589Y-155522641D01*
X91976992Y-155207340D01*
X90953223Y-154837070D01*
X89943660Y-154429656D01*
X88949650Y-153985643D01*
X88685707Y-153855980D01*
X87972519Y-153505623D01*
X87013572Y-152990237D01*
X86873115Y-152908000D01*
X91042540Y-152908000D01*
X91062326Y-153096256D01*
X91062327Y-153096259D01*
X91120818Y-153276277D01*
X91120821Y-153276284D01*
X91215467Y-153440216D01*
X91342129Y-153580888D01*
X91495265Y-153692148D01*
X91495270Y-153692151D01*
X91668192Y-153769142D01*
X91668197Y-153769144D01*
X91853354Y-153808500D01*
X91853355Y-153808500D01*
X92042644Y-153808500D01*
X92042646Y-153808500D01*
X92227803Y-153769144D01*
X92400730Y-153692151D01*
X92553871Y-153580888D01*
X92680533Y-153440216D01*
X92694514Y-153416000D01*
X108822540Y-153416000D01*
X108842326Y-153604256D01*
X108842327Y-153604259D01*
X108900818Y-153784277D01*
X108900821Y-153784284D01*
X108995467Y-153948216D01*
X109013822Y-153968601D01*
X109122129Y-154088888D01*
X109275265Y-154200148D01*
X109275270Y-154200151D01*
X109448192Y-154277142D01*
X109448197Y-154277144D01*
X109633354Y-154316500D01*
X109633355Y-154316500D01*
X109822644Y-154316500D01*
X109822646Y-154316500D01*
X110007803Y-154277144D01*
X110180730Y-154200151D01*
X110333871Y-154088888D01*
X110460533Y-153948216D01*
X110513786Y-153855977D01*
X110564351Y-153807764D01*
X110580457Y-153800854D01*
X111359667Y-153530028D01*
X112308364Y-153161507D01*
X113243179Y-152759074D01*
X114162903Y-152323250D01*
X115066341Y-151854600D01*
X115952324Y-151353733D01*
X116819702Y-150821297D01*
X117667351Y-150257982D01*
X118494174Y-149664519D01*
X119275552Y-149059893D01*
X119340615Y-149034437D01*
X119409117Y-149048197D01*
X119458821Y-149095964D01*
X119482411Y-149136823D01*
X119550357Y-149212284D01*
X119609073Y-149277495D01*
X119762209Y-149388755D01*
X119762214Y-149388758D01*
X119935136Y-149465749D01*
X119935141Y-149465751D01*
X120120298Y-149505107D01*
X120120299Y-149505107D01*
X120309588Y-149505107D01*
X120309590Y-149505107D01*
X120494747Y-149465751D01*
X120667674Y-149388758D01*
X120820815Y-149277495D01*
X120947477Y-149136823D01*
X121042123Y-148972891D01*
X121100618Y-148792863D01*
X121120404Y-148604607D01*
X121100618Y-148416351D01*
X121042123Y-148236323D01*
X120947477Y-148072391D01*
X120897866Y-148017293D01*
X120820820Y-147931723D01*
X120820817Y-147931721D01*
X120820816Y-147931720D01*
X120820815Y-147931719D01*
X120819144Y-147930505D01*
X120818413Y-147929556D01*
X120815991Y-147927376D01*
X120816389Y-147926932D01*
X120776479Y-147875177D01*
X120770498Y-147805564D01*
X120803103Y-147743769D01*
X120809266Y-147737849D01*
X120839100Y-147711121D01*
X121572185Y-147005132D01*
X122279381Y-146273212D01*
X122285441Y-146266470D01*
X122344895Y-146229771D01*
X122414754Y-146231042D01*
X122450546Y-146249046D01*
X122587852Y-146348804D01*
X122587857Y-146348807D01*
X122760779Y-146425798D01*
X122760784Y-146425800D01*
X122945941Y-146465156D01*
X122945942Y-146465156D01*
X123135231Y-146465156D01*
X123135233Y-146465156D01*
X123320390Y-146425800D01*
X123493317Y-146348807D01*
X123646458Y-146237544D01*
X123773120Y-146096872D01*
X123867766Y-145932940D01*
X123926261Y-145752912D01*
X123946047Y-145564656D01*
X123926261Y-145376400D01*
X123867766Y-145196372D01*
X123773120Y-145032440D01*
X123646458Y-144891768D01*
X123646457Y-144891767D01*
X123641624Y-144887415D01*
X123643414Y-144885426D01*
X123607997Y-144839461D01*
X123602043Y-144769846D01*
X123625619Y-144718470D01*
X124236642Y-143931508D01*
X124831467Y-143105665D01*
X125396178Y-142258945D01*
X125930043Y-141392446D01*
X126238565Y-140848794D01*
X126288772Y-140800205D01*
X126300180Y-140795398D01*
X126300162Y-140795356D01*
X126355568Y-140770686D01*
X126479027Y-140715719D01*
X126632168Y-140604456D01*
X126758830Y-140463784D01*
X126853476Y-140299852D01*
X126911971Y-140119824D01*
X126931757Y-139931568D01*
X126911971Y-139743312D01*
X126853476Y-139563284D01*
X126758830Y-139399352D01*
X126632168Y-139258680D01*
X126632167Y-139258679D01*
X126479031Y-139147419D01*
X126479026Y-139147416D01*
X126306104Y-139070425D01*
X126306099Y-139070423D01*
X126138430Y-139034785D01*
X126120943Y-139031068D01*
X125931651Y-139031068D01*
X125914164Y-139034785D01*
X125746494Y-139070423D01*
X125746489Y-139070425D01*
X125573567Y-139147416D01*
X125573562Y-139147419D01*
X125420426Y-139258679D01*
X125293763Y-139399353D01*
X125199118Y-139563283D01*
X125199115Y-139563290D01*
X125142986Y-139736038D01*
X125140623Y-139743312D01*
X125127845Y-139864888D01*
X125120837Y-139931568D01*
X125140623Y-140119826D01*
X125149664Y-140147650D01*
X125151658Y-140217491D01*
X125140662Y-140245214D01*
X125093221Y-140332435D01*
X124598056Y-141169497D01*
X124073080Y-141988193D01*
X123518973Y-142787460D01*
X122936453Y-143566262D01*
X122326276Y-144323590D01*
X121689231Y-145058462D01*
X121026146Y-145769925D01*
X120337880Y-146457058D01*
X119625325Y-147118970D01*
X118889403Y-147754802D01*
X118131071Y-148363730D01*
X117351310Y-148944965D01*
X116551131Y-149497754D01*
X115731571Y-150021380D01*
X114893693Y-150515165D01*
X114038583Y-150978467D01*
X113167350Y-151410688D01*
X112281122Y-151811265D01*
X111381049Y-152179681D01*
X110468297Y-152515458D01*
X110197381Y-152604185D01*
X110127544Y-152606344D01*
X110108351Y-152599623D01*
X110007807Y-152554857D01*
X110007802Y-152554855D01*
X109862001Y-152523865D01*
X109822646Y-152515500D01*
X109633354Y-152515500D01*
X109600897Y-152522398D01*
X109448197Y-152554855D01*
X109448192Y-152554857D01*
X109275270Y-152631848D01*
X109275265Y-152631851D01*
X109122129Y-152743111D01*
X108995466Y-152883785D01*
X108900821Y-153047715D01*
X108900818Y-153047722D01*
X108842327Y-153227740D01*
X108842326Y-153227744D01*
X108822540Y-153416000D01*
X92694514Y-153416000D01*
X92775179Y-153276284D01*
X92833674Y-153096256D01*
X92853460Y-152908000D01*
X92833674Y-152719744D01*
X92775179Y-152539716D01*
X92680533Y-152375784D01*
X92553871Y-152235112D01*
X92553794Y-152235056D01*
X92400734Y-152123851D01*
X92400729Y-152123848D01*
X92227807Y-152046857D01*
X92227802Y-152046855D01*
X92082001Y-152015865D01*
X92042646Y-152007500D01*
X91853354Y-152007500D01*
X91820897Y-152014398D01*
X91668197Y-152046855D01*
X91668192Y-152046857D01*
X91495270Y-152123848D01*
X91495265Y-152123851D01*
X91342129Y-152235111D01*
X91215466Y-152375785D01*
X91120821Y-152539715D01*
X91120818Y-152539722D01*
X91090884Y-152631851D01*
X91062326Y-152719744D01*
X91042540Y-152908000D01*
X86873115Y-152908000D01*
X86074087Y-152440172D01*
X85357603Y-151984743D01*
X96279500Y-151984743D01*
X96294925Y-152136439D01*
X96355837Y-152330579D01*
X96355844Y-152330594D01*
X96454589Y-152508499D01*
X96454592Y-152508504D01*
X96587132Y-152662893D01*
X96587134Y-152662895D01*
X96748037Y-152787445D01*
X96748038Y-152787445D01*
X96748042Y-152787448D01*
X96930729Y-152877060D01*
X97127715Y-152928063D01*
X97330936Y-152938369D01*
X97532071Y-152907556D01*
X97722887Y-152836886D01*
X97895571Y-152729252D01*
X98043053Y-152589059D01*
X98159295Y-152422049D01*
X98162645Y-152414240D01*
X98207167Y-152360398D01*
X98273734Y-152339171D01*
X98341210Y-152357303D01*
X98352074Y-152364755D01*
X98419767Y-152416698D01*
X98559764Y-152474687D01*
X98672280Y-152489500D01*
X98672287Y-152489500D01*
X98747713Y-152489500D01*
X98747720Y-152489500D01*
X98860236Y-152474687D01*
X99000233Y-152416698D01*
X99120451Y-152324451D01*
X99212698Y-152204233D01*
X99270687Y-152064236D01*
X99290466Y-151914000D01*
X99270687Y-151763764D01*
X99212698Y-151623767D01*
X99120451Y-151503549D01*
X99000233Y-151411302D01*
X99000229Y-151411300D01*
X98936801Y-151385027D01*
X98860236Y-151353313D01*
X98838467Y-151350447D01*
X98747727Y-151338500D01*
X98747720Y-151338500D01*
X98672280Y-151338500D01*
X98672272Y-151338500D01*
X98559764Y-151353313D01*
X98559760Y-151353314D01*
X98451952Y-151397969D01*
X98382482Y-151405438D01*
X98320003Y-151374162D01*
X98284352Y-151314073D01*
X98280500Y-151283408D01*
X98280500Y-150783256D01*
X98265074Y-150631560D01*
X98204162Y-150437420D01*
X98204160Y-150437416D01*
X98204159Y-150437412D01*
X98105409Y-150259498D01*
X98105408Y-150259497D01*
X98105407Y-150259495D01*
X97972867Y-150105106D01*
X97972865Y-150105104D01*
X97811962Y-149980554D01*
X97811959Y-149980553D01*
X97811958Y-149980552D01*
X97629271Y-149890940D01*
X97432285Y-149839937D01*
X97432287Y-149839937D01*
X97296804Y-149833066D01*
X97229064Y-149829631D01*
X97229063Y-149829631D01*
X97229061Y-149829631D01*
X97027936Y-149860442D01*
X97027924Y-149860445D01*
X96837118Y-149931111D01*
X96837111Y-149931115D01*
X96664432Y-150038745D01*
X96664427Y-150038749D01*
X96516949Y-150178938D01*
X96516948Y-150178940D01*
X96400705Y-150345949D01*
X96320459Y-150532943D01*
X96279500Y-150732258D01*
X96279500Y-151984743D01*
X85357603Y-151984743D01*
X85155319Y-151856162D01*
X84258493Y-151238986D01*
X83770229Y-150876000D01*
X94090540Y-150876000D01*
X94110326Y-151064256D01*
X94110327Y-151064259D01*
X94168818Y-151244277D01*
X94168821Y-151244284D01*
X94263467Y-151408216D01*
X94371658Y-151528374D01*
X94390129Y-151548888D01*
X94543265Y-151660148D01*
X94543270Y-151660151D01*
X94716192Y-151737142D01*
X94716197Y-151737144D01*
X94901354Y-151776500D01*
X94901355Y-151776500D01*
X95090644Y-151776500D01*
X95090646Y-151776500D01*
X95275803Y-151737144D01*
X95448730Y-151660151D01*
X95601871Y-151548888D01*
X95728533Y-151408216D01*
X95823179Y-151244284D01*
X95881674Y-151064256D01*
X95901460Y-150876000D01*
X95881674Y-150687744D01*
X95823179Y-150507716D01*
X95728533Y-150343784D01*
X95601871Y-150203112D01*
X95601870Y-150203111D01*
X95448734Y-150091851D01*
X95448729Y-150091848D01*
X95275807Y-150014857D01*
X95275802Y-150014855D01*
X95114423Y-149980554D01*
X95090646Y-149975500D01*
X94901354Y-149975500D01*
X94877577Y-149980554D01*
X94716197Y-150014855D01*
X94716192Y-150014857D01*
X94543270Y-150091848D01*
X94543265Y-150091851D01*
X94390129Y-150203111D01*
X94263466Y-150343785D01*
X94168821Y-150507715D01*
X94168818Y-150507722D01*
X94110327Y-150687740D01*
X94110326Y-150687744D01*
X94090540Y-150876000D01*
X83770229Y-150876000D01*
X83384805Y-150589468D01*
X82535423Y-149908474D01*
X81711478Y-149196914D01*
X81331790Y-148844000D01*
X89518540Y-148844000D01*
X89538326Y-149032256D01*
X89538327Y-149032259D01*
X89596818Y-149212277D01*
X89596821Y-149212284D01*
X89691467Y-149376216D01*
X89772083Y-149465749D01*
X89818129Y-149516888D01*
X89971265Y-149628148D01*
X89971270Y-149628151D01*
X90144192Y-149705142D01*
X90144197Y-149705144D01*
X90329354Y-149744500D01*
X90329355Y-149744500D01*
X90518644Y-149744500D01*
X90518646Y-149744500D01*
X90703803Y-149705144D01*
X90876730Y-149628151D01*
X91029871Y-149516888D01*
X91156533Y-149376216D01*
X91251179Y-149212284D01*
X91309674Y-149032256D01*
X91329460Y-148844000D01*
X91309674Y-148655744D01*
X91251179Y-148475716D01*
X91156533Y-148311784D01*
X91029871Y-148171112D01*
X91029870Y-148171111D01*
X90876734Y-148059851D01*
X90876729Y-148059848D01*
X90703807Y-147982857D01*
X90703802Y-147982855D01*
X90558001Y-147951865D01*
X90518646Y-147943500D01*
X90329354Y-147943500D01*
X90296897Y-147950398D01*
X90144197Y-147982855D01*
X90144192Y-147982857D01*
X89971270Y-148059848D01*
X89971265Y-148059851D01*
X89818129Y-148171111D01*
X89691466Y-148311785D01*
X89596821Y-148475715D01*
X89596818Y-148475722D01*
X89538327Y-148655740D01*
X89538326Y-148655744D01*
X89518540Y-148844000D01*
X81331790Y-148844000D01*
X80914070Y-148455736D01*
X80144264Y-147685930D01*
X79403086Y-146888522D01*
X78898292Y-146304000D01*
X100694540Y-146304000D01*
X100714326Y-146492256D01*
X100714327Y-146492259D01*
X100772818Y-146672277D01*
X100772821Y-146672284D01*
X100867467Y-146836216D01*
X100914564Y-146888522D01*
X100994129Y-146976888D01*
X101147265Y-147088148D01*
X101147270Y-147088151D01*
X101320192Y-147165142D01*
X101320197Y-147165144D01*
X101505354Y-147204500D01*
X101505355Y-147204500D01*
X101694644Y-147204500D01*
X101694646Y-147204500D01*
X101879803Y-147165144D01*
X102052730Y-147088151D01*
X102205871Y-146976888D01*
X102332533Y-146836216D01*
X102427179Y-146672284D01*
X102485674Y-146492256D01*
X102505460Y-146304000D01*
X102485674Y-146115744D01*
X102427179Y-145935716D01*
X102332533Y-145771784D01*
X102205871Y-145631112D01*
X102205870Y-145631111D01*
X102052734Y-145519851D01*
X102052729Y-145519848D01*
X101879807Y-145442857D01*
X101879802Y-145442855D01*
X101734001Y-145411865D01*
X101694646Y-145403500D01*
X101505354Y-145403500D01*
X101472897Y-145410398D01*
X101320197Y-145442855D01*
X101320192Y-145442857D01*
X101147270Y-145519848D01*
X101147265Y-145519851D01*
X100994129Y-145631111D01*
X100867466Y-145771785D01*
X100772821Y-145935715D01*
X100772818Y-145935722D01*
X100720458Y-146096872D01*
X100714326Y-146115744D01*
X100694540Y-146304000D01*
X78898292Y-146304000D01*
X78691526Y-146064577D01*
X78010532Y-145215195D01*
X77686999Y-144780000D01*
X94090540Y-144780000D01*
X94110326Y-144968256D01*
X94110327Y-144968259D01*
X94168818Y-145148277D01*
X94168821Y-145148284D01*
X94263467Y-145312216D01*
X94321259Y-145376400D01*
X94390129Y-145452888D01*
X94543265Y-145564148D01*
X94543270Y-145564151D01*
X94716192Y-145641142D01*
X94716197Y-145641144D01*
X94901354Y-145680500D01*
X94901355Y-145680500D01*
X95090644Y-145680500D01*
X95090646Y-145680500D01*
X95275803Y-145641144D01*
X95448730Y-145564151D01*
X95601871Y-145452888D01*
X95728533Y-145312216D01*
X95742514Y-145288000D01*
X105774540Y-145288000D01*
X105794326Y-145476256D01*
X105794327Y-145476259D01*
X105852818Y-145656277D01*
X105852821Y-145656284D01*
X105947467Y-145820216D01*
X106074129Y-145960888D01*
X106227265Y-146072148D01*
X106227270Y-146072151D01*
X106400192Y-146149142D01*
X106400197Y-146149144D01*
X106585354Y-146188500D01*
X106585355Y-146188500D01*
X106774644Y-146188500D01*
X106774646Y-146188500D01*
X106959803Y-146149144D01*
X107132730Y-146072151D01*
X107285871Y-145960888D01*
X107412533Y-145820216D01*
X107507179Y-145656284D01*
X107565674Y-145476256D01*
X107585460Y-145288000D01*
X107565674Y-145099744D01*
X107507179Y-144919716D01*
X107412533Y-144755784D01*
X107285871Y-144615112D01*
X107253708Y-144591744D01*
X107132734Y-144503851D01*
X107132729Y-144503848D01*
X106959807Y-144426857D01*
X106959802Y-144426855D01*
X106814001Y-144395865D01*
X106774646Y-144387500D01*
X106585354Y-144387500D01*
X106552897Y-144394398D01*
X106400197Y-144426855D01*
X106400192Y-144426857D01*
X106227270Y-144503848D01*
X106227265Y-144503851D01*
X106074129Y-144615111D01*
X105947466Y-144755785D01*
X105852821Y-144919715D01*
X105852818Y-144919722D01*
X105816194Y-145032441D01*
X105794326Y-145099744D01*
X105774540Y-145288000D01*
X95742514Y-145288000D01*
X95823179Y-145148284D01*
X95881674Y-144968256D01*
X95901460Y-144780000D01*
X95881674Y-144591744D01*
X95823179Y-144411716D01*
X95728533Y-144247784D01*
X95601871Y-144107112D01*
X95601870Y-144107111D01*
X95448734Y-143995851D01*
X95448729Y-143995848D01*
X95275807Y-143918857D01*
X95275802Y-143918855D01*
X95130001Y-143887865D01*
X95090646Y-143879500D01*
X94901354Y-143879500D01*
X94868897Y-143886398D01*
X94716197Y-143918855D01*
X94716192Y-143918857D01*
X94543270Y-143995848D01*
X94543265Y-143995851D01*
X94390129Y-144107111D01*
X94263466Y-144247785D01*
X94168821Y-144411715D01*
X94168818Y-144411722D01*
X94124491Y-144548148D01*
X94110326Y-144591744D01*
X94090540Y-144780000D01*
X77686999Y-144780000D01*
X77361014Y-144341507D01*
X76963586Y-143764000D01*
X81898540Y-143764000D01*
X81918326Y-143952256D01*
X81918327Y-143952259D01*
X81976818Y-144132277D01*
X81976821Y-144132284D01*
X82071467Y-144296216D01*
X82189095Y-144426855D01*
X82198129Y-144436888D01*
X82351265Y-144548148D01*
X82351270Y-144548151D01*
X82524192Y-144625142D01*
X82524197Y-144625144D01*
X82709354Y-144664500D01*
X82709355Y-144664500D01*
X82898644Y-144664500D01*
X82898646Y-144664500D01*
X83083803Y-144625144D01*
X83256730Y-144548151D01*
X83409871Y-144436888D01*
X83536533Y-144296216D01*
X83631179Y-144132284D01*
X83689674Y-143952256D01*
X83702361Y-143831541D01*
X90819542Y-143831541D01*
X90839328Y-144019797D01*
X90839329Y-144019800D01*
X90897820Y-144199818D01*
X90897823Y-144199825D01*
X90992469Y-144363757D01*
X91118608Y-144503848D01*
X91119131Y-144504429D01*
X91272267Y-144615689D01*
X91272272Y-144615692D01*
X91445194Y-144692683D01*
X91445199Y-144692685D01*
X91630356Y-144732041D01*
X91630357Y-144732041D01*
X91819646Y-144732041D01*
X91819648Y-144732041D01*
X92004805Y-144692685D01*
X92177732Y-144615692D01*
X92330873Y-144504429D01*
X92457535Y-144363757D01*
X92552181Y-144199825D01*
X92610676Y-144019797D01*
X92630462Y-143831541D01*
X92623363Y-143764000D01*
X98662540Y-143764000D01*
X98682326Y-143952256D01*
X98682327Y-143952259D01*
X98740818Y-144132277D01*
X98740821Y-144132284D01*
X98835467Y-144296216D01*
X98953095Y-144426855D01*
X98962129Y-144436888D01*
X99115265Y-144548148D01*
X99115270Y-144548151D01*
X99288192Y-144625142D01*
X99288197Y-144625144D01*
X99473354Y-144664500D01*
X99473355Y-144664500D01*
X99662644Y-144664500D01*
X99662646Y-144664500D01*
X99847803Y-144625144D01*
X100020730Y-144548151D01*
X100173871Y-144436888D01*
X100300533Y-144296216D01*
X100395179Y-144132284D01*
X100453674Y-143952256D01*
X100455709Y-143932890D01*
X110661290Y-143932890D01*
X110681076Y-144121146D01*
X110681077Y-144121149D01*
X110739568Y-144301167D01*
X110739571Y-144301174D01*
X110834217Y-144465106D01*
X110948239Y-144591740D01*
X110960879Y-144605778D01*
X111114015Y-144717038D01*
X111114020Y-144717041D01*
X111286942Y-144794032D01*
X111286947Y-144794034D01*
X111472104Y-144833390D01*
X111472105Y-144833390D01*
X111661394Y-144833390D01*
X111661396Y-144833390D01*
X111846553Y-144794034D01*
X112019480Y-144717041D01*
X112172621Y-144605778D01*
X112299283Y-144465106D01*
X112393929Y-144301174D01*
X112452424Y-144121146D01*
X112472210Y-143932890D01*
X112452424Y-143744634D01*
X112393929Y-143564606D01*
X112299283Y-143400674D01*
X112172621Y-143260002D01*
X112141120Y-143237115D01*
X112019484Y-143148741D01*
X112019479Y-143148738D01*
X111846557Y-143071747D01*
X111846552Y-143071745D01*
X111700751Y-143040755D01*
X111661396Y-143032390D01*
X111472104Y-143032390D01*
X111439647Y-143039288D01*
X111286947Y-143071745D01*
X111286942Y-143071747D01*
X111114020Y-143148738D01*
X111114015Y-143148741D01*
X110960879Y-143260001D01*
X110834216Y-143400675D01*
X110739571Y-143564605D01*
X110739568Y-143564612D01*
X110714006Y-143643285D01*
X110681076Y-143744634D01*
X110661290Y-143932890D01*
X100455709Y-143932890D01*
X100473460Y-143764000D01*
X100453674Y-143575744D01*
X100395179Y-143395716D01*
X100300533Y-143231784D01*
X100173871Y-143091112D01*
X100173870Y-143091111D01*
X100020734Y-142979851D01*
X100020729Y-142979848D01*
X99847807Y-142902857D01*
X99847802Y-142902855D01*
X99702001Y-142871865D01*
X99662646Y-142863500D01*
X99473354Y-142863500D01*
X99440897Y-142870398D01*
X99288197Y-142902855D01*
X99288192Y-142902857D01*
X99115270Y-142979848D01*
X99115265Y-142979851D01*
X98962129Y-143091111D01*
X98835466Y-143231785D01*
X98740821Y-143395715D01*
X98740818Y-143395722D01*
X98685945Y-143564605D01*
X98682326Y-143575744D01*
X98662540Y-143764000D01*
X92623363Y-143764000D01*
X92610676Y-143643285D01*
X92552181Y-143463257D01*
X92457535Y-143299325D01*
X92330873Y-143158653D01*
X92330872Y-143158652D01*
X92177736Y-143047392D01*
X92177731Y-143047389D01*
X92004809Y-142970398D01*
X92004804Y-142970396D01*
X91859003Y-142939406D01*
X91819648Y-142931041D01*
X91630356Y-142931041D01*
X91597899Y-142937939D01*
X91445199Y-142970396D01*
X91445194Y-142970398D01*
X91272272Y-143047389D01*
X91272267Y-143047392D01*
X91119131Y-143158652D01*
X90992468Y-143299326D01*
X90897823Y-143463256D01*
X90897820Y-143463263D01*
X90839329Y-143643281D01*
X90839328Y-143643285D01*
X90819542Y-143831541D01*
X83702361Y-143831541D01*
X83709460Y-143764000D01*
X83689674Y-143575744D01*
X83631179Y-143395716D01*
X83536533Y-143231784D01*
X83409871Y-143091112D01*
X83409870Y-143091111D01*
X83256734Y-142979851D01*
X83256729Y-142979848D01*
X83083807Y-142902857D01*
X83083802Y-142902855D01*
X82938001Y-142871865D01*
X82898646Y-142863500D01*
X82709354Y-142863500D01*
X82676897Y-142870398D01*
X82524197Y-142902855D01*
X82524192Y-142902857D01*
X82351270Y-142979848D01*
X82351265Y-142979851D01*
X82198129Y-143091111D01*
X82071466Y-143231785D01*
X81976821Y-143395715D01*
X81976818Y-143395722D01*
X81921945Y-143564605D01*
X81918326Y-143575744D01*
X81898540Y-143764000D01*
X76963586Y-143764000D01*
X76743838Y-143444681D01*
X76159828Y-142525913D01*
X75992427Y-142240000D01*
X77834540Y-142240000D01*
X77854326Y-142428256D01*
X77854327Y-142428259D01*
X77912818Y-142608277D01*
X77912821Y-142608284D01*
X78007467Y-142772216D01*
X78089660Y-142863500D01*
X78134129Y-142912888D01*
X78287265Y-143024148D01*
X78287270Y-143024151D01*
X78460192Y-143101142D01*
X78460197Y-143101144D01*
X78645354Y-143140500D01*
X78645355Y-143140500D01*
X78834644Y-143140500D01*
X78834646Y-143140500D01*
X79019803Y-143101144D01*
X79192730Y-143024151D01*
X79345871Y-142912888D01*
X79472533Y-142772216D01*
X79567179Y-142608284D01*
X79625674Y-142428256D01*
X79645460Y-142240000D01*
X97138540Y-142240000D01*
X97158326Y-142428256D01*
X97158327Y-142428259D01*
X97216818Y-142608277D01*
X97216821Y-142608284D01*
X97311467Y-142772216D01*
X97393660Y-142863500D01*
X97438129Y-142912888D01*
X97591265Y-143024148D01*
X97591270Y-143024151D01*
X97764192Y-143101142D01*
X97764197Y-143101144D01*
X97949354Y-143140500D01*
X97949355Y-143140500D01*
X98138644Y-143140500D01*
X98138646Y-143140500D01*
X98323803Y-143101144D01*
X98496730Y-143024151D01*
X98649871Y-142912888D01*
X98776533Y-142772216D01*
X98871179Y-142608284D01*
X98929674Y-142428256D01*
X98949460Y-142240000D01*
X98929674Y-142051744D01*
X98871179Y-141871716D01*
X98776533Y-141707784D01*
X98649871Y-141567112D01*
X98649870Y-141567111D01*
X98496734Y-141455851D01*
X98496729Y-141455848D01*
X98323807Y-141378857D01*
X98323802Y-141378855D01*
X98178001Y-141347865D01*
X98138646Y-141339500D01*
X97949354Y-141339500D01*
X97916897Y-141346398D01*
X97764197Y-141378855D01*
X97764192Y-141378857D01*
X97591270Y-141455848D01*
X97591265Y-141455851D01*
X97438129Y-141567111D01*
X97311466Y-141707785D01*
X97216821Y-141871715D01*
X97216818Y-141871722D01*
X97183988Y-141972764D01*
X97158326Y-142051744D01*
X97138540Y-142240000D01*
X79645460Y-142240000D01*
X79625674Y-142051744D01*
X79567179Y-141871716D01*
X79472533Y-141707784D01*
X79345871Y-141567112D01*
X79345870Y-141567111D01*
X79192734Y-141455851D01*
X79192729Y-141455848D01*
X79019807Y-141378857D01*
X79019802Y-141378855D01*
X78874001Y-141347865D01*
X78834646Y-141339500D01*
X78645354Y-141339500D01*
X78612897Y-141346398D01*
X78460197Y-141378855D01*
X78460192Y-141378857D01*
X78287270Y-141455848D01*
X78287265Y-141455851D01*
X78134129Y-141567111D01*
X78007466Y-141707785D01*
X77912821Y-141871715D01*
X77912818Y-141871722D01*
X77879988Y-141972764D01*
X77854326Y-142051744D01*
X77834540Y-142240000D01*
X75992427Y-142240000D01*
X75609763Y-141586428D01*
X75094377Y-140627481D01*
X74888305Y-140208000D01*
X79866540Y-140208000D01*
X79886326Y-140396256D01*
X79886327Y-140396259D01*
X79944818Y-140576277D01*
X79944821Y-140576284D01*
X80039467Y-140740216D01*
X80137232Y-140848795D01*
X80166129Y-140880888D01*
X80319265Y-140992148D01*
X80319270Y-140992151D01*
X80492192Y-141069142D01*
X80492197Y-141069144D01*
X80677354Y-141108500D01*
X80677355Y-141108500D01*
X80866644Y-141108500D01*
X80866646Y-141108500D01*
X81051803Y-141069144D01*
X81224730Y-140992151D01*
X81377871Y-140880888D01*
X81504533Y-140740216D01*
X81518514Y-140716000D01*
X82406540Y-140716000D01*
X82426326Y-140904256D01*
X82426327Y-140904259D01*
X82484818Y-141084277D01*
X82484821Y-141084284D01*
X82579467Y-141248216D01*
X82661660Y-141339500D01*
X82706129Y-141388888D01*
X82859265Y-141500148D01*
X82859270Y-141500151D01*
X83032192Y-141577142D01*
X83032197Y-141577144D01*
X83217354Y-141616500D01*
X83217355Y-141616500D01*
X83406644Y-141616500D01*
X83406646Y-141616500D01*
X83591803Y-141577144D01*
X83764730Y-141500151D01*
X83917871Y-141388888D01*
X84044533Y-141248216D01*
X84139179Y-141084284D01*
X84143085Y-141072264D01*
X110346540Y-141072264D01*
X110366326Y-141260520D01*
X110366327Y-141260523D01*
X110424818Y-141440541D01*
X110424821Y-141440548D01*
X110519467Y-141604480D01*
X110589529Y-141682291D01*
X110646129Y-141745152D01*
X110799265Y-141856412D01*
X110799270Y-141856415D01*
X110972192Y-141933406D01*
X110972197Y-141933408D01*
X111157354Y-141972764D01*
X111157355Y-141972764D01*
X111346644Y-141972764D01*
X111346646Y-141972764D01*
X111531803Y-141933408D01*
X111704730Y-141856415D01*
X111857871Y-141745152D01*
X111984533Y-141604480D01*
X112079179Y-141440548D01*
X112137674Y-141260520D01*
X112157460Y-141072264D01*
X112137674Y-140884008D01*
X112079179Y-140703980D01*
X111984533Y-140540048D01*
X111857871Y-140399376D01*
X111853577Y-140396256D01*
X111704734Y-140288115D01*
X111704729Y-140288112D01*
X111531807Y-140211121D01*
X111531802Y-140211119D01*
X111386001Y-140180129D01*
X111346646Y-140171764D01*
X111157354Y-140171764D01*
X111124897Y-140178662D01*
X110972197Y-140211119D01*
X110972192Y-140211121D01*
X110799270Y-140288112D01*
X110799265Y-140288115D01*
X110646129Y-140399375D01*
X110519466Y-140540049D01*
X110424821Y-140703979D01*
X110424818Y-140703986D01*
X110366327Y-140884004D01*
X110366326Y-140884008D01*
X110346540Y-141072264D01*
X84143085Y-141072264D01*
X84197674Y-140904256D01*
X84217460Y-140716000D01*
X84197674Y-140527744D01*
X84139179Y-140347716D01*
X84044533Y-140183784D01*
X83917871Y-140043112D01*
X83885708Y-140019744D01*
X83764734Y-139931851D01*
X83764729Y-139931848D01*
X83591807Y-139854857D01*
X83591802Y-139854855D01*
X83446001Y-139823865D01*
X83406646Y-139815500D01*
X83217354Y-139815500D01*
X83184897Y-139822398D01*
X83032197Y-139854855D01*
X83032192Y-139854857D01*
X82859270Y-139931848D01*
X82859265Y-139931851D01*
X82706129Y-140043111D01*
X82579466Y-140183785D01*
X82484821Y-140347715D01*
X82484818Y-140347722D01*
X82426327Y-140527740D01*
X82426326Y-140527744D01*
X82406540Y-140716000D01*
X81518514Y-140716000D01*
X81599179Y-140576284D01*
X81657674Y-140396256D01*
X81677460Y-140208000D01*
X81657674Y-140019744D01*
X81599179Y-139839716D01*
X81504533Y-139675784D01*
X81377871Y-139535112D01*
X81377870Y-139535111D01*
X81224734Y-139423851D01*
X81224729Y-139423848D01*
X81051807Y-139346857D01*
X81051802Y-139346855D01*
X80906001Y-139315865D01*
X80866646Y-139307500D01*
X80677354Y-139307500D01*
X80644897Y-139314398D01*
X80492197Y-139346855D01*
X80492192Y-139346857D01*
X80319270Y-139423848D01*
X80319265Y-139423851D01*
X80166129Y-139535111D01*
X80039466Y-139675785D01*
X79944821Y-139839715D01*
X79944818Y-139839722D01*
X79914884Y-139931851D01*
X79886326Y-140019744D01*
X79866540Y-140208000D01*
X74888305Y-140208000D01*
X74614357Y-139650350D01*
X74170344Y-138656340D01*
X73762930Y-137646777D01*
X73392660Y-136623008D01*
X73060027Y-135586399D01*
X72765475Y-134538333D01*
X72509397Y-133480208D01*
X72292134Y-132413437D01*
X72240839Y-132104214D01*
X72162349Y-131631045D01*
X72170797Y-131561688D01*
X72215402Y-131507909D01*
X72282000Y-131486782D01*
X72349449Y-131505015D01*
X72392064Y-131548753D01*
X72419467Y-131596216D01*
X72516694Y-131704197D01*
X72546129Y-131736888D01*
X72699265Y-131848148D01*
X72699270Y-131848151D01*
X72872192Y-131925142D01*
X72872197Y-131925144D01*
X73057354Y-131964500D01*
X73057355Y-131964500D01*
X73246644Y-131964500D01*
X73246646Y-131964500D01*
X73431803Y-131925144D01*
X73604730Y-131848151D01*
X73757871Y-131736888D01*
X73884533Y-131596216D01*
X73979179Y-131432284D01*
X74037674Y-131252256D01*
X74057460Y-131064000D01*
X74786540Y-131064000D01*
X74806326Y-131252256D01*
X74806327Y-131252259D01*
X74864818Y-131432277D01*
X74864821Y-131432284D01*
X74959467Y-131596216D01*
X75056694Y-131704197D01*
X75086129Y-131736888D01*
X75239265Y-131848148D01*
X75239270Y-131848151D01*
X75412192Y-131925142D01*
X75412197Y-131925144D01*
X75597354Y-131964500D01*
X75597355Y-131964500D01*
X75786644Y-131964500D01*
X75786646Y-131964500D01*
X75971803Y-131925144D01*
X76144730Y-131848151D01*
X76297871Y-131736888D01*
X76424533Y-131596216D01*
X76519179Y-131432284D01*
X76577674Y-131252256D01*
X76597460Y-131064000D01*
X76577674Y-130875744D01*
X76519179Y-130695716D01*
X76474308Y-130617997D01*
X76457836Y-130550100D01*
X76474309Y-130494001D01*
X76519179Y-130416284D01*
X76577674Y-130236256D01*
X76577674Y-130236254D01*
X76579451Y-130230786D01*
X76618888Y-130173111D01*
X76683247Y-130145912D01*
X76752093Y-130157827D01*
X76803569Y-130205071D01*
X76821321Y-130265208D01*
X76822383Y-130299002D01*
X76822383Y-130328531D01*
X76822384Y-130328548D01*
X76823251Y-130335419D01*
X76823709Y-130341238D01*
X76825173Y-130387812D01*
X76825174Y-130387815D01*
X76830763Y-130407055D01*
X76834707Y-130426099D01*
X76837219Y-130445979D01*
X76854373Y-130489307D01*
X76856265Y-130494835D01*
X76867000Y-130531785D01*
X76869265Y-130539578D01*
X76875487Y-130550100D01*
X76879463Y-130556822D01*
X76888021Y-130574291D01*
X76895397Y-130592920D01*
X76922781Y-130630611D01*
X76925989Y-130635495D01*
X76949710Y-130675604D01*
X76949716Y-130675612D01*
X76963873Y-130689768D01*
X76976511Y-130704564D01*
X76988288Y-130720774D01*
X76988289Y-130720775D01*
X77024192Y-130750476D01*
X77028503Y-130754398D01*
X82606360Y-136332256D01*
X84325892Y-138051788D01*
X84335717Y-138064051D01*
X84335938Y-138063869D01*
X84340909Y-138069878D01*
X84366912Y-138094295D01*
X84391330Y-138117226D01*
X84412224Y-138138120D01*
X84417706Y-138142373D01*
X84422138Y-138146157D01*
X84456113Y-138178062D01*
X84473671Y-138187714D01*
X84489928Y-138198393D01*
X84505759Y-138210673D01*
X84525432Y-138219186D01*
X84548528Y-138229182D01*
X84553772Y-138231750D01*
X84594603Y-138254197D01*
X84607218Y-138257435D01*
X84614000Y-138259177D01*
X84632414Y-138265481D01*
X84650799Y-138273438D01*
X84696852Y-138280732D01*
X84702521Y-138281906D01*
X84747676Y-138293500D01*
X84767711Y-138293500D01*
X84787108Y-138295026D01*
X84806891Y-138298160D01*
X84853279Y-138293775D01*
X84859117Y-138293500D01*
X110941548Y-138293500D01*
X111008587Y-138313185D01*
X111029229Y-138329819D01*
X111837038Y-139137629D01*
X111870523Y-139198952D01*
X111872678Y-139212348D01*
X111876254Y-139246369D01*
X111890326Y-139380256D01*
X111890327Y-139380259D01*
X111948818Y-139560277D01*
X111948821Y-139560284D01*
X112043467Y-139724216D01*
X112161095Y-139854855D01*
X112170129Y-139864888D01*
X112323265Y-139976148D01*
X112323270Y-139976151D01*
X112496192Y-140053142D01*
X112496197Y-140053144D01*
X112681354Y-140092500D01*
X112740548Y-140092500D01*
X112807587Y-140112185D01*
X112828229Y-140128819D01*
X115901038Y-143201629D01*
X115934523Y-143262952D01*
X115936678Y-143276348D01*
X115944968Y-143355227D01*
X115954326Y-143444256D01*
X115954327Y-143444259D01*
X116012818Y-143624277D01*
X116012821Y-143624284D01*
X116107467Y-143788216D01*
X116189222Y-143879014D01*
X116190308Y-143880220D01*
X116220538Y-143943211D01*
X116211913Y-144012547D01*
X116185839Y-144050873D01*
X111546533Y-148690181D01*
X111485210Y-148723666D01*
X111458852Y-148726500D01*
X104514243Y-148726500D01*
X104498622Y-148724775D01*
X104498595Y-148725061D01*
X104490833Y-148724326D01*
X104421672Y-148726500D01*
X104392149Y-148726500D01*
X104385278Y-148727367D01*
X104379459Y-148727825D01*
X104332874Y-148729289D01*
X104332868Y-148729290D01*
X104313626Y-148734880D01*
X104294587Y-148738823D01*
X104274717Y-148741334D01*
X104274703Y-148741337D01*
X104231383Y-148758488D01*
X104225858Y-148760380D01*
X104181113Y-148773380D01*
X104181110Y-148773381D01*
X104163866Y-148783579D01*
X104146405Y-148792133D01*
X104127774Y-148799510D01*
X104127762Y-148799517D01*
X104090070Y-148826902D01*
X104085187Y-148830109D01*
X104045080Y-148853829D01*
X104030914Y-148867995D01*
X104016124Y-148880627D01*
X103999914Y-148892404D01*
X103999911Y-148892407D01*
X103970210Y-148928309D01*
X103966277Y-148932631D01*
X101585074Y-151313834D01*
X101523751Y-151347319D01*
X101510367Y-151349472D01*
X101505361Y-151349998D01*
X101320197Y-151389355D01*
X101320192Y-151389357D01*
X101147270Y-151466348D01*
X101147265Y-151466351D01*
X100994129Y-151577611D01*
X100867466Y-151718285D01*
X100772821Y-151882215D01*
X100772818Y-151882222D01*
X100714327Y-152062240D01*
X100714326Y-152062244D01*
X100694540Y-152250500D01*
X100714326Y-152438756D01*
X100714327Y-152438759D01*
X100772818Y-152618777D01*
X100772821Y-152618784D01*
X100867467Y-152782716D01*
X100958470Y-152883785D01*
X100994129Y-152923388D01*
X101147265Y-153034648D01*
X101147270Y-153034651D01*
X101320192Y-153111642D01*
X101320197Y-153111644D01*
X101505354Y-153151000D01*
X101505355Y-153151000D01*
X101694644Y-153151000D01*
X101694646Y-153151000D01*
X101879803Y-153111644D01*
X102052730Y-153034651D01*
X102205871Y-152923388D01*
X102332533Y-152782716D01*
X102427179Y-152618784D01*
X102485674Y-152438756D01*
X102505460Y-152250500D01*
X102503285Y-152229808D01*
X102515852Y-152161079D01*
X102538921Y-152129167D01*
X104654271Y-150013819D01*
X104715594Y-149980334D01*
X104741952Y-149977500D01*
X105060004Y-149977500D01*
X105127043Y-149997185D01*
X105172798Y-150049989D01*
X105182742Y-150119147D01*
X105158565Y-150172405D01*
X105160540Y-150173780D01*
X105156949Y-150178938D01*
X105156947Y-150178941D01*
X105140124Y-150203112D01*
X105040705Y-150345949D01*
X104960459Y-150532943D01*
X104919500Y-150732258D01*
X104919500Y-151283408D01*
X104899815Y-151350447D01*
X104847011Y-151396202D01*
X104777853Y-151406146D01*
X104748048Y-151397969D01*
X104640239Y-151353314D01*
X104640237Y-151353313D01*
X104640236Y-151353313D01*
X104618467Y-151350447D01*
X104527727Y-151338500D01*
X104527720Y-151338500D01*
X104452280Y-151338500D01*
X104452272Y-151338500D01*
X104339764Y-151353313D01*
X104339763Y-151353313D01*
X104199770Y-151411300D01*
X104079549Y-151503549D01*
X103987300Y-151623770D01*
X103929313Y-151763763D01*
X103929312Y-151763765D01*
X103909534Y-151913999D01*
X103909534Y-151914000D01*
X103929312Y-152064234D01*
X103929313Y-152064236D01*
X103973530Y-152170986D01*
X103987302Y-152204233D01*
X104079549Y-152324451D01*
X104199767Y-152416698D01*
X104339764Y-152474687D01*
X104452280Y-152489500D01*
X104452287Y-152489500D01*
X104527713Y-152489500D01*
X104527720Y-152489500D01*
X104640236Y-152474687D01*
X104780233Y-152416698D01*
X104850853Y-152362508D01*
X104916022Y-152337314D01*
X104984467Y-152351352D01*
X105034457Y-152400166D01*
X105034759Y-152400706D01*
X105056665Y-152440172D01*
X105094589Y-152508499D01*
X105094592Y-152508503D01*
X105094592Y-152508504D01*
X105227132Y-152662893D01*
X105227134Y-152662895D01*
X105388037Y-152787445D01*
X105388038Y-152787445D01*
X105388042Y-152787448D01*
X105570729Y-152877060D01*
X105767715Y-152928063D01*
X105970936Y-152938369D01*
X106172071Y-152907556D01*
X106362887Y-152836886D01*
X106535571Y-152729252D01*
X106683053Y-152589059D01*
X106799295Y-152422049D01*
X106879540Y-152235058D01*
X106920500Y-152035741D01*
X106920500Y-150783258D01*
X106905074Y-150631562D01*
X106905074Y-150631560D01*
X106844162Y-150437420D01*
X106844160Y-150437416D01*
X106844159Y-150437412D01*
X106745409Y-150259498D01*
X106745408Y-150259497D01*
X106745407Y-150259495D01*
X106679111Y-150182270D01*
X106650379Y-150118582D01*
X106660641Y-150049470D01*
X106706639Y-149996877D01*
X106773197Y-149977500D01*
X111686562Y-149977500D01*
X111702182Y-149979224D01*
X111702209Y-149978939D01*
X111709965Y-149979671D01*
X111709972Y-149979673D01*
X111779119Y-149977500D01*
X111808655Y-149977500D01*
X111815533Y-149976630D01*
X111821346Y-149976172D01*
X111867932Y-149974709D01*
X111887174Y-149969117D01*
X111906217Y-149965174D01*
X111926097Y-149962664D01*
X111969427Y-149945507D01*
X111974951Y-149943617D01*
X111978701Y-149942527D01*
X112019695Y-149930618D01*
X112036934Y-149920422D01*
X112054408Y-149911862D01*
X112073032Y-149904488D01*
X112073032Y-149904487D01*
X112073037Y-149904486D01*
X112110754Y-149877082D01*
X112115610Y-149873892D01*
X112155725Y-149850170D01*
X112169894Y-149835999D01*
X112184684Y-149823368D01*
X112200892Y-149811594D01*
X112230604Y-149775676D01*
X112234517Y-149771376D01*
X122879309Y-139126585D01*
X122891563Y-139116770D01*
X122891380Y-139116548D01*
X122897387Y-139111576D01*
X122897398Y-139111570D01*
X122928296Y-139078666D01*
X122944748Y-139061148D01*
X122955192Y-139050702D01*
X122965641Y-139040255D01*
X122969900Y-139034762D01*
X122973673Y-139030345D01*
X123005583Y-138996366D01*
X123015234Y-138978808D01*
X123025917Y-138962545D01*
X123038194Y-138946720D01*
X123056706Y-138903937D01*
X123059259Y-138898725D01*
X123081718Y-138857876D01*
X123086701Y-138838464D01*
X123093002Y-138820064D01*
X123100958Y-138801680D01*
X123108250Y-138755636D01*
X123109427Y-138749955D01*
X123121021Y-138704803D01*
X123121021Y-138684767D01*
X123122548Y-138665366D01*
X123123432Y-138659784D01*
X123125681Y-138645588D01*
X123121296Y-138599199D01*
X123121021Y-138593361D01*
X123121021Y-138413911D01*
X123140706Y-138346872D01*
X123193510Y-138301117D01*
X123262668Y-138291173D01*
X123326224Y-138320198D01*
X123337171Y-138330939D01*
X123346129Y-138340888D01*
X123499265Y-138452148D01*
X123499270Y-138452151D01*
X123672192Y-138529142D01*
X123672197Y-138529144D01*
X123857354Y-138568500D01*
X123857355Y-138568500D01*
X124046644Y-138568500D01*
X124046646Y-138568500D01*
X124231803Y-138529144D01*
X124404730Y-138452151D01*
X124557871Y-138340888D01*
X124684533Y-138200216D01*
X124779179Y-138036284D01*
X124837674Y-137856256D01*
X124857460Y-137668000D01*
X124837674Y-137479744D01*
X124779179Y-137299716D01*
X124684533Y-137135784D01*
X124557871Y-136995112D01*
X124478425Y-136937391D01*
X124404734Y-136883851D01*
X124404729Y-136883848D01*
X124231807Y-136806857D01*
X124231802Y-136806855D01*
X124086001Y-136775865D01*
X124046646Y-136767500D01*
X123857354Y-136767500D01*
X123824897Y-136774398D01*
X123672197Y-136806855D01*
X123672192Y-136806857D01*
X123499270Y-136883848D01*
X123499265Y-136883851D01*
X123346129Y-136995111D01*
X123346126Y-136995114D01*
X123337168Y-137005063D01*
X123277681Y-137041710D01*
X123207824Y-137040377D01*
X123149777Y-137001489D01*
X123121969Y-136937391D01*
X123121021Y-136922088D01*
X123121021Y-136144000D01*
X124570540Y-136144000D01*
X124590326Y-136332256D01*
X124590327Y-136332259D01*
X124648818Y-136512277D01*
X124648821Y-136512284D01*
X124743467Y-136676216D01*
X124825660Y-136767500D01*
X124870129Y-136816888D01*
X125023265Y-136928148D01*
X125023270Y-136928151D01*
X125196192Y-137005142D01*
X125196197Y-137005144D01*
X125381354Y-137044500D01*
X125381355Y-137044500D01*
X125570644Y-137044500D01*
X125570646Y-137044500D01*
X125755803Y-137005144D01*
X125928730Y-136928151D01*
X126081871Y-136816888D01*
X126208533Y-136676216D01*
X126303179Y-136512284D01*
X126361674Y-136332256D01*
X126381460Y-136144000D01*
X126361674Y-135955744D01*
X126303179Y-135775716D01*
X126208533Y-135611784D01*
X126081871Y-135471112D01*
X126081870Y-135471111D01*
X125928734Y-135359851D01*
X125928729Y-135359848D01*
X125755807Y-135282857D01*
X125755802Y-135282855D01*
X125610001Y-135251865D01*
X125570646Y-135243500D01*
X125381354Y-135243500D01*
X125348897Y-135250398D01*
X125196197Y-135282855D01*
X125196192Y-135282857D01*
X125023270Y-135359848D01*
X125023265Y-135359851D01*
X124870129Y-135471111D01*
X124743466Y-135611785D01*
X124648821Y-135775715D01*
X124648818Y-135775722D01*
X124590889Y-135954011D01*
X124590326Y-135955744D01*
X124570540Y-136144000D01*
X123121021Y-136144000D01*
X123121021Y-135128000D01*
X127618540Y-135128000D01*
X127638326Y-135316256D01*
X127638327Y-135316259D01*
X127696818Y-135496277D01*
X127696821Y-135496284D01*
X127791467Y-135660216D01*
X127909095Y-135790855D01*
X127918129Y-135800888D01*
X128071265Y-135912148D01*
X128071270Y-135912151D01*
X128244192Y-135989142D01*
X128244197Y-135989144D01*
X128429354Y-136028500D01*
X128429355Y-136028500D01*
X128618644Y-136028500D01*
X128618646Y-136028500D01*
X128803803Y-135989144D01*
X128976730Y-135912151D01*
X129129871Y-135800888D01*
X129256533Y-135660216D01*
X129351179Y-135496284D01*
X129409674Y-135316256D01*
X129429460Y-135128000D01*
X129409674Y-134939744D01*
X129351179Y-134759716D01*
X129256533Y-134595784D01*
X129129871Y-134455112D01*
X129097708Y-134431744D01*
X128976734Y-134343851D01*
X128976729Y-134343848D01*
X128803807Y-134266857D01*
X128803802Y-134266855D01*
X128658001Y-134235865D01*
X128618646Y-134227500D01*
X128429354Y-134227500D01*
X128396897Y-134234398D01*
X128244197Y-134266855D01*
X128244192Y-134266857D01*
X128071270Y-134343848D01*
X128071265Y-134343851D01*
X127918129Y-134455111D01*
X127791466Y-134595785D01*
X127696821Y-134759715D01*
X127696818Y-134759722D01*
X127638327Y-134939740D01*
X127638326Y-134939744D01*
X127618540Y-135128000D01*
X123121021Y-135128000D01*
X123121021Y-133593093D01*
X123140706Y-133526054D01*
X123193510Y-133480299D01*
X123262668Y-133470355D01*
X123270790Y-133471800D01*
X123349354Y-133488500D01*
X123349355Y-133488500D01*
X123538644Y-133488500D01*
X123538646Y-133488500D01*
X123723803Y-133449144D01*
X123896730Y-133372151D01*
X124049871Y-133260888D01*
X124176533Y-133120216D01*
X124271179Y-132956284D01*
X124329674Y-132776256D01*
X124349460Y-132588000D01*
X124329674Y-132399744D01*
X124271179Y-132219716D01*
X124176533Y-132055784D01*
X124049871Y-131915112D01*
X124049870Y-131915111D01*
X123896734Y-131803851D01*
X123896729Y-131803848D01*
X123723807Y-131726857D01*
X123723802Y-131726855D01*
X123578001Y-131695865D01*
X123538646Y-131687500D01*
X123349354Y-131687500D01*
X123270800Y-131704196D01*
X123201134Y-131698880D01*
X123145400Y-131656742D01*
X123121296Y-131591162D01*
X123121021Y-131582906D01*
X123121021Y-131572000D01*
X125078540Y-131572000D01*
X125098326Y-131760256D01*
X125098327Y-131760259D01*
X125156818Y-131940277D01*
X125156821Y-131940284D01*
X125251467Y-132104216D01*
X125369095Y-132234855D01*
X125378129Y-132244888D01*
X125531265Y-132356148D01*
X125531270Y-132356151D01*
X125704192Y-132433142D01*
X125704197Y-132433144D01*
X125889354Y-132472500D01*
X125889355Y-132472500D01*
X126078644Y-132472500D01*
X126078646Y-132472500D01*
X126263803Y-132433144D01*
X126436730Y-132356151D01*
X126589871Y-132244888D01*
X126716533Y-132104216D01*
X126811179Y-131940284D01*
X126869674Y-131760256D01*
X126889460Y-131572000D01*
X126869674Y-131383744D01*
X126811179Y-131203716D01*
X126716533Y-131039784D01*
X126589871Y-130899112D01*
X126557708Y-130875744D01*
X126436734Y-130787851D01*
X126436729Y-130787848D01*
X126263807Y-130710857D01*
X126263802Y-130710855D01*
X126118001Y-130679865D01*
X126078646Y-130671500D01*
X125889354Y-130671500D01*
X125856897Y-130678398D01*
X125704197Y-130710855D01*
X125704192Y-130710857D01*
X125531270Y-130787848D01*
X125531265Y-130787851D01*
X125378129Y-130899111D01*
X125251466Y-131039785D01*
X125156821Y-131203715D01*
X125156818Y-131203722D01*
X125098352Y-131383664D01*
X125098326Y-131383744D01*
X125078540Y-131572000D01*
X123121021Y-131572000D01*
X123121021Y-128524000D01*
X125078540Y-128524000D01*
X125098326Y-128712256D01*
X125098327Y-128712259D01*
X125156818Y-128892277D01*
X125156821Y-128892284D01*
X125251467Y-129056216D01*
X125353185Y-129169185D01*
X125378129Y-129196888D01*
X125531265Y-129308148D01*
X125531270Y-129308151D01*
X125704192Y-129385142D01*
X125704197Y-129385144D01*
X125889354Y-129424500D01*
X125889355Y-129424500D01*
X126078644Y-129424500D01*
X126078646Y-129424500D01*
X126263803Y-129385144D01*
X126436730Y-129308151D01*
X126589871Y-129196888D01*
X126716533Y-129056216D01*
X126811179Y-128892284D01*
X126869674Y-128712256D01*
X126889460Y-128524000D01*
X126869674Y-128335744D01*
X126811179Y-128155716D01*
X126716533Y-127991784D01*
X126589871Y-127851112D01*
X126557708Y-127827744D01*
X126436734Y-127739851D01*
X126436729Y-127739848D01*
X126263807Y-127662857D01*
X126263802Y-127662855D01*
X126118001Y-127631865D01*
X126078646Y-127623500D01*
X125889354Y-127623500D01*
X125856897Y-127630398D01*
X125704197Y-127662855D01*
X125704192Y-127662857D01*
X125531270Y-127739848D01*
X125531265Y-127739851D01*
X125378129Y-127851111D01*
X125251466Y-127991785D01*
X125156821Y-128155715D01*
X125156818Y-128155722D01*
X125112491Y-128292148D01*
X125098326Y-128335744D01*
X125078540Y-128524000D01*
X123121021Y-128524000D01*
X123121021Y-127000000D01*
X123554540Y-127000000D01*
X123574326Y-127188256D01*
X123574327Y-127188259D01*
X123632818Y-127368277D01*
X123632821Y-127368284D01*
X123727467Y-127532216D01*
X123845095Y-127662855D01*
X123854129Y-127672888D01*
X124007265Y-127784148D01*
X124007270Y-127784151D01*
X124180192Y-127861142D01*
X124180197Y-127861144D01*
X124365354Y-127900500D01*
X124365355Y-127900500D01*
X124554644Y-127900500D01*
X124554646Y-127900500D01*
X124739803Y-127861144D01*
X124912730Y-127784151D01*
X125065871Y-127672888D01*
X125192533Y-127532216D01*
X125287179Y-127368284D01*
X125345674Y-127188256D01*
X125365460Y-127000000D01*
X125345674Y-126811744D01*
X125287179Y-126631716D01*
X125192533Y-126467784D01*
X125065871Y-126327112D01*
X125033708Y-126303744D01*
X124912734Y-126215851D01*
X124912729Y-126215848D01*
X124739807Y-126138857D01*
X124739802Y-126138855D01*
X124594001Y-126107865D01*
X124554646Y-126099500D01*
X124365354Y-126099500D01*
X124332897Y-126106398D01*
X124180197Y-126138855D01*
X124180192Y-126138857D01*
X124007270Y-126215848D01*
X124007265Y-126215851D01*
X123854129Y-126327111D01*
X123727466Y-126467785D01*
X123632821Y-126631715D01*
X123632818Y-126631722D01*
X123577763Y-126801166D01*
X123574326Y-126811744D01*
X123554540Y-127000000D01*
X123121021Y-127000000D01*
X123121021Y-125118259D01*
X123122745Y-125102645D01*
X123122459Y-125102618D01*
X123123193Y-125094855D01*
X123121021Y-125025724D01*
X123121021Y-124996172D01*
X123121021Y-124996171D01*
X123120150Y-124989280D01*
X123119693Y-124983466D01*
X123118446Y-124943785D01*
X123118230Y-124936894D01*
X123112643Y-124917665D01*
X123108695Y-124898605D01*
X123106184Y-124878725D01*
X123089033Y-124835408D01*
X123087140Y-124829879D01*
X123074139Y-124785130D01*
X123074137Y-124785127D01*
X123063944Y-124767892D01*
X123055382Y-124750415D01*
X123048008Y-124731791D01*
X123048007Y-124731789D01*
X123020600Y-124694066D01*
X123017409Y-124689207D01*
X122993693Y-124649104D01*
X122993686Y-124649095D01*
X122979527Y-124634936D01*
X122966889Y-124620140D01*
X122955115Y-124603934D01*
X122950016Y-124599716D01*
X122919209Y-124574230D01*
X122914897Y-124570307D01*
X121912803Y-123568212D01*
X121902980Y-123555950D01*
X121902759Y-123556134D01*
X121897786Y-123550123D01*
X121894100Y-123546662D01*
X121847364Y-123502773D01*
X121833077Y-123488486D01*
X121826475Y-123481883D01*
X121820986Y-123477625D01*
X121816561Y-123473847D01*
X121784778Y-123444000D01*
X124062540Y-123444000D01*
X124082326Y-123632256D01*
X124082327Y-123632259D01*
X124140818Y-123812277D01*
X124140821Y-123812284D01*
X124235467Y-123976216D01*
X124317660Y-124067500D01*
X124362129Y-124116888D01*
X124515265Y-124228148D01*
X124515270Y-124228151D01*
X124688192Y-124305142D01*
X124688197Y-124305144D01*
X124873354Y-124344500D01*
X124873355Y-124344500D01*
X125062644Y-124344500D01*
X125062646Y-124344500D01*
X125247803Y-124305144D01*
X125420730Y-124228151D01*
X125573871Y-124116888D01*
X125700533Y-123976216D01*
X125795179Y-123812284D01*
X125853674Y-123632256D01*
X125873460Y-123444000D01*
X125853674Y-123255744D01*
X125795179Y-123075716D01*
X125700533Y-122911784D01*
X125573871Y-122771112D01*
X125573870Y-122771111D01*
X125420734Y-122659851D01*
X125420729Y-122659848D01*
X125247807Y-122582857D01*
X125247802Y-122582855D01*
X125102001Y-122551865D01*
X125062646Y-122543500D01*
X124873354Y-122543500D01*
X124840897Y-122550398D01*
X124688197Y-122582855D01*
X124688192Y-122582857D01*
X124515270Y-122659848D01*
X124515265Y-122659851D01*
X124362129Y-122771111D01*
X124235466Y-122911785D01*
X124140821Y-123075715D01*
X124140818Y-123075722D01*
X124110884Y-123167851D01*
X124082326Y-123255744D01*
X124062540Y-123444000D01*
X121784778Y-123444000D01*
X121782582Y-123441938D01*
X121782580Y-123441936D01*
X121782577Y-123441935D01*
X121765029Y-123432288D01*
X121748763Y-123421604D01*
X121739165Y-123414159D01*
X121732936Y-123409327D01*
X121732935Y-123409326D01*
X121732933Y-123409325D01*
X121690168Y-123390818D01*
X121684922Y-123388248D01*
X121644093Y-123365803D01*
X121644092Y-123365802D01*
X121624693Y-123360822D01*
X121606281Y-123354518D01*
X121587898Y-123346562D01*
X121587892Y-123346560D01*
X121541874Y-123339272D01*
X121536152Y-123338087D01*
X121491021Y-123326500D01*
X121491019Y-123326500D01*
X121470984Y-123326500D01*
X121451586Y-123324973D01*
X121444162Y-123323797D01*
X121431805Y-123321840D01*
X121431804Y-123321840D01*
X121385416Y-123326225D01*
X121379578Y-123326500D01*
X119575748Y-123326500D01*
X119508709Y-123306815D01*
X119483600Y-123285474D01*
X119477873Y-123279114D01*
X119477869Y-123279110D01*
X119324734Y-123167851D01*
X119324729Y-123167848D01*
X119180263Y-123103527D01*
X119127026Y-123058277D01*
X119106705Y-122991428D01*
X119123314Y-122928245D01*
X119126179Y-122923284D01*
X119184674Y-122743256D01*
X119204460Y-122555000D01*
X119184674Y-122366744D01*
X119126179Y-122186716D01*
X119031533Y-122022784D01*
X118904871Y-121882112D01*
X118887234Y-121869298D01*
X118751734Y-121770851D01*
X118751729Y-121770848D01*
X118578807Y-121693857D01*
X118578802Y-121693855D01*
X118433001Y-121662865D01*
X118393646Y-121654500D01*
X118204354Y-121654500D01*
X118171897Y-121661398D01*
X118019197Y-121693855D01*
X118019192Y-121693857D01*
X117846270Y-121770848D01*
X117846265Y-121770851D01*
X117693129Y-121882111D01*
X117566466Y-122022785D01*
X117471821Y-122186715D01*
X117471818Y-122186722D01*
X117428323Y-122320587D01*
X117413326Y-122366744D01*
X117393540Y-122555000D01*
X117413326Y-122743256D01*
X117413327Y-122743259D01*
X117471818Y-122923277D01*
X117471820Y-122923282D01*
X117471821Y-122923284D01*
X117566467Y-123087216D01*
X117693129Y-123227888D01*
X117846265Y-123339148D01*
X117846270Y-123339151D01*
X117990735Y-123403472D01*
X118043972Y-123448722D01*
X118064293Y-123515571D01*
X118047690Y-123578744D01*
X118044822Y-123583712D01*
X118044821Y-123583713D01*
X117999298Y-123723819D01*
X117986326Y-123763744D01*
X117966540Y-123952000D01*
X117986326Y-124140256D01*
X117986327Y-124140259D01*
X118044818Y-124320277D01*
X118044821Y-124320284D01*
X118139467Y-124484216D01*
X118247260Y-124603932D01*
X118266129Y-124624888D01*
X118419265Y-124736148D01*
X118419270Y-124736151D01*
X118592192Y-124813142D01*
X118592197Y-124813144D01*
X118777354Y-124852500D01*
X118777355Y-124852500D01*
X118966644Y-124852500D01*
X118966646Y-124852500D01*
X119151803Y-124813144D01*
X119324730Y-124736151D01*
X119477871Y-124624888D01*
X119482146Y-124620140D01*
X119483600Y-124618526D01*
X119543087Y-124581879D01*
X119575748Y-124577500D01*
X121101548Y-124577500D01*
X121168587Y-124597185D01*
X121189229Y-124613819D01*
X121833702Y-125258292D01*
X121867187Y-125319615D01*
X121870021Y-125345973D01*
X121870021Y-126460662D01*
X121850336Y-126527701D01*
X121797532Y-126573456D01*
X121746021Y-126584662D01*
X121675875Y-126584662D01*
X121643418Y-126591560D01*
X121490718Y-126624017D01*
X121490713Y-126624019D01*
X121317791Y-126701010D01*
X121317786Y-126701013D01*
X121164650Y-126812273D01*
X121037987Y-126952947D01*
X120943342Y-127116877D01*
X120943339Y-127116884D01*
X120888456Y-127285798D01*
X120884847Y-127296906D01*
X120882447Y-127319744D01*
X120867199Y-127464813D01*
X120840614Y-127529428D01*
X120831559Y-127539532D01*
X118259911Y-130111181D01*
X118198588Y-130144666D01*
X118172230Y-130147500D01*
X104659568Y-130147500D01*
X104592529Y-130127815D01*
X104546774Y-130075011D01*
X104536247Y-130036462D01*
X104534915Y-130023785D01*
X104517674Y-129859744D01*
X104459179Y-129679716D01*
X104364533Y-129515784D01*
X104237871Y-129375112D01*
X104207511Y-129353054D01*
X104084734Y-129263851D01*
X104084729Y-129263848D01*
X103911807Y-129186857D01*
X103911802Y-129186855D01*
X103743239Y-129151027D01*
X103726646Y-129147500D01*
X103537354Y-129147500D01*
X103520761Y-129151027D01*
X103352197Y-129186855D01*
X103352192Y-129186857D01*
X103179271Y-129263848D01*
X103088805Y-129329575D01*
X103022998Y-129353054D01*
X102954944Y-129337228D01*
X102908533Y-129291256D01*
X102854049Y-129196888D01*
X102851391Y-129192284D01*
X102849569Y-129190261D01*
X102724728Y-129051611D01*
X102571592Y-128940351D01*
X102571587Y-128940348D01*
X102398665Y-128863357D01*
X102398660Y-128863355D01*
X102252859Y-128832365D01*
X102213504Y-128824000D01*
X102213503Y-128824000D01*
X102154311Y-128824000D01*
X102087272Y-128804315D01*
X102066630Y-128787681D01*
X101419161Y-128140212D01*
X101409338Y-128127950D01*
X101409117Y-128128134D01*
X101404144Y-128122123D01*
X101376179Y-128095862D01*
X101353722Y-128074773D01*
X101343277Y-128064328D01*
X101332833Y-128053883D01*
X101327344Y-128049625D01*
X101322919Y-128045847D01*
X101288940Y-128013938D01*
X101288938Y-128013936D01*
X101288935Y-128013935D01*
X101271387Y-128004288D01*
X101255121Y-127993604D01*
X101239291Y-127981325D01*
X101196526Y-127962818D01*
X101191280Y-127960248D01*
X101150451Y-127937803D01*
X101150450Y-127937802D01*
X101131051Y-127932822D01*
X101112639Y-127926518D01*
X101094256Y-127918562D01*
X101094250Y-127918560D01*
X101048232Y-127911272D01*
X101042510Y-127910087D01*
X100997379Y-127898500D01*
X100997377Y-127898500D01*
X100977342Y-127898500D01*
X100957944Y-127896973D01*
X100950520Y-127895797D01*
X100938163Y-127893840D01*
X100938162Y-127893840D01*
X100891774Y-127898225D01*
X100885936Y-127898500D01*
X86342755Y-127898500D01*
X86275716Y-127878815D01*
X86229961Y-127826011D01*
X86224824Y-127812818D01*
X86171181Y-127647721D01*
X86171178Y-127647715D01*
X86076533Y-127483784D01*
X85949871Y-127343112D01*
X85917708Y-127319744D01*
X85796734Y-127231851D01*
X85796729Y-127231848D01*
X85623807Y-127154857D01*
X85623802Y-127154855D01*
X85478001Y-127123865D01*
X85438646Y-127115500D01*
X85249354Y-127115500D01*
X85216897Y-127122398D01*
X85064197Y-127154855D01*
X85064192Y-127154857D01*
X84891270Y-127231848D01*
X84891265Y-127231851D01*
X84738129Y-127343111D01*
X84611466Y-127483785D01*
X84516821Y-127647715D01*
X84516818Y-127647722D01*
X84458889Y-127826011D01*
X84458326Y-127827744D01*
X84438540Y-128016000D01*
X84458326Y-128204256D01*
X84458327Y-128204259D01*
X84516818Y-128384277D01*
X84516821Y-128384284D01*
X84611467Y-128548216D01*
X84738129Y-128688888D01*
X84891265Y-128800148D01*
X84891270Y-128800151D01*
X85064192Y-128877142D01*
X85064197Y-128877144D01*
X85249354Y-128916500D01*
X85307134Y-128916500D01*
X85374173Y-128936185D01*
X85392014Y-128950105D01*
X85414850Y-128971549D01*
X85416636Y-128973227D01*
X85437523Y-128994115D01*
X85437527Y-128994118D01*
X85437529Y-128994120D01*
X85443011Y-128998373D01*
X85447443Y-129002157D01*
X85481418Y-129034062D01*
X85498976Y-129043714D01*
X85515235Y-129054395D01*
X85531064Y-129066673D01*
X85573838Y-129085182D01*
X85579056Y-129087738D01*
X85619908Y-129110197D01*
X85639316Y-129115180D01*
X85657717Y-129121480D01*
X85676104Y-129129437D01*
X85719488Y-129136308D01*
X85722119Y-129136725D01*
X85727839Y-129137909D01*
X85772981Y-129149500D01*
X85793016Y-129149500D01*
X85812415Y-129151027D01*
X85832196Y-129154160D01*
X85872434Y-129150356D01*
X85878582Y-129149775D01*
X85884420Y-129149500D01*
X100607906Y-129149500D01*
X100674945Y-129169185D01*
X100695587Y-129185819D01*
X101179896Y-129670129D01*
X101213381Y-129731452D01*
X101215536Y-129744848D01*
X101224615Y-129831229D01*
X101233184Y-129912756D01*
X101256717Y-129985182D01*
X101258712Y-130055023D01*
X101222632Y-130114856D01*
X101159931Y-130145684D01*
X101138786Y-130147500D01*
X89775552Y-130147500D01*
X89708513Y-130127815D01*
X89668165Y-130085500D01*
X89632534Y-130023785D01*
X89543535Y-129924942D01*
X89505871Y-129883112D01*
X89505870Y-129883111D01*
X89352734Y-129771851D01*
X89352729Y-129771848D01*
X89179807Y-129694857D01*
X89179802Y-129694855D01*
X89034001Y-129663865D01*
X88994646Y-129655500D01*
X88805354Y-129655500D01*
X88772897Y-129662398D01*
X88620197Y-129694855D01*
X88620192Y-129694857D01*
X88447270Y-129771848D01*
X88447265Y-129771851D01*
X88294129Y-129883111D01*
X88167465Y-130023785D01*
X88131835Y-130085500D01*
X88081268Y-130133716D01*
X88024448Y-130147500D01*
X84855453Y-130147500D01*
X84788414Y-130127815D01*
X84767772Y-130111181D01*
X83973819Y-129317228D01*
X83940334Y-129255905D01*
X83937500Y-129229547D01*
X83937500Y-126612910D01*
X103762912Y-126612910D01*
X103782698Y-126801166D01*
X103782699Y-126801169D01*
X103841190Y-126981187D01*
X103841193Y-126981194D01*
X103935839Y-127145126D01*
X104013924Y-127231848D01*
X104062501Y-127285798D01*
X104215637Y-127397058D01*
X104215642Y-127397061D01*
X104388564Y-127474052D01*
X104388569Y-127474054D01*
X104573726Y-127513410D01*
X104573727Y-127513410D01*
X104763016Y-127513410D01*
X104763018Y-127513410D01*
X104948175Y-127474054D01*
X105121102Y-127397061D01*
X105274243Y-127285798D01*
X105400905Y-127145126D01*
X105495551Y-126981194D01*
X105554046Y-126801166D01*
X105573832Y-126612910D01*
X105561124Y-126492000D01*
X106282540Y-126492000D01*
X106302326Y-126680256D01*
X106302327Y-126680259D01*
X106360818Y-126860277D01*
X106360821Y-126860284D01*
X106455467Y-127024216D01*
X106564333Y-127145124D01*
X106582129Y-127164888D01*
X106735265Y-127276148D01*
X106735270Y-127276151D01*
X106908192Y-127353142D01*
X106908197Y-127353144D01*
X107093354Y-127392500D01*
X107093355Y-127392500D01*
X107282644Y-127392500D01*
X107282646Y-127392500D01*
X107467803Y-127353144D01*
X107640730Y-127276151D01*
X107793871Y-127164888D01*
X107920533Y-127024216D01*
X108015179Y-126860284D01*
X108073674Y-126680256D01*
X108079077Y-126628853D01*
X114139192Y-126628853D01*
X114158978Y-126817109D01*
X114158979Y-126817112D01*
X114217470Y-126997130D01*
X114217473Y-126997137D01*
X114312119Y-127161069D01*
X114375849Y-127231848D01*
X114438781Y-127301741D01*
X114591917Y-127413001D01*
X114591922Y-127413004D01*
X114764844Y-127489995D01*
X114764849Y-127489997D01*
X114950006Y-127529353D01*
X114950007Y-127529353D01*
X115139296Y-127529353D01*
X115139298Y-127529353D01*
X115239757Y-127508000D01*
X116950540Y-127508000D01*
X116970326Y-127696256D01*
X116970327Y-127696259D01*
X117028818Y-127876277D01*
X117028821Y-127876284D01*
X117123467Y-128040216D01*
X117250129Y-128180888D01*
X117403265Y-128292148D01*
X117403270Y-128292151D01*
X117576192Y-128369142D01*
X117576197Y-128369144D01*
X117761354Y-128408500D01*
X117761355Y-128408500D01*
X117950644Y-128408500D01*
X117950646Y-128408500D01*
X118135803Y-128369144D01*
X118308730Y-128292151D01*
X118461871Y-128180888D01*
X118588533Y-128040216D01*
X118683179Y-127876284D01*
X118741674Y-127696256D01*
X118761460Y-127508000D01*
X118741674Y-127319744D01*
X118683179Y-127139716D01*
X118588533Y-126975784D01*
X118461871Y-126835112D01*
X118461870Y-126835111D01*
X118308734Y-126723851D01*
X118308729Y-126723848D01*
X118135807Y-126646857D01*
X118135802Y-126646855D01*
X117976098Y-126612910D01*
X117950646Y-126607500D01*
X117761354Y-126607500D01*
X117735902Y-126612910D01*
X117576197Y-126646855D01*
X117576192Y-126646857D01*
X117403270Y-126723848D01*
X117403265Y-126723851D01*
X117250129Y-126835111D01*
X117123466Y-126975785D01*
X117028821Y-127139715D01*
X117028818Y-127139722D01*
X116970327Y-127319740D01*
X116970326Y-127319744D01*
X116950540Y-127508000D01*
X115239757Y-127508000D01*
X115324455Y-127489997D01*
X115497382Y-127413004D01*
X115650523Y-127301741D01*
X115777185Y-127161069D01*
X115871831Y-126997137D01*
X115930326Y-126817109D01*
X115950112Y-126628853D01*
X115930326Y-126440597D01*
X115874082Y-126267497D01*
X115871833Y-126260575D01*
X115871832Y-126260574D01*
X115871831Y-126260569D01*
X115777185Y-126096637D01*
X115650523Y-125955965D01*
X115650522Y-125955964D01*
X115497386Y-125844704D01*
X115497381Y-125844701D01*
X115324459Y-125767710D01*
X115324454Y-125767708D01*
X115178653Y-125736718D01*
X115139298Y-125728353D01*
X114950006Y-125728353D01*
X114917549Y-125735251D01*
X114764849Y-125767708D01*
X114764844Y-125767710D01*
X114591922Y-125844701D01*
X114591917Y-125844704D01*
X114438781Y-125955964D01*
X114312118Y-126096638D01*
X114217473Y-126260568D01*
X114217470Y-126260575D01*
X114164158Y-126424654D01*
X114158978Y-126440597D01*
X114139192Y-126628853D01*
X108079077Y-126628853D01*
X108093460Y-126492000D01*
X108073674Y-126303744D01*
X108015179Y-126123716D01*
X107920533Y-125959784D01*
X107793871Y-125819112D01*
X107761708Y-125795744D01*
X107640734Y-125707851D01*
X107640729Y-125707848D01*
X107467807Y-125630857D01*
X107467802Y-125630855D01*
X107322001Y-125599865D01*
X107282646Y-125591500D01*
X107093354Y-125591500D01*
X107060897Y-125598398D01*
X106908197Y-125630855D01*
X106908192Y-125630857D01*
X106735270Y-125707848D01*
X106735265Y-125707851D01*
X106582129Y-125819111D01*
X106455466Y-125959785D01*
X106360821Y-126123715D01*
X106360818Y-126123722D01*
X106302327Y-126303740D01*
X106302326Y-126303744D01*
X106282540Y-126492000D01*
X105561124Y-126492000D01*
X105554046Y-126424654D01*
X105495551Y-126244626D01*
X105400905Y-126080694D01*
X105274243Y-125940022D01*
X105274242Y-125940021D01*
X105121106Y-125828761D01*
X105121101Y-125828758D01*
X104948179Y-125751767D01*
X104948174Y-125751765D01*
X104802373Y-125720775D01*
X104763018Y-125712410D01*
X104573726Y-125712410D01*
X104541269Y-125719308D01*
X104388569Y-125751765D01*
X104388564Y-125751767D01*
X104215642Y-125828758D01*
X104215637Y-125828761D01*
X104062501Y-125940021D01*
X103935838Y-126080695D01*
X103841193Y-126244625D01*
X103841190Y-126244632D01*
X103798344Y-126376500D01*
X103782698Y-126424654D01*
X103762912Y-126612910D01*
X83937500Y-126612910D01*
X83937500Y-120198453D01*
X83957185Y-120131414D01*
X83973819Y-120110771D01*
X84042773Y-120041818D01*
X84104097Y-120008334D01*
X84130454Y-120005500D01*
X85603548Y-120005500D01*
X85670587Y-120025185D01*
X85691229Y-120041819D01*
X85708878Y-120059468D01*
X85742363Y-120120791D01*
X85737379Y-120190483D01*
X85695507Y-120246416D01*
X85694083Y-120247467D01*
X85627127Y-120296113D01*
X85500466Y-120436785D01*
X85405821Y-120600715D01*
X85405818Y-120600722D01*
X85348416Y-120777388D01*
X85347326Y-120780744D01*
X85327540Y-120969000D01*
X85347326Y-121157256D01*
X85347327Y-121157259D01*
X85405818Y-121337277D01*
X85405821Y-121337284D01*
X85500467Y-121501216D01*
X85543772Y-121549310D01*
X85575650Y-121584715D01*
X85605880Y-121647706D01*
X85607500Y-121667687D01*
X85607500Y-121806255D01*
X85605775Y-121821872D01*
X85606061Y-121821899D01*
X85605326Y-121829665D01*
X85607500Y-121898814D01*
X85607500Y-121928343D01*
X85607501Y-121928360D01*
X85608368Y-121935231D01*
X85608826Y-121941050D01*
X85610290Y-121987624D01*
X85610291Y-121987627D01*
X85615880Y-122006867D01*
X85619824Y-122025911D01*
X85622336Y-122045791D01*
X85639490Y-122089119D01*
X85641382Y-122094647D01*
X85654381Y-122139388D01*
X85664580Y-122156634D01*
X85673138Y-122174103D01*
X85680514Y-122192732D01*
X85707898Y-122230423D01*
X85711106Y-122235307D01*
X85734827Y-122275416D01*
X85734833Y-122275424D01*
X85748990Y-122289580D01*
X85761628Y-122304376D01*
X85773405Y-122320586D01*
X85773406Y-122320587D01*
X85809309Y-122350288D01*
X85813620Y-122354210D01*
X86299527Y-122840117D01*
X86779194Y-123319784D01*
X86789019Y-123332048D01*
X86789240Y-123331866D01*
X86794210Y-123337873D01*
X86794213Y-123337876D01*
X86794214Y-123337877D01*
X86844651Y-123385241D01*
X86865530Y-123406120D01*
X86871004Y-123410366D01*
X86875442Y-123414156D01*
X86909418Y-123446062D01*
X86926973Y-123455713D01*
X86943231Y-123466392D01*
X86959064Y-123478674D01*
X86981015Y-123488172D01*
X87001837Y-123497183D01*
X87007081Y-123499752D01*
X87047908Y-123522197D01*
X87067312Y-123527179D01*
X87085710Y-123533478D01*
X87104105Y-123541438D01*
X87150129Y-123548726D01*
X87155832Y-123549907D01*
X87200981Y-123561500D01*
X87221016Y-123561500D01*
X87240413Y-123563026D01*
X87260196Y-123566160D01*
X87306584Y-123561775D01*
X87312422Y-123561500D01*
X91973368Y-123561500D01*
X92040407Y-123581185D01*
X92086162Y-123633989D01*
X92096106Y-123703147D01*
X92091300Y-123723813D01*
X92085930Y-123740341D01*
X92078326Y-123763742D01*
X92078326Y-123763744D01*
X92058540Y-123952000D01*
X92078326Y-124140256D01*
X92078327Y-124140259D01*
X92136818Y-124320277D01*
X92136821Y-124320284D01*
X92231467Y-124484216D01*
X92339260Y-124603932D01*
X92358129Y-124624888D01*
X92511265Y-124736148D01*
X92511270Y-124736151D01*
X92684192Y-124813142D01*
X92684197Y-124813144D01*
X92869354Y-124852500D01*
X92869355Y-124852500D01*
X93058644Y-124852500D01*
X93058646Y-124852500D01*
X93243803Y-124813144D01*
X93416730Y-124736151D01*
X93569871Y-124624888D01*
X93696533Y-124484216D01*
X93791179Y-124320284D01*
X93849674Y-124140256D01*
X93869460Y-123952000D01*
X93849674Y-123763744D01*
X93836700Y-123723817D01*
X93834706Y-123653978D01*
X93870786Y-123594145D01*
X93933487Y-123563316D01*
X93954632Y-123561500D01*
X98577368Y-123561500D01*
X98644407Y-123581185D01*
X98690162Y-123633989D01*
X98700106Y-123703147D01*
X98695300Y-123723813D01*
X98689930Y-123740341D01*
X98682326Y-123763742D01*
X98682326Y-123763744D01*
X98662540Y-123952000D01*
X98682326Y-124140256D01*
X98682327Y-124140259D01*
X98740818Y-124320277D01*
X98740821Y-124320284D01*
X98815308Y-124449300D01*
X98831781Y-124517201D01*
X98808928Y-124583227D01*
X98758357Y-124624579D01*
X98607270Y-124691848D01*
X98607265Y-124691851D01*
X98454129Y-124803111D01*
X98327466Y-124943785D01*
X98232821Y-125107715D01*
X98232818Y-125107722D01*
X98174327Y-125287740D01*
X98174326Y-125287744D01*
X98154540Y-125476000D01*
X98174326Y-125664256D01*
X98174327Y-125664259D01*
X98232818Y-125844277D01*
X98232821Y-125844284D01*
X98327467Y-126008216D01*
X98445095Y-126138855D01*
X98454129Y-126148888D01*
X98607265Y-126260148D01*
X98607270Y-126260151D01*
X98780192Y-126337142D01*
X98780197Y-126337144D01*
X98965354Y-126376500D01*
X98965355Y-126376500D01*
X99154644Y-126376500D01*
X99154646Y-126376500D01*
X99339803Y-126337144D01*
X99512730Y-126260151D01*
X99665871Y-126148888D01*
X99792533Y-126008216D01*
X99887179Y-125844284D01*
X99945674Y-125664256D01*
X99965460Y-125476000D01*
X99945674Y-125287744D01*
X99887179Y-125107716D01*
X99812690Y-124978698D01*
X99796218Y-124910799D01*
X99819071Y-124844772D01*
X99869637Y-124803422D01*
X100020730Y-124736151D01*
X100020734Y-124736147D01*
X100024038Y-124734677D01*
X100093288Y-124725393D01*
X100156565Y-124755021D01*
X100193778Y-124814156D01*
X100197794Y-124860915D01*
X100186540Y-124968000D01*
X100206326Y-125156256D01*
X100206327Y-125156259D01*
X100264818Y-125336277D01*
X100264821Y-125336284D01*
X100359467Y-125500216D01*
X100477095Y-125630855D01*
X100486129Y-125640888D01*
X100639265Y-125752148D01*
X100639270Y-125752151D01*
X100812192Y-125829142D01*
X100812197Y-125829144D01*
X100997354Y-125868500D01*
X100997355Y-125868500D01*
X101186644Y-125868500D01*
X101186646Y-125868500D01*
X101371803Y-125829144D01*
X101544730Y-125752151D01*
X101697871Y-125640888D01*
X101824533Y-125500216D01*
X101919179Y-125336284D01*
X101977674Y-125156256D01*
X101997460Y-124968000D01*
X101977674Y-124779744D01*
X101919179Y-124599716D01*
X101836032Y-124455701D01*
X110858839Y-124455701D01*
X110878625Y-124643957D01*
X110878626Y-124643960D01*
X110937117Y-124823978D01*
X110937120Y-124823985D01*
X111031766Y-124987917D01*
X111065808Y-125025724D01*
X111158428Y-125128589D01*
X111311564Y-125239849D01*
X111311569Y-125239852D01*
X111484491Y-125316843D01*
X111484496Y-125316845D01*
X111669653Y-125356201D01*
X111669654Y-125356201D01*
X111858943Y-125356201D01*
X111858945Y-125356201D01*
X112044102Y-125316845D01*
X112217029Y-125239852D01*
X112370170Y-125128589D01*
X112496832Y-124987917D01*
X112591478Y-124823985D01*
X112649973Y-124643957D01*
X112669759Y-124455701D01*
X112649973Y-124267445D01*
X112591478Y-124087417D01*
X112496832Y-123923485D01*
X112370170Y-123782813D01*
X112343921Y-123763742D01*
X112217033Y-123671552D01*
X112217028Y-123671549D01*
X112044106Y-123594558D01*
X112044101Y-123594556D01*
X111895350Y-123562939D01*
X111858945Y-123555201D01*
X111669653Y-123555201D01*
X111637196Y-123562099D01*
X111484496Y-123594556D01*
X111484491Y-123594558D01*
X111311569Y-123671549D01*
X111311564Y-123671552D01*
X111158428Y-123782812D01*
X111031765Y-123923486D01*
X110937120Y-124087416D01*
X110937117Y-124087423D01*
X110891393Y-124228148D01*
X110878625Y-124267445D01*
X110858839Y-124455701D01*
X101836032Y-124455701D01*
X101824533Y-124435784D01*
X101697871Y-124295112D01*
X101697870Y-124295111D01*
X101544734Y-124183851D01*
X101544729Y-124183848D01*
X101371807Y-124106857D01*
X101371802Y-124106855D01*
X101226001Y-124075865D01*
X101186646Y-124067500D01*
X100997354Y-124067500D01*
X100947375Y-124078123D01*
X100812199Y-124106855D01*
X100635961Y-124185322D01*
X100566711Y-124194606D01*
X100503434Y-124164978D01*
X100466221Y-124105843D01*
X100462204Y-124059088D01*
X100473460Y-123952000D01*
X100453674Y-123763744D01*
X100440700Y-123723817D01*
X100438706Y-123653978D01*
X100474786Y-123594145D01*
X100537487Y-123563316D01*
X100558632Y-123561500D01*
X101526562Y-123561500D01*
X101542182Y-123563224D01*
X101542209Y-123562939D01*
X101549965Y-123563671D01*
X101549972Y-123563673D01*
X101619119Y-123561500D01*
X101648655Y-123561500D01*
X101655533Y-123560630D01*
X101661346Y-123560172D01*
X101707932Y-123558709D01*
X101727174Y-123553117D01*
X101746217Y-123549174D01*
X101766097Y-123546664D01*
X101809427Y-123529507D01*
X101814951Y-123527617D01*
X101818701Y-123526527D01*
X101859695Y-123514618D01*
X101876934Y-123504422D01*
X101894408Y-123495862D01*
X101913032Y-123488488D01*
X101913032Y-123488487D01*
X101913037Y-123488486D01*
X101950754Y-123461082D01*
X101955610Y-123457892D01*
X101995725Y-123434170D01*
X102009894Y-123419999D01*
X102024684Y-123407368D01*
X102040892Y-123395594D01*
X102070604Y-123359676D01*
X102074517Y-123355376D01*
X103666398Y-121763495D01*
X103727719Y-121730012D01*
X103797411Y-121734996D01*
X103853344Y-121776868D01*
X103861464Y-121789178D01*
X103871323Y-121806255D01*
X103915467Y-121882714D01*
X104026517Y-122006047D01*
X104042129Y-122023386D01*
X104195265Y-122134646D01*
X104195270Y-122134649D01*
X104368192Y-122211640D01*
X104368197Y-122211642D01*
X104553354Y-122250998D01*
X104553355Y-122250998D01*
X104742644Y-122250998D01*
X104742646Y-122250998D01*
X104927803Y-122211642D01*
X105006084Y-122176788D01*
X105075331Y-122167503D01*
X105138608Y-122197131D01*
X105174448Y-122251747D01*
X105186318Y-122288276D01*
X105186321Y-122288284D01*
X105280967Y-122452216D01*
X105398595Y-122582855D01*
X105407629Y-122592888D01*
X105560765Y-122704148D01*
X105560770Y-122704151D01*
X105733692Y-122781142D01*
X105733697Y-122781144D01*
X105918854Y-122820500D01*
X105918855Y-122820500D01*
X106108144Y-122820500D01*
X106108146Y-122820500D01*
X106293303Y-122781144D01*
X106466230Y-122704151D01*
X106619371Y-122592888D01*
X106746033Y-122452216D01*
X106840679Y-122288284D01*
X106899174Y-122108256D01*
X106918960Y-121920000D01*
X106899174Y-121731744D01*
X106840679Y-121551716D01*
X106746033Y-121387784D01*
X106696848Y-121333159D01*
X108416852Y-121333159D01*
X108436638Y-121521415D01*
X108436639Y-121521418D01*
X108495130Y-121701436D01*
X108495133Y-121701443D01*
X108589779Y-121865375D01*
X108699853Y-121987624D01*
X108716441Y-122006047D01*
X108869577Y-122117307D01*
X108869582Y-122117310D01*
X109042504Y-122194301D01*
X109042509Y-122194303D01*
X109227666Y-122233659D01*
X109227667Y-122233659D01*
X109416956Y-122233659D01*
X109416958Y-122233659D01*
X109602115Y-122194303D01*
X109775042Y-122117310D01*
X109928183Y-122006047D01*
X110054845Y-121865375D01*
X110149491Y-121701443D01*
X110207986Y-121521415D01*
X110227772Y-121333159D01*
X110207986Y-121144903D01*
X110196194Y-121108612D01*
X114410539Y-121108612D01*
X114430325Y-121296868D01*
X114430326Y-121296871D01*
X114488817Y-121476889D01*
X114488820Y-121476896D01*
X114583466Y-121640828D01*
X114693918Y-121763497D01*
X114710128Y-121781500D01*
X114863264Y-121892760D01*
X114863269Y-121892763D01*
X115036191Y-121969754D01*
X115036196Y-121969756D01*
X115221353Y-122009112D01*
X115221354Y-122009112D01*
X115410643Y-122009112D01*
X115410645Y-122009112D01*
X115595802Y-121969756D01*
X115768729Y-121892763D01*
X115921870Y-121781500D01*
X116048532Y-121640828D01*
X116143178Y-121476896D01*
X116164264Y-121412000D01*
X119490540Y-121412000D01*
X119510326Y-121600256D01*
X119510327Y-121600259D01*
X119568818Y-121780277D01*
X119568821Y-121780284D01*
X119663467Y-121944216D01*
X119737032Y-122025918D01*
X119790129Y-122084888D01*
X119943265Y-122196148D01*
X119943270Y-122196151D01*
X120116192Y-122273142D01*
X120116197Y-122273144D01*
X120301354Y-122312500D01*
X120301355Y-122312500D01*
X120490644Y-122312500D01*
X120490646Y-122312500D01*
X120675803Y-122273144D01*
X120848730Y-122196151D01*
X121001871Y-122084888D01*
X121128533Y-121944216D01*
X121223179Y-121780284D01*
X121281674Y-121600256D01*
X121301460Y-121412000D01*
X122030540Y-121412000D01*
X122050326Y-121600256D01*
X122050327Y-121600259D01*
X122108818Y-121780277D01*
X122108821Y-121780284D01*
X122203467Y-121944216D01*
X122277032Y-122025918D01*
X122330129Y-122084888D01*
X122483265Y-122196148D01*
X122483270Y-122196151D01*
X122656192Y-122273142D01*
X122656197Y-122273144D01*
X122841354Y-122312500D01*
X122841355Y-122312500D01*
X123030644Y-122312500D01*
X123030646Y-122312500D01*
X123215803Y-122273144D01*
X123388730Y-122196151D01*
X123541871Y-122084888D01*
X123668533Y-121944216D01*
X123763179Y-121780284D01*
X123821674Y-121600256D01*
X123841460Y-121412000D01*
X123821674Y-121223744D01*
X123763179Y-121043716D01*
X123668533Y-120879784D01*
X123541871Y-120739112D01*
X123541870Y-120739111D01*
X123388734Y-120627851D01*
X123388729Y-120627848D01*
X123215807Y-120550857D01*
X123215802Y-120550855D01*
X123069657Y-120519792D01*
X123030646Y-120511500D01*
X122841354Y-120511500D01*
X122808897Y-120518398D01*
X122656197Y-120550855D01*
X122656192Y-120550857D01*
X122483270Y-120627848D01*
X122483265Y-120627851D01*
X122330129Y-120739111D01*
X122203466Y-120879785D01*
X122108821Y-121043715D01*
X122108818Y-121043722D01*
X122052621Y-121216681D01*
X122050326Y-121223744D01*
X122030540Y-121412000D01*
X121301460Y-121412000D01*
X121281674Y-121223744D01*
X121223179Y-121043716D01*
X121128533Y-120879784D01*
X121001871Y-120739112D01*
X121001870Y-120739111D01*
X120848734Y-120627851D01*
X120848729Y-120627848D01*
X120675807Y-120550857D01*
X120675802Y-120550855D01*
X120529657Y-120519792D01*
X120490646Y-120511500D01*
X120301354Y-120511500D01*
X120268897Y-120518398D01*
X120116197Y-120550855D01*
X120116192Y-120550857D01*
X119943270Y-120627848D01*
X119943265Y-120627851D01*
X119790129Y-120739111D01*
X119663466Y-120879785D01*
X119568821Y-121043715D01*
X119568818Y-121043722D01*
X119512621Y-121216681D01*
X119510326Y-121223744D01*
X119490540Y-121412000D01*
X116164264Y-121412000D01*
X116201673Y-121296868D01*
X116221459Y-121108612D01*
X116201673Y-120920356D01*
X116143178Y-120740328D01*
X116048532Y-120576396D01*
X115921870Y-120435724D01*
X115921869Y-120435723D01*
X115768733Y-120324463D01*
X115768728Y-120324460D01*
X115595806Y-120247469D01*
X115595801Y-120247467D01*
X115442971Y-120214983D01*
X115410645Y-120208112D01*
X115221353Y-120208112D01*
X115189027Y-120214983D01*
X115036196Y-120247467D01*
X115036191Y-120247469D01*
X114863269Y-120324460D01*
X114863264Y-120324463D01*
X114710128Y-120435723D01*
X114583465Y-120576397D01*
X114488820Y-120740327D01*
X114488817Y-120740334D01*
X114430326Y-120920352D01*
X114430325Y-120920356D01*
X114410539Y-121108612D01*
X110196194Y-121108612D01*
X110149491Y-120964875D01*
X110054845Y-120800943D01*
X109928183Y-120660271D01*
X109928182Y-120660270D01*
X109775046Y-120549010D01*
X109775041Y-120549007D01*
X109602119Y-120472016D01*
X109602114Y-120472014D01*
X109436369Y-120436785D01*
X109416958Y-120432659D01*
X109227666Y-120432659D01*
X109208255Y-120436785D01*
X109042509Y-120472014D01*
X109042504Y-120472016D01*
X108869582Y-120549007D01*
X108869577Y-120549010D01*
X108716441Y-120660270D01*
X108589778Y-120800944D01*
X108495133Y-120964874D01*
X108495130Y-120964881D01*
X108439580Y-121135848D01*
X108436638Y-121144903D01*
X108416852Y-121333159D01*
X106696848Y-121333159D01*
X106619371Y-121247112D01*
X106587208Y-121223744D01*
X106466234Y-121135851D01*
X106466229Y-121135848D01*
X106293307Y-121058857D01*
X106293302Y-121058855D01*
X106147501Y-121027865D01*
X106108146Y-121019500D01*
X105918854Y-121019500D01*
X105886397Y-121026398D01*
X105733697Y-121058855D01*
X105733696Y-121058855D01*
X105655415Y-121093709D01*
X105586165Y-121102993D01*
X105522889Y-121073364D01*
X105487050Y-121018749D01*
X105475179Y-120982214D01*
X105380533Y-120818282D01*
X105253871Y-120677610D01*
X105253870Y-120677609D01*
X105100727Y-120566344D01*
X105095104Y-120563098D01*
X105095807Y-120561880D01*
X105048192Y-120521397D01*
X105027879Y-120454545D01*
X105046935Y-120387324D01*
X105064188Y-120365706D01*
X106049895Y-119380000D01*
X125078540Y-119380000D01*
X125098326Y-119568256D01*
X125098327Y-119568259D01*
X125156818Y-119748277D01*
X125156821Y-119748284D01*
X125251467Y-119912216D01*
X125368162Y-120041819D01*
X125378129Y-120052888D01*
X125531265Y-120164148D01*
X125531270Y-120164151D01*
X125704192Y-120241142D01*
X125704197Y-120241144D01*
X125889354Y-120280500D01*
X125889355Y-120280500D01*
X126078644Y-120280500D01*
X126078646Y-120280500D01*
X126263803Y-120241144D01*
X126436730Y-120164151D01*
X126589871Y-120052888D01*
X126716533Y-119912216D01*
X126811179Y-119748284D01*
X126869674Y-119568256D01*
X126889460Y-119380000D01*
X126869674Y-119191744D01*
X126811179Y-119011716D01*
X126716533Y-118847784D01*
X126589871Y-118707112D01*
X126589870Y-118707111D01*
X126436734Y-118595851D01*
X126436729Y-118595848D01*
X126263807Y-118518857D01*
X126263802Y-118518855D01*
X126118001Y-118487865D01*
X126078646Y-118479500D01*
X125889354Y-118479500D01*
X125856897Y-118486398D01*
X125704197Y-118518855D01*
X125704192Y-118518857D01*
X125531270Y-118595848D01*
X125531265Y-118595851D01*
X125378129Y-118707111D01*
X125251466Y-118847785D01*
X125156821Y-119011715D01*
X125156818Y-119011722D01*
X125107648Y-119163054D01*
X125098326Y-119191744D01*
X125078540Y-119380000D01*
X106049895Y-119380000D01*
X106404077Y-119025819D01*
X106465400Y-118992334D01*
X106491758Y-118989500D01*
X118168252Y-118989500D01*
X118235291Y-119009185D01*
X118260400Y-119030526D01*
X118266126Y-119036885D01*
X118266130Y-119036889D01*
X118419265Y-119148148D01*
X118419270Y-119148151D01*
X118592192Y-119225142D01*
X118592197Y-119225144D01*
X118777354Y-119264500D01*
X118777355Y-119264500D01*
X118966644Y-119264500D01*
X118966646Y-119264500D01*
X119151803Y-119225144D01*
X119324730Y-119148151D01*
X119477871Y-119036888D01*
X119604533Y-118896216D01*
X119699179Y-118732284D01*
X119757674Y-118552256D01*
X119777460Y-118364000D01*
X119757674Y-118175744D01*
X119699179Y-117995716D01*
X119604533Y-117831784D01*
X119477871Y-117691112D01*
X119477870Y-117691111D01*
X119324734Y-117579851D01*
X119324729Y-117579848D01*
X119151807Y-117502857D01*
X119151802Y-117502855D01*
X118996657Y-117469879D01*
X118966646Y-117463500D01*
X118777354Y-117463500D01*
X118747343Y-117469879D01*
X118592197Y-117502855D01*
X118592192Y-117502857D01*
X118419270Y-117579848D01*
X118419265Y-117579851D01*
X118266130Y-117691110D01*
X118266126Y-117691114D01*
X118260400Y-117697474D01*
X118200913Y-117734121D01*
X118168252Y-117738500D01*
X107174599Y-117738500D01*
X107107560Y-117718815D01*
X107061805Y-117666011D01*
X107051861Y-117596853D01*
X107080886Y-117533297D01*
X107086918Y-117526819D01*
X107491373Y-117122364D01*
X123046289Y-117122364D01*
X123066075Y-117310620D01*
X123066076Y-117310623D01*
X123124567Y-117490641D01*
X123124570Y-117490648D01*
X123219216Y-117654580D01*
X123294778Y-117738500D01*
X123345878Y-117795252D01*
X123499014Y-117906512D01*
X123499019Y-117906515D01*
X123671941Y-117983506D01*
X123671946Y-117983508D01*
X123857103Y-118022864D01*
X123857104Y-118022864D01*
X124046393Y-118022864D01*
X124046395Y-118022864D01*
X124231552Y-117983508D01*
X124404479Y-117906515D01*
X124557620Y-117795252D01*
X124684282Y-117654580D01*
X124778928Y-117490648D01*
X124837423Y-117310620D01*
X124857209Y-117122364D01*
X124837423Y-116934108D01*
X124778928Y-116754080D01*
X124684282Y-116590148D01*
X124557620Y-116449476D01*
X124542421Y-116438433D01*
X124404483Y-116338215D01*
X124404478Y-116338212D01*
X124231556Y-116261221D01*
X124231551Y-116261219D01*
X124085750Y-116230229D01*
X124046395Y-116221864D01*
X123857103Y-116221864D01*
X123824646Y-116228762D01*
X123671946Y-116261219D01*
X123671941Y-116261221D01*
X123499019Y-116338212D01*
X123499014Y-116338215D01*
X123345878Y-116449475D01*
X123219215Y-116590149D01*
X123124570Y-116754079D01*
X123124567Y-116754086D01*
X123066076Y-116934104D01*
X123066075Y-116934108D01*
X123046289Y-117122364D01*
X107491373Y-117122364D01*
X108848192Y-115765545D01*
X112315647Y-115765545D01*
X112335433Y-115953801D01*
X112335434Y-115953804D01*
X112393925Y-116133822D01*
X112393928Y-116133829D01*
X112488574Y-116297761D01*
X112564368Y-116381938D01*
X112615236Y-116438433D01*
X112768372Y-116549693D01*
X112768377Y-116549696D01*
X112941299Y-116626687D01*
X112941304Y-116626689D01*
X113126461Y-116666045D01*
X113126462Y-116666045D01*
X113315751Y-116666045D01*
X113315753Y-116666045D01*
X113500910Y-116626689D01*
X113673837Y-116549696D01*
X113826978Y-116438433D01*
X113953640Y-116297761D01*
X114048286Y-116133829D01*
X114106781Y-115953801D01*
X114120423Y-115824000D01*
X126602540Y-115824000D01*
X126622326Y-116012256D01*
X126622327Y-116012259D01*
X126680818Y-116192277D01*
X126680821Y-116192284D01*
X126775467Y-116356216D01*
X126902129Y-116496888D01*
X127055265Y-116608148D01*
X127055270Y-116608151D01*
X127228192Y-116685142D01*
X127228197Y-116685144D01*
X127413354Y-116724500D01*
X127413355Y-116724500D01*
X127602644Y-116724500D01*
X127602646Y-116724500D01*
X127787803Y-116685144D01*
X127960730Y-116608151D01*
X128113871Y-116496888D01*
X128240533Y-116356216D01*
X128335179Y-116192284D01*
X128393674Y-116012256D01*
X128413460Y-115824000D01*
X128393674Y-115635744D01*
X128335179Y-115455716D01*
X128240533Y-115291784D01*
X128113871Y-115151112D01*
X128113870Y-115151111D01*
X127960734Y-115039851D01*
X127960729Y-115039848D01*
X127787807Y-114962857D01*
X127787802Y-114962855D01*
X127642001Y-114931865D01*
X127602646Y-114923500D01*
X127413354Y-114923500D01*
X127380897Y-114930398D01*
X127228197Y-114962855D01*
X127228192Y-114962857D01*
X127055270Y-115039848D01*
X127055265Y-115039851D01*
X126902129Y-115151111D01*
X126775466Y-115291785D01*
X126680821Y-115455715D01*
X126680818Y-115455722D01*
X126641319Y-115577289D01*
X126622326Y-115635744D01*
X126602540Y-115824000D01*
X114120423Y-115824000D01*
X114126567Y-115765545D01*
X114106781Y-115577289D01*
X114048286Y-115397261D01*
X113953640Y-115233329D01*
X113826978Y-115092657D01*
X113823317Y-115089997D01*
X113673841Y-114981396D01*
X113673836Y-114981393D01*
X113500914Y-114904402D01*
X113500909Y-114904400D01*
X113355108Y-114873410D01*
X113315753Y-114865045D01*
X113126461Y-114865045D01*
X113094004Y-114871943D01*
X112941304Y-114904400D01*
X112941299Y-114904402D01*
X112768377Y-114981393D01*
X112768372Y-114981396D01*
X112615236Y-115092656D01*
X112488573Y-115233330D01*
X112393928Y-115397260D01*
X112393925Y-115397267D01*
X112340262Y-115562426D01*
X112335433Y-115577289D01*
X112315647Y-115765545D01*
X108848192Y-115765545D01*
X109805188Y-114808549D01*
X110313737Y-114300000D01*
X115426540Y-114300000D01*
X115446326Y-114488256D01*
X115446327Y-114488259D01*
X115504818Y-114668277D01*
X115504821Y-114668284D01*
X115599467Y-114832216D01*
X115704820Y-114949222D01*
X115726129Y-114972888D01*
X115879265Y-115084148D01*
X115879270Y-115084151D01*
X116052192Y-115161142D01*
X116052197Y-115161144D01*
X116237354Y-115200500D01*
X116237355Y-115200500D01*
X116426644Y-115200500D01*
X116426646Y-115200500D01*
X116611803Y-115161144D01*
X116784730Y-115084151D01*
X116937871Y-114972888D01*
X117064533Y-114832216D01*
X117159179Y-114668284D01*
X117217674Y-114488256D01*
X117237460Y-114300000D01*
X117217674Y-114111744D01*
X117159179Y-113931716D01*
X117064533Y-113767784D01*
X116937871Y-113627112D01*
X116905708Y-113603744D01*
X116784734Y-113515851D01*
X116784729Y-113515848D01*
X116611807Y-113438857D01*
X116611802Y-113438855D01*
X116466001Y-113407865D01*
X116426646Y-113399500D01*
X116237354Y-113399500D01*
X116204897Y-113406398D01*
X116052197Y-113438855D01*
X116052192Y-113438857D01*
X115879270Y-113515848D01*
X115879265Y-113515851D01*
X115726129Y-113627111D01*
X115599466Y-113767785D01*
X115504821Y-113931715D01*
X115504818Y-113931722D01*
X115446327Y-114111740D01*
X115446326Y-114111744D01*
X115426540Y-114300000D01*
X110313737Y-114300000D01*
X112651788Y-111961948D01*
X112664042Y-111952133D01*
X112663859Y-111951911D01*
X112669866Y-111946939D01*
X112669877Y-111946933D01*
X112705460Y-111909041D01*
X112717227Y-111896511D01*
X112727671Y-111886065D01*
X112738120Y-111875618D01*
X112742379Y-111870125D01*
X112746152Y-111865708D01*
X112778062Y-111831729D01*
X112787713Y-111814171D01*
X112798396Y-111797908D01*
X112810673Y-111782083D01*
X112829185Y-111739300D01*
X112831738Y-111734088D01*
X112854197Y-111693239D01*
X112859180Y-111673827D01*
X112865481Y-111655427D01*
X112873437Y-111637043D01*
X112880729Y-111590999D01*
X112881906Y-111585318D01*
X112893500Y-111540166D01*
X112893500Y-111520130D01*
X112895027Y-111500729D01*
X112898160Y-111480951D01*
X112895494Y-111452750D01*
X112908782Y-111384158D01*
X112926795Y-111358109D01*
X113000533Y-111276216D01*
X113087901Y-111124890D01*
X117208745Y-111124890D01*
X117228531Y-111313146D01*
X117228532Y-111313149D01*
X117287023Y-111493167D01*
X117287026Y-111493174D01*
X117381672Y-111657106D01*
X117476333Y-111762237D01*
X117508334Y-111797778D01*
X117661470Y-111909038D01*
X117661475Y-111909041D01*
X117834397Y-111986032D01*
X117834402Y-111986034D01*
X118019559Y-112025390D01*
X118019560Y-112025390D01*
X118208849Y-112025390D01*
X118208851Y-112025390D01*
X118394008Y-111986034D01*
X118421468Y-111973807D01*
X118490713Y-111964521D01*
X118553990Y-111994147D01*
X118582387Y-112030790D01*
X118588609Y-112043002D01*
X118617660Y-112072052D01*
X118630297Y-112086848D01*
X118632054Y-112089266D01*
X118634473Y-112091024D01*
X118649271Y-112103663D01*
X118678313Y-112132706D01*
X118678316Y-112132708D01*
X118678318Y-112132710D01*
X118714933Y-112151366D01*
X118731520Y-112161532D01*
X118731530Y-112161539D01*
X118733932Y-112163284D01*
X118736772Y-112164206D01*
X118754735Y-112171646D01*
X118791356Y-112190306D01*
X118831941Y-112196734D01*
X118850858Y-112201276D01*
X118853231Y-112202046D01*
X118853696Y-112202198D01*
X118853697Y-112202198D01*
X118856683Y-112202198D01*
X118876081Y-112203725D01*
X118916658Y-112210152D01*
X118916660Y-112210152D01*
X118916662Y-112210152D01*
X118957239Y-112203725D01*
X118976637Y-112202198D01*
X118979621Y-112202198D01*
X118979624Y-112202198D01*
X118982465Y-112201274D01*
X119001372Y-112196735D01*
X119041964Y-112190306D01*
X119078576Y-112171650D01*
X119096554Y-112164204D01*
X119099388Y-112163284D01*
X119101804Y-112161527D01*
X119118378Y-112151370D01*
X119155002Y-112132710D01*
X119184066Y-112103645D01*
X119198849Y-112091021D01*
X119201266Y-112089266D01*
X119203023Y-112086848D01*
X119215645Y-112072066D01*
X119244710Y-112043002D01*
X119263370Y-112006378D01*
X119273527Y-111989804D01*
X119275284Y-111987388D01*
X119276204Y-111984554D01*
X119283650Y-111966576D01*
X119302306Y-111929964D01*
X119308734Y-111889375D01*
X119313276Y-111870462D01*
X119314197Y-111867626D01*
X119314198Y-111867624D01*
X119314717Y-111854340D01*
X119315428Y-111847109D01*
X119322152Y-111804660D01*
X119315430Y-111762221D01*
X119314717Y-111754969D01*
X119314198Y-111741696D01*
X119313276Y-111738858D01*
X119308734Y-111719941D01*
X119302306Y-111679356D01*
X119283646Y-111642735D01*
X119276206Y-111624772D01*
X119275284Y-111621932D01*
X119273532Y-111619520D01*
X119263366Y-111602933D01*
X119244710Y-111566318D01*
X119244708Y-111566316D01*
X119244706Y-111566313D01*
X119215663Y-111537271D01*
X119203024Y-111522473D01*
X119201266Y-111520054D01*
X119201267Y-111520054D01*
X119198848Y-111518297D01*
X119184052Y-111505660D01*
X119155002Y-111476610D01*
X119118389Y-111457954D01*
X119101803Y-111447790D01*
X119099391Y-111446038D01*
X119099390Y-111446037D01*
X119099388Y-111446036D01*
X119099385Y-111446035D01*
X119099383Y-111446034D01*
X119096549Y-111445113D01*
X119078576Y-111437668D01*
X119067391Y-111431969D01*
X119016594Y-111383995D01*
X118999799Y-111316174D01*
X119000361Y-111308553D01*
X119019665Y-111124890D01*
X118999879Y-110936634D01*
X118941384Y-110756606D01*
X118846738Y-110592674D01*
X118720076Y-110452002D01*
X118720075Y-110452001D01*
X118566939Y-110340741D01*
X118566934Y-110340738D01*
X118394012Y-110263747D01*
X118394007Y-110263745D01*
X118248206Y-110232755D01*
X118208851Y-110224390D01*
X118019559Y-110224390D01*
X117987102Y-110231288D01*
X117834402Y-110263745D01*
X117834397Y-110263747D01*
X117661475Y-110340738D01*
X117661470Y-110340741D01*
X117508334Y-110452001D01*
X117381671Y-110592675D01*
X117287026Y-110756605D01*
X117287023Y-110756612D01*
X117228532Y-110936630D01*
X117228531Y-110936634D01*
X117208745Y-111124890D01*
X113087901Y-111124890D01*
X113095179Y-111112284D01*
X113153674Y-110932256D01*
X113173460Y-110744000D01*
X113153674Y-110555744D01*
X113095179Y-110375716D01*
X113000533Y-110211784D01*
X112873871Y-110071112D01*
X112870945Y-110068986D01*
X112720734Y-109959851D01*
X112720729Y-109959848D01*
X112547807Y-109882857D01*
X112547802Y-109882855D01*
X112370874Y-109845249D01*
X112362646Y-109843500D01*
X112173354Y-109843500D01*
X112165126Y-109845249D01*
X111988197Y-109882855D01*
X111988192Y-109882857D01*
X111815270Y-109959848D01*
X111815265Y-109959851D01*
X111662129Y-110071111D01*
X111535466Y-110211785D01*
X111440821Y-110375715D01*
X111440818Y-110375722D01*
X111396491Y-110512148D01*
X111382326Y-110555744D01*
X111362540Y-110744000D01*
X111382326Y-110932256D01*
X111382327Y-110932259D01*
X111440818Y-111112277D01*
X111440820Y-111112281D01*
X111440821Y-111112284D01*
X111479496Y-111179272D01*
X111499925Y-111214656D01*
X111516396Y-111282556D01*
X111493544Y-111348583D01*
X111480218Y-111364336D01*
X109603373Y-113241181D01*
X109542050Y-113274666D01*
X109472358Y-113269682D01*
X109423543Y-113236473D01*
X109317871Y-113119112D01*
X109317870Y-113119111D01*
X109164734Y-113007851D01*
X109164729Y-113007848D01*
X108991807Y-112930857D01*
X108991802Y-112930855D01*
X108846001Y-112899865D01*
X108806646Y-112891500D01*
X108617354Y-112891500D01*
X108584897Y-112898398D01*
X108432197Y-112930855D01*
X108432192Y-112930857D01*
X108259270Y-113007848D01*
X108259265Y-113007851D01*
X108106129Y-113119111D01*
X107979466Y-113259785D01*
X107884821Y-113423715D01*
X107884818Y-113423722D01*
X107854884Y-113515851D01*
X107826326Y-113603744D01*
X107806540Y-113792000D01*
X107826326Y-113980256D01*
X107826327Y-113980259D01*
X107884818Y-114160277D01*
X107884821Y-114160284D01*
X107979467Y-114324216D01*
X108080897Y-114436866D01*
X108091740Y-114448908D01*
X108106129Y-114464888D01*
X108138297Y-114488259D01*
X108147103Y-114494657D01*
X108189768Y-114549987D01*
X108195747Y-114619601D01*
X108163141Y-114681396D01*
X108161898Y-114682656D01*
X107749849Y-115094705D01*
X107688526Y-115128190D01*
X107618834Y-115123206D01*
X107570019Y-115089997D01*
X107559031Y-115077794D01*
X107559024Y-115077788D01*
X107405894Y-114966533D01*
X107405889Y-114966530D01*
X107232967Y-114889539D01*
X107232962Y-114889537D01*
X107087161Y-114858547D01*
X107047806Y-114850182D01*
X106858514Y-114850182D01*
X106826057Y-114857080D01*
X106673357Y-114889537D01*
X106673352Y-114889539D01*
X106500430Y-114966530D01*
X106500425Y-114966533D01*
X106347289Y-115077793D01*
X106220626Y-115218467D01*
X106125981Y-115382397D01*
X106125978Y-115382404D01*
X106067487Y-115562422D01*
X106067486Y-115562426D01*
X106047700Y-115750682D01*
X106067486Y-115938938D01*
X106067487Y-115938941D01*
X106125978Y-116118959D01*
X106125981Y-116118966D01*
X106220627Y-116282898D01*
X106270432Y-116338212D01*
X106303468Y-116374902D01*
X106333698Y-116437893D01*
X106325073Y-116507229D01*
X106298999Y-116545555D01*
X102711599Y-120132955D01*
X102650276Y-120166440D01*
X102580584Y-120161456D01*
X102524651Y-120119584D01*
X102500597Y-120058235D01*
X102498872Y-120041819D01*
X102485674Y-119916244D01*
X102427179Y-119736216D01*
X102332533Y-119572284D01*
X102205871Y-119431612D01*
X102205870Y-119431611D01*
X102052734Y-119320351D01*
X102052729Y-119320348D01*
X101879807Y-119243357D01*
X101879802Y-119243355D01*
X101734001Y-119212365D01*
X101694646Y-119204000D01*
X101505354Y-119204000D01*
X101472897Y-119210898D01*
X101320197Y-119243355D01*
X101320192Y-119243357D01*
X101147270Y-119320348D01*
X101147265Y-119320351D01*
X100994129Y-119431611D01*
X100867466Y-119572285D01*
X100772821Y-119736215D01*
X100772818Y-119736222D01*
X100714327Y-119916240D01*
X100714326Y-119916244D01*
X100694540Y-120104500D01*
X100714326Y-120292756D01*
X100714327Y-120292759D01*
X100772818Y-120472777D01*
X100772821Y-120472784D01*
X100867467Y-120636716D01*
X100968696Y-120749142D01*
X100994129Y-120777388D01*
X101147265Y-120888648D01*
X101147270Y-120888651D01*
X101320192Y-120965642D01*
X101320197Y-120965644D01*
X101505354Y-121005000D01*
X101505355Y-121005000D01*
X101540193Y-121005000D01*
X101607232Y-121024685D01*
X101652987Y-121077489D01*
X101662931Y-121146647D01*
X101633906Y-121210203D01*
X101627874Y-121216681D01*
X101078375Y-121766181D01*
X101017052Y-121799666D01*
X100990694Y-121802500D01*
X93082452Y-121802500D01*
X93015413Y-121782815D01*
X92994771Y-121766181D01*
X92251960Y-121023369D01*
X92218475Y-120962046D01*
X92216323Y-120948668D01*
X92198674Y-120780744D01*
X92140179Y-120600716D01*
X92045533Y-120436784D01*
X91918871Y-120296112D01*
X91914252Y-120292756D01*
X91765734Y-120184851D01*
X91765729Y-120184848D01*
X91592807Y-120107857D01*
X91592802Y-120107855D01*
X91577017Y-120104500D01*
X96852814Y-120104500D01*
X96872600Y-120292756D01*
X96872601Y-120292759D01*
X96931092Y-120472777D01*
X96931095Y-120472784D01*
X97025741Y-120636716D01*
X97126970Y-120749142D01*
X97152403Y-120777388D01*
X97305539Y-120888648D01*
X97305544Y-120888651D01*
X97478466Y-120965642D01*
X97478471Y-120965644D01*
X97663628Y-121005000D01*
X97663629Y-121005000D01*
X97852918Y-121005000D01*
X97852920Y-121005000D01*
X98038077Y-120965644D01*
X98211004Y-120888651D01*
X98364145Y-120777388D01*
X98490807Y-120636716D01*
X98585453Y-120472784D01*
X98643948Y-120292756D01*
X98663734Y-120104500D01*
X98643948Y-119916244D01*
X98585453Y-119736216D01*
X98490807Y-119572284D01*
X98364145Y-119431612D01*
X98364144Y-119431611D01*
X98211008Y-119320351D01*
X98211003Y-119320348D01*
X98038081Y-119243357D01*
X98038076Y-119243355D01*
X97892275Y-119212365D01*
X97852920Y-119204000D01*
X97663628Y-119204000D01*
X97631171Y-119210898D01*
X97478471Y-119243355D01*
X97478466Y-119243357D01*
X97305544Y-119320348D01*
X97305539Y-119320351D01*
X97152403Y-119431611D01*
X97025740Y-119572285D01*
X96931095Y-119736215D01*
X96931092Y-119736222D01*
X96872601Y-119916240D01*
X96872600Y-119916244D01*
X96852814Y-120104500D01*
X91577017Y-120104500D01*
X91447001Y-120076865D01*
X91407646Y-120068500D01*
X91218354Y-120068500D01*
X91185897Y-120075398D01*
X91033197Y-120107855D01*
X91033192Y-120107857D01*
X90860270Y-120184848D01*
X90854637Y-120188101D01*
X90853145Y-120185517D01*
X90799483Y-120204617D01*
X90731441Y-120188739D01*
X90682785Y-120138595D01*
X90668500Y-120080814D01*
X90668500Y-116840000D01*
X97138540Y-116840000D01*
X97158326Y-117028256D01*
X97158327Y-117028259D01*
X97216818Y-117208277D01*
X97216821Y-117208284D01*
X97311467Y-117372216D01*
X97418098Y-117490641D01*
X97438129Y-117512888D01*
X97591265Y-117624148D01*
X97591270Y-117624151D01*
X97764192Y-117701142D01*
X97764197Y-117701144D01*
X97949354Y-117740500D01*
X97949355Y-117740500D01*
X98138644Y-117740500D01*
X98138646Y-117740500D01*
X98323803Y-117701144D01*
X98496730Y-117624151D01*
X98649871Y-117512888D01*
X98652788Y-117509647D01*
X98655600Y-117506526D01*
X98715087Y-117469879D01*
X98747748Y-117465500D01*
X102025257Y-117465500D01*
X102040877Y-117467224D01*
X102040904Y-117466939D01*
X102048660Y-117467671D01*
X102048667Y-117467673D01*
X102117814Y-117465500D01*
X102147350Y-117465500D01*
X102154228Y-117464630D01*
X102160041Y-117464172D01*
X102206627Y-117462709D01*
X102225869Y-117457117D01*
X102244912Y-117453174D01*
X102264792Y-117450664D01*
X102308122Y-117433507D01*
X102313646Y-117431617D01*
X102317396Y-117430527D01*
X102358390Y-117418618D01*
X102375629Y-117408422D01*
X102393103Y-117399862D01*
X102411727Y-117392488D01*
X102411727Y-117392487D01*
X102411732Y-117392486D01*
X102449449Y-117365082D01*
X102454305Y-117361892D01*
X102494420Y-117338170D01*
X102508589Y-117323999D01*
X102523379Y-117311368D01*
X102539587Y-117299594D01*
X102569299Y-117263676D01*
X102573212Y-117259376D01*
X110149248Y-109683341D01*
X116389848Y-109683341D01*
X116396275Y-109723919D01*
X116397802Y-109743317D01*
X116397802Y-109746304D01*
X116398725Y-109749146D01*
X116403265Y-109768057D01*
X116409694Y-109808645D01*
X116428348Y-109845256D01*
X116435793Y-109863229D01*
X116436714Y-109866063D01*
X116436718Y-109866071D01*
X116438470Y-109868483D01*
X116448634Y-109885069D01*
X116467290Y-109921682D01*
X116496340Y-109950732D01*
X116508977Y-109965528D01*
X116510734Y-109967946D01*
X116513153Y-109969704D01*
X116527951Y-109982343D01*
X116556993Y-110011386D01*
X116556996Y-110011388D01*
X116556998Y-110011390D01*
X116593613Y-110030046D01*
X116610200Y-110040212D01*
X116610210Y-110040219D01*
X116612612Y-110041964D01*
X116615452Y-110042886D01*
X116633415Y-110050326D01*
X116670036Y-110068986D01*
X116710621Y-110075414D01*
X116729538Y-110079956D01*
X116731911Y-110080726D01*
X116732376Y-110080878D01*
X116732377Y-110080878D01*
X116735363Y-110080878D01*
X116754761Y-110082405D01*
X116795338Y-110088832D01*
X116795340Y-110088832D01*
X116795342Y-110088832D01*
X116835919Y-110082405D01*
X116855317Y-110080878D01*
X116858301Y-110080878D01*
X116858304Y-110080878D01*
X116861145Y-110079954D01*
X116880052Y-110075415D01*
X116920644Y-110068986D01*
X116957256Y-110050330D01*
X116975234Y-110042884D01*
X116978068Y-110041964D01*
X116980484Y-110040207D01*
X116997058Y-110030050D01*
X117033682Y-110011390D01*
X117062746Y-109982325D01*
X117077529Y-109969701D01*
X117079946Y-109967946D01*
X117081703Y-109965528D01*
X117094325Y-109950746D01*
X117123390Y-109921682D01*
X117142050Y-109885058D01*
X117152209Y-109868483D01*
X117153964Y-109866068D01*
X117154884Y-109863234D01*
X117162330Y-109845256D01*
X117180986Y-109808644D01*
X117187414Y-109768055D01*
X117191956Y-109749142D01*
X117192877Y-109746306D01*
X117192878Y-109746304D01*
X117193397Y-109733020D01*
X117194108Y-109725789D01*
X117200832Y-109683340D01*
X117194110Y-109640901D01*
X117193397Y-109633649D01*
X117192878Y-109620376D01*
X117191956Y-109617538D01*
X117187414Y-109598621D01*
X117180986Y-109558036D01*
X117162326Y-109521415D01*
X117154886Y-109503452D01*
X117153964Y-109500612D01*
X117152212Y-109498200D01*
X117142046Y-109481613D01*
X117123390Y-109444998D01*
X117123388Y-109444996D01*
X117123386Y-109444993D01*
X117094343Y-109415951D01*
X117081704Y-109401153D01*
X117079946Y-109398734D01*
X117079947Y-109398734D01*
X117077528Y-109396977D01*
X117062732Y-109384340D01*
X117033682Y-109355290D01*
X116997069Y-109336634D01*
X116980483Y-109326470D01*
X116978071Y-109324718D01*
X116978070Y-109324717D01*
X116978068Y-109324716D01*
X116978065Y-109324715D01*
X116978063Y-109324714D01*
X116975229Y-109323793D01*
X116957256Y-109316348D01*
X116920644Y-109297694D01*
X116920647Y-109297694D01*
X116880057Y-109291265D01*
X116861146Y-109286725D01*
X116858305Y-109285802D01*
X116858304Y-109285802D01*
X116855317Y-109285802D01*
X116835919Y-109284275D01*
X116795342Y-109277848D01*
X116795338Y-109277848D01*
X116754761Y-109284275D01*
X116735363Y-109285802D01*
X116732372Y-109285802D01*
X116729520Y-109286729D01*
X116710625Y-109291263D01*
X116670042Y-109297692D01*
X116670032Y-109297695D01*
X116633421Y-109316349D01*
X116615459Y-109323790D01*
X116612614Y-109324714D01*
X116612611Y-109324716D01*
X116610194Y-109326472D01*
X116593616Y-109336630D01*
X116557000Y-109355287D01*
X116527943Y-109384344D01*
X116513163Y-109396968D01*
X116510736Y-109398731D01*
X116510731Y-109398736D01*
X116508968Y-109401163D01*
X116496344Y-109415943D01*
X116467287Y-109445000D01*
X116448630Y-109481616D01*
X116438472Y-109498194D01*
X116436716Y-109500611D01*
X116436714Y-109500614D01*
X116435790Y-109503459D01*
X116428349Y-109521421D01*
X116409695Y-109558032D01*
X116409692Y-109558042D01*
X116403263Y-109598625D01*
X116398729Y-109617520D01*
X116397802Y-109620372D01*
X116397802Y-109623362D01*
X116396275Y-109642760D01*
X116389848Y-109683338D01*
X116389848Y-109683341D01*
X110149248Y-109683341D01*
X111635788Y-108196801D01*
X111648042Y-108186986D01*
X111647859Y-108186764D01*
X111653866Y-108181792D01*
X111653877Y-108181786D01*
X111684775Y-108148882D01*
X111701227Y-108131364D01*
X111711671Y-108120918D01*
X111722120Y-108110471D01*
X111726379Y-108104978D01*
X111730152Y-108100561D01*
X111762062Y-108066582D01*
X111771715Y-108049020D01*
X111782389Y-108032770D01*
X111794673Y-108016936D01*
X111813180Y-107974167D01*
X111815749Y-107968924D01*
X111817953Y-107964913D01*
X111838197Y-107928092D01*
X111843177Y-107908691D01*
X111849478Y-107890288D01*
X111857438Y-107871896D01*
X111864730Y-107825849D01*
X111865911Y-107820152D01*
X111877500Y-107775019D01*
X111877500Y-107754983D01*
X111879027Y-107735582D01*
X111882160Y-107715804D01*
X111877775Y-107669415D01*
X111877500Y-107663577D01*
X111877500Y-107188000D01*
X120506540Y-107188000D01*
X120526326Y-107376256D01*
X120526327Y-107376259D01*
X120584818Y-107556277D01*
X120584821Y-107556284D01*
X120679467Y-107720216D01*
X120774605Y-107825877D01*
X120806129Y-107860888D01*
X120959265Y-107972148D01*
X120959270Y-107972151D01*
X121132192Y-108049142D01*
X121132197Y-108049144D01*
X121317354Y-108088500D01*
X121317355Y-108088500D01*
X121506644Y-108088500D01*
X121506646Y-108088500D01*
X121691803Y-108049144D01*
X121864730Y-107972151D01*
X122017871Y-107860888D01*
X122144533Y-107720216D01*
X122239179Y-107556284D01*
X122297674Y-107376256D01*
X122317460Y-107188000D01*
X122297674Y-106999744D01*
X122239179Y-106819716D01*
X122144533Y-106655784D01*
X122017871Y-106515112D01*
X122017870Y-106515111D01*
X121864734Y-106403851D01*
X121864729Y-106403848D01*
X121691807Y-106326857D01*
X121691802Y-106326855D01*
X121546001Y-106295865D01*
X121506646Y-106287500D01*
X121317354Y-106287500D01*
X121284897Y-106294398D01*
X121132197Y-106326855D01*
X121132192Y-106326857D01*
X120959270Y-106403848D01*
X120959265Y-106403851D01*
X120806129Y-106515111D01*
X120679466Y-106655785D01*
X120584821Y-106819715D01*
X120584818Y-106819722D01*
X120554884Y-106911851D01*
X120526326Y-106999744D01*
X120506540Y-107188000D01*
X111877500Y-107188000D01*
X111877500Y-104838687D01*
X111897185Y-104771648D01*
X111909350Y-104755715D01*
X111927891Y-104735122D01*
X111984533Y-104672216D01*
X112079179Y-104508284D01*
X112084435Y-104492107D01*
X118331482Y-104492107D01*
X118351268Y-104680363D01*
X118351269Y-104680366D01*
X118409760Y-104860384D01*
X118409763Y-104860391D01*
X118504409Y-105024323D01*
X118622972Y-105156000D01*
X118631071Y-105164995D01*
X118784207Y-105276255D01*
X118784212Y-105276258D01*
X118957134Y-105353249D01*
X118957139Y-105353251D01*
X119142296Y-105392607D01*
X119142297Y-105392607D01*
X119331586Y-105392607D01*
X119331588Y-105392607D01*
X119516745Y-105353251D01*
X119689672Y-105276258D01*
X119842813Y-105164995D01*
X119969475Y-105024323D01*
X120064121Y-104860391D01*
X120122616Y-104680363D01*
X120142402Y-104492107D01*
X120122616Y-104303851D01*
X120064121Y-104123823D01*
X119969475Y-103959891D01*
X119842813Y-103819219D01*
X119777439Y-103771722D01*
X119689676Y-103707958D01*
X119689671Y-103707955D01*
X119516749Y-103630964D01*
X119516744Y-103630962D01*
X119370943Y-103599972D01*
X119331588Y-103591607D01*
X119142296Y-103591607D01*
X119109839Y-103598505D01*
X118957139Y-103630962D01*
X118957134Y-103630964D01*
X118784212Y-103707955D01*
X118784207Y-103707958D01*
X118631071Y-103819218D01*
X118504408Y-103959892D01*
X118409763Y-104123822D01*
X118409760Y-104123829D01*
X118354190Y-104294857D01*
X118351268Y-104303851D01*
X118331482Y-104492107D01*
X112084435Y-104492107D01*
X112137674Y-104328256D01*
X112157460Y-104140000D01*
X112137674Y-103951744D01*
X112079179Y-103771716D01*
X111984533Y-103607784D01*
X111857871Y-103467112D01*
X111825708Y-103443744D01*
X111704734Y-103355851D01*
X111704729Y-103355848D01*
X111531807Y-103278857D01*
X111531802Y-103278855D01*
X111386001Y-103247865D01*
X111346646Y-103239500D01*
X111157354Y-103239500D01*
X111124897Y-103246398D01*
X110972197Y-103278855D01*
X110972192Y-103278857D01*
X110799270Y-103355848D01*
X110799265Y-103355851D01*
X110646129Y-103467111D01*
X110519466Y-103607785D01*
X110424821Y-103771715D01*
X110424818Y-103771722D01*
X110366327Y-103951740D01*
X110366326Y-103951744D01*
X110346540Y-104140000D01*
X110366326Y-104328256D01*
X110366327Y-104328259D01*
X110424818Y-104508277D01*
X110424821Y-104508284D01*
X110519467Y-104672216D01*
X110539397Y-104694350D01*
X110594650Y-104755715D01*
X110624880Y-104818706D01*
X110626500Y-104838687D01*
X110626500Y-107385546D01*
X110606815Y-107452585D01*
X110590181Y-107473227D01*
X102204298Y-115859109D01*
X102142975Y-115892594D01*
X102073283Y-115887610D01*
X102017350Y-115845738D01*
X101993297Y-115784391D01*
X101977674Y-115635744D01*
X101919179Y-115455716D01*
X101824533Y-115291784D01*
X101697871Y-115151112D01*
X101697870Y-115151111D01*
X101544734Y-115039851D01*
X101544729Y-115039848D01*
X101371807Y-114962857D01*
X101371802Y-114962855D01*
X101226001Y-114931865D01*
X101186646Y-114923500D01*
X100997354Y-114923500D01*
X100964897Y-114930398D01*
X100812197Y-114962855D01*
X100812192Y-114962857D01*
X100639270Y-115039848D01*
X100639265Y-115039851D01*
X100486129Y-115151111D01*
X100359466Y-115291785D01*
X100264821Y-115455715D01*
X100264818Y-115455722D01*
X100225319Y-115577289D01*
X100206326Y-115635744D01*
X100194246Y-115750682D01*
X100186540Y-115824000D01*
X100206326Y-116012257D01*
X100206780Y-116013654D01*
X100219299Y-116052182D01*
X100221294Y-116122022D01*
X100185214Y-116181855D01*
X100122513Y-116212684D01*
X100101368Y-116214500D01*
X98747748Y-116214500D01*
X98680709Y-116194815D01*
X98655600Y-116173474D01*
X98649873Y-116167114D01*
X98649869Y-116167110D01*
X98496734Y-116055851D01*
X98496729Y-116055848D01*
X98323807Y-115978857D01*
X98323802Y-115978855D01*
X98178001Y-115947865D01*
X98138646Y-115939500D01*
X97949354Y-115939500D01*
X97916897Y-115946398D01*
X97764197Y-115978855D01*
X97764192Y-115978857D01*
X97591270Y-116055848D01*
X97591265Y-116055851D01*
X97438129Y-116167111D01*
X97311466Y-116307785D01*
X97216821Y-116471715D01*
X97216818Y-116471722D01*
X97166467Y-116626689D01*
X97158326Y-116651744D01*
X97138540Y-116840000D01*
X90668500Y-116840000D01*
X90668500Y-115481438D01*
X94966401Y-115481438D01*
X94986187Y-115669694D01*
X94986188Y-115669697D01*
X95044679Y-115849715D01*
X95044682Y-115849722D01*
X95139328Y-116013654D01*
X95234152Y-116118966D01*
X95265990Y-116154326D01*
X95419126Y-116265586D01*
X95419131Y-116265589D01*
X95592053Y-116342580D01*
X95592058Y-116342582D01*
X95777215Y-116381938D01*
X95777216Y-116381938D01*
X95966505Y-116381938D01*
X95966507Y-116381938D01*
X96151664Y-116342582D01*
X96324591Y-116265589D01*
X96477732Y-116154326D01*
X96604394Y-116013654D01*
X96699040Y-115849722D01*
X96757535Y-115669694D01*
X96777321Y-115481438D01*
X96757535Y-115293182D01*
X96699040Y-115113154D01*
X96604394Y-114949222D01*
X96477732Y-114808550D01*
X96477731Y-114808549D01*
X96324595Y-114697289D01*
X96324590Y-114697286D01*
X96151668Y-114620295D01*
X96151663Y-114620293D01*
X96005862Y-114589303D01*
X95966507Y-114580938D01*
X95777215Y-114580938D01*
X95744758Y-114587836D01*
X95592058Y-114620293D01*
X95592053Y-114620295D01*
X95419131Y-114697286D01*
X95419126Y-114697289D01*
X95265990Y-114808549D01*
X95139327Y-114949223D01*
X95044682Y-115113153D01*
X95044679Y-115113160D01*
X94986641Y-115291784D01*
X94986187Y-115293182D01*
X94966401Y-115481438D01*
X90668500Y-115481438D01*
X90668500Y-113792000D01*
X100694540Y-113792000D01*
X100714326Y-113980256D01*
X100714327Y-113980259D01*
X100772818Y-114160277D01*
X100772821Y-114160284D01*
X100867467Y-114324216D01*
X100979739Y-114448906D01*
X100994129Y-114464888D01*
X101147265Y-114576148D01*
X101147270Y-114576151D01*
X101320192Y-114653142D01*
X101320197Y-114653144D01*
X101505354Y-114692500D01*
X101505355Y-114692500D01*
X101694644Y-114692500D01*
X101694646Y-114692500D01*
X101879803Y-114653144D01*
X102052730Y-114576151D01*
X102205871Y-114464888D01*
X102332533Y-114324216D01*
X102427179Y-114160284D01*
X102485674Y-113980256D01*
X102503321Y-113812345D01*
X102529905Y-113747732D01*
X102538952Y-113737636D01*
X108079788Y-108196801D01*
X108092042Y-108186986D01*
X108091859Y-108186764D01*
X108097866Y-108181792D01*
X108097877Y-108181786D01*
X108128775Y-108148882D01*
X108145227Y-108131364D01*
X108155671Y-108120918D01*
X108166120Y-108110471D01*
X108170379Y-108104978D01*
X108174152Y-108100561D01*
X108206062Y-108066582D01*
X108215715Y-108049020D01*
X108226389Y-108032770D01*
X108238673Y-108016936D01*
X108257180Y-107974167D01*
X108259749Y-107968924D01*
X108261953Y-107964913D01*
X108282197Y-107928092D01*
X108287177Y-107908691D01*
X108293478Y-107890288D01*
X108301438Y-107871896D01*
X108308730Y-107825849D01*
X108309911Y-107820152D01*
X108321500Y-107775019D01*
X108321500Y-107754983D01*
X108323027Y-107735582D01*
X108326160Y-107715804D01*
X108321775Y-107669415D01*
X108321500Y-107663577D01*
X108321500Y-106146741D01*
X108341185Y-106079702D01*
X108393989Y-106033947D01*
X108463147Y-106024003D01*
X108471266Y-106025448D01*
X108617354Y-106056500D01*
X108617355Y-106056500D01*
X108806644Y-106056500D01*
X108806646Y-106056500D01*
X108991803Y-106017144D01*
X109164730Y-105940151D01*
X109317871Y-105828888D01*
X109444533Y-105688216D01*
X109539179Y-105524284D01*
X109597674Y-105344256D01*
X109617460Y-105156000D01*
X109597674Y-104967744D01*
X109539179Y-104787716D01*
X109494308Y-104709997D01*
X109477836Y-104642100D01*
X109494308Y-104586002D01*
X109539179Y-104508284D01*
X109597674Y-104328256D01*
X109617460Y-104140000D01*
X109597674Y-103951744D01*
X109539179Y-103771716D01*
X109444533Y-103607784D01*
X109317871Y-103467112D01*
X109285708Y-103443744D01*
X109164734Y-103355851D01*
X109164729Y-103355848D01*
X108991807Y-103278857D01*
X108991802Y-103278855D01*
X108846001Y-103247865D01*
X108806646Y-103239500D01*
X108617354Y-103239500D01*
X108617352Y-103239500D01*
X108471280Y-103270548D01*
X108401613Y-103265232D01*
X108345880Y-103223094D01*
X108321775Y-103157514D01*
X108321500Y-103149258D01*
X108321500Y-102298687D01*
X108341185Y-102231648D01*
X108353350Y-102215715D01*
X108371891Y-102195122D01*
X108428533Y-102132216D01*
X108523179Y-101968284D01*
X108581674Y-101788256D01*
X108601460Y-101600000D01*
X108581674Y-101411744D01*
X108523179Y-101231716D01*
X108428533Y-101067784D01*
X108301871Y-100927112D01*
X108301870Y-100927111D01*
X108148734Y-100815851D01*
X108148729Y-100815848D01*
X107975807Y-100738857D01*
X107975802Y-100738855D01*
X107830001Y-100707865D01*
X107790646Y-100699500D01*
X107601354Y-100699500D01*
X107568897Y-100706398D01*
X107416197Y-100738855D01*
X107416192Y-100738857D01*
X107243270Y-100815848D01*
X107243265Y-100815851D01*
X107090129Y-100927111D01*
X106963466Y-101067785D01*
X106868821Y-101231715D01*
X106868818Y-101231722D01*
X106816535Y-101392634D01*
X106810326Y-101411744D01*
X106790540Y-101600000D01*
X106810326Y-101788256D01*
X106810327Y-101788259D01*
X106868818Y-101968277D01*
X106868821Y-101968284D01*
X106963467Y-102132216D01*
X106973932Y-102143838D01*
X107038650Y-102215715D01*
X107068880Y-102278706D01*
X107070500Y-102298687D01*
X107070500Y-107385547D01*
X107050815Y-107452586D01*
X107034181Y-107473228D01*
X101652228Y-112855181D01*
X101590905Y-112888666D01*
X101564547Y-112891500D01*
X101505354Y-112891500D01*
X101472897Y-112898398D01*
X101320197Y-112930855D01*
X101320192Y-112930857D01*
X101147270Y-113007848D01*
X101147265Y-113007851D01*
X100994129Y-113119111D01*
X100867466Y-113259785D01*
X100772821Y-113423715D01*
X100772818Y-113423722D01*
X100742884Y-113515851D01*
X100714326Y-113603744D01*
X100694540Y-113792000D01*
X90668500Y-113792000D01*
X90668500Y-113467452D01*
X90688185Y-113400413D01*
X90704819Y-113379771D01*
X91308590Y-112776000D01*
X96630540Y-112776000D01*
X96650326Y-112964256D01*
X96650327Y-112964259D01*
X96708818Y-113144277D01*
X96708821Y-113144284D01*
X96803467Y-113308216D01*
X96921095Y-113438855D01*
X96930129Y-113448888D01*
X97083265Y-113560148D01*
X97083270Y-113560151D01*
X97256192Y-113637142D01*
X97256197Y-113637144D01*
X97441354Y-113676500D01*
X97441355Y-113676500D01*
X97630644Y-113676500D01*
X97630646Y-113676500D01*
X97815803Y-113637144D01*
X97988730Y-113560151D01*
X98141871Y-113448888D01*
X98268533Y-113308216D01*
X98363179Y-113144284D01*
X98421674Y-112964256D01*
X98441460Y-112776000D01*
X98421674Y-112587744D01*
X98363179Y-112407716D01*
X98268533Y-112243784D01*
X98141871Y-112103112D01*
X98141870Y-112103111D01*
X97988734Y-111991851D01*
X97988729Y-111991848D01*
X97815807Y-111914857D01*
X97815802Y-111914855D01*
X97670001Y-111883865D01*
X97630646Y-111875500D01*
X97441354Y-111875500D01*
X97408897Y-111882398D01*
X97256197Y-111914855D01*
X97256192Y-111914857D01*
X97083270Y-111991848D01*
X97083265Y-111991851D01*
X96930129Y-112103111D01*
X96803466Y-112243785D01*
X96708821Y-112407715D01*
X96708818Y-112407722D01*
X96650327Y-112587740D01*
X96650326Y-112587744D01*
X96630540Y-112776000D01*
X91308590Y-112776000D01*
X91496850Y-112587740D01*
X92600877Y-111483712D01*
X92625433Y-111464664D01*
X92634725Y-111459170D01*
X92648894Y-111444999D01*
X92663684Y-111432368D01*
X92679892Y-111420594D01*
X92709604Y-111384676D01*
X92713517Y-111380376D01*
X93056785Y-111037108D01*
X93069041Y-111027292D01*
X93068858Y-111027070D01*
X93074875Y-111022092D01*
X93074874Y-111022092D01*
X93074877Y-111022091D01*
X93099251Y-110996134D01*
X93122227Y-110971669D01*
X93132671Y-110961223D01*
X93143120Y-110950776D01*
X93147379Y-110945283D01*
X93151152Y-110940866D01*
X93183062Y-110906887D01*
X93183064Y-110906882D01*
X93187649Y-110900574D01*
X93188212Y-110900983D01*
X93202083Y-110882505D01*
X93848589Y-110236000D01*
X94598540Y-110236000D01*
X94618326Y-110424256D01*
X94618327Y-110424259D01*
X94676818Y-110604277D01*
X94676821Y-110604284D01*
X94771467Y-110768216D01*
X94874370Y-110882501D01*
X94898129Y-110908888D01*
X95051265Y-111020148D01*
X95051270Y-111020151D01*
X95224192Y-111097142D01*
X95224197Y-111097144D01*
X95409354Y-111136500D01*
X95409355Y-111136500D01*
X95598644Y-111136500D01*
X95598646Y-111136500D01*
X95783803Y-111097144D01*
X95956730Y-111020151D01*
X96109871Y-110908888D01*
X96236533Y-110768216D01*
X96331179Y-110604284D01*
X96389674Y-110424256D01*
X96409460Y-110236000D01*
X96389674Y-110047744D01*
X96331179Y-109867716D01*
X96236533Y-109703784D01*
X96109871Y-109563112D01*
X96109870Y-109563111D01*
X95956734Y-109451851D01*
X95956729Y-109451848D01*
X95783807Y-109374857D01*
X95783802Y-109374855D01*
X95638001Y-109343865D01*
X95598646Y-109335500D01*
X95409354Y-109335500D01*
X95376897Y-109342398D01*
X95224197Y-109374855D01*
X95224192Y-109374857D01*
X95051270Y-109451848D01*
X95051265Y-109451851D01*
X94898129Y-109563111D01*
X94771466Y-109703785D01*
X94676821Y-109867715D01*
X94676818Y-109867722D01*
X94620775Y-110040207D01*
X94618326Y-110047744D01*
X94598540Y-110236000D01*
X93848589Y-110236000D01*
X95726771Y-108357819D01*
X95788094Y-108324334D01*
X95814452Y-108321500D01*
X96545368Y-108321500D01*
X96612407Y-108341185D01*
X96658162Y-108393989D01*
X96668106Y-108463147D01*
X96663300Y-108483813D01*
X96657645Y-108501217D01*
X96650326Y-108523742D01*
X96642679Y-108596500D01*
X96630540Y-108712000D01*
X96650326Y-108900256D01*
X96650327Y-108900259D01*
X96708818Y-109080277D01*
X96708821Y-109080284D01*
X96803467Y-109244216D01*
X96907844Y-109360138D01*
X96930129Y-109384888D01*
X97083265Y-109496148D01*
X97083270Y-109496151D01*
X97256192Y-109573142D01*
X97256197Y-109573144D01*
X97441354Y-109612500D01*
X97441355Y-109612500D01*
X97630644Y-109612500D01*
X97630646Y-109612500D01*
X97815803Y-109573144D01*
X97988730Y-109496151D01*
X98141871Y-109384888D01*
X98268533Y-109244216D01*
X98363179Y-109080284D01*
X98421674Y-108900256D01*
X98441460Y-108712000D01*
X98421674Y-108523744D01*
X98408700Y-108483817D01*
X98406706Y-108413978D01*
X98442786Y-108354145D01*
X98505487Y-108323316D01*
X98526632Y-108321500D01*
X100896252Y-108321500D01*
X100963291Y-108341185D01*
X100988400Y-108362526D01*
X100994126Y-108368885D01*
X100994130Y-108368889D01*
X101147265Y-108480148D01*
X101147270Y-108480151D01*
X101320192Y-108557142D01*
X101320197Y-108557144D01*
X101505354Y-108596500D01*
X101505355Y-108596500D01*
X101694644Y-108596500D01*
X101694646Y-108596500D01*
X101879803Y-108557144D01*
X102052730Y-108480151D01*
X102205871Y-108368888D01*
X102332533Y-108228216D01*
X102427179Y-108064284D01*
X102485674Y-107884256D01*
X102505460Y-107696000D01*
X102485674Y-107507744D01*
X102427179Y-107327716D01*
X102332533Y-107163784D01*
X102205871Y-107023112D01*
X102205870Y-107023111D01*
X102052734Y-106911851D01*
X102052729Y-106911848D01*
X101879807Y-106834857D01*
X101879802Y-106834855D01*
X101734001Y-106803865D01*
X101694646Y-106795500D01*
X101505354Y-106795500D01*
X101472897Y-106802398D01*
X101320197Y-106834855D01*
X101320192Y-106834857D01*
X101147270Y-106911848D01*
X101147265Y-106911851D01*
X100994130Y-107023110D01*
X100994126Y-107023114D01*
X100988400Y-107029474D01*
X100928913Y-107066121D01*
X100896252Y-107070500D01*
X95586743Y-107070500D01*
X95571122Y-107068775D01*
X95571095Y-107069061D01*
X95563333Y-107068326D01*
X95494172Y-107070500D01*
X95464649Y-107070500D01*
X95457778Y-107071367D01*
X95451959Y-107071825D01*
X95405374Y-107073289D01*
X95405368Y-107073290D01*
X95386126Y-107078880D01*
X95367087Y-107082823D01*
X95347217Y-107085334D01*
X95347203Y-107085337D01*
X95303883Y-107102488D01*
X95298358Y-107104380D01*
X95253613Y-107117380D01*
X95253610Y-107117381D01*
X95236366Y-107127579D01*
X95218905Y-107136133D01*
X95200274Y-107143510D01*
X95200262Y-107143517D01*
X95162570Y-107170902D01*
X95157687Y-107174109D01*
X95117580Y-107197829D01*
X95103414Y-107211995D01*
X95088624Y-107224627D01*
X95072414Y-107236404D01*
X95072411Y-107236407D01*
X95042710Y-107272309D01*
X95038777Y-107276631D01*
X92740281Y-109575126D01*
X92678958Y-109608611D01*
X92609266Y-109603627D01*
X92560452Y-109570420D01*
X92553873Y-109563114D01*
X92553869Y-109563110D01*
X92400734Y-109451851D01*
X92400729Y-109451848D01*
X92227807Y-109374857D01*
X92227802Y-109374855D01*
X92082001Y-109343865D01*
X92042646Y-109335500D01*
X91853354Y-109335500D01*
X91820897Y-109342398D01*
X91668197Y-109374855D01*
X91668192Y-109374857D01*
X91495270Y-109451848D01*
X91495265Y-109451851D01*
X91342129Y-109563111D01*
X91215466Y-109703785D01*
X91120821Y-109867715D01*
X91120818Y-109867722D01*
X91064775Y-110040207D01*
X91062326Y-110047744D01*
X91045085Y-110211784D01*
X91044679Y-110215649D01*
X91018094Y-110280263D01*
X91009039Y-110290368D01*
X87119208Y-114180199D01*
X87106951Y-114190020D01*
X87107134Y-114190241D01*
X87101123Y-114195213D01*
X87053772Y-114245636D01*
X87032889Y-114266519D01*
X87032877Y-114266532D01*
X87028621Y-114272017D01*
X87024837Y-114276447D01*
X86992937Y-114310418D01*
X86992936Y-114310420D01*
X86983284Y-114327976D01*
X86972610Y-114344226D01*
X86960329Y-114360061D01*
X86960324Y-114360068D01*
X86941815Y-114402838D01*
X86939245Y-114408084D01*
X86916803Y-114448906D01*
X86911822Y-114468307D01*
X86905521Y-114486710D01*
X86897562Y-114505102D01*
X86897561Y-114505105D01*
X86890271Y-114551127D01*
X86889087Y-114556846D01*
X86877501Y-114601972D01*
X86877500Y-114601982D01*
X86877500Y-114622016D01*
X86875973Y-114641415D01*
X86872840Y-114661194D01*
X86872840Y-114661195D01*
X86877225Y-114707583D01*
X86877500Y-114713421D01*
X86877500Y-119159547D01*
X86857815Y-119226586D01*
X86805011Y-119272341D01*
X86735853Y-119282285D01*
X86672297Y-119253260D01*
X86665819Y-119247228D01*
X86414803Y-118996212D01*
X86404980Y-118983950D01*
X86404759Y-118984134D01*
X86399786Y-118978123D01*
X86381159Y-118960631D01*
X86349364Y-118930773D01*
X86338919Y-118920328D01*
X86328475Y-118909883D01*
X86322986Y-118905625D01*
X86318561Y-118901847D01*
X86284582Y-118869938D01*
X86284580Y-118869936D01*
X86284577Y-118869935D01*
X86267029Y-118860288D01*
X86250763Y-118849604D01*
X86234933Y-118837325D01*
X86192168Y-118818818D01*
X86186922Y-118816248D01*
X86146093Y-118793803D01*
X86146092Y-118793802D01*
X86126693Y-118788822D01*
X86108281Y-118782518D01*
X86089898Y-118774562D01*
X86089892Y-118774560D01*
X86043874Y-118767272D01*
X86038152Y-118766087D01*
X85993021Y-118754500D01*
X85993019Y-118754500D01*
X85972984Y-118754500D01*
X85953586Y-118752973D01*
X85946162Y-118751797D01*
X85933805Y-118749840D01*
X85933804Y-118749840D01*
X85887416Y-118754225D01*
X85881578Y-118754500D01*
X83902737Y-118754500D01*
X83887120Y-118752776D01*
X83887093Y-118753062D01*
X83879331Y-118752327D01*
X83810203Y-118754500D01*
X83780650Y-118754500D01*
X83779929Y-118754590D01*
X83773757Y-118755369D01*
X83767945Y-118755826D01*
X83721372Y-118757290D01*
X83721369Y-118757291D01*
X83702126Y-118762881D01*
X83683083Y-118766825D01*
X83663204Y-118769336D01*
X83663203Y-118769337D01*
X83619878Y-118786490D01*
X83614352Y-118788382D01*
X83569608Y-118801383D01*
X83569604Y-118801385D01*
X83552365Y-118811580D01*
X83534898Y-118820137D01*
X83516269Y-118827512D01*
X83516267Y-118827513D01*
X83478564Y-118854906D01*
X83473682Y-118858112D01*
X83433580Y-118881828D01*
X83419408Y-118896000D01*
X83404623Y-118908628D01*
X83388412Y-118920407D01*
X83358709Y-118956310D01*
X83354777Y-118960631D01*
X82928208Y-119387199D01*
X82915951Y-119397020D01*
X82916134Y-119397241D01*
X82910123Y-119402213D01*
X82862772Y-119452636D01*
X82841889Y-119473519D01*
X82841877Y-119473532D01*
X82837621Y-119479017D01*
X82833837Y-119483447D01*
X82801937Y-119517418D01*
X82801936Y-119517420D01*
X82792284Y-119534976D01*
X82781610Y-119551226D01*
X82769329Y-119567061D01*
X82769324Y-119567068D01*
X82750815Y-119609838D01*
X82748245Y-119615084D01*
X82725803Y-119655906D01*
X82720822Y-119675307D01*
X82714521Y-119693710D01*
X82706562Y-119712102D01*
X82706561Y-119712105D01*
X82699271Y-119758127D01*
X82698087Y-119763846D01*
X82686501Y-119808972D01*
X82686500Y-119808982D01*
X82686500Y-119829016D01*
X82684973Y-119848415D01*
X82681840Y-119868194D01*
X82681840Y-119868195D01*
X82686225Y-119914583D01*
X82686500Y-119920421D01*
X82686500Y-122773078D01*
X82666815Y-122840117D01*
X82614011Y-122885872D01*
X82544853Y-122895816D01*
X82481297Y-122866791D01*
X82470350Y-122856050D01*
X82393870Y-122771111D01*
X82240734Y-122659851D01*
X82240729Y-122659848D01*
X82067807Y-122582857D01*
X82067802Y-122582855D01*
X81922001Y-122551865D01*
X81882646Y-122543500D01*
X81693354Y-122543500D01*
X81660897Y-122550398D01*
X81508197Y-122582855D01*
X81508192Y-122582857D01*
X81335270Y-122659848D01*
X81335265Y-122659851D01*
X81182129Y-122771111D01*
X81055466Y-122911785D01*
X80960821Y-123075715D01*
X80960818Y-123075722D01*
X80930884Y-123167851D01*
X80902326Y-123255744D01*
X80882540Y-123444000D01*
X80902326Y-123632256D01*
X80902327Y-123632259D01*
X80960818Y-123812277D01*
X80960821Y-123812284D01*
X81055467Y-123976216D01*
X81137660Y-124067500D01*
X81182129Y-124116888D01*
X81335265Y-124228148D01*
X81335270Y-124228151D01*
X81508192Y-124305142D01*
X81508197Y-124305144D01*
X81693354Y-124344500D01*
X81693355Y-124344500D01*
X81882644Y-124344500D01*
X81882646Y-124344500D01*
X82067803Y-124305144D01*
X82240730Y-124228151D01*
X82393871Y-124116888D01*
X82470351Y-124031948D01*
X82529836Y-123995300D01*
X82599693Y-123996630D01*
X82657742Y-124035517D01*
X82685552Y-124099614D01*
X82686500Y-124114921D01*
X82686500Y-129457255D01*
X82684775Y-129472872D01*
X82685061Y-129472899D01*
X82684326Y-129480665D01*
X82686500Y-129549814D01*
X82686500Y-129579343D01*
X82686501Y-129579360D01*
X82687368Y-129586231D01*
X82687826Y-129592050D01*
X82689290Y-129638624D01*
X82689291Y-129638627D01*
X82694880Y-129657867D01*
X82698824Y-129676911D01*
X82701336Y-129696792D01*
X82718490Y-129740119D01*
X82720382Y-129745647D01*
X82733381Y-129790388D01*
X82743580Y-129807634D01*
X82752136Y-129825100D01*
X82759514Y-129843732D01*
X82786898Y-129881423D01*
X82790106Y-129886307D01*
X82813827Y-129926416D01*
X82813833Y-129926424D01*
X82827990Y-129940580D01*
X82840628Y-129955376D01*
X82852405Y-129971586D01*
X82852406Y-129971587D01*
X82888309Y-130001288D01*
X82892620Y-130005210D01*
X83763149Y-130875740D01*
X84044197Y-131156788D01*
X84054022Y-131169051D01*
X84054243Y-131168869D01*
X84059214Y-131174878D01*
X84080043Y-131194437D01*
X84109635Y-131222226D01*
X84130529Y-131243120D01*
X84136011Y-131247373D01*
X84140443Y-131251157D01*
X84174418Y-131283062D01*
X84191976Y-131292714D01*
X84208235Y-131303395D01*
X84224064Y-131315673D01*
X84266838Y-131334182D01*
X84272056Y-131336738D01*
X84312908Y-131359197D01*
X84332316Y-131364180D01*
X84350717Y-131370480D01*
X84369104Y-131378437D01*
X84412488Y-131385308D01*
X84415119Y-131385725D01*
X84420839Y-131386909D01*
X84465981Y-131398500D01*
X84486016Y-131398500D01*
X84505414Y-131400026D01*
X84525194Y-131403159D01*
X84525195Y-131403160D01*
X84525195Y-131403159D01*
X84525196Y-131403160D01*
X84571584Y-131398775D01*
X84577422Y-131398500D01*
X88551964Y-131398500D01*
X88602399Y-131409220D01*
X88620197Y-131417144D01*
X88805354Y-131456500D01*
X88805355Y-131456500D01*
X88994644Y-131456500D01*
X88994646Y-131456500D01*
X89179803Y-131417144D01*
X89197601Y-131409220D01*
X89248036Y-131398500D01*
X104100559Y-131398500D01*
X104167598Y-131418185D01*
X104213353Y-131470989D01*
X104223880Y-131535460D01*
X104220040Y-131572000D01*
X104239826Y-131760256D01*
X104239827Y-131760259D01*
X104298318Y-131940277D01*
X104298321Y-131940284D01*
X104392967Y-132104216D01*
X104510595Y-132234855D01*
X104519629Y-132244888D01*
X104672768Y-132356150D01*
X104672770Y-132356151D01*
X104695678Y-132366350D01*
X104748917Y-132411599D01*
X104769240Y-132478447D01*
X104768567Y-132492591D01*
X104758540Y-132588000D01*
X104778326Y-132776256D01*
X104778327Y-132776259D01*
X104836818Y-132956277D01*
X104836821Y-132956284D01*
X104931467Y-133120216D01*
X105058129Y-133260888D01*
X105211265Y-133372148D01*
X105211270Y-133372151D01*
X105384192Y-133449142D01*
X105384197Y-133449144D01*
X105569354Y-133488500D01*
X105569355Y-133488500D01*
X105758644Y-133488500D01*
X105758646Y-133488500D01*
X105943803Y-133449144D01*
X106116730Y-133372151D01*
X106269871Y-133260888D01*
X106396533Y-133120216D01*
X106410514Y-133096000D01*
X111870540Y-133096000D01*
X111890326Y-133284256D01*
X111890327Y-133284259D01*
X111948818Y-133464277D01*
X111948821Y-133464284D01*
X112043467Y-133628216D01*
X112125660Y-133719500D01*
X112170129Y-133768888D01*
X112323265Y-133880148D01*
X112323270Y-133880151D01*
X112496192Y-133957142D01*
X112496197Y-133957144D01*
X112681354Y-133996500D01*
X112681355Y-133996500D01*
X112870644Y-133996500D01*
X112870646Y-133996500D01*
X113055803Y-133957144D01*
X113228730Y-133880151D01*
X113381871Y-133768888D01*
X113508533Y-133628216D01*
X113603179Y-133464284D01*
X113661674Y-133284256D01*
X113681460Y-133096000D01*
X113661674Y-132907744D01*
X113603179Y-132727716D01*
X113508533Y-132563784D01*
X113381871Y-132423112D01*
X113381870Y-132423111D01*
X113228734Y-132311851D01*
X113228729Y-132311848D01*
X113055807Y-132234857D01*
X113055802Y-132234855D01*
X112910001Y-132203865D01*
X112870646Y-132195500D01*
X112681354Y-132195500D01*
X112648897Y-132202398D01*
X112496197Y-132234855D01*
X112496192Y-132234857D01*
X112323270Y-132311848D01*
X112323265Y-132311851D01*
X112170129Y-132423111D01*
X112043466Y-132563785D01*
X111948821Y-132727715D01*
X111948818Y-132727722D01*
X111890327Y-132907740D01*
X111890326Y-132907744D01*
X111870540Y-133096000D01*
X106410514Y-133096000D01*
X106491179Y-132956284D01*
X106549674Y-132776256D01*
X106569460Y-132588000D01*
X106549674Y-132399744D01*
X106491179Y-132219716D01*
X106396533Y-132055784D01*
X106269871Y-131915112D01*
X106269870Y-131915111D01*
X106116734Y-131803851D01*
X106116732Y-131803850D01*
X106093816Y-131793647D01*
X106040579Y-131748396D01*
X106020259Y-131681546D01*
X106020932Y-131667406D01*
X106022053Y-131656742D01*
X106030960Y-131572000D01*
X106027120Y-131535460D01*
X106039690Y-131466730D01*
X106087423Y-131415707D01*
X106150441Y-131398500D01*
X118399940Y-131398500D01*
X118415560Y-131400224D01*
X118415587Y-131399939D01*
X118423343Y-131400671D01*
X118423350Y-131400673D01*
X118492497Y-131398500D01*
X118522033Y-131398500D01*
X118528911Y-131397630D01*
X118534724Y-131397172D01*
X118581310Y-131395709D01*
X118600552Y-131390117D01*
X118619595Y-131386174D01*
X118639475Y-131383664D01*
X118682805Y-131366507D01*
X118688329Y-131364617D01*
X118692079Y-131363527D01*
X118733073Y-131351618D01*
X118750312Y-131341422D01*
X118767786Y-131332862D01*
X118786410Y-131325488D01*
X118786410Y-131325487D01*
X118786415Y-131325486D01*
X118824132Y-131298082D01*
X118828988Y-131294892D01*
X118869103Y-131271170D01*
X118883272Y-131256999D01*
X118898062Y-131244368D01*
X118914270Y-131232594D01*
X118943982Y-131196676D01*
X118947895Y-131192376D01*
X121658342Y-128481931D01*
X121719663Y-128448448D01*
X121789355Y-128453432D01*
X121845288Y-128495304D01*
X121869705Y-128560768D01*
X121870021Y-128569614D01*
X121870021Y-130981422D01*
X121850336Y-131048461D01*
X121797532Y-131094216D01*
X121728374Y-131104160D01*
X121664818Y-131075135D01*
X121638635Y-131043424D01*
X121637715Y-131041831D01*
X121636533Y-131039784D01*
X121509871Y-130899112D01*
X121477708Y-130875744D01*
X121356734Y-130787851D01*
X121356729Y-130787848D01*
X121183807Y-130710857D01*
X121183802Y-130710855D01*
X121038001Y-130679865D01*
X120998646Y-130671500D01*
X120809354Y-130671500D01*
X120776897Y-130678398D01*
X120624197Y-130710855D01*
X120624192Y-130710857D01*
X120451270Y-130787848D01*
X120451265Y-130787851D01*
X120298129Y-130899111D01*
X120171466Y-131039785D01*
X120076821Y-131203715D01*
X120076818Y-131203722D01*
X120018352Y-131383664D01*
X120018326Y-131383744D01*
X119998540Y-131572000D01*
X120018326Y-131760256D01*
X120018327Y-131760259D01*
X120076818Y-131940277D01*
X120076821Y-131940284D01*
X120171467Y-132104216D01*
X120289095Y-132234855D01*
X120298129Y-132244888D01*
X120451265Y-132356148D01*
X120451270Y-132356151D01*
X120624192Y-132433142D01*
X120624197Y-132433144D01*
X120809354Y-132472500D01*
X120809355Y-132472500D01*
X120998644Y-132472500D01*
X120998646Y-132472500D01*
X121183803Y-132433144D01*
X121356730Y-132356151D01*
X121509871Y-132244888D01*
X121636533Y-132104216D01*
X121638632Y-132100579D01*
X121689198Y-132052363D01*
X121757805Y-132039138D01*
X121822670Y-132065105D01*
X121863200Y-132122018D01*
X121870021Y-132162577D01*
X121870021Y-138315330D01*
X121850336Y-138382369D01*
X121833702Y-138403011D01*
X117636689Y-142600023D01*
X117575366Y-142633508D01*
X117505674Y-142628524D01*
X117456859Y-142595315D01*
X117445871Y-142583112D01*
X117445864Y-142583106D01*
X117292734Y-142471851D01*
X117292729Y-142471848D01*
X117119807Y-142394857D01*
X117119802Y-142394855D01*
X116974001Y-142363865D01*
X116934646Y-142355500D01*
X116934645Y-142355500D01*
X116875453Y-142355500D01*
X116808414Y-142335815D01*
X116787772Y-142319181D01*
X113714960Y-139246369D01*
X113681475Y-139185046D01*
X113679323Y-139171668D01*
X113661674Y-139003744D01*
X113603179Y-138823716D01*
X113508533Y-138659784D01*
X113381871Y-138519112D01*
X113381870Y-138519111D01*
X113228734Y-138407851D01*
X113228729Y-138407848D01*
X113055807Y-138330857D01*
X113055802Y-138330855D01*
X112887239Y-138295027D01*
X112870646Y-138291500D01*
X112870645Y-138291500D01*
X112811453Y-138291500D01*
X112744414Y-138271815D01*
X112723772Y-138255181D01*
X111957772Y-137489181D01*
X111924287Y-137427858D01*
X111929271Y-137358166D01*
X111971143Y-137302233D01*
X112036607Y-137277816D01*
X112045453Y-137277500D01*
X117265257Y-137277500D01*
X117280877Y-137279224D01*
X117280904Y-137278939D01*
X117288660Y-137279671D01*
X117288667Y-137279673D01*
X117357814Y-137277500D01*
X117387350Y-137277500D01*
X117394228Y-137276630D01*
X117400041Y-137276172D01*
X117446627Y-137274709D01*
X117465869Y-137269117D01*
X117484912Y-137265174D01*
X117504792Y-137262664D01*
X117548122Y-137245507D01*
X117553646Y-137243617D01*
X117557396Y-137242527D01*
X117598390Y-137230618D01*
X117615629Y-137220422D01*
X117633103Y-137211862D01*
X117651727Y-137204488D01*
X117651727Y-137204487D01*
X117651732Y-137204486D01*
X117689449Y-137177082D01*
X117694305Y-137173892D01*
X117734420Y-137150170D01*
X117748589Y-137135999D01*
X117763379Y-137123368D01*
X117779587Y-137111594D01*
X117797895Y-137089463D01*
X117855793Y-137050353D01*
X117893441Y-137044500D01*
X117950644Y-137044500D01*
X117950646Y-137044500D01*
X118135803Y-137005144D01*
X118308730Y-136928151D01*
X118461871Y-136816888D01*
X118588533Y-136676216D01*
X118683179Y-136512284D01*
X118741674Y-136332256D01*
X118761460Y-136144000D01*
X118741674Y-135955744D01*
X118683179Y-135775716D01*
X118588533Y-135611784D01*
X118461871Y-135471112D01*
X118461870Y-135471111D01*
X118308734Y-135359851D01*
X118308729Y-135359848D01*
X118135807Y-135282857D01*
X118135802Y-135282855D01*
X117990001Y-135251865D01*
X117950646Y-135243500D01*
X117761354Y-135243500D01*
X117728897Y-135250398D01*
X117576197Y-135282855D01*
X117576192Y-135282857D01*
X117403270Y-135359848D01*
X117403265Y-135359851D01*
X117250129Y-135471111D01*
X117123466Y-135611785D01*
X117028821Y-135775715D01*
X117028818Y-135775721D01*
X116975176Y-135940818D01*
X116935739Y-135998493D01*
X116871380Y-136025692D01*
X116857245Y-136026500D01*
X109896975Y-136026500D01*
X109829936Y-136006815D01*
X109784181Y-135954011D01*
X109774237Y-135884853D01*
X109803262Y-135821297D01*
X109824091Y-135802181D01*
X109825871Y-135800888D01*
X109952533Y-135660216D01*
X110047179Y-135496284D01*
X110105674Y-135316256D01*
X110125460Y-135128000D01*
X110105674Y-134939744D01*
X110047179Y-134759716D01*
X109966514Y-134620000D01*
X115426540Y-134620000D01*
X115446326Y-134808256D01*
X115446327Y-134808259D01*
X115504818Y-134988277D01*
X115504821Y-134988284D01*
X115599467Y-135152216D01*
X115681660Y-135243500D01*
X115726129Y-135292888D01*
X115879265Y-135404148D01*
X115879270Y-135404151D01*
X116052192Y-135481142D01*
X116052197Y-135481144D01*
X116237354Y-135520500D01*
X116237355Y-135520500D01*
X116426644Y-135520500D01*
X116426646Y-135520500D01*
X116611803Y-135481144D01*
X116784730Y-135404151D01*
X116937871Y-135292888D01*
X117064533Y-135152216D01*
X117159179Y-134988284D01*
X117217674Y-134808256D01*
X117237460Y-134620000D01*
X117217674Y-134431744D01*
X117159179Y-134251716D01*
X117064533Y-134087784D01*
X116937871Y-133947112D01*
X116937870Y-133947111D01*
X116784734Y-133835851D01*
X116784729Y-133835848D01*
X116611807Y-133758857D01*
X116611802Y-133758855D01*
X116466001Y-133727865D01*
X116426646Y-133719500D01*
X116237354Y-133719500D01*
X116204897Y-133726398D01*
X116052197Y-133758855D01*
X116052192Y-133758857D01*
X115879270Y-133835848D01*
X115879265Y-133835851D01*
X115726129Y-133947111D01*
X115599466Y-134087785D01*
X115504821Y-134251715D01*
X115504818Y-134251722D01*
X115474884Y-134343851D01*
X115446326Y-134431744D01*
X115426540Y-134620000D01*
X109966514Y-134620000D01*
X109952533Y-134595784D01*
X109825871Y-134455112D01*
X109793708Y-134431744D01*
X109672734Y-134343851D01*
X109672729Y-134343848D01*
X109499807Y-134266857D01*
X109499802Y-134266855D01*
X109354001Y-134235865D01*
X109314646Y-134227500D01*
X109125354Y-134227500D01*
X109092897Y-134234398D01*
X108940197Y-134266855D01*
X108940192Y-134266857D01*
X108767270Y-134343848D01*
X108767265Y-134343851D01*
X108614129Y-134455111D01*
X108487466Y-134595785D01*
X108392821Y-134759715D01*
X108392818Y-134759722D01*
X108334327Y-134939740D01*
X108334326Y-134939744D01*
X108314540Y-135128000D01*
X108334326Y-135316256D01*
X108334327Y-135316259D01*
X108392818Y-135496277D01*
X108392821Y-135496284D01*
X108487467Y-135660216D01*
X108591469Y-135775722D01*
X108614128Y-135800887D01*
X108615909Y-135802181D01*
X108616690Y-135803194D01*
X108618958Y-135805236D01*
X108618584Y-135805650D01*
X108658576Y-135857510D01*
X108664556Y-135927124D01*
X108631950Y-135988919D01*
X108571112Y-136023277D01*
X108543025Y-136026500D01*
X85539748Y-136026500D01*
X85472709Y-136006815D01*
X85447600Y-135985474D01*
X85441873Y-135979114D01*
X85441869Y-135979110D01*
X85288734Y-135867851D01*
X85288729Y-135867848D01*
X85115807Y-135790857D01*
X85115802Y-135790855D01*
X84970001Y-135759865D01*
X84930646Y-135751500D01*
X84741354Y-135751500D01*
X84708897Y-135758398D01*
X84556197Y-135790855D01*
X84556192Y-135790857D01*
X84383270Y-135867848D01*
X84383265Y-135867851D01*
X84230135Y-135979106D01*
X84230125Y-135979115D01*
X84219136Y-135991319D01*
X84159648Y-136027965D01*
X84089791Y-136026632D01*
X84039309Y-135996024D01*
X78109702Y-130066416D01*
X78076217Y-130005093D01*
X78073383Y-129978735D01*
X78073383Y-126298621D01*
X78075107Y-126283008D01*
X78074821Y-126282981D01*
X78076290Y-126267446D01*
X78076837Y-126267497D01*
X78081596Y-126234047D01*
X78087509Y-126215851D01*
X78101674Y-126172256D01*
X78121460Y-125984000D01*
X78101674Y-125795744D01*
X78043179Y-125615716D01*
X77948533Y-125451784D01*
X77821871Y-125311112D01*
X77821870Y-125311111D01*
X77668734Y-125199851D01*
X77668729Y-125199848D01*
X77495807Y-125122857D01*
X77495802Y-125122855D01*
X77350001Y-125091865D01*
X77310646Y-125083500D01*
X77121354Y-125083500D01*
X77088897Y-125090398D01*
X76936197Y-125122855D01*
X76936192Y-125122857D01*
X76763270Y-125199848D01*
X76763265Y-125199851D01*
X76610129Y-125311111D01*
X76483466Y-125451785D01*
X76388821Y-125615715D01*
X76388818Y-125615722D01*
X76330327Y-125795740D01*
X76330326Y-125795744D01*
X76310540Y-125984000D01*
X76330326Y-126172256D01*
X76330327Y-126172259D01*
X76388818Y-126352277D01*
X76388821Y-126352284D01*
X76483467Y-126516216D01*
X76601095Y-126646855D01*
X76610129Y-126656888D01*
X76768527Y-126771971D01*
X76767265Y-126773707D01*
X76808591Y-126817035D01*
X76822383Y-126873871D01*
X76822383Y-129831229D01*
X76802698Y-129898268D01*
X76749894Y-129944023D01*
X76680736Y-129953967D01*
X76617180Y-129924942D01*
X76579406Y-129866164D01*
X76578167Y-129861262D01*
X76577672Y-129859740D01*
X76519179Y-129679716D01*
X76424533Y-129515784D01*
X76297871Y-129375112D01*
X76267511Y-129353054D01*
X76144734Y-129263851D01*
X76144729Y-129263848D01*
X75971807Y-129186857D01*
X75971802Y-129186855D01*
X75803239Y-129151027D01*
X75786646Y-129147500D01*
X75597354Y-129147500D01*
X75580761Y-129151027D01*
X75412197Y-129186855D01*
X75412192Y-129186857D01*
X75239270Y-129263848D01*
X75239265Y-129263851D01*
X75086129Y-129375111D01*
X74959466Y-129515785D01*
X74864821Y-129679715D01*
X74864818Y-129679722D01*
X74806327Y-129859740D01*
X74806326Y-129859744D01*
X74786540Y-130048000D01*
X74806326Y-130236256D01*
X74806327Y-130236259D01*
X74864820Y-130416283D01*
X74909690Y-130494001D01*
X74926162Y-130561901D01*
X74909690Y-130617999D01*
X74864820Y-130695716D01*
X74816647Y-130843979D01*
X74806326Y-130875744D01*
X74786540Y-131064000D01*
X74057460Y-131064000D01*
X74037674Y-130875744D01*
X73979179Y-130695716D01*
X73884533Y-130531784D01*
X73757871Y-130391112D01*
X73753329Y-130387812D01*
X73604734Y-130279851D01*
X73604729Y-130279848D01*
X73431807Y-130202857D01*
X73431802Y-130202855D01*
X73286001Y-130171865D01*
X73246646Y-130163500D01*
X73057354Y-130163500D01*
X73024897Y-130170398D01*
X72872197Y-130202855D01*
X72872192Y-130202857D01*
X72699270Y-130279848D01*
X72699265Y-130279851D01*
X72546129Y-130391111D01*
X72419466Y-130531785D01*
X72324821Y-130695715D01*
X72324819Y-130695719D01*
X72285001Y-130818266D01*
X72245563Y-130875941D01*
X72181204Y-130903139D01*
X72112358Y-130891224D01*
X72060882Y-130843979D01*
X72044083Y-130795762D01*
X71975164Y-130259659D01*
X71875879Y-129175525D01*
X71816255Y-128088489D01*
X71810695Y-127784151D01*
X71796371Y-127000000D01*
X71816255Y-125911512D01*
X71875879Y-124824475D01*
X71975164Y-123740341D01*
X72113977Y-122660557D01*
X72292134Y-121586563D01*
X72509397Y-120519792D01*
X72556669Y-120324463D01*
X72580949Y-120224134D01*
X72615850Y-120163607D01*
X72677935Y-120131556D01*
X72747492Y-120138159D01*
X72802437Y-120181319D01*
X72819401Y-120214983D01*
X72832819Y-120256280D01*
X72832821Y-120256284D01*
X72927467Y-120420216D01*
X72993253Y-120493278D01*
X73054129Y-120560888D01*
X73207265Y-120672148D01*
X73207270Y-120672151D01*
X73380192Y-120749142D01*
X73380197Y-120749144D01*
X73565354Y-120788500D01*
X73565355Y-120788500D01*
X73754644Y-120788500D01*
X73754646Y-120788500D01*
X73939803Y-120749144D01*
X74112730Y-120672151D01*
X74265871Y-120560888D01*
X74392533Y-120420216D01*
X74487179Y-120256284D01*
X74545674Y-120076256D01*
X74565460Y-119888000D01*
X74545674Y-119699744D01*
X74487179Y-119519716D01*
X74392533Y-119355784D01*
X74265871Y-119215112D01*
X74265870Y-119215111D01*
X74112734Y-119103851D01*
X74112729Y-119103848D01*
X73939807Y-119026857D01*
X73939802Y-119026855D01*
X73764055Y-118989500D01*
X73754646Y-118987500D01*
X73565354Y-118987500D01*
X73555945Y-118989500D01*
X73380197Y-119026855D01*
X73380192Y-119026857D01*
X73207270Y-119103848D01*
X73207265Y-119103851D01*
X73067349Y-119205506D01*
X73001542Y-119228986D01*
X72933489Y-119213160D01*
X72884794Y-119163054D01*
X72870919Y-119094576D01*
X72875087Y-119071648D01*
X73060027Y-118413601D01*
X73075943Y-118364000D01*
X78850540Y-118364000D01*
X78870326Y-118552256D01*
X78870327Y-118552259D01*
X78928818Y-118732277D01*
X78928821Y-118732284D01*
X79023467Y-118896216D01*
X79140162Y-119025819D01*
X79150129Y-119036888D01*
X79303265Y-119148148D01*
X79303270Y-119148151D01*
X79476192Y-119225142D01*
X79476197Y-119225144D01*
X79661354Y-119264500D01*
X79661355Y-119264500D01*
X79850644Y-119264500D01*
X79850646Y-119264500D01*
X80035803Y-119225144D01*
X80208730Y-119148151D01*
X80361871Y-119036888D01*
X80488533Y-118896216D01*
X80583179Y-118732284D01*
X80641674Y-118552256D01*
X80661460Y-118364000D01*
X80641674Y-118175744D01*
X80583179Y-117995716D01*
X80488533Y-117831784D01*
X80361871Y-117691112D01*
X80361870Y-117691111D01*
X80208734Y-117579851D01*
X80208729Y-117579848D01*
X80035807Y-117502857D01*
X80035802Y-117502855D01*
X79880657Y-117469879D01*
X79850646Y-117463500D01*
X79661354Y-117463500D01*
X79631343Y-117469879D01*
X79476197Y-117502855D01*
X79476192Y-117502857D01*
X79303270Y-117579848D01*
X79303265Y-117579851D01*
X79150129Y-117691111D01*
X79023466Y-117831785D01*
X78928821Y-117995715D01*
X78928818Y-117995722D01*
X78870327Y-118175740D01*
X78870326Y-118175744D01*
X78850540Y-118364000D01*
X73075943Y-118364000D01*
X73392660Y-117376992D01*
X73762930Y-116353223D01*
X74170344Y-115343660D01*
X74614357Y-114349650D01*
X74888305Y-113792000D01*
X79866540Y-113792000D01*
X79886326Y-113980256D01*
X79886327Y-113980259D01*
X79944818Y-114160277D01*
X79944821Y-114160284D01*
X80039467Y-114324216D01*
X80151739Y-114448906D01*
X80166129Y-114464888D01*
X80319265Y-114576148D01*
X80319270Y-114576151D01*
X80492192Y-114653142D01*
X80492197Y-114653144D01*
X80677354Y-114692500D01*
X80677355Y-114692500D01*
X80866644Y-114692500D01*
X80866646Y-114692500D01*
X81051803Y-114653144D01*
X81224730Y-114576151D01*
X81377871Y-114464888D01*
X81504533Y-114324216D01*
X81599179Y-114160284D01*
X81657674Y-113980256D01*
X81677460Y-113792000D01*
X81657674Y-113603744D01*
X81599179Y-113423716D01*
X81504533Y-113259784D01*
X81377871Y-113119112D01*
X81377870Y-113119111D01*
X81224734Y-113007851D01*
X81224729Y-113007848D01*
X81051807Y-112930857D01*
X81051802Y-112930855D01*
X80906001Y-112899865D01*
X80866646Y-112891500D01*
X80677354Y-112891500D01*
X80644897Y-112898398D01*
X80492197Y-112930855D01*
X80492192Y-112930857D01*
X80319270Y-113007848D01*
X80319265Y-113007851D01*
X80166129Y-113119111D01*
X80039466Y-113259785D01*
X79944821Y-113423715D01*
X79944818Y-113423722D01*
X79914884Y-113515851D01*
X79886326Y-113603744D01*
X79866540Y-113792000D01*
X74888305Y-113792000D01*
X75094377Y-113372519D01*
X75609763Y-112413572D01*
X76159828Y-111474087D01*
X76743838Y-110555319D01*
X76891508Y-110340738D01*
X77313181Y-109728000D01*
X77834540Y-109728000D01*
X77854326Y-109916256D01*
X77854327Y-109916259D01*
X77912818Y-110096277D01*
X77912821Y-110096284D01*
X78007467Y-110260216D01*
X78134129Y-110400888D01*
X78287265Y-110512148D01*
X78287270Y-110512151D01*
X78460192Y-110589142D01*
X78460197Y-110589144D01*
X78645354Y-110628500D01*
X78645355Y-110628500D01*
X78834644Y-110628500D01*
X78834646Y-110628500D01*
X79019803Y-110589144D01*
X79192730Y-110512151D01*
X79345871Y-110400888D01*
X79472533Y-110260216D01*
X79567179Y-110096284D01*
X79625674Y-109916256D01*
X79645460Y-109728000D01*
X79625674Y-109539744D01*
X79567179Y-109359716D01*
X79472533Y-109195784D01*
X79345871Y-109055112D01*
X79345786Y-109055050D01*
X79192734Y-108943851D01*
X79192729Y-108943848D01*
X79019807Y-108866857D01*
X79019802Y-108866855D01*
X78874001Y-108835865D01*
X78834646Y-108827500D01*
X78645354Y-108827500D01*
X78612897Y-108834398D01*
X78460197Y-108866855D01*
X78460192Y-108866857D01*
X78287270Y-108943848D01*
X78287265Y-108943851D01*
X78134129Y-109055111D01*
X78134128Y-109055112D01*
X78041189Y-109158331D01*
X77998941Y-109184358D01*
X77997193Y-109210005D01*
X77988256Y-109229057D01*
X77912820Y-109359718D01*
X77912818Y-109359722D01*
X77860277Y-109521428D01*
X77854326Y-109539744D01*
X77834540Y-109728000D01*
X77313181Y-109728000D01*
X77361014Y-109658494D01*
X77541331Y-109415943D01*
X77781357Y-109093075D01*
X77831802Y-109055050D01*
X77837247Y-109021708D01*
X77849523Y-109001382D01*
X78010532Y-108784805D01*
X78691526Y-107935423D01*
X79403086Y-107111478D01*
X80144264Y-106314070D01*
X80286334Y-106172000D01*
X82406540Y-106172000D01*
X82426326Y-106360256D01*
X82426327Y-106360259D01*
X82484818Y-106540277D01*
X82484821Y-106540284D01*
X82579467Y-106704216D01*
X82697095Y-106834855D01*
X82706129Y-106844888D01*
X82859265Y-106956148D01*
X82859270Y-106956151D01*
X83032192Y-107033142D01*
X83032197Y-107033144D01*
X83217354Y-107072500D01*
X83217355Y-107072500D01*
X83406644Y-107072500D01*
X83406646Y-107072500D01*
X83591803Y-107033144D01*
X83764730Y-106956151D01*
X83917871Y-106844888D01*
X84044533Y-106704216D01*
X84139179Y-106540284D01*
X84197674Y-106360256D01*
X84217460Y-106172000D01*
X84197674Y-105983744D01*
X84139179Y-105803716D01*
X84044533Y-105639784D01*
X83917871Y-105499112D01*
X83917870Y-105499111D01*
X83764734Y-105387851D01*
X83764729Y-105387848D01*
X83591807Y-105310857D01*
X83591802Y-105310855D01*
X83446001Y-105279865D01*
X83406646Y-105271500D01*
X83217354Y-105271500D01*
X83194969Y-105276258D01*
X83032197Y-105310855D01*
X83032192Y-105310857D01*
X82859270Y-105387848D01*
X82859265Y-105387851D01*
X82706129Y-105499111D01*
X82579466Y-105639785D01*
X82484821Y-105803715D01*
X82484818Y-105803722D01*
X82440491Y-105940148D01*
X82426326Y-105983744D01*
X82406540Y-106172000D01*
X80286334Y-106172000D01*
X80914070Y-105544264D01*
X81331790Y-105156000D01*
X89518540Y-105156000D01*
X89538326Y-105344256D01*
X89538327Y-105344259D01*
X89596818Y-105524277D01*
X89596821Y-105524284D01*
X89691467Y-105688216D01*
X89818129Y-105828888D01*
X89971265Y-105940148D01*
X89971270Y-105940151D01*
X90144192Y-106017142D01*
X90144197Y-106017144D01*
X90329354Y-106056500D01*
X90329355Y-106056500D01*
X90518644Y-106056500D01*
X90518646Y-106056500D01*
X90703803Y-106017144D01*
X90876730Y-105940151D01*
X91029871Y-105828888D01*
X91156533Y-105688216D01*
X91251179Y-105524284D01*
X91309674Y-105344256D01*
X91329460Y-105156000D01*
X91309674Y-104967744D01*
X91251179Y-104787716D01*
X91156533Y-104623784D01*
X91029871Y-104483112D01*
X90988497Y-104453052D01*
X90876734Y-104371851D01*
X90876729Y-104371848D01*
X90703807Y-104294857D01*
X90703802Y-104294855D01*
X90558001Y-104263865D01*
X90518646Y-104255500D01*
X90329354Y-104255500D01*
X90296897Y-104262398D01*
X90144197Y-104294855D01*
X90144192Y-104294857D01*
X89971270Y-104371848D01*
X89971265Y-104371851D01*
X89818129Y-104483111D01*
X89691466Y-104623785D01*
X89596821Y-104787715D01*
X89596818Y-104787722D01*
X89538327Y-104967740D01*
X89538326Y-104967744D01*
X89518540Y-105156000D01*
X81331790Y-105156000D01*
X81711478Y-104803086D01*
X82535423Y-104091526D01*
X83108575Y-103632000D01*
X95106540Y-103632000D01*
X95126326Y-103820256D01*
X95126327Y-103820259D01*
X95184818Y-104000277D01*
X95184821Y-104000284D01*
X95279467Y-104164216D01*
X95405192Y-104303847D01*
X95406129Y-104304888D01*
X95559265Y-104416148D01*
X95559270Y-104416151D01*
X95732192Y-104493142D01*
X95732197Y-104493144D01*
X95917354Y-104532500D01*
X95917355Y-104532500D01*
X96106644Y-104532500D01*
X96106646Y-104532500D01*
X96268957Y-104498000D01*
X99994867Y-104498000D01*
X100013302Y-104626225D01*
X100044768Y-104695124D01*
X100067118Y-104744063D01*
X100149109Y-104838687D01*
X100151952Y-104841968D01*
X100260925Y-104912001D01*
X100260928Y-104912002D01*
X100260931Y-104912004D01*
X100279159Y-104917356D01*
X100284350Y-104919133D01*
X100284659Y-104919254D01*
X100284668Y-104919259D01*
X100287218Y-104919841D01*
X100290810Y-104920777D01*
X100385228Y-104948500D01*
X100403505Y-104948500D01*
X100408141Y-104948673D01*
X100416181Y-104949275D01*
X100416182Y-104949276D01*
X100416182Y-104949275D01*
X100416183Y-104949276D01*
X100424218Y-104948674D01*
X100428855Y-104948500D01*
X100514774Y-104948500D01*
X100514774Y-104948499D01*
X100526535Y-104945045D01*
X100532418Y-104943319D01*
X100541716Y-104941625D01*
X100541634Y-104941264D01*
X100550695Y-104939195D01*
X100550700Y-104939195D01*
X100560741Y-104935253D01*
X100565905Y-104933486D01*
X100639069Y-104912004D01*
X100658696Y-104899389D01*
X100668790Y-104894231D01*
X100676266Y-104889914D01*
X100676266Y-104889913D01*
X100676271Y-104889912D01*
X100685542Y-104882517D01*
X100690641Y-104878860D01*
X100748049Y-104841967D01*
X100766646Y-104820503D01*
X100779923Y-104807760D01*
X100781731Y-104805809D01*
X100781736Y-104805806D01*
X100788412Y-104796013D01*
X100792760Y-104790366D01*
X100832882Y-104744063D01*
X100846860Y-104713454D01*
X100857197Y-104695124D01*
X100857726Y-104694350D01*
X100861000Y-104683734D01*
X100863841Y-104676272D01*
X100886697Y-104626226D01*
X100892262Y-104587519D01*
X100896511Y-104568611D01*
X100897487Y-104565447D01*
X100898083Y-104549446D01*
X100898668Y-104542958D01*
X100905133Y-104498000D01*
X102294867Y-104498000D01*
X102313302Y-104626225D01*
X102344768Y-104695124D01*
X102367118Y-104744063D01*
X102449109Y-104838687D01*
X102451952Y-104841968D01*
X102560925Y-104912001D01*
X102560928Y-104912002D01*
X102560931Y-104912004D01*
X102579159Y-104917356D01*
X102584350Y-104919133D01*
X102584659Y-104919254D01*
X102584668Y-104919259D01*
X102587218Y-104919841D01*
X102590810Y-104920777D01*
X102685228Y-104948500D01*
X102703505Y-104948500D01*
X102708141Y-104948673D01*
X102716181Y-104949275D01*
X102716182Y-104949276D01*
X102716182Y-104949275D01*
X102716183Y-104949276D01*
X102724218Y-104948674D01*
X102728855Y-104948500D01*
X102814774Y-104948500D01*
X102814774Y-104948499D01*
X102826535Y-104945045D01*
X102832418Y-104943319D01*
X102841716Y-104941625D01*
X102841634Y-104941264D01*
X102850695Y-104939195D01*
X102850700Y-104939195D01*
X102860741Y-104935253D01*
X102865905Y-104933486D01*
X102939069Y-104912004D01*
X102958696Y-104899389D01*
X102968790Y-104894231D01*
X102976266Y-104889914D01*
X102976266Y-104889913D01*
X102976271Y-104889912D01*
X102985542Y-104882517D01*
X102990641Y-104878860D01*
X103048049Y-104841967D01*
X103066646Y-104820503D01*
X103079923Y-104807760D01*
X103081731Y-104805809D01*
X103081736Y-104805806D01*
X103088412Y-104796013D01*
X103092760Y-104790366D01*
X103132882Y-104744063D01*
X103146860Y-104713454D01*
X103157197Y-104695124D01*
X103157726Y-104694350D01*
X103161000Y-104683734D01*
X103163841Y-104676272D01*
X103186697Y-104626226D01*
X103192262Y-104587519D01*
X103196511Y-104568611D01*
X103197487Y-104565447D01*
X103198083Y-104549446D01*
X103198668Y-104542958D01*
X103205133Y-104498000D01*
X103198669Y-104453042D01*
X103198083Y-104446551D01*
X103197487Y-104430552D01*
X103196509Y-104427383D01*
X103192261Y-104408475D01*
X103186698Y-104369779D01*
X103186697Y-104369777D01*
X103186697Y-104369774D01*
X103163844Y-104319735D01*
X103160998Y-104312259D01*
X103157726Y-104301650D01*
X103157189Y-104300863D01*
X103146857Y-104282539D01*
X103132882Y-104251937D01*
X103092768Y-104205642D01*
X103088408Y-104199980D01*
X103081736Y-104190194D01*
X103079928Y-104188246D01*
X103066648Y-104175497D01*
X103048049Y-104154033D01*
X103048048Y-104154032D01*
X103048047Y-104154031D01*
X102990668Y-104117156D01*
X102985528Y-104113470D01*
X102976271Y-104106087D01*
X102968810Y-104101780D01*
X102958694Y-104096608D01*
X102939071Y-104083996D01*
X102939065Y-104083994D01*
X102865914Y-104062515D01*
X102860731Y-104060741D01*
X102850699Y-104056804D01*
X102841645Y-104054738D01*
X102841726Y-104054379D01*
X102832432Y-104052685D01*
X102814772Y-104047500D01*
X102728855Y-104047500D01*
X102724218Y-104047326D01*
X102716183Y-104046723D01*
X102708141Y-104047327D01*
X102703505Y-104047500D01*
X102685228Y-104047500D01*
X102590834Y-104075214D01*
X102587177Y-104076168D01*
X102584664Y-104076742D01*
X102584328Y-104076874D01*
X102579158Y-104078643D01*
X102560935Y-104083994D01*
X102560931Y-104083996D01*
X102451950Y-104154033D01*
X102367118Y-104251937D01*
X102367117Y-104251938D01*
X102313302Y-104369774D01*
X102294867Y-104498000D01*
X100905133Y-104498000D01*
X100898669Y-104453042D01*
X100898083Y-104446551D01*
X100897487Y-104430552D01*
X100896509Y-104427383D01*
X100892261Y-104408475D01*
X100886698Y-104369779D01*
X100886697Y-104369777D01*
X100886697Y-104369774D01*
X100863844Y-104319735D01*
X100860998Y-104312259D01*
X100857726Y-104301650D01*
X100857189Y-104300863D01*
X100846857Y-104282539D01*
X100832882Y-104251937D01*
X100792768Y-104205642D01*
X100788408Y-104199980D01*
X100781736Y-104190194D01*
X100779928Y-104188246D01*
X100766648Y-104175497D01*
X100748049Y-104154033D01*
X100748048Y-104154032D01*
X100748047Y-104154031D01*
X100690668Y-104117156D01*
X100685528Y-104113470D01*
X100676271Y-104106087D01*
X100668810Y-104101780D01*
X100658694Y-104096608D01*
X100639071Y-104083996D01*
X100639065Y-104083994D01*
X100565914Y-104062515D01*
X100560731Y-104060741D01*
X100550699Y-104056804D01*
X100541645Y-104054738D01*
X100541726Y-104054379D01*
X100532432Y-104052685D01*
X100514772Y-104047500D01*
X100428855Y-104047500D01*
X100424218Y-104047326D01*
X100416183Y-104046723D01*
X100408141Y-104047327D01*
X100403505Y-104047500D01*
X100385228Y-104047500D01*
X100290834Y-104075214D01*
X100287177Y-104076168D01*
X100284664Y-104076742D01*
X100284328Y-104076874D01*
X100279158Y-104078643D01*
X100260935Y-104083994D01*
X100260931Y-104083996D01*
X100151950Y-104154033D01*
X100067118Y-104251937D01*
X100067117Y-104251938D01*
X100013302Y-104369774D01*
X99994867Y-104498000D01*
X96268957Y-104498000D01*
X96291803Y-104493144D01*
X96464730Y-104416151D01*
X96617871Y-104304888D01*
X96744533Y-104164216D01*
X96839179Y-104000284D01*
X96897674Y-103820256D01*
X96917460Y-103632000D01*
X96897674Y-103443744D01*
X96839179Y-103263716D01*
X96744533Y-103099784D01*
X96617871Y-102959112D01*
X96617870Y-102959111D01*
X96464734Y-102847851D01*
X96464729Y-102847848D01*
X96291807Y-102770857D01*
X96291802Y-102770855D01*
X96146001Y-102739865D01*
X96106646Y-102731500D01*
X95917354Y-102731500D01*
X95884897Y-102738398D01*
X95732197Y-102770855D01*
X95732192Y-102770857D01*
X95559270Y-102847848D01*
X95559265Y-102847851D01*
X95406129Y-102959111D01*
X95279466Y-103099785D01*
X95184821Y-103263715D01*
X95184818Y-103263722D01*
X95154884Y-103355851D01*
X95126326Y-103443744D01*
X95106540Y-103632000D01*
X83108575Y-103632000D01*
X83384805Y-103410532D01*
X84258493Y-102761014D01*
X85155319Y-102143838D01*
X85211700Y-102108000D01*
X101710540Y-102108000D01*
X101730326Y-102296256D01*
X101730327Y-102296259D01*
X101788818Y-102476277D01*
X101788821Y-102476284D01*
X101883467Y-102640216D01*
X101965660Y-102731500D01*
X102010129Y-102780888D01*
X102163265Y-102892148D01*
X102163270Y-102892151D01*
X102336192Y-102969142D01*
X102336197Y-102969144D01*
X102521354Y-103008500D01*
X102521355Y-103008500D01*
X102710644Y-103008500D01*
X102710646Y-103008500D01*
X102895803Y-102969144D01*
X103068730Y-102892151D01*
X103221871Y-102780888D01*
X103348533Y-102640216D01*
X103443179Y-102476284D01*
X103501674Y-102296256D01*
X103521460Y-102108000D01*
X103501674Y-101919744D01*
X103443179Y-101739716D01*
X103348533Y-101575784D01*
X103221871Y-101435112D01*
X103189708Y-101411744D01*
X103068734Y-101323851D01*
X103068729Y-101323848D01*
X102895807Y-101246857D01*
X102895802Y-101246855D01*
X102750001Y-101215865D01*
X102710646Y-101207500D01*
X102521354Y-101207500D01*
X102488897Y-101214398D01*
X102336197Y-101246855D01*
X102336192Y-101246857D01*
X102163270Y-101323848D01*
X102163265Y-101323851D01*
X102010129Y-101435111D01*
X101883466Y-101575785D01*
X101788821Y-101739715D01*
X101788818Y-101739722D01*
X101730327Y-101919740D01*
X101730326Y-101919744D01*
X101710540Y-102108000D01*
X85211700Y-102108000D01*
X86074087Y-101559828D01*
X87013572Y-101009763D01*
X87972519Y-100494377D01*
X88824169Y-100076000D01*
X108314540Y-100076000D01*
X108334326Y-100264256D01*
X108334327Y-100264259D01*
X108392818Y-100444277D01*
X108392821Y-100444284D01*
X108487467Y-100608216D01*
X108569660Y-100699500D01*
X108614129Y-100748888D01*
X108767265Y-100860148D01*
X108767270Y-100860151D01*
X108940192Y-100937142D01*
X108940197Y-100937144D01*
X109125354Y-100976500D01*
X109125355Y-100976500D01*
X109314644Y-100976500D01*
X109314646Y-100976500D01*
X109499803Y-100937144D01*
X109672730Y-100860151D01*
X109825871Y-100748888D01*
X109952533Y-100608216D01*
X110047179Y-100444284D01*
X110105674Y-100264256D01*
X110125460Y-100076000D01*
X110105674Y-99887744D01*
X110047179Y-99707716D01*
X109952533Y-99543784D01*
X109825871Y-99403112D01*
X109825870Y-99403111D01*
X109672734Y-99291851D01*
X109672729Y-99291848D01*
X109499807Y-99214857D01*
X109499802Y-99214855D01*
X109354001Y-99183865D01*
X109314646Y-99175500D01*
X109125354Y-99175500D01*
X109092897Y-99182398D01*
X108940197Y-99214855D01*
X108940192Y-99214857D01*
X108767270Y-99291848D01*
X108767265Y-99291851D01*
X108614129Y-99403111D01*
X108487466Y-99543785D01*
X108392821Y-99707715D01*
X108392818Y-99707722D01*
X108348491Y-99844148D01*
X108334326Y-99887744D01*
X108314540Y-100076000D01*
X88824169Y-100076000D01*
X88949650Y-100014357D01*
X89943660Y-99570344D01*
X90953223Y-99162930D01*
X91237817Y-99060000D01*
X101202540Y-99060000D01*
X101222326Y-99248256D01*
X101222327Y-99248259D01*
X101280818Y-99428277D01*
X101280821Y-99428284D01*
X101375467Y-99592216D01*
X101502129Y-99732888D01*
X101655265Y-99844148D01*
X101655270Y-99844151D01*
X101828192Y-99921142D01*
X101828197Y-99921144D01*
X102013354Y-99960500D01*
X102013355Y-99960500D01*
X102202644Y-99960500D01*
X102202646Y-99960500D01*
X102387803Y-99921144D01*
X102560730Y-99844151D01*
X102713871Y-99732888D01*
X102840533Y-99592216D01*
X102935179Y-99428284D01*
X102993674Y-99248256D01*
X103013460Y-99060000D01*
X102993674Y-98871744D01*
X102935179Y-98691716D01*
X102840533Y-98527784D01*
X102713871Y-98387112D01*
X102713870Y-98387111D01*
X102560734Y-98275851D01*
X102560729Y-98275848D01*
X102387807Y-98198857D01*
X102387802Y-98198855D01*
X102230756Y-98165475D01*
X102202646Y-98159500D01*
X102013354Y-98159500D01*
X101985244Y-98165475D01*
X101828197Y-98198855D01*
X101828192Y-98198857D01*
X101655270Y-98275848D01*
X101655265Y-98275851D01*
X101502129Y-98387111D01*
X101375466Y-98527785D01*
X101280821Y-98691715D01*
X101280818Y-98691722D01*
X101222327Y-98871740D01*
X101222326Y-98871744D01*
X101202540Y-99060000D01*
X91237817Y-99060000D01*
X91976992Y-98792660D01*
X93013601Y-98460027D01*
X94061667Y-98165475D01*
X95119792Y-97909397D01*
X96186563Y-97692134D01*
X97260557Y-97513977D01*
X98340341Y-97375164D01*
X99424475Y-97275879D01*
X100511512Y-97216255D01*
X101600000Y-97196371D01*
X102688488Y-97216255D01*
G37*
%TD.AperFunction*%
%TD*%
M02*
